<svg width="40" height="40" viewBox="0 0 40 40" fill="none" xmlns="http://www.w3.org/2000/svg">
<rect width="40" height="40" rx="12" fill="#DCE1E8"/>
<path d="M17.663 25H22.336M20 11V12M26.364 13.636L25.657 14.343M29 20H28M12 20H11M14.343 14.343L13.636 13.636M16.464 23.536C15.7649 22.8367 15.2888 21.9458 15.096 20.9759C14.9032 20.006 15.0023 19.0008 15.3807 18.0872C15.7592 17.1737 16.4001 16.3928 17.2223 15.8435C18.0445 15.2941 19.0111 15.0009 20 15.0009C20.9889 15.0009 21.9555 15.2941 22.7777 15.8435C23.5999 16.3928 24.2408 17.1737 24.6193 18.0872C24.9977 19.0008 25.0968 20.006 24.904 20.9759C24.7112 21.9458 24.2351 22.8367 23.536 23.536L22.988 24.083C22.6747 24.3963 22.4262 24.7683 22.2567 25.1777C22.0872 25.5871 21.9999 26.0259 22 26.469V27C22 27.5304 21.7893 28.0391 21.4142 28.4142C21.0391 28.7893 20.5304 29 20 29C19.4696 29 18.9609 28.7893 18.5858 28.4142C18.2107 28.0391 18 27.5304 18 27V26.469C18 25.574 17.644 24.715 17.012 24.083L16.464 23.536Z" stroke="#18181B" stroke-width="2" stroke-linecap="round" stroke-linejoin="round"/>
</svg>
