<svg width="32" height="32" viewBox="0 0 32 32" fill="none" xmlns="http://www.w3.org/2000/svg">
<path d="M12.2998 23.9167H19.6987M16 1.75V3.33333M26.0763 5.92367L24.9569 7.04308M30.25 16H28.6667M3.33333 16H1.75M7.04308 7.04308L5.92367 5.92367M10.4013 21.5987C9.29438 20.4914 8.54059 19.0808 8.2353 17.5452C7.93 16.0095 8.0869 14.4179 8.68615 12.9714C9.28541 11.525 10.3001 10.2887 11.602 9.41886C12.9038 8.54906 14.4343 8.08481 16 8.08481C17.5657 8.08481 19.0962 8.54906 20.398 9.41886C21.6999 10.2887 22.7146 11.525 23.3138 12.9714C23.9131 14.4179 24.07 16.0095 23.7647 17.5452C23.4594 19.0808 22.7056 20.4914 21.5987 21.5987L20.731 22.4648C20.235 22.9609 19.8415 23.5499 19.5731 24.1981C19.3047 24.8463 19.1666 25.541 19.1667 26.2426V27.0833C19.1667 27.9232 18.833 28.7286 18.2392 29.3225C17.6453 29.9164 16.8399 30.25 16 30.25C15.1601 30.25 14.3547 29.9164 13.7608 29.3225C13.167 28.7286 12.8333 27.9232 12.8333 27.0833V26.2426C12.8333 24.8255 12.2697 23.4654 11.269 22.4648L10.4013 21.5987Z" stroke="#18181B" stroke-width="3" stroke-linecap="round" stroke-linejoin="round"/>
</svg>
