<svg width="40" height="40" viewBox="0 0 40 40" fill="none" xmlns="http://www.w3.org/2000/svg">
<rect width="40" height="40" rx="12" fill="#DCE1E8"/>
<path d="M17 25V15M17 25C17 25.5304 16.7893 26.0391 16.4142 26.4142C16.0391 26.7893 15.5304 27 15 27H13C12.4696 27 11.9609 26.7893 11.5858 26.4142C11.2107 26.0391 11 25.5304 11 25V15C11 14.4696 11.2107 13.9609 11.5858 13.5858C11.9609 13.2107 12.4696 13 13 13H15C15.5304 13 16.0391 13.2107 16.4142 13.5858C16.7893 13.9609 17 14.4696 17 15M17 25C17 25.5304 17.2107 26.0391 17.5858 26.4142C17.9609 26.7893 18.4696 27 19 27H21C21.5304 27 22.0391 26.7893 22.4142 26.4142C22.7893 26.0391 23 25.5304 23 25M17 15C17 14.4696 17.2107 13.9609 17.5858 13.5858C17.9609 13.2107 18.4696 13 19 13H21C21.5304 13 22.0391 13.2107 22.4142 13.5858C22.7893 13.9609 23 14.4696 23 15M23 25V15M23 25C23 25.5304 23.2107 26.0391 23.5858 26.4142C23.9609 26.7893 24.4696 27 25 27H27C27.5304 27 28.0391 26.7893 28.4142 26.4142C28.7893 26.0391 29 25.5304 29 25V15C29 14.4696 28.7893 13.9609 28.4142 13.5858C28.0391 13.2107 27.5304 13 27 13H25C24.4696 13 23.9609 13.2107 23.5858 13.5858C23.2107 13.9609 23 14.4696 23 15" stroke="#18181B" stroke-width="2" stroke-linecap="round" stroke-linejoin="round"/>
</svg>
