<svg width="32" height="26" viewBox="0 0 32 26" fill="none" xmlns="http://www.w3.org/2000/svg">
<path d="M11.25 20.9167V5.08341M11.25 20.9167C11.25 21.7566 10.9164 22.5621 10.3225 23.1559C9.72864 23.7498 8.92319 24.0834 8.08333 24.0834H4.91667C4.07681 24.0834 3.27136 23.7498 2.6775 23.1559C2.08363 22.5621 1.75 21.7566 1.75 20.9167V5.08341C1.75 4.24356 2.08363 3.43811 2.6775 2.84424C3.27136 2.25038 4.07681 1.91675 4.91667 1.91675H8.08333C8.92319 1.91675 9.72864 2.25038 10.3225 2.84424C10.9164 3.43811 11.25 4.24356 11.25 5.08341M11.25 20.9167C11.25 21.7566 11.5836 22.5621 12.1775 23.1559C12.7714 23.7498 13.5768 24.0834 14.4167 24.0834H17.5833C18.4232 24.0834 19.2286 23.7498 19.8225 23.1559C20.4164 22.5621 20.75 21.7566 20.75 20.9167M11.25 5.08341C11.25 4.24356 11.5836 3.43811 12.1775 2.84424C12.7714 2.25038 13.5768 1.91675 14.4167 1.91675H17.5833C18.4232 1.91675 19.2286 2.25038 19.8225 2.84424C20.4164 3.43811 20.75 4.24356 20.75 5.08341M20.75 20.9167V5.08341M20.75 20.9167C20.75 21.7566 21.0836 22.5621 21.6775 23.1559C22.2714 23.7498 23.0768 24.0834 23.9167 24.0834H27.0833C27.9232 24.0834 28.7286 23.7498 29.3225 23.1559C29.9164 22.5621 30.25 21.7566 30.25 20.9167V5.08341C30.25 4.24356 29.9164 3.43811 29.3225 2.84424C28.7286 2.25038 27.9232 1.91675 27.0833 1.91675H23.9167C23.0768 1.91675 22.2714 2.25038 21.6775 2.84424C21.0836 3.43811 20.75 4.24356 20.75 5.08341" stroke="#18181B" stroke-width="3" stroke-linecap="round" stroke-linejoin="round"/>
</svg>
