<svg width="40" height="40" viewBox="0 0 40 40" fill="none" xmlns="http://www.w3.org/2000/svg">
<g id="down-arrow-circle_svgrepo.com">
<g id="Group">
<path id="Vector" d="M19.715 23.8588C19.8682 23.998 20.0602 24.0664 20.2518 24.0664C20.2822 24.0664 20.3122 24.0604 20.343 24.0572C20.3542 24.0576 20.3658 24.0604 20.377 24.0604C20.595 24.0604 20.8122 23.9716 20.9698 23.7976L27.0622 17.076C27.359 16.7488 27.3342 16.2428 27.0066 15.9464C26.6794 15.6492 26.1734 15.6748 25.877 16.002L20.2622 22.196L14.0674 16.5812C13.7398 16.2836 13.2342 16.3092 12.9378 16.6368C12.641 16.964 12.6658 17.47 12.9934 17.7664L19.715 23.8588Z" fill="black"/>
<path id="Vector_2" d="M20 33.2855C27.3796 33.2855 33.3832 27.2819 33.3832 19.9027C33.3832 12.5231 27.3796 6.51953 20 6.51953C12.6208 6.51953 6.61719 12.5231 6.61719 19.9027C6.61719 27.2819 12.6208 33.2855 20 33.2855ZM20 8.11953C26.4972 8.11953 31.7832 13.4055 31.7832 19.9027C31.7832 26.3995 26.4972 31.6855 20 31.6855C13.5032 31.6855 8.21719 26.3995 8.21719 19.9027C8.21719 13.4055 13.5032 8.11953 20 8.11953Z" fill="black"/>
</g>
</g>
</svg>
