<svg width="61" height="60" viewBox="0 0 61 60" fill="none" xmlns="http://www.w3.org/2000/svg">
<g id="rat-extermination_svgrepo.com" clip-path="url(#clip0_613_731)">
<g id="Group">
<path id="Vector" d="M23.934 47.243C24.5285 47.243 24.2838 46.4063 23.6539 46.4063C16.7184 46.2918 13.7551 45.5232 14.3333 43.7618C14.597 42.9612 15.8816 41.9833 17.3499 40.7209C17.9254 40.2263 18.489 39.4508 19.0147 38.5494C21.9134 40.2633 25.3971 40.6408 25.8021 41.2914C26.3207 42.1237 27.3134 43.5584 26.1804 44.8811C25.0464 46.203 25.9916 47.7151 25.9916 47.7151C25.9916 47.7151 29.3926 47.7151 31.8484 47.7151C34.3051 47.7151 33.9276 47.9038 34.6832 47.3369C35.7518 46.5346 33.5493 45.4472 32.038 45.4472C30.5266 45.4472 26.9361 45.4472 30.7154 41.6689C31.6175 40.7658 31.8907 39.686 32.113 38.4573L17.8058 24.1501C16.1074 26.256 15.032 28.8161 15.032 31.8423C15.032 34.392 16.0504 36.1585 17.4594 37.4216C16.6209 38.9322 15.5912 40.3452 14.4082 41.3896C11.1855 44.2332 10.0653 47.243 23.934 47.243Z" fill="black"/>
<path id="Vector_2" d="M51.7127 8.78648C46.2928 3.36223 38.7747 -0.000937304 30.5 1.95949e-07C22.2245 -0.000937304 14.7064 3.36223 9.28742 8.78648C3.86235 14.2064 0.49836 21.7254 0.500001 30C0.49836 38.2764 3.86235 45.7945 9.28742 51.2135C14.7064 56.6377 22.2245 60.0016 30.5 60C38.7747 60.0016 46.2928 56.6377 51.7127 51.2135C57.1378 45.7945 60.5018 38.2764 60.5 30C60.5018 21.7254 57.1378 14.2064 51.7127 8.78648ZM30.5 54.3311C23.772 54.3301 17.7077 51.6124 13.295 47.205C8.88852 42.7924 6.1707 36.728 6.16895 30C6.1707 24.0716 8.28254 18.6587 11.8007 14.4382L46.0626 48.7C41.8422 52.2165 36.4292 54.3302 30.5 54.3311ZM49.7955 44.813L37.8931 32.9107C38.4187 33.083 39.0056 33.2261 39.6905 33.2606C41.4303 33.3503 41.5802 35.7164 41.5802 35.7164C41.5802 35.7164 42.037 36.9417 42.7142 35.7164C43.3916 34.4903 42.903 37.0382 43.6586 36.2834C45.17 34.772 44.0369 32.3145 41.5802 31.7483C39.1237 31.1814 36.7626 27.6855 39.408 26.1742C41.1822 25.1609 48.6159 21.995 48.6159 21.995C51.5042 19.5574 50.8718 19.1016 50.5511 18.1356C50.2367 17.1921 45.0295 14.8414 42.423 14.663C42.3791 13.1878 41.1771 12.0021 39.6907 12.0021C38.1775 12.0021 36.9514 13.2291 36.9514 14.7414C36.9514 15.2214 37.085 15.666 37.3022 16.058C35.8718 16.3786 34.2139 16.6818 32.4216 16.8749C29.8332 17.154 26.9224 17.9433 24.2306 19.2479L15.6862 10.7036C19.7902 7.54734 24.9155 5.67152 30.5 5.66977C37.228 5.67141 43.2924 8.38746 47.705 12.795C52.1117 17.2076 54.8294 23.273 54.8311 30C54.8294 35.5845 52.9517 40.7088 49.7955 44.813Z" fill="black"/>
</g>
</g>
<defs>
<clipPath id="clip0_613_731">
<rect width="60" height="60" fill="white" transform="translate(0.5)"/>
</clipPath>
</defs>
</svg>
