<svg xmlns="http://www.w3.org/2000/svg" viewBox="0 0 264.21 236.27"><defs><style>.f3040cc8-040d-4585-bc18-f6c11a142404{fill:#542f88;}.a12dc7e4-e102-46dc-b366-b25e340f84cc{fill:#644193;}.e13c73bf-0021-4145-8fbb-1edbf12872bc{fill:#78569f;}.ba72415e-527f-4244-b785-3fe3e44d4832{fill:#fff;}</style></defs><g id="b83b9832-9a2a-4804-ac57-bacf2d5f499b" data-name="Diseño"><path class="f3040cc8-040d-4585-bc18-f6c11a142404" d="M68.17,94c12.57-36.18,55.11-58.49,102.54-46.5-2.06-1-11.51-5.27-13.7-6C118.64,28.12,70.33,47,55.19,89.47c-13.63,38.27,7,80.28,45.33,93.62q3.28,1.14,6.6,1.95A73.55,73.55,0,0,1,68.17,94Z"/><path class="a12dc7e4-e102-46dc-b366-b25e340f84cc" d="M133.82,49.82c41.34,1.41,64.36,30.59,68.35,66.3a80.47,80.47,0,0,1-28.85,70.67c23.4-9.15,42.9-45.47,39.53-75.65C208.59,73,173.34,42.59,133.82,49.82Z"/><path class="e13c73bf-0021-4145-8fbb-1edbf12872bc" d="M121.27,190.82a81.79,81.79,0,0,1-52.16-18.69,73.56,73.56,0,0,0,127.61-30.94A82.15,82.15,0,0,1,121.27,190.82Z"/><path class="ba72415e-527f-4244-b785-3fe3e44d4832" d="M155,82.67a21.49,21.49,0,0,0-14.78,2.46,24.37,24.37,0,0,0-7.43,6.65c-1.3,1.67-2.47,3.43-3.73,5.2a3.38,3.38,0,0,1,1.6,2.61,4.06,4.06,0,0,1-.42,1.83c-.76,1.41-2.1,1.84-4,1.38l-15.88,34.85a3.43,3.43,0,0,1,1.41,2.92,3.18,3.18,0,0,1-3.39,3c-.26,0-.68.06-.76.23-.7,1.41-1.33,2.86-2,4.36l.88.18a3.23,3.23,0,0,1,2.54,3.21,3.17,3.17,0,0,1-2.74,3,10.05,10.05,0,0,1-2.57,0,51.52,51.52,0,0,0-11.84,0c-2.42.25-4.2-.21-5.06-2.34l0-1.57c.7-1.9,2.13-2.54,4.07-2.49,2.34.06,4.68,0,7,0a1.09,1.09,0,0,0,.84-.43c1.1-2.31,2.14-4.65,3.2-7-1.83-1.85-2.21-3.13-1.38-4.58s2.09-1.84,4.05-1.41a5.44,5.44,0,0,0,.29-.54q7.55-16.56,15.1-33.13a1.68,1.68,0,0,0-.05-2,2.77,2.77,0,0,1,0-3.3,3.26,3.26,0,0,1,3-1.51,1.08,1.08,0,0,0,.79-.5,50.71,50.71,0,0,1,7.45-9.63,28.63,28.63,0,0,1,17.19-8.09,24.43,24.43,0,0,1,14.16,2.31s15.79,6.47,11.55,26.71c-1.66,6.8-6.77,10.92-8.94,12.4a.63.63,0,0,1-1-.52V107s-.1-1.61,1.26-1.1C166.17,106.18,173.28,89.32,155,82.67Z"/><path class="ba72415e-527f-4244-b785-3fe3e44d4832" d="M144,154.6H129.82a3.82,3.82,0,0,1-3.93-4.68c1-6.1,1.8-12.23,2.9-18.3,1.22-6.78,3.89-12.92,9-17.75A23.32,23.32,0,0,1,154.12,107c1.9,0,3.8,0,5.69,0,.65,0,.91.25.91.89v25.45a2.32,2.32,0,0,1-.06.27c-7-2.49-13-1.12-17.21,5.09C139.91,143.84,140.44,149.27,144,154.6Z"/><path class="ba72415e-527f-4244-b785-3fe3e44d4832" d="M144.28,146.14a10.62,10.62,0,1,1,10.66,10.61A10.61,10.61,0,0,1,144.28,146.14Zm10.42-5.26a5.22,5.22,0,0,0-5.07,5.5,5.27,5.27,0,1,0,5.07-5.5Z"/></g></svg>