<svg xmlns="http://www.w3.org/2000/svg" viewBox="0 0 264.21 236.27"><defs><style>.adf99a90-990a-4ef0-b99f-7648cacdf19f{fill:#1e81ad;}.a543a5b4-9f39-4aa6-8380-8e2960045b53{fill:#2791cc;}.a50fe11e-d866-4750-91c9-7a2f83307301{fill:#52a3d2;}.bf307fb3-0ed2-4e97-a628-3c484a7cf534{fill:#fff;}</style></defs><g id="f09ca408-0e95-4e7a-adc9-476343e0c455" data-name="Diseño"><path class="adf99a90-990a-4ef0-b99f-7648cacdf19f" d="M70.43,99.25c12.93-37.19,56.65-60.12,105.41-47.8-2.12-1-11.83-5.42-14.08-6.2C122.31,31.54,72.65,50.93,57.09,94.61c-14,39.34,7.15,82.53,46.59,96.24,2.25.78,4.52,1.45,6.78,2A75.63,75.63,0,0,1,70.43,99.25Z"/><path class="a543a5b4-9f39-4aa6-8380-8e2960045b53" d="M137.92,53.84c42.49,1.46,66.16,31.45,70.26,68.17a82.71,82.71,0,0,1-29.66,72.64c24.06-9.4,44.11-46.74,40.64-77.77C214.78,77.64,178.54,46.41,137.92,53.84Z"/><path class="a50fe11e-d866-4750-91c9-7a2f83307301" d="M125,198.8A84.09,84.09,0,0,1,71.4,179.59a75.62,75.62,0,0,0,131.18-31.82A84.44,84.44,0,0,1,125,198.8Z"/><path class="bf307fb3-0ed2-4e97-a628-3c484a7cf534" d="M175.43,120.47a5.49,5.49,0,0,0-4.75,2.75h-5a28.71,28.71,0,0,0-6.47-15.6l3.53-3.54a5.49,5.49,0,1,0-3.88-3.88l-3.54,3.54a28.65,28.65,0,0,0-15.59-6.48v-5a5.49,5.49,0,1,0-5.5,0v5a28.65,28.65,0,0,0-15.59,6.48l-3.54-3.54a5.49,5.49,0,1,0-3.88,3.88l3.53,3.54a28.71,28.71,0,0,0-6.47,15.6h-5a5.49,5.49,0,1,0,0,5.49h5a28.77,28.77,0,0,0,6.47,15.6l-3.53,3.53a5.5,5.5,0,1,0,3.88,3.89l3.54-3.54a28.71,28.71,0,0,0,15.59,6.47v5a5.49,5.49,0,1,0,5.5,0v-5a28.71,28.71,0,0,0,15.59-6.47l3.54,3.54a5.48,5.48,0,1,0,3.88-3.89l-3.53-3.53a28.77,28.77,0,0,0,6.47-15.6h5a5.49,5.49,0,1,0,4.75-8.24Zm-45.15,0a4.81,4.81,0,1,1,4.8-4.8A4.81,4.81,0,0,1,130.28,120.47Zm-.78,25.26a5.49,5.49,0,1,1,5.49-5.49A5.49,5.49,0,0,1,129.5,145.73Zm24-11.53a4.12,4.12,0,1,1,4.12-4.12A4.12,4.12,0,0,1,153.46,134.2Z"/></g></svg>