<svg xmlns="http://www.w3.org/2000/svg" viewBox="0 0 264.21 236.27"><defs><style>.eb8c25d7-7e9e-4501-898d-254d057b8d09{fill:#b54227;}.fc57407a-374c-4a50-bc68-dcc5a83d108f{fill:#ef7912;}.b140de55-60d1-4a47-963b-44ff7edd8c6b{fill:#f28a31;}.f0514d0e-80c5-406e-b763-50837b8e13b7{fill:#fff;}</style></defs><g id="f84a4eda-187f-47f1-adef-22228f5222b1" data-name="Diseño"><path class="eb8c25d7-7e9e-4501-898d-254d057b8d09" d="M70,99.24C82.93,62,126.67,39.09,175.45,51.42c-2.12-1-11.84-5.42-14.09-6.2C121.9,31.5,72.21,50.9,56.64,94.6c-14,39.35,7.16,82.56,46.62,96.28,2.25.78,4.52,1.45,6.79,2A75.64,75.64,0,0,1,70,99.24Z"/><path class="fc57407a-374c-4a50-bc68-dcc5a83d108f" d="M137.51,53.81C180,55.27,203.7,85.27,207.81,122a82.75,82.75,0,0,1-29.68,72.67c24.07-9.4,44.13-46.76,40.66-77.8C214.41,77.62,178.15,46.38,137.51,53.81Z"/><path class="b140de55-60d1-4a47-963b-44ff7edd8c6b" d="M124.61,198.83A84.13,84.13,0,0,1,71,179.61,75.65,75.65,0,0,0,202.2,147.78,84.48,84.48,0,0,1,124.61,198.83Z"/><path class="f0514d0e-80c5-406e-b763-50837b8e13b7" d="M150.93,174c-.31-.29-.61-.57-.93-.84a26.74,26.74,0,0,0-15.21-6.4v-8.24c1.66-.81,4-.94,6.59-1.1,5.27-.32,11.83-.71,17.41-6.8,7.16-7.83,8.68-22,7.1-25.57a2,2,0,0,0-1.88-1.43,2.07,2.07,0,0,0-1.31.5c-1.45,1.16-4,1.3-7,1.47-5.26.28-11.8.63-17.18,6.51a24.58,24.58,0,0,0-3.7,5.43V118.41a27.73,27.73,0,0,1,5.58-4c5.21-3.15,11.7-7.06,14.12-16.23,2.82-10.68-2-24.37-5.3-28.72-.94-1.21-1.82-1.8-2.71-1.8A2,2,0,0,0,144.62,69c-.89,2-3.49,3.58-6.51,5.38-5.22,3.1-11.7,7-14,15.81-2.94,11.16,2.11,24.21,5.34,28.4l.26.31v10.35A19.4,19.4,0,0,0,123,118.92c-5.88-4.81-14.77-6.51-20.58-6.51-5.64,0-6.3,1.48-6.52,2a1.91,1.91,0,0,0,.42,2.12c1.24,1.38,1.52,4,1.85,6.94.57,5.23,1.29,11.74,7.46,16.78,5.77,4.72,14.16,6.4,20.09,6.4a20.31,20.31,0,0,0,3.91-.32v20.55a26.67,26.67,0,0,0-14.59,6.33c-.32.27-.62.55-.92.84C114.16,174,130.5,187.62,150.93,174Zm-27.66-36.66-.24-.24-.12-.12,0,0h0l0,0h0l-.06-.05-.46-.41c-.33-.26-.65-.53-1-.79a36.57,36.57,0,0,0-4.79-2.89c-1.75-.93-3.61-1.84-5.33-2.91a24.5,24.5,0,0,1-2.43-1.72,13.92,13.92,0,0,1-2-2,9,9,0,0,1-1.23-2,4.68,4.68,0,0,1-.18-.48,4.59,4.59,0,0,1-.15-.44c-.07-.3-.13-.56-.18-.8s0-.47-.07-.66,0-.34,0-.47,0-.39,0-.39.08.11.22.33.15.24.25.38l.36.48.47.55c.2.18.36.4.6.58a9.84,9.84,0,0,0,1.54,1.17,18,18,0,0,0,2,1.09c.75.36,1.56.7,2.43,1.06,1.72.72,3.65,1.5,5.57,2.5a26.25,26.25,0,0,1,2.81,1.7,17.68,17.68,0,0,1,2.5,2.13c.38.38.73.79,1.06,1.19l.45.63.06.07,0,0s0,.05,0,.05h0l0,0,.09.15.18.29c.46.76.89,1.5,1.27,2.19.18.35.37.68.53,1s.32.63.45.93c.28.59.51,1.11.68,1.55.37.87.53,1.39.53,1.39s-.46-.3-1.19-.87-1.72-1.43-2.9-2.48C124.53,138.56,123.91,138,123.27,137.35Zm9.47-22.77c.18-.54.41-1.18.69-1.91s.61-1.55,1-2.45.77-1.85,1.22-2.85c0-.13.11-.25.17-.38l.09-.19,0,0h0l0,0v0l0-.09.27-.72c.16-.5.34-1,.48-1.52a41.66,41.66,0,0,0,1.23-6.84c.28-2.43.48-5,.91-7.4a27.81,27.81,0,0,1,.83-3.52,16,16,0,0,1,1.3-3.09,10.7,10.7,0,0,1,1.69-2.31,4.44,4.44,0,0,1,.44-.43l.43-.37c.29-.22.55-.41.8-.57l.7-.4c.2-.1.38-.16.52-.22l.44-.17-.28.37c-.09.13-.22.27-.35.45s-.25.38-.41.6l-.44.77c-.13.3-.31.59-.44.93l-.21.52-.18.56c-.07.18-.12.39-.18.59s-.11.41-.15.62a22.11,22.11,0,0,0-.42,2.82c-.09,1-.14,2.12-.18,3.27-.07,2.3-.11,4.85-.4,7.48a31.84,31.84,0,0,1-.68,3.94,21.67,21.67,0,0,1-1.26,3.77,18.44,18.44,0,0,1-.87,1.72l-.49.8-.06.1,0,0,0,.06h0l0,0-.12.17-.24.33c-.66.89-1.29,1.71-1.89,2.47-.3.37-.59.74-.87,1.07l-.83,1q-.81.89-1.41,1.5c-.8.83-1.3,1.27-1.3,1.27S132.37,115.65,132.74,114.58Zm9.41,33h0l.05-.05.45-.41c.29-.3.59-.58.88-.9a36.47,36.47,0,0,0,3.33-4.35c1.09-1.61,2.19-3.31,3.41-4.87a24.25,24.25,0,0,1,1.94-2.18,12.47,12.47,0,0,1,2.12-1.69,8.59,8.59,0,0,1,2.11-1l.48-.13.45-.09.8-.09h.65a2.56,2.56,0,0,1,.45,0l.38.05-.34.18-.41.21-.5.29-.59.4c-.19.17-.42.31-.63.52a10.28,10.28,0,0,0-1.3,1.38,17.83,17.83,0,0,0-1.28,1.84c-.43.69-.85,1.45-1.29,2.25-.89,1.61-1.86,3.4-3,5.16a24.72,24.72,0,0,1-2,2.55,17.41,17.41,0,0,1-2.34,2.21,12.22,12.22,0,0,1-1.28.89l-.65.38-.09.05h0l0,0h0l0,0-.15.08-.3.14c-.8.37-1.56.7-2.27,1l-1,.41-1,.34c-.6.2-1.13.37-1.58.49-.88.26-1.41.37-1.41.37s.34-.42,1-1.07,1.58-1.52,2.72-2.56c.58-.51,1.21-1.05,1.89-1.6.09-.07.17-.15.26-.21l.13-.11,0,0h0Z"/></g></svg>