<?xml version="1.0" encoding="UTF-8"?><svg xmlns="http://www.w3.org/2000/svg" viewBox="0 0 264.21 236.27"><defs><style>.eb2e28f0-9e84-4e74-9257-47f4e976b965{fill:#028537;}.b832822d-9ffa-4483-88bd-d71680fb75f0{fill:#70b62e;}.f4635e63-9dcd-4b89-b90b-65148afc675d{fill:#9bc31e;}.b1fa2032-4251-4da9-9f24-5827d5899b6e{fill:#fff;}</style></defs><g id="a1ab2ba9-8274-4700-b5c9-fa39712ff332" data-name="Diseño"><path class="eb2e28f0-9e84-4e74-9257-47f4e976b965" d="M66.63,95.68c13.13-37.77,57.53-61.06,107.05-48.55-2.16-1-12-5.5-14.3-6.29C119.32,26.92,68.89,46.61,53.08,91c-14.23,39.94,7.27,83.8,47.32,97.72q3.43,1.2,6.89,2.05A76.8,76.8,0,0,1,66.63,95.68Z"/><path class="b832822d-9ffa-4483-88bd-d71680fb75f0" d="M135.17,49.57c43.15,1.48,67.19,31.93,71.35,69.22a84,84,0,0,1-30.12,73.77c24.43-9.55,44.79-47.47,41.27-79C213.22,73.73,176.42,42,135.17,49.57Z"/><path class="f4635e63-9dcd-4b89-b90b-65148afc675d" d="M122.07,196.77a85.35,85.35,0,0,1-54.45-19.51A76.79,76.79,0,0,0,200.83,145,85.75,85.75,0,0,1,122.07,196.77Z"/><path class="b1fa2032-4251-4da9-9f24-5827d5899b6e" d="M168.65,127l-8.54-4.27a2.3,2.3,0,0,0-1-.23H157c0,.71.07,1.41.07,2.14s0,1.42-.07,2.13h1.69l8.09,4a2.14,2.14,0,0,0,2.86-1A2.11,2.11,0,0,0,168.65,127Z"/><path class="b1fa2032-4251-4da9-9f24-5827d5899b6e" d="M159.15,96.7A2.13,2.13,0,0,0,157,98.83v11.49l-1.55.77c.34,1.41.62,2.87.85,4.36l3.79-1.89a2.12,2.12,0,0,0,1.18-1.91V98.83A2.13,2.13,0,0,0,159.15,96.7Z"/><path class="b1fa2032-4251-4da9-9f24-5827d5899b6e" d="M160.11,139.79l-4.54-2.27c-.35,1.46-.72,2.85-1.16,4.2L157,143v11.64a2.14,2.14,0,0,0,4.27,0v-13A2.1,2.1,0,0,0,160.11,139.79Z"/><path class="b1fa2032-4251-4da9-9f24-5827d5899b6e" d="M111.19,137.51l-4.54,2.26a2.12,2.12,0,0,0-1.18,1.91v13a2.14,2.14,0,1,0,4.27,0V143l2.61-1.3C111.9,140.37,111.52,139,111.19,137.51Z"/><path class="b1fa2032-4251-4da9-9f24-5827d5899b6e" d="M109.81,122.47H107.6a2,2,0,0,0-.95.23L98.11,127a2.13,2.13,0,1,0,1.9,3.82l8.09-4h1.7c0-.71-.07-1.41-.07-2.13S109.78,123.18,109.81,122.47Z"/><path class="b1fa2032-4251-4da9-9f24-5827d5899b6e" d="M109.74,110.32V98.83a2.14,2.14,0,0,0-4.27,0v12.82a2.12,2.12,0,0,0,1.18,1.91l3.79,1.89c.23-1.49.51-3,.85-4.36Z"/><path class="b1fa2032-4251-4da9-9f24-5827d5899b6e" d="M133.38,92.42c-5.23,0-10,3.34-13.49,8.8a15.27,15.27,0,0,0,13.49,8.29,15.06,15.06,0,0,0,13.36-8.26C143.31,95.77,138.62,92.42,133.38,92.42Z"/><path class="b1fa2032-4251-4da9-9f24-5827d5899b6e" d="M149.17,105.7a19.65,19.65,0,0,1-13.65,7.91v43.18c9.74-1.72,17.23-15.42,17.23-32.18A48.7,48.7,0,0,0,149.17,105.7Z"/><path class="b1fa2032-4251-4da9-9f24-5827d5899b6e" d="M117.6,105.65a49,49,0,0,0-3.59,19c0,16.76,7.49,30.46,17.23,32.18V113.61A19.61,19.61,0,0,1,117.6,105.65Z"/><path class="b1fa2032-4251-4da9-9f24-5827d5899b6e" d="M119.41,83.88H107.6a2.14,2.14,0,0,0,0,4.27h11.81a13.92,13.92,0,0,1,6.64,1.71,17.12,17.12,0,0,1,5.09-1.55A17.79,17.79,0,0,0,119.41,83.88Z"/><path class="b1fa2032-4251-4da9-9f24-5827d5899b6e" d="M159.15,83.88H147.21a17.44,17.44,0,0,0-11.6,4.44,16.88,16.88,0,0,1,5.1,1.54,13.38,13.38,0,0,1,6.5-1.71h11.94a2.14,2.14,0,1,0,0-4.27Z"/></g></svg>
