<svg width="59" height="61" viewBox="0 0 59 61" fill="none" xmlns="http://www.w3.org/2000/svg">
<path d="M42.625 51V6H16.375V51H8.875V54.75H50.125V51H42.625ZM27.625 51V43.5H23.875V51H20.125V9.75H38.875V51H27.625ZM31.375 13.5H35.125V17.25H31.375V13.5ZM23.875 13.5H27.625V17.25H23.875V13.5ZM31.375 21H35.125V24.75H31.375V21ZM23.875 21H27.625V24.75H23.875V21ZM31.375 28.5H35.125V32.25H31.375V28.5ZM23.875 28.5H27.625V32.25H23.875V28.5ZM31.375 36H35.125V39.75H31.375V36ZM23.875 36H27.625V39.75H23.875V36ZM31.375 43.5H35.125V47.25H31.375V43.5Z" fill="white"/>
</svg>
