<svg width="80" height="80" viewBox="0 0 80 80" fill="none" xmlns="http://www.w3.org/2000/svg">
<circle cx="40" cy="40" r="40" fill="#86AE51"/>
<path d="M39.31 52.42C37.6067 52.42 35.915 52.1983 34.235 51.755C32.555 51.2883 31.1317 50.635 29.965 49.795L32.17 45.455C33.1033 46.1317 34.1883 46.6683 35.425 47.065C36.6617 47.4617 37.91 47.66 39.17 47.66C40.5933 47.66 41.7133 47.38 42.53 46.82C43.3467 46.26 43.755 45.49 43.755 44.51C43.755 43.5767 43.3933 42.8417 42.67 42.305C41.9467 41.7683 40.78 41.5 39.17 41.5H36.58V37.755L43.405 30.02L44.035 32.05H31.19V27.5H48.34V31.175L41.55 38.91L38.68 37.265H40.325C43.335 37.265 45.61 37.9417 47.15 39.295C48.69 40.6483 49.46 42.3867 49.46 44.51C49.46 45.8867 49.0983 47.1817 48.375 48.395C47.6517 49.585 46.5433 50.5533 45.05 51.3C43.5567 52.0467 41.6433 52.42 39.31 52.42Z" fill="black"/>
</svg>
