<svg width="80" height="80" viewBox="0 0 80 80" fill="none" xmlns="http://www.w3.org/2000/svg">
<circle cx="40" cy="40" r="40" fill="#86AE51"/>
<path d="M41.32 52.42C39.08 52.42 37.1317 51.9533 35.475 51.02C33.8417 50.0867 32.5817 48.7217 31.695 46.925C30.8083 45.1283 30.365 42.9117 30.365 40.275C30.365 37.4517 30.89 35.06 31.94 33.1C33.0133 31.14 34.4833 29.6467 36.35 28.62C38.24 27.5933 40.41 27.08 42.86 27.08C44.1667 27.08 45.415 27.22 46.605 27.5C47.795 27.78 48.8217 28.2 49.685 28.76L47.585 32.925C46.9083 32.4583 46.185 32.1433 45.415 31.98C44.645 31.7933 43.84 31.7 43 31.7C40.8767 31.7 39.1967 32.3417 37.96 33.625C36.7233 34.9083 36.105 36.81 36.105 39.33C36.105 39.75 36.105 40.2167 36.105 40.73C36.1283 41.2433 36.1983 41.7567 36.315 42.27L34.74 40.8C35.1833 39.89 35.755 39.1317 36.455 38.525C37.155 37.895 37.9833 37.4283 38.94 37.125C39.92 36.7983 40.9933 36.635 42.16 36.635C43.7467 36.635 45.17 36.95 46.43 37.58C47.69 38.21 48.6933 39.0967 49.44 40.24C50.21 41.3833 50.595 42.725 50.595 44.265C50.595 45.9217 50.175 47.3683 49.335 48.605C48.5183 49.8183 47.41 50.7633 46.01 51.44C44.6333 52.0933 43.07 52.42 41.32 52.42ZM41.005 48.185C41.7983 48.185 42.4983 48.045 43.105 47.765C43.735 47.4617 44.225 47.03 44.575 46.47C44.925 45.91 45.1 45.2683 45.1 44.545C45.1 43.425 44.715 42.5383 43.945 41.885C43.1983 41.2083 42.195 40.87 40.935 40.87C40.095 40.87 39.36 41.0333 38.73 41.36C38.1 41.6633 37.5983 42.095 37.225 42.655C36.875 43.1917 36.7 43.8217 36.7 44.545C36.7 45.245 36.875 45.875 37.225 46.435C37.575 46.9717 38.065 47.4033 38.695 47.73C39.325 48.0333 40.095 48.185 41.005 48.185Z" fill="black"/>
</svg>
