<svg width="100" height="75" viewBox="0 0 100 75" fill="none" xmlns="http://www.w3.org/2000/svg">
<path d="M63.7748 17.6132C60.7207 16.9991 52.8489 17.0397 47.6253 19.3351C42.4003 21.6302 32.8994 28.8045 30.0496 29.9545C27.1998 31.1012 26.9618 35.6946 33.3738 36.5541C39.7871 37.4164 45.4866 32.5354 46.9114 31.6761C48.3364 30.8138 62.1117 33.398 62.1117 33.398L66.4457 34.6885L76.438 51.009C78.1913 49.1687 81.6591 45.2626 82.5372 42.2942C82.8577 41.213 83.3337 40.2192 83.856 39.3366L69.6978 15.7417C67.8916 16.9788 65.7117 18.0038 63.7748 17.6132Z" fill="white"/>
<path d="M63.775 37.057L61.675 36.801C58.9198 36.2853 51.1282 34.9448 48.2034 34.9448C48.0741 34.9448 47.972 34.9465 47.8956 34.951C47.778 35.0321 47.6421 35.1261 47.5089 35.2198C45.4337 36.6806 40.5706 40.1005 34.9074 40.1005C34.2867 40.1005 33.6648 40.0583 33.0598 39.9771C32.1418 39.8537 31.3348 39.663 30.6211 39.4225C31.2973 39.7803 31.9205 40.2929 32.4533 40.9506C33.2912 41.985 33.8096 43.2535 34.0152 44.5801C34.5027 44.4222 35.0082 44.3347 35.5254 44.3347C37.1105 44.3347 38.5937 45.0878 39.7003 46.4563C40.7917 47.8032 41.3826 49.5843 41.3658 51.4686C41.3658 51.4872 41.3632 51.5061 41.3632 51.5247C42.9419 51.5309 44.4187 52.2842 45.5228 53.6464C46.614 54.9933 47.205 56.7742 47.1882 58.6586C47.1829 59.3086 47.1003 59.9427 46.9542 60.5523C48.0739 60.8351 49.0993 61.5084 49.919 62.5208C52.1714 65.3035 52.1313 69.7796 49.8298 72.5014L48.6778 73.8638C48.6829 73.8638 48.6882 73.8638 48.6933 73.8638C50.6302 73.6951 52.2606 72.2515 52.7171 70.0765C53.5057 70.8279 54.4987 71.2794 55.5811 71.2794C58.1387 71.2794 60.2125 68.7749 60.2125 65.683C60.2125 65.3581 60.1854 65.0425 60.1401 64.7329C60.9547 65.5907 62.0162 66.114 63.1813 66.114C65.7389 66.114 67.8129 63.6079 67.8129 60.5176C68.3611 60.7942 68.9623 60.9488 69.5933 60.9488C72.1521 60.9488 74.2248 58.4427 74.2248 55.3525C74.2248 53.0057 73.2757 51.4778 71.0181 48.3217L63.775 37.057Z" fill="white"/>
<path d="M30.4174 43.3584C29.2616 41.932 27.3686 41.907 26.1881 43.3022L21.9147 48.3565C20.7343 49.7517 20.7136 52.0391 21.8682 53.4655C23.0241 54.8919 24.9171 54.9169 26.0975 53.52L30.3721 48.4672C31.5512 47.0721 31.5719 44.7848 30.4174 43.3584Z" fill="white"/>
<path d="M37.6619 48.8641C36.5072 47.436 34.6142 47.411 33.4338 48.8077L27.7356 55.5446C26.5537 56.9413 26.5344 59.2286 27.6889 60.6536C28.8436 62.0816 30.7379 62.1067 31.9184 60.71L37.6166 53.9728C38.797 52.5778 38.8177 50.2905 37.6619 48.8641Z" fill="white"/>
<path d="M43.4836 56.0534C42.3289 54.627 40.436 54.6003 39.2555 55.9972L33.5573 62.7358C32.3768 64.1308 32.3561 66.4181 33.5108 67.8462C34.6655 69.2712 36.5585 69.2962 37.7403 67.8993L43.4385 61.1624C44.619 59.7655 44.6397 57.4781 43.4836 56.0534Z" fill="white"/>
<path d="M47.883 64.9302C46.7284 63.5038 44.8354 63.4774 43.6549 64.8741L40.3307 68.8052C39.1503 70.2002 39.1296 72.4875 40.2843 73.9141C41.4401 75.3405 43.3331 75.3641 44.5135 73.9703L47.8377 70.0394C49.0184 68.6442 49.0377 66.3569 47.883 64.9302Z" fill="white"/>
<path d="M99.7276 32.5409L80.6277 0.712165C80.166 -0.0595649 79.2751 -0.229723 78.6376 0.327952L70.1777 7.74128C69.5402 8.29895 69.3981 9.3756 69.8609 10.1457L88.9608 41.9761C89.4224 42.7464 90.3134 42.9182 90.9507 42.3589L99.4121 34.947C100.048 34.3874 100.191 33.311 99.7276 32.5409ZM93.2292 35.4001C92.1677 36.3311 90.6819 36.0437 89.9114 34.761C89.1421 33.4783 89.3786 31.6847 90.4415 30.7537C91.503 29.8224 92.9874 30.1099 93.7581 31.3911C94.5272 32.6752 94.2907 34.4705 93.2292 35.4001Z" fill="white"/>
<path d="M28.2779 38.8274C28.7279 38.8274 29.1675 38.8963 29.5941 39.0134C26.0035 37.3496 25.4087 34.3061 25.3156 33.2327C25.0621 30.3422 26.6021 27.7098 29.148 26.6848C30.172 26.2723 32.8562 24.5037 35.4526 22.7946C38.2378 20.9587 41.2944 18.9449 43.9528 17.4635C40.5833 17.134 37.4257 17.273 35.7397 17.6119C33.9243 17.9775 31.897 17.1012 30.163 15.9731L15.8936 39.7509C16.3215 40.5274 16.7055 41.3774 16.9756 42.2929C17.3752 43.6428 18.3113 45.1863 19.3779 46.6424C19.5447 46.3831 19.7219 46.1298 19.9211 45.8941L24.1943 40.8398C25.2923 39.543 26.7431 38.8274 28.2779 38.8274Z" fill="white"/>
<path d="M29.8231 7.73986L21.3616 0.327952C20.7255 -0.229723 19.8347 -0.0595649 19.3718 0.712165L0.271683 32.5412C-0.191205 33.3113 -0.0476513 34.3877 0.588478 34.9472L9.04859 42.3591C9.68608 42.9185 10.5769 42.7467 11.0386 41.9747L30.1387 10.1459C30.6014 9.37583 30.4592 8.29919 29.8231 7.73986ZM24.1688 11.296C23.3995 12.577 21.9137 12.8644 20.8522 11.9334C19.7893 11.0035 19.5526 9.20851 20.3233 7.92583C21.0927 6.64316 22.5784 6.3557 23.6399 7.28674C24.7028 8.218 24.9381 10.0116 24.1688 11.296Z" fill="white"/>
</svg>
