<svg width="73" height="73" viewBox="0 0 73 73" fill="none" xmlns="http://www.w3.org/2000/svg">
<path d="M42.5833 30.4167H57.0738C58.1106 30.4167 59.1302 30.6817 60.0358 31.1866C60.9414 31.6914 61.7029 32.4194 62.2481 33.3013C62.7933 34.1832 63.104 35.1898 63.1508 36.2255C63.1975 37.2613 62.9788 38.2918 62.5154 39.2193L51.8695 60.5109C51.3642 61.5222 50.5871 62.3726 49.6254 62.9668C48.6637 63.561 47.5554 63.8755 46.425 63.875H34.2066C33.7108 63.875 33.215 63.8142 32.7314 63.6925L21.2917 60.8333M42.5833 30.4167V15.2083C42.5833 13.5949 41.9424 12.0476 40.8016 10.9068C39.6607 9.76592 38.1134 9.125 36.5 9.125H36.211C34.6902 9.125 33.4583 10.3569 33.4583 11.8777C33.4583 14.0495 32.8165 16.1725 31.609 17.9793L21.2917 33.4583V60.8333M42.5833 30.4167H36.5M21.2917 60.8333H15.2083C13.5949 60.8333 12.0476 60.1924 10.9068 59.0516C9.76592 57.9107 9.125 56.3634 9.125 54.75V36.5C9.125 34.8866 9.76592 33.3393 10.9068 32.1984C12.0476 31.0576 13.5949 30.4167 15.2083 30.4167H22.8125" stroke="white" stroke-width="6" stroke-linecap="round" stroke-linejoin="round"/>
</svg>
