<svg width="86" height="86" viewBox="0 0 86 86" fill="none" xmlns="http://www.w3.org/2000/svg">
<path d="M71.6665 28.6666H51.5568L55.5809 16.6015C56.3048 14.4229 55.9393 12.0077 54.5955 10.1444C53.2518 8.28104 51.0731 7.16663 48.7762 7.16663H42.9998C41.9356 7.16663 40.9287 7.63963 40.2443 8.45663L23.4026 28.6666H14.3332C10.3808 28.6666 7.1665 31.8809 7.1665 35.8333V68.0833C7.1665 72.0357 10.3808 75.25 14.3332 75.25H62.0166C63.4746 75.2451 64.8968 74.7979 66.0952 73.9674C67.2936 73.1369 68.2117 71.9623 68.7282 70.5988L78.6074 44.2577C78.7574 43.8554 78.8339 43.4294 78.8332 43V35.8333C78.8332 31.8809 75.6189 28.6666 71.6665 28.6666ZM14.3332 35.8333H21.4998V68.0833H14.3332V35.8333ZM71.6665 42.3514L62.0166 68.0833H28.6665V33.5471L44.6768 14.3333H48.7833L43.1862 31.114C43.0045 31.6527 42.9538 32.2269 43.0383 32.789C43.1229 33.3511 43.3402 33.885 43.6723 34.3464C44.0044 34.8077 44.4417 35.1833 44.9479 35.4419C45.4541 35.7004 46.0147 35.8346 46.5832 35.8333H71.6665V42.3514Z" fill="#8C571A"/>
</svg>
