<svg width="103" height="104" viewBox="0 0 103 104" fill="none" xmlns="http://www.w3.org/2000/svg">
<path d="M102.406 2.18494C102.406 1.81198 102.252 1.45429 101.976 1.19057C101.701 0.926844 101.328 0.778687 100.938 0.778687C76.9672 0.778687 57.1133 17.9899 54.1306 40.1914C51.6904 34.3975 47.5 29.4336 42.0965 25.9359C36.693 22.4381 30.3225 20.5659 23.8013 20.559C23.4121 20.559 23.0387 20.7071 22.7635 20.9708C22.4882 21.2346 22.3336 21.5923 22.3336 21.9652C22.3438 30.0564 25.6178 37.8307 31.4713 43.663C37.3247 49.4954 45.3046 52.9344 53.7429 53.2612V68.7447C51.3863 68.8062 49.0362 69.0115 46.7069 69.3595C43.8634 64.0002 38.9548 59.9114 33.0201 57.9587C27.0853 56.0059 20.5904 56.3425 14.9101 58.8972C9.22985 61.4519 4.8102 66.0241 2.58675 71.646C0.363295 77.2679 0.510584 83.4981 2.99743 89.0178C5.48428 94.5374 10.1155 98.9133 15.9106 101.219C21.7058 103.525 28.21 103.579 34.0464 101.371C39.8827 99.1627 44.5931 94.8652 47.1804 89.388C49.7676 83.9109 50.0286 77.6841 47.9082 72.0258C50.3186 71.6999 52.7497 71.5348 55.184 71.5317C55.1931 71.5317 55.2016 71.5343 55.2107 71.5343C55.2198 71.5343 55.2282 71.5319 55.2372 71.5317C65.2745 71.5281 75.1018 74.286 83.5507 79.4777C83.7129 79.5798 83.8945 79.65 84.0852 79.6844C84.2759 79.7187 84.4718 79.7165 84.6616 79.6779C84.8514 79.6393 85.0313 79.565 85.1909 79.4593C85.3505 79.3536 85.4867 79.2187 85.5915 79.0623C85.6964 78.9059 85.7678 78.7311 85.8017 78.5481C85.8356 78.365 85.8313 78.1774 85.7891 77.996C85.7468 77.8146 85.6674 77.643 85.5555 77.4911C85.4435 77.3393 85.3013 77.2102 85.137 77.1114C76.6272 71.8831 66.7844 68.9894 56.6785 68.7447V47.3782C82.0255 46.6323 102.406 26.6472 102.406 2.18494ZM99.4458 3.615C98.698 25.1558 81.1011 42.6775 58.907 44.4428L79.1123 25.0847C79.2519 24.9548 79.363 24.7997 79.4394 24.6283C79.5158 24.4569 79.5559 24.2726 79.5573 24.0863C79.5587 23.8999 79.5214 23.7151 79.4476 23.5427C79.3738 23.3702 79.265 23.2135 79.1274 23.0818C78.9898 22.95 78.8263 22.8457 78.6463 22.775C78.4663 22.7043 78.2735 22.6686 78.079 22.6699C77.8844 22.6712 77.6921 22.7096 77.5132 22.7828C77.3343 22.856 77.1724 22.9625 77.0368 23.0962L56.8318 42.454C58.6747 21.1905 76.9627 4.33147 99.4458 3.615ZM25.3067 23.4075C32.6659 23.7734 39.6225 26.7388 44.8332 31.7311C50.044 36.7233 53.1392 43.3883 53.5212 50.439C46.1621 50.0731 39.2054 47.1077 33.9947 42.1154C28.784 37.1231 25.6887 30.4581 25.3067 23.4075ZM24.9617 100.408C20.7229 100.409 16.5792 99.2043 13.0548 96.948C9.53028 94.6918 6.78328 91.4849 5.16112 87.7329C3.53897 83.9809 3.11452 79.8522 3.94146 75.8691C4.76839 71.886 6.80957 68.2272 9.80687 65.3555C12.8042 62.4838 16.623 60.5282 20.7804 59.7359C24.9377 58.9436 29.247 59.3502 33.1632 60.9043C37.0794 62.4584 40.4266 65.0903 42.7816 68.467C45.1366 71.8437 46.3935 75.8137 46.3935 79.8748C46.3871 85.3188 44.127 90.538 40.1092 94.3874C36.0914 98.2369 30.6438 100.402 24.9617 100.408Z" fill="#285A43" stroke="#285A43" stroke-width="0.445322"/>
<path d="M35.5361 80.1074H26.4297V69.8755C26.4297 69.5025 26.275 69.1448 25.9998 68.8811C25.7245 68.6174 25.3512 68.4692 24.9619 68.4692C24.5726 68.4692 24.1993 68.6174 23.924 68.8811C23.6488 69.1448 23.4941 69.5025 23.4941 69.8755V81.5136C23.4941 81.8866 23.6488 82.2443 23.924 82.508C24.1993 82.7717 24.5726 82.9199 24.9619 82.9199H35.5361C35.9254 82.9199 36.2987 82.7717 36.574 82.508C36.8492 82.2443 37.0039 81.8866 37.0039 81.5136C37.0039 81.1407 36.8492 80.783 36.574 80.5193C36.2987 80.2556 35.9254 80.1074 35.5361 80.1074Z" fill="#285A43" stroke="#285A43" stroke-width="0.445322"/>
</svg>
