<svg width="29" height="29" viewBox="0 0 29 29" fill="none" xmlns="http://www.w3.org/2000/svg">
<path d="M28 1L19 10M19 10V2.5M19 10H26.5M4 1C3.20435 1 2.44129 1.31607 1.87868 1.87868C1.31607 2.44129 1 3.20435 1 4V5.5C1 17.926 11.074 28 23.5 28H25C25.7957 28 26.5587 27.6839 27.1213 27.1213C27.6839 26.5587 28 25.7957 28 25V20.08C27.9998 19.7653 27.9006 19.4587 27.7164 19.2035C27.5323 18.9483 27.2726 18.7574 26.974 18.658L20.2345 16.411C19.892 16.2971 19.5199 16.3106 19.1865 16.4489C18.8532 16.5872 18.5808 16.8411 18.4195 17.164L16.7245 20.5495C13.0514 18.8897 10.1097 15.9474 8.4505 12.274L11.836 10.582C12.1589 10.4207 12.4128 10.1484 12.5511 9.81497C12.6894 9.48159 12.7029 9.10951 12.589 8.767L10.342 2.0245C10.2422 1.72597 10.0511 1.4664 9.79558 1.28253C9.54011 1.09866 9.23326 0.999819 8.9185 1H4Z" stroke="white" stroke-width="2" stroke-linecap="round" stroke-linejoin="round"/>
</svg>
