<svg width="32" height="34" viewBox="0 0 32 34" fill="none" xmlns="http://www.w3.org/2000/svg">
<path id="Vector" fill-rule="evenodd" clip-rule="evenodd" d="M16 33.8227C20.2435 33.8227 24.3131 32.041 27.3137 28.8695C30.3143 25.698 32 21.3965 32 16.9114C32 12.4262 30.3143 8.12472 27.3137 4.95322C24.3131 1.78173 20.2435 0 16 0C11.7565 0 7.68687 1.78173 4.68629 4.95322C1.68571 8.12472 0 12.4262 0 16.9114C0 21.3965 1.68571 25.698 4.68629 28.8695C7.68687 32.041 11.7565 33.8227 16 33.8227V33.8227ZM23.414 14.1781C23.7783 13.7794 23.9799 13.2454 23.9753 12.6911C23.9708 12.1369 23.7605 11.6067 23.3896 11.2147C23.0188 10.8228 22.5172 10.6005 21.9928 10.5957C21.4684 10.5908 20.9632 10.8039 20.586 11.189L14 18.1501L11.414 15.4168C11.0368 15.0318 10.5316 14.8187 10.0072 14.8235C9.4828 14.8283 8.98118 15.0506 8.61036 15.4426C8.23955 15.8345 8.02921 16.3647 8.02465 16.919C8.02009 17.4732 8.22168 18.0072 8.586 18.4059L12.586 22.6337C12.9611 23.03 13.4697 23.2527 14 23.2527C14.5303 23.2527 15.0389 23.03 15.414 22.6337L23.414 14.1781V14.1781Z" fill="#44C487"/>
</svg>
