<svg width="100" height="81" viewBox="0 0 100 81" fill="none" xmlns="http://www.w3.org/2000/svg">
<path d="M30.2923 16.2419C30.2923 24.9365 25.4878 31.9851 19.5614 31.9851C13.6355 31.9851 8.83203 24.9365 8.83203 16.2419C8.83203 7.54804 13.6355 0.5 19.5614 0.5C25.4878 0.5 30.2923 7.54804 30.2923 16.2419Z" fill="white"/>
<path d="M31.7928 44.0037C32.5678 43.4167 33.4252 43.0342 34.3132 42.8516C32.5103 39.6915 31.2328 36.3016 30.4948 32.2447C30.2928 30.7622 28.6588 30.5883 27.4438 31.818C25.1709 34.1198 22.5194 35.66 19.5614 35.66C16.5465 35.66 13.773 34.1701 11.5495 31.6764C10.84 30.8802 9.79456 30.7597 8.97807 31.3789C4.75662 34.5825 1.56116 39.6666 0.167177 45.7054C-0.207319 47.3233 0.0556833 49.0717 0.872673 50.4182C1.69066 51.7634 2.96865 52.5566 4.32563 52.5566H23.6594C25.9738 49.24 28.7053 46.3445 31.7928 44.0037Z" fill="white"/>
<path d="M69.708 16.2419C69.708 24.9365 74.5119 31.9851 80.4383 31.9851C86.3653 31.9851 91.1682 24.9365 91.1682 16.2419C91.1682 7.54804 86.3653 0.5 80.4383 0.5C74.5119 0.5 69.708 7.54804 69.708 16.2419Z" fill="white"/>
<path d="M68.208 44.0037C67.433 43.4167 66.575 43.0342 65.6875 42.8516C67.4905 39.6915 68.7679 36.3016 69.5059 32.2447C69.7084 30.7622 71.3424 30.5883 72.5574 31.818C74.8304 34.1198 77.4814 35.66 80.4393 35.66C83.4538 35.66 86.2277 34.1701 88.4517 31.6764C89.1612 30.8802 90.2062 30.7597 91.0227 31.3789C95.2446 34.5825 98.4406 39.6666 99.8335 45.7054C100.208 47.3233 99.945 49.0717 99.1285 50.4182C98.3101 51.7634 97.0326 52.5566 95.6761 52.5566H76.3414C74.0269 49.24 71.2959 46.3445 68.208 44.0037Z" fill="white"/>
<path d="M79.2363 69.9702C77.1373 60.8689 72.3764 53.173 66.0735 48.2373C64.83 47.2647 63.216 47.4219 62.113 48.6292C58.7301 52.3303 54.5441 54.5332 49.9992 54.5332C45.3647 54.5332 41.1038 52.2439 37.6863 48.4125C36.5954 47.1883 34.9899 47.0039 33.7354 47.9566C27.247 52.8781 22.336 60.6913 20.1946 69.9709C19.6191 72.4602 20.0226 75.1432 21.2776 77.2139C22.5355 79.2821 24.499 80.5001 26.585 80.5001H72.8459C74.9323 80.5001 76.8973 79.2858 78.1548 77.2139C79.4103 75.1426 79.8118 72.462 79.2363 69.9702Z" fill="white"/>
<path d="M66.4903 24.6918C66.4903 38.0531 59.1074 48.886 50 48.886C40.8931 48.886 33.5107 38.0531 33.5107 24.6918C33.5107 11.3292 40.8931 0.5 50 0.5C59.1079 0.5 66.4903 11.3298 66.4903 24.6918Z" fill="white"/>
</svg>
