<svg width="85" height="65" viewBox="0 0 85 65" fill="none" xmlns="http://www.w3.org/2000/svg">
<path d="M78.0595 18.8097L59.9163 36.9528L54.4184 31.4972L48.4553 37.5026L59.8741 48.9214L84.0649 24.8151L78.0595 18.8097ZM9.16634 17.5833C9.11426 19.819 9.51623 22.0421 10.3479 24.1181C11.1796 26.1941 12.4238 28.0798 14.0052 29.6611C15.5865 31.2425 17.4722 32.4866 19.5482 33.3183C21.6241 34.15 23.8472 34.552 26.083 34.4999C28.3188 34.552 30.5419 34.15 32.6179 33.3183C34.6938 32.4866 36.5795 31.2425 38.1609 29.6611C39.7422 28.0798 40.9864 26.1941 41.8181 24.1181C42.6498 22.0421 43.0518 19.819 42.9997 17.5833C43.0518 15.3475 42.6498 13.1244 41.8181 11.0484C40.9864 8.97245 39.7422 7.08676 38.1609 5.50541C36.5795 3.92405 34.6938 2.67989 32.6179 1.84819C30.5419 1.01648 28.3188 0.614511 26.083 0.666595C23.8472 0.614511 21.6241 1.01648 19.5482 1.84819C17.4722 2.67989 15.5865 3.92405 14.0052 5.50541C12.4238 7.08676 11.1796 8.97245 10.3479 11.0484C9.51623 13.1244 9.11426 15.3475 9.16634 17.5833ZM34.5413 17.5833C34.5957 18.7084 34.4142 19.8325 34.0084 20.8834C33.6025 21.9342 32.9814 22.8886 32.1849 23.6851C31.3883 24.4817 30.434 25.1028 29.3831 25.5086C28.3323 25.9144 27.2082 26.096 26.083 26.0416C24.9578 26.096 23.8337 25.9144 22.7829 25.5086C21.732 25.1028 20.7777 24.4817 19.9812 23.6851C19.1846 22.8886 18.5635 21.9342 18.1577 20.8834C17.7518 19.8325 17.5703 18.7084 17.6247 17.5833C17.5703 16.4581 17.7518 15.334 18.1577 14.2831C18.5635 13.2323 19.1846 12.278 19.9812 11.4814C20.7777 10.6849 21.732 10.0637 22.7829 9.65791C23.8337 9.25208 24.9578 9.07053 26.083 9.12493C27.2082 9.07053 28.3323 9.25208 29.3831 9.65791C30.434 10.0637 31.3883 10.6849 32.1849 11.4814C32.9814 12.278 33.6025 13.2323 34.0084 14.2831C34.4142 15.334 34.5957 16.4581 34.5413 17.5833ZM9.16634 59.8749C9.16634 56.51 10.5031 53.2829 12.8824 50.9035C15.2618 48.5241 18.4889 47.1874 21.8538 47.1874H30.3122C33.6771 47.1874 36.9042 48.5241 39.2836 50.9035C41.663 53.2829 42.9997 56.51 42.9997 59.8749V64.1041H51.458V59.8749C51.458 57.098 50.9111 54.3483 49.8484 51.7828C48.7857 49.2172 47.2281 46.8861 45.2645 44.9226C43.301 42.959 40.9699 41.4014 38.4043 40.3387C35.8388 39.276 33.0891 38.7291 30.3122 38.7291H21.8538C16.2456 38.7291 10.8671 40.957 6.90148 44.9226C2.93587 48.8882 0.708008 54.2667 0.708008 59.8749V64.1041H9.16634V59.8749Z" fill="white"/>
</svg>
