<svg width="198" height="79" viewBox="0 0 198 79" fill="none" xmlns="http://www.w3.org/2000/svg">
<path d="M81.5759 25.7387C81.5759 22.5708 79.0019 19.7988 75.6359 19.7988C74.4479 19.7988 64.3499 19.7988 63.1619 19.7988C60.5879 19.7988 58.4099 21.1848 57.2219 23.3627L56.4299 24.9467C56.8259 25.7387 57.0239 26.5307 57.0239 27.5206C57.0239 28.9066 56.6279 30.2926 55.8359 31.4805C56.8259 31.4805 57.6179 31.8765 58.4099 32.2725L61.9739 25.7387C61.9739 25.5407 62.1719 25.5407 62.3699 25.5407C62.5679 25.5407 62.7659 25.7387 62.7659 25.9367V67.5156C62.7659 69.0996 64.1519 70.4855 65.7359 70.4855C67.3199 70.4855 68.7059 69.0996 68.7059 67.5156V43.5582H70.0919V67.5156C70.0919 69.0996 71.4779 70.4855 73.0619 70.4855C74.6459 70.4855 76.0319 69.0996 76.0319 67.5156C76.0319 28.7086 76.0319 49.3001 76.0319 25.7387C76.0319 25.5407 76.2299 25.1447 76.6259 25.1447C76.8239 25.1447 77.2199 25.3427 77.2199 25.7387V44.1522C77.2199 45.5382 78.4079 46.7261 79.7939 46.7261C81.1799 46.7261 82.3679 45.5382 82.3679 44.1522L81.5759 25.7387Z" fill="#3E4248"/>
<path d="M59.2018 38.0146C59.2018 35.6387 57.2218 33.8567 54.8458 33.8567H45.1438C42.7678 33.8567 40.7878 35.8367 40.7878 38.0146C40.7878 38.8066 40.7878 38.2126 40.7878 41.5785L38.8078 41.1825C38.8078 41.1825 34.4518 28.9068 32.6698 24.3529C31.6798 20.987 29.6998 19.2051 27.1258 19.2051C23.3638 19.2051 22.1758 19.2051 18.4138 19.2051C15.6418 19.2051 13.6618 20.987 12.6718 24.3529C10.8898 29.6988 6.73176 40.9845 6.73176 40.9845C6.33576 42.3705 6.92976 43.7565 8.31576 44.1524C9.70176 44.5484 11.0878 43.9545 11.4838 42.5685C11.4838 42.5685 14.4538 34.4507 16.4338 28.7088C16.2358 29.8968 16.6318 27.5209 12.8698 47.5184C12.6718 48.3103 13.4638 49.1023 14.2558 49.1023C14.8498 49.1023 15.4438 49.1023 16.2358 49.1023V67.3179C16.2358 68.9018 17.6218 70.2878 19.2058 70.2878C20.7898 70.2878 22.1758 68.9018 22.1758 67.3179V49.1023C22.5718 49.1023 22.9678 49.1023 23.5618 49.1023V67.3179C23.5618 68.9018 24.9478 70.2878 26.5318 70.2878C28.1158 70.2878 29.5018 68.9018 29.5018 67.3179V49.1023C30.2938 49.1023 30.8878 49.1023 31.4818 49.1023C32.2738 49.1023 33.0658 48.3103 32.8678 47.5184C28.9078 27.5209 29.5018 29.8968 29.3038 28.7088C31.2838 34.4507 34.2538 42.5685 34.2538 42.5685C34.6498 43.5585 35.4418 44.1524 36.6298 44.1524C38.6098 44.5484 40.1938 44.9444 42.5698 45.3404C43.7578 45.5384 44.7478 44.7464 44.7478 43.5585C44.7478 43.5585 44.7478 38.4106 44.7478 37.8166C44.7478 37.6186 44.9458 37.4206 45.1438 37.4206C45.3418 37.4206 45.5398 37.6186 45.5398 37.8166C45.5398 42.7665 45.5398 66.1299 45.5398 68.1098C45.5398 69.2978 46.5298 70.2878 47.7178 70.2878C48.9058 70.2878 49.8958 69.2978 49.8958 68.1098C49.8958 65.9319 49.8958 53.0622 49.8958 50.8843H50.8858C50.8858 53.0622 50.8858 66.1299 50.8858 68.1098C50.8858 69.2978 51.8758 70.2878 53.0638 70.2878C54.2518 70.2878 55.2418 69.2978 55.2418 68.1098C55.2418 55.6362 55.2418 40.9845 55.2418 37.8166C55.2418 37.6186 55.4398 37.4206 55.6378 37.4206C55.8358 37.4206 56.0338 37.6186 56.0338 37.8166V51.0823C56.0338 52.0722 56.8258 52.8642 57.8158 52.8642C58.8058 52.8642 59.5978 52.0722 59.5978 51.0823C59.2018 48.5083 59.2018 40.5885 59.2018 38.0146Z" fill="#3E4248"/>
<path d="M68.9039 17.4227C71.747 17.4227 74.0519 15.1179 74.0519 12.2748C74.0519 9.43173 71.747 7.12695 68.9039 7.12695C66.0607 7.12695 63.7559 9.43173 63.7559 12.2748C63.7559 15.1179 66.0607 17.4227 68.9039 17.4227Z" fill="#3E4248"/>
<path d="M50.0938 32.2733C52.7183 32.2733 54.8458 30.1458 54.8458 27.5214C54.8458 24.897 52.7183 22.7695 50.0938 22.7695C47.4693 22.7695 45.3418 24.897 45.3418 27.5214C45.3418 30.1458 47.4693 32.2733 50.0938 32.2733Z" fill="#3E4248"/>
<path d="M22.7691 7.12695C19.7991 7.12695 17.6211 9.50289 17.6211 12.2748C17.6211 15.2447 19.9971 17.4227 22.7691 17.4227C25.7391 17.4227 27.9171 15.0468 27.9171 12.2748C27.9171 9.3049 25.5411 7.12695 22.7691 7.12695Z" fill="#3E4248"/>
<path d="M103.949 38.0141H99.5933V33.6582H97.2173V38.0141H92.8613V40.588H97.2173V44.9439H99.5933V40.588H103.949V38.0141Z" fill="#3E4248"/>
<path d="M185.327 62.1711L182.753 9.90039H166.913L165.131 62.1711H160.577L161.567 34.6498H154.043V22.7701L134.837 34.6498V22.7701L114.641 34.6498V62.1711H111.869V68.5069H188.891V62.1711H185.327ZM129.293 53.0633H122.957V46.7275H129.293V53.0633ZM140.381 53.0633H134.045V46.7275H140.381V53.0633ZM151.469 53.0633H145.133V46.7275H151.469V53.0633Z" fill="#3E4248"/>
</svg>
