<svg width="96" height="96" viewBox="0 0 96 96" fill="none" xmlns="http://www.w3.org/2000/svg">
<rect x="0.5" y="0.617676" width="95" height="95" rx="18" fill="#F9F8F8"/>
<circle cx="54" cy="40.1177" r="14.5" fill="#C6EFD1"/>
<path d="M67.2963 58.0209L62.1599 55.4527C61.9661 55.3558 61.7723 55.3074 61.5784 55.3074H60.2217C60.2217 55.7435 60.2701 56.1796 60.2701 56.6157C60.2701 57.0518 60.2217 57.4879 60.2217 57.924H61.2393L66.1333 60.3468C66.7633 60.686 67.5386 60.3953 67.8777 59.7653C68.1685 59.1354 67.9262 58.3601 67.2963 58.0209Z" fill="#282828"/>
<path d="M61.5786 39.753C60.8517 39.753 60.2703 40.3345 60.2703 41.0613V47.9905L59.3496 48.4751C59.5434 49.3473 59.7373 50.2195 59.8826 51.0917L62.1601 49.9288C62.5962 49.735 62.8869 49.2504 62.8869 48.7658V41.0128C62.8385 40.3345 62.257 39.753 61.5786 39.753Z" fill="#282828"/>
<path d="M62.1123 65.7739L59.3503 64.4171C59.1564 65.2893 58.9142 66.1131 58.6719 66.9368L60.2225 67.7121V74.7383C60.2225 75.4651 60.8039 76.0466 61.5308 76.0466C62.2576 76.0466 62.8391 75.4651 62.8391 74.7383V66.9368C62.8391 66.4038 62.5968 65.9677 62.1123 65.7739Z" fill="#282828"/>
<path d="M32.6011 64.3687L29.8391 65.7255C29.403 65.9193 29.1123 66.4039 29.1123 66.8884V74.7383C29.1123 75.4652 29.6938 76.0466 30.4206 76.0466C31.1475 76.0466 31.7289 75.4652 31.7289 74.7383V67.7122L33.2795 66.9369C33.0373 66.1131 32.795 65.2894 32.6011 64.3687Z" fill="#282828"/>
<path d="M31.7781 55.3074H30.4214C30.2275 55.3074 30.0337 55.3558 29.8399 55.4527L24.7035 58.0209C24.0736 58.3601 23.8313 59.1354 24.1221 59.7653C24.4613 60.3953 25.1881 60.6375 25.8665 60.3468L30.7606 57.924H31.7297C31.7297 57.4879 31.6812 57.0518 31.6812 56.6157C31.7297 56.1796 31.7297 55.7435 31.7781 55.3074Z" fill="#282828"/>
<path d="M31.7289 47.9905V41.0128C31.7289 40.286 31.1475 39.7045 30.4206 39.7045C29.6938 39.7045 29.1123 40.286 29.1123 41.0128V48.7658C29.1123 49.2504 29.403 49.6865 29.8391 49.9288L32.1166 51.0917C32.262 50.1711 32.4073 49.2988 32.6496 48.4751L31.7289 47.9905Z" fill="#282828"/>
<path d="M45.9756 37.1364C42.8259 37.1364 39.9186 39.1715 37.835 42.4665C39.3371 45.4708 42.5837 47.4575 45.9756 47.4575C49.416 47.4575 52.5172 45.4708 54.0193 42.4665C51.9841 39.1715 49.1737 37.1364 45.9756 37.1364Z" fill="#282828"/>
<path d="M55.5217 45.1801C53.6319 47.8451 50.5792 49.5896 47.2842 49.9772V76.0466C53.1474 75.029 57.7022 66.743 57.7022 56.6157C57.7022 52.3031 56.8785 48.3297 55.5217 45.1801Z" fill="#282828"/>
<path d="M36.4784 45.1316C35.1216 48.2812 34.2979 52.3031 34.2979 56.5672C34.2979 66.6946 38.8043 74.9806 44.7159 75.9981V49.9772C41.4209 49.5896 38.3682 47.7967 36.4784 45.1316Z" fill="#282828"/>
<path d="M37.5437 32H30.4206C29.6938 32 29.1123 32.5815 29.1123 33.3083C29.1123 34.0352 29.6938 34.6166 30.4206 34.6166H37.5437C38.9489 34.6166 40.4026 35.0043 41.5655 35.6342C42.5346 35.1496 43.6007 34.8589 44.6667 34.7135C42.7285 33.0176 40.2088 32 37.5437 32Z" fill="#282828"/>
<path d="M61.5785 32H54.3585C51.6935 32 49.2706 33.0176 47.3809 34.6651C48.4469 34.8105 49.4645 35.1012 50.4821 35.5858C51.645 34.9558 53.0018 34.5682 54.407 34.5682H61.627C62.3538 34.5682 62.9353 33.9867 62.9353 33.2599C62.9353 32.533 62.2569 32 61.5785 32Z" fill="#282828"/>
</svg>
