<?xml version="1.0" encoding="UTF-8"?><svg id="Capa_1" xmlns="http://www.w3.org/2000/svg" viewBox="0 0 250 250"><defs><style>.cls-1{fill:#3e4248;}.cls-2{fill:none;stroke:#3e4248;stroke-miterlimit:10;stroke-width:11px;}</style></defs><g><path class="cls-1" d="M94.37,106.97h-21.48v70.4h21.48V106.97Zm-7.29,48.54h-6.9v-6.13h6.9v6.13Zm0-13.81h-6.9v-6.13h6.9v6.13Zm-6.9-13.81v-6.13h6.9v6.13h-6.9Z"/><path class="cls-1" d="M156.1,177.38h21.48V106.97h-21.48v70.4Zm7.29-55.61h6.9v6.13h-6.9v-6.13Zm0,13.81h6.9v6.13h-6.9v-6.13Zm6.9,13.81v6.13h-6.9v-6.13h6.9Z"/><path class="cls-1" d="M114.5,169.32h7.67v8.06h-7.67v-8.06Z"/><path class="cls-1" d="M128.31,169.32h7.67v8.06h-7.67v-8.06Z"/><path class="cls-1" d="M100.51,177.38h7.86v-11.53h33.75v11.53h7.86V75.8h-49.46v101.57Zm28.18-21.87h-6.9v-6.13h6.9v6.13Zm0-13.81h-6.9v-6.13h6.9v6.13Zm0-13.81h-6.9v-6.13h6.9v6.13Zm13.81,27.61h-6.9v-6.13h6.9v6.13Zm0-13.81h-6.9v-6.13h6.9v6.13Zm0-13.81h-6.9v-6.13h6.9v6.13Zm-27.61-26.84h7.29v-7.29h6.13v7.29h7.29v6.13h-7.29v7.29h-6.13v-7.29h-7.29v-6.13Zm-6.9,20.7h6.9v6.13h-6.9v-6.13Zm0,13.81h6.9v6.13h-6.9v-6.13Zm0,13.81h6.9v6.13h-6.9v-6.13Z"/></g><circle class="cls-2" cx="125.24" cy="126.59" r="97"/></svg>