<svg width="45" height="37" viewBox="0 0 45 37" fill="none" xmlns="http://www.w3.org/2000/svg">
<g id="Group">
<path id="Vector" d="M23.0851 3.14111C14.9044 3.14111 8.27148 9.77407 8.27148 17.9547C8.27148 26.1353 14.9044 32.7683 23.0851 32.7683C31.2657 32.7683 37.8987 26.1353 37.8987 17.9547C37.8987 9.77407 31.2657 3.14111 23.0851 3.14111ZM23.0851 29.2004C16.8857 29.2004 11.8437 24.1585 11.8437 17.959C11.8437 11.7596 16.8857 6.7177 23.0851 6.7177C29.2845 6.7177 34.3264 11.7596 34.3264 17.959C34.3264 24.1585 29.2845 29.2004 23.0851 29.2004Z" fill="#3E4248"/>
<path id="Vector_2" d="M23.0858 9.73083C18.5467 9.73083 14.8574 13.4201 14.8574 17.9592C14.8574 22.4982 18.5467 26.1875 23.0858 26.1875C27.6248 26.1875 31.3141 22.4982 31.3141 17.9592C31.3141 13.4201 27.6248 9.73083 23.0858 9.73083Z" fill="#3E4248"/>
<path id="Vector_3" d="M43.8035 19.199V1.19464C43.8035 1.02123 43.6908 0.865161 43.5261 0.813138C43.3613 0.75678 43.1793 0.813138 43.0752 0.951866C40.8295 3.91285 39.6113 7.52846 39.6113 11.2481V17.8334C39.6113 18.5877 40.2226 19.2033 40.9813 19.2033H41.5535C40.9899 25.0082 40.6214 33.1282 40.6214 34.0776C40.6214 35.5733 41.5449 36.7915 42.6807 36.7915C43.8165 36.7915 44.7399 35.5776 44.7399 34.0776C44.7399 33.1282 44.3671 25.0039 43.8079 19.199H43.8035Z" fill="#3E4248"/>
<path id="Vector_4" d="M5.97832 15.631C7.1185 14.9417 7.88151 13.6888 7.88151 12.2582L7.31792 3.0284C7.29625 2.67724 7.00578 2.40412 6.65029 2.40412C6.26879 2.40412 5.96532 2.72493 5.98266 3.10209L6.35116 10.5024C6.35116 10.9186 6.01301 11.2567 5.59682 11.2567C5.18064 11.2567 4.84249 10.9186 4.84249 10.5024L4.66041 3.10209C4.65174 2.71192 4.33093 2.39978 3.94075 2.39978C3.55058 2.39978 3.22977 2.71192 3.2211 3.10209L3.03902 10.5024C3.03902 10.9186 2.70087 11.2567 2.28468 11.2567C1.8685 11.2567 1.53035 10.9186 1.53035 10.5024L1.89884 3.10209C1.91618 2.72059 1.61272 2.40412 1.23121 2.40412C0.880057 2.40412 0.585258 2.67724 0.563582 3.0284L0 12.2582C0 13.6888 0.763006 14.9374 1.90318 15.631C2.64451 16.0819 3.05636 16.9186 2.96098 17.7813C2.31936 23.5775 1.8815 33.0457 1.8815 34.0775C1.8815 35.5732 2.80491 36.7914 3.94075 36.7914C5.07659 36.7914 6 35.5775 6 34.0775C6 33.0457 5.56214 23.5819 4.92052 17.7813C4.82515 16.9186 5.23699 16.0775 5.97832 15.631Z" fill="#3E4248"/>
</g>
</svg>
