<svg width="49" height="48" viewBox="0 0 49 48" fill="none" xmlns="http://www.w3.org/2000/svg">
<path id="Vector" d="M33.0279 44.7316C32.7929 44.5812 32.0639 44.3921 31.8624 44.2369L27.7375 46.9768L24.3848 43.5871L27.2674 38.9414C27.1619 38.7426 27.1811 38.7086 27.0852 38.5001L21.7756 37.5448L21.7947 32.3172L25.6702 31.6383L23.7373 29.7325C22.1257 31.0612 20.1544 31.8468 18.0487 31.8468H18.0344C16.0438 31.8468 14.178 31.1436 12.624 29.9459L10.6575 31.8468H6.81553C5.04566 31.8468 3.6547 32.4578 2.57551 33.7235C-0.585331 37.4139 -0.052928 45.3571 0.196485 47.7915H33.6035L33.0279 44.7267V44.7316ZM10.0483 22.0172C10.3025 24.2333 11.2234 26.207 12.5616 27.6521C12.8446 27.9576 13.1372 28.234 13.4538 28.4862C13.8567 28.8111 14.2788 29.0875 14.7296 29.3251C15.7417 29.8537 16.8544 30.1592 18.0439 30.1592C19.2335 30.1592 20.3462 29.8537 21.3583 29.3251C21.8091 29.0875 22.2312 28.8111 22.6341 28.4862C22.9507 28.2292 23.2528 27.9528 23.531 27.6473C24.8644 26.2022 25.7854 24.2479 26.0396 22.0463C26.0683 22.0463 26.0875 22.0511 26.1115 22.0511C27.5073 22.0511 28.6392 20.7369 28.6392 19.1172C28.6392 18.1328 28.2219 17.2745 27.584 16.7362H8.92596C8.28803 17.2696 7.87075 18.1328 7.87075 19.1172C7.87075 20.6108 8.81564 21.8232 10.0435 22.0172H10.0483ZM49 36.0173V33.7575L44.3523 32.9088C44.146 32.0359 43.8007 31.2212 43.3546 30.4744L46.0598 26.5707L44.477 24.9704L40.6015 27.6958C39.8628 27.2399 39.0522 26.8956 38.1937 26.6919L37.3687 21.9978H35.1336L34.2942 26.6968C33.4308 26.9053 32.625 27.2545 31.8864 27.7055L28.0253 24.9704L26.4425 26.5707L29.138 30.489C28.6872 31.2358 28.3466 32.0553 28.1452 32.9234L23.5023 33.7575V36.0173L28.15 36.8659C28.3562 37.7388 28.7016 38.5535 29.1476 39.3003L26.4377 43.204L28.0205 44.8043L31.896 42.079C32.6346 42.5348 33.4452 42.8791 34.3038 43.0828L35.1288 47.777H37.3639L38.2033 43.0779C39.0666 42.8694 39.8724 42.5202 40.6111 42.0693L44.4722 44.8043L46.055 43.204L43.3594 39.2857C43.8103 38.5389 44.1508 37.7194 44.3523 36.8513L49 36.0173ZM36.2415 38.3789C34.3374 38.3789 32.7929 36.8174 32.7929 34.8922C32.7929 32.967 34.3374 31.4055 36.2415 31.4055C38.1457 31.4055 39.6902 32.967 39.6902 34.8922C39.6902 36.8174 38.1457 38.3789 36.2415 38.3789ZM14.4994 4.15696C11.7079 5.59237 9.51112 8.46804 8.67655 11.2613L8.48949 11.8577H6.95943V15.2474H29.5457V11.8577H28.0445L27.8574 11.2613C27.0276 8.46804 24.8261 5.62147 22.0346 4.18121V11.5571C22.0058 11.8577 21.953 12.1245 21.8187 12.396C21.4686 13.0749 20.7731 13.5647 19.9673 13.5647H16.5858C15.8328 13.5647 15.1661 13.1574 14.816 12.5609C14.6529 12.3184 14.5761 12.0469 14.5186 11.7462C14.4898 11.6395 14.4898 11.5571 14.4898 11.4455V4.14726L14.4994 4.15696ZM16.5906 12.6724H19.9433C20.4278 12.6724 20.8307 12.4009 21.0417 11.9935C21.1472 11.8044 21.2048 11.6153 21.2048 11.3971V2.47423C21.2048 2.25601 21.152 2.06688 21.0993 1.87776C20.8594 1.25219 20.2407 0.791504 19.5452 0.791504H16.5954C15.9527 0.791504 15.4155 1.28129 15.3627 1.90201C15.3627 1.95535 15.334 2.00869 15.334 2.06688V11.3971C15.334 11.6686 15.4155 11.9111 15.5498 12.1293C15.7896 12.4542 16.1685 12.6724 16.5954 12.6724H16.5906Z" fill="#3E4248"/>
</svg>
