<svg width="38" height="39" viewBox="0 0 38 39" fill="none" xmlns="http://www.w3.org/2000/svg">
<g id="Group">
<path id="Vector" d="M35.0619 3.72201C31.1504 -0.185333 24.7894 -0.185333 20.8778 3.72201L12.6094 11.9905L21.9996 21.3807C23.9323 19.7715 26.3817 18.7632 29.0875 18.7632C30.6378 18.7632 32.1167 19.0867 33.4612 19.6623L35.0661 17.9061C38.9777 13.9946 38.9777 7.63356 35.0661 3.72201H35.0619Z" fill="#3E4248"/>
<path id="Vector_2" d="M20.4327 22.973L11.0299 13.5702L2.93366 21.6706C-0.977887 25.5821 -0.977887 31.9431 2.93366 35.8547C6.84521 39.762 13.2818 39.8376 17.1934 35.9303L18.8361 34.2833C18.2605 32.9389 17.937 31.4642 17.937 29.9096C17.937 27.2753 18.895 24.8805 20.4327 22.9688V22.973Z" fill="#3E4248"/>
<path id="Vector_3" d="M20.168 29.9096C20.168 34.4514 23.5753 38.1571 27.9701 38.7117V21.1034C23.5795 21.658 20.168 25.3637 20.168 29.9054V29.9096Z" fill="#3E4248"/>
<path id="Vector_4" d="M30.1963 21.1075V38.7158C34.5868 38.1612 37.9984 34.4555 37.9984 29.9138C37.9984 25.372 34.591 21.6663 30.1963 21.1117V21.1075Z" fill="#3E4248"/>
</g>
</svg>
