<?xml version="1.0" encoding="UTF-8"?><svg id="Capa_1" xmlns="http://www.w3.org/2000/svg" viewBox="0 0 250 250"><defs><style>.cls-1{fill:#3e4248;}.cls-2{fill:none;stroke:#3e4248;stroke-miterlimit:10;stroke-width:11px;}</style></defs><g><path class="cls-1" d="M126.8,88.56c-18.87,0-34.17,15.3-34.17,34.17s15.3,34.17,34.17,34.17,34.17-15.3,34.17-34.17-15.3-34.17-34.17-34.17Zm0,60.11c-14.3,0-25.93-11.63-25.93-25.93s11.63-25.93,25.93-25.93,25.93,11.63,25.93,25.93-11.63,25.93-25.93,25.93Z"/><path class="cls-1" d="M126.8,103.76c-10.47,0-18.98,8.51-18.98,18.98s8.51,18.98,18.98,18.98,18.98-8.51,18.98-18.98-8.51-18.98-18.98-18.98Z"/><path class="cls-1" d="M174.59,125.6v-41.53c0-.4-.26-.76-.64-.88-.38-.13-.8,0-1.04,.32-5.18,6.83-7.99,15.17-7.99,23.75v15.19c0,1.74,1.41,3.16,3.16,3.16h1.32c-1.3,13.39-2.15,32.12-2.15,34.31,0,3.45,2.13,6.26,4.75,6.26s4.75-2.8,4.75-6.26c0-2.19-.86-20.93-2.15-34.32Z"/><path class="cls-1" d="M87.34,117.37c2.63-1.59,4.39-4.48,4.39-7.78l-1.3-21.29c-.05-.81-.72-1.44-1.54-1.44-.88,0-1.58,.74-1.54,1.61l.85,17.07c0,.96-.78,1.74-1.74,1.74s-1.74-.78-1.74-1.74l-.42-17.07c-.02-.9-.76-1.62-1.66-1.62s-1.64,.72-1.66,1.62l-.42,17.07c0,.96-.78,1.74-1.74,1.74s-1.74-.78-1.74-1.74l.85-17.07c.04-.88-.66-1.61-1.54-1.61-.81,0-1.49,.63-1.54,1.44l-1.3,21.29c0,3.3,1.76,6.18,4.39,7.78,1.71,1.04,2.66,2.97,2.44,4.96-1.48,13.37-2.49,35.21-2.49,37.59,0,3.45,2.13,6.26,4.75,6.26s4.75-2.8,4.75-6.26c0-2.38-1.01-24.21-2.49-37.59-.22-1.99,.73-3.93,2.44-4.96Z"/></g><circle class="cls-2" cx="125.15" cy="124.66" r="97"/></svg>