<svg width="79" height="78" viewBox="0 0 79 78" fill="none" xmlns="http://www.w3.org/2000/svg">
<g id="Frame" clip-path="url(#clip0_2094_2233)">
<g id="Group">
<g id="Group_2">
<g id="Group_3">
<g id="Group_4">
<g id="Group_5">
<path id="Vector" d="M8.39482 27.5185C14.504 9.99408 35.2101 -0.836674 58.2945 4.97381C57.2685 4.50898 52.6982 2.4172 51.6256 2.04533C32.9249 -4.41593 9.4208 4.74139 2.05244 25.3338C-4.56976 43.8808 5.45681 64.2873 24.1109 70.7485C25.1835 71.1204 26.2561 71.4458 27.3287 71.6782C10.6799 64.1943 2.23898 45.0894 8.39482 27.5185Z" fill="#42AEBC"/>
<path id="Vector_2" d="M40.3398 6.08939C60.4862 6.78664 71.6787 20.9178 73.6374 38.2563C75.0831 51.3647 69.5335 64.5197 59.6002 72.5614C70.9792 68.1454 80.4927 50.4815 78.8605 35.8391C76.7153 17.3385 59.5535 2.60309 40.3398 6.08939Z" fill="#54C0D6"/>
<path id="Vector_3" d="M34.2306 74.5137C24.5771 74.5137 15.7631 71.1204 8.81445 65.4494C15.39 73.1192 25.1368 78 36.0494 78C53.0246 78 67.2483 66.2396 70.9325 50.4351C64.8233 64.6127 50.6929 74.5137 34.2306 74.5137Z" fill="#88CFE3"/>
</g>
</g>
</g>
</g>
<g id="Group_6">
<path id="Vector_4" d="M59.6466 39.0001C59.5067 39.3719 59.4134 39.7438 59.2269 40.0692C58.574 41.3243 57.5014 42.0215 56.0557 42.0215C44.77 42.0215 33.4843 42.0215 22.1986 42.0215C20.2399 42.0215 18.6543 40.4411 18.6543 38.4887C18.6543 34.4911 18.6543 30.447 18.6543 26.4494C18.6543 24.4971 20.2399 22.9166 22.1986 22.9166C33.4843 22.9166 44.7234 22.9166 56.0091 22.9166C57.6879 22.9166 59.087 24.0322 59.5067 25.6592C59.5534 25.7521 59.5534 25.8451 59.6 25.9381C59.6466 30.2611 59.6466 34.6306 59.6466 39.0001ZM39.1738 37.2337C43.8839 37.2337 48.5941 37.2337 53.3042 37.2337C53.4441 37.2337 53.584 37.2337 53.724 37.2337C54.5634 37.1407 55.0764 36.3505 54.7966 35.6067C54.61 35.0954 54.1437 34.863 53.4908 34.863C43.9772 34.863 34.4636 34.863 24.9967 34.863C24.9034 34.863 24.8101 34.863 24.7169 34.863C23.8774 34.956 23.3645 35.7462 23.6443 36.4899C23.8308 37.0013 24.2972 37.2337 24.95 37.2337C29.6602 37.2337 34.417 37.2337 39.1738 37.2337ZM48.8273 30.0287C48.1744 30.0287 47.6147 30.5865 47.6614 31.2372C47.6614 31.888 48.221 32.4458 48.8739 32.3993C49.5268 32.3993 50.0864 31.8415 50.0398 31.1908C50.0398 30.5865 49.4802 30.0287 48.8273 30.0287ZM53.6773 30.0287C53.0244 30.0287 52.4648 30.5865 52.4648 31.2372C52.4648 31.888 53.0244 32.4458 53.6773 32.4458C54.3302 32.4458 54.8898 31.888 54.8898 31.2372C54.8432 30.633 54.2836 30.0287 53.6773 30.0287Z" fill="#2E2E2D"/>
<path id="Vector_5" d="M30.7799 46.9953C30.8732 49.0871 30.3136 51.1789 29.0544 53.0382C28.1217 54.3863 26.9092 55.4089 25.4635 56.1991C24.764 56.571 24.0644 56.3851 23.738 55.7343C23.4116 55.13 23.6447 54.4327 24.3443 54.0609C26.5361 52.8988 27.8885 51.0859 28.3082 48.6222C28.4482 47.5996 28.4015 46.577 28.4481 45.5543C28.4481 44.9035 29.0078 44.3922 29.6607 44.3922C30.3136 44.3922 30.8265 44.9035 30.8265 45.6008C30.7799 46.0191 30.7799 46.4375 30.7799 46.9953Z" fill="#2E2E2D"/>
<path id="Vector_6" d="M47.5679 46.9489C47.5679 46.4375 47.5679 46.0192 47.5679 45.6008C47.5679 44.95 48.1275 44.4387 48.7804 44.4387C49.4333 44.4387 49.9463 44.95 49.9463 45.6008C49.9929 46.484 49.9463 47.3672 50.0396 48.2504C50.3194 50.8535 51.6252 52.8058 53.9103 54.0609C54.33 54.2933 54.7031 54.5722 54.7497 55.0835C54.7963 55.5484 54.6564 55.9202 54.2834 56.1992C53.8636 56.4781 53.4439 56.5245 52.9776 56.2921C51.905 55.7343 50.9256 55.0371 50.0862 54.1074C48.2674 51.9691 47.4746 49.5984 47.5679 46.9489Z" fill="#2E2E2D"/>
<path id="Vector_7" d="M35.5825 50.4351C35.5825 51.9691 35.5825 53.5031 35.5825 55.037C35.5825 55.8273 35.1161 56.3386 34.4166 56.3386C33.6705 56.3386 33.2041 55.8273 33.2041 55.037C33.2041 51.9226 33.2041 48.8082 33.2041 45.6938C33.2041 44.9035 33.6705 44.3922 34.37 44.3922C35.1161 44.3922 35.5825 44.9035 35.5825 45.6938C35.5825 47.2742 35.5825 48.8547 35.5825 50.4351Z" fill="#2E2E2D"/>
<path id="Vector_8" d="M40.3862 50.4351C40.3862 51.9691 40.3862 53.5031 40.3862 55.037C40.3862 55.8273 39.9199 56.3386 39.2203 56.3386C38.4742 56.3386 38.0078 55.8273 38.0078 55.037C38.0078 51.9226 38.0078 48.8082 38.0078 45.6938C38.0078 44.9035 38.4742 44.3922 39.1737 44.3922C39.9199 44.3922 40.3862 44.9035 40.3862 45.6938C40.3862 47.2742 40.3862 48.8547 40.3862 50.4351Z" fill="#2E2E2D"/>
<path id="Vector_9" d="M45.1899 50.4351C45.1899 51.9691 45.1899 53.5031 45.1899 55.037C45.1899 55.8273 44.7236 56.3851 43.9774 56.3386C43.2779 56.3386 42.8115 55.8273 42.8115 55.037C42.8115 51.9226 42.8115 48.8082 42.8115 45.6938C42.8115 44.9035 43.2779 44.3922 43.9774 44.3922C44.7236 44.3922 45.1899 44.9035 45.1899 45.6938C45.1899 47.2742 45.1899 48.8547 45.1899 50.4351Z" fill="#2E2E2D"/>
</g>
</g>
</g>
<defs>
<clipPath id="clip0_2094_2233">
<rect width="79" height="78" fill="white"/>
</clipPath>
</defs>
</svg>
