<svg width="79" height="78" viewBox="0 0 79 78" fill="none" xmlns="http://www.w3.org/2000/svg">
<g id="Frame" clip-path="url(#clip0_2094_2265)">
<g id="Group">
<g id="Group_2">
<g id="Group_3">
<g id="Group_4">
<g id="Group_5">
<path id="Vector" d="M8.39482 27.5185C14.504 9.99408 35.2101 -0.836674 58.2945 4.97382C57.2685 4.50898 52.6982 2.4172 51.6256 2.04533C32.9249 -4.41593 9.4208 4.7414 2.05244 25.3338C-4.56976 43.8809 5.45681 64.2873 24.1109 70.7486C25.1835 71.1204 26.2561 71.4458 27.3287 71.6782C10.6799 64.1943 2.23898 45.0894 8.39482 27.5185Z" fill="#5F5F5E"/>
<path id="Vector_2" d="M40.3398 6.08939C60.4862 6.78664 71.6787 20.9178 73.6374 38.2563C75.0831 51.3647 69.5335 64.5197 59.6002 72.5614C70.9792 68.1454 80.4927 50.4815 78.8605 35.8391C76.7153 17.3385 59.5535 2.60309 40.3398 6.08939Z" fill="#757575"/>
<path id="Vector_3" d="M34.2306 74.5137C24.5771 74.5137 15.7631 71.1204 8.81445 65.4494C15.39 73.1192 25.1368 78 36.0494 78C53.0246 78 67.2483 66.2396 70.9325 50.4351C64.8233 64.6127 50.6928 74.5137 34.2306 74.5137Z" fill="#929292"/>
</g>
</g>
</g>
</g>
<g id="Group_6">
<path id="Vector_4" d="M45.1441 40.0691C45.1441 40.5804 45.1441 41.0452 45.1441 41.603C45.3306 41.603 45.4705 41.603 45.657 41.603C47.6623 41.603 49.7143 41.603 51.7196 41.603C52.186 41.603 52.3725 41.789 52.4191 42.1608C52.4658 42.7651 52.4658 43.3694 52.4191 44.0202C52.4191 44.3921 52.186 44.578 51.7662 44.578C49.7609 44.5315 47.7556 44.578 45.7503 44.578C45.5638 44.578 45.4239 44.578 45.1907 44.578C45.1907 45.0893 45.1907 45.5542 45.1907 46.112C45.3772 46.112 45.5638 46.112 45.7037 46.112C47.709 46.112 49.7609 46.112 51.7662 46.112C52.186 46.112 52.3725 46.2514 52.4191 46.6233C52.4658 47.2741 52.4658 47.9248 52.4191 48.5756C52.4191 48.9475 52.186 49.0869 51.7662 49.0869C49.7609 49.0869 47.709 49.0869 45.7037 49.0869C45.5171 49.0869 45.3772 49.0869 45.1907 49.0869C45.1907 49.5983 45.1907 50.0631 45.1907 50.5744C45.3772 50.5744 45.5171 50.6209 45.7037 50.6209C47.3825 50.6209 49.0614 50.6674 50.6936 50.6209C51.2066 50.6209 51.4398 50.8068 51.4398 51.2252C51.4864 51.783 51.4864 52.3873 51.4398 52.9451C51.2999 53.8283 50.5537 54.3396 49.5744 54.3396C46.3099 54.3396 43.0455 54.3396 39.7344 54.3396C38.5685 54.3396 37.4026 54.3396 36.1901 54.2467C35.304 54.2002 34.5579 53.8283 33.905 53.2705C33.1588 52.6197 32.4593 51.9689 31.7131 51.3647C31.5266 51.1787 31.2001 51.0858 30.967 51.0858C30.4073 51.0393 29.8477 51.0858 29.2881 51.0858C29.2881 46.5768 29.2881 42.1608 29.2881 37.6054C29.8477 37.6054 30.4073 37.6054 31.0136 37.6054C31.2934 37.6054 31.5266 37.5125 31.6665 37.28C32.2261 36.4433 32.7857 35.6531 33.392 34.8164C34.2781 33.6543 35.4439 32.957 36.8896 32.957C38.3819 32.957 39.8743 32.957 41.4132 32.957C41.4132 33.6543 41.4132 34.3051 41.4132 35.0023C40.2474 35.0023 39.0348 35.0023 37.8223 35.0023C37.8223 35.5136 37.8223 35.9785 37.8223 36.4898C38.0089 36.4898 38.1954 36.4898 38.3819 36.4898C42.0661 36.4898 45.7503 36.4898 49.4345 36.4898C50.7403 36.4898 51.3932 37.1871 51.3932 38.4421C51.3932 38.814 51.3932 39.1394 51.3932 39.5113C51.3465 40.1156 51.2066 40.2085 50.6004 40.2085C48.9681 40.2085 47.2893 40.2085 45.657 40.2085C45.5171 40.0691 45.3306 40.0691 45.1441 40.0691Z" fill="#2E2E2D"/>
<path id="Vector_5" d="M41.0392 16.4553C41.0392 18.7795 41.0392 21.0572 41.0392 23.3349C41.0392 23.6603 41.1325 23.8462 41.4123 23.9857C42.5316 24.5435 43.6508 25.1478 44.7234 25.7521C45.0032 25.8915 45.1898 25.8915 45.4696 25.7521C46.5888 25.1478 47.6614 24.5435 48.7807 23.9857C49.0605 23.8462 49.1538 23.6603 49.1538 23.3814C49.1538 21.2896 49.1538 19.1513 49.1538 17.0596C49.1538 16.8736 49.1538 16.7342 49.1538 16.3623C49.8067 16.8736 50.3663 17.2455 50.8793 17.7103C54.5634 21.1966 54.3303 27.1466 50.3663 30.3075C50.1797 30.4469 49.8999 30.5399 49.6201 30.5399C46.5888 30.5399 43.5575 30.5399 40.5263 30.5399C40.3397 30.5399 40.0599 30.4934 39.92 30.354C35.2565 26.6817 35.7228 19.5697 40.8061 16.5482C40.8527 16.5482 40.946 16.5018 41.0392 16.4553Z" fill="#2E2E2D"/>
<path id="Vector_6" d="M21.2197 47.3206C21.2197 43.4159 21.2197 39.6042 21.2197 35.6996C23.3649 35.6996 25.5102 35.6996 27.702 35.6996C27.702 39.5577 27.702 43.4159 27.702 47.3206C25.5568 47.3206 23.4116 47.3206 21.2197 47.3206Z" fill="#2E2E2D"/>
<path id="Vector_7" d="M27.7489 52.6662C26.9095 52.6662 26.1167 52.6662 25.2772 52.6662C25.2772 51.783 25.2772 50.9463 25.2772 50.0631C24.7642 50.0631 24.2979 50.0631 23.7849 50.0631C23.7849 50.8998 23.7849 51.783 23.7849 52.6662C22.8988 52.6662 22.106 52.6662 21.2666 52.6662C21.2666 51.4111 21.2666 50.156 21.2666 48.8545C23.4118 48.8545 25.557 48.8545 27.7489 48.8545C27.7489 50.1096 27.7489 51.3646 27.7489 52.6662Z" fill="#2E2E2D"/>
<path id="Vector_8" d="M47.1489 55.6877C47.7085 55.6877 48.2215 55.6877 48.7345 55.6877C49.0143 57.0358 48.408 58.4768 47.2421 59.3135C46.0296 60.1502 44.444 60.1967 43.1849 59.36C41.9724 58.5697 41.3195 57.1287 41.5527 55.6877C42.1589 55.6877 42.7652 55.6877 43.3248 55.6877C43.7445 56.8963 44.3508 57.4541 45.2835 57.4541C46.1695 57.4076 46.8224 56.8498 47.1489 55.6877Z" fill="#2E2E2D"/>
<path id="Vector_9" d="M48.781 32.0739C48.781 33.0035 48.781 33.8867 48.781 34.7699C46.869 34.7699 44.957 34.7699 43.0449 34.7699C43.0449 33.8867 43.0449 33.0035 43.0449 32.0739C44.9103 32.0739 46.8224 32.0739 48.781 32.0739Z" fill="#2E2E2D"/>
</g>
</g>
</g>
<defs>
<clipPath id="clip0_2094_2265">
<rect width="79" height="78" fill="white"/>
</clipPath>
</defs>
</svg>
