<svg width="39" height="39" viewBox="0 0 39 39" fill="none" xmlns="http://www.w3.org/2000/svg">
<path id="Vector" d="M37.0451 34.9712V34.3332C37.0412 33.5271 36.5183 32.8127 35.7458 32.5452V31.785C35.7458 30.9789 35.2229 30.2607 34.4464 29.9933V20.2132C35.2229 19.9458 35.7419 19.2275 35.7458 18.4214V17.2983L36.932 14.9793L38.8088 13.1417C39.0624 12.8934 39.0624 12.4923 38.8088 12.2439C38.7737 12.2096 38.7308 12.1752 38.6878 12.1484L19.8374 0.886057C19.6306 0.759986 19.3692 0.759986 19.1624 0.886057L0.311961 12.1484C0.0037053 12.3318 -0.089941 12.7215 0.0934516 13.0233C0.120765 13.0653 0.151981 13.1073 0.191001 13.1417L2.06785 14.9793L3.25405 17.2983V18.4214C3.25405 19.2275 3.77691 19.9458 4.5534 20.2132V29.9933C3.77691 30.2607 3.25795 30.9789 3.25405 31.785V32.5452C2.47755 32.8127 1.95859 33.5271 1.95469 34.3332V34.9712C0.877746 34.9712 0.00760692 35.8269 0.00370495 36.8813V38.1535C0.00370495 38.505 0.296354 38.7915 0.651433 38.7915H38.3484C38.7074 38.7915 39 38.505 39 38.1573V36.8851C39 35.8307 38.126 34.9788 37.049 34.975L37.0451 34.9712ZM34.4464 18.4253C34.4464 18.7767 34.1538 19.0594 33.7948 19.0633H29.8967C29.5377 19.0633 29.249 18.7767 29.2451 18.4253V17.7873H34.4464V18.4253ZM2.69607 13.8026L1.69326 12.8208L19.498 2.18115L37.3026 12.8208L36.2998 13.8026L19.8374 3.88503C19.6267 3.75896 19.3653 3.75896 19.1546 3.88503L2.69216 13.8026H2.69607ZM22.0967 9.83712C22.0967 11.243 20.9339 12.3815 19.498 12.3815C18.062 12.3815 16.8992 11.243 16.8992 9.83712C16.8992 8.43124 18.062 7.29277 19.498 7.29277C20.9339 7.29277 22.0967 8.43124 22.0967 9.83712ZM4.29978 16.5189L3.64815 15.2467H35.3439L34.6922 16.5189H4.29978ZM27.9457 17.7911V18.4291C27.9457 18.7805 27.6531 19.0633 27.2941 19.0671H23.396C23.037 19.0671 22.7483 18.7805 22.7444 18.4291V17.7911H27.9457ZM16.2476 17.7911V18.4291C16.2476 18.7805 15.955 19.0633 15.596 19.0671H11.6979C11.3389 19.0671 11.0502 18.7805 11.0463 18.4291V17.7911H16.2476ZM9.74693 17.7911V18.4291C9.74693 18.7805 9.45428 19.0633 9.0953 19.0671H5.19723C4.83825 19.0671 4.5495 18.7805 4.5456 18.4291V17.7911H9.74693ZM9.74693 32.4268H4.5456V31.7888C4.5456 31.4373 4.83825 31.1546 5.19723 31.1508H9.0953C9.45428 31.1508 9.74302 31.4373 9.74693 31.7888V32.4268ZM9.74693 29.9971V20.217C9.98885 20.1329 10.2074 20.0031 10.3986 19.8388C10.5858 20.0069 10.8083 20.1329 11.0502 20.217V29.9971C10.8083 30.0811 10.5898 30.211 10.3986 30.3753C10.2113 30.2072 9.98885 30.0811 9.74693 29.9971ZM16.2476 32.4268H11.0463V31.7888C11.0463 31.4373 11.3389 31.1546 11.6979 31.1508H15.596C15.955 31.1508 16.2437 31.4373 16.2476 31.7888V32.4268ZM21.4489 31.7888V32.4268H17.5509V31.7888C17.5509 30.9827 17.028 30.2645 16.2515 29.9971V20.217C17.028 19.9496 17.547 19.2313 17.5509 18.4253V17.7873H21.4489V18.4253C21.4489 19.2313 21.9718 19.9496 22.7483 20.217V29.9971C21.9718 30.2645 21.4489 30.9827 21.4489 31.7888ZM27.9496 32.4268H22.7483V31.7888C22.7483 31.4373 23.0409 31.1546 23.3999 31.1508H27.298C27.657 31.1508 27.9457 31.4373 27.9496 31.7888V32.4268ZM27.9496 29.9971V20.217C28.1915 20.1329 28.4101 20.0031 28.6013 19.8388C28.7885 20.0069 29.011 20.1329 29.2529 20.217V29.9971C29.011 30.0811 28.7924 30.211 28.6013 30.3753C28.414 30.2072 28.1915 30.0811 27.9496 29.9971ZM34.4503 32.4268H29.249V31.7888C29.249 31.4373 29.5416 31.1546 29.9006 31.1508H33.7987C34.1577 31.1508 34.4464 31.4373 34.4503 31.7888V32.4268Z" fill="#3E4248"/>
</svg>
