<?xml version="1.0" encoding="UTF-8"?><svg id="Capa_1" xmlns="http://www.w3.org/2000/svg" viewBox="0 0 250 250"><defs><style>.cls-1{fill:#3e4248;}.cls-2{fill:none;stroke:#3e4248;stroke-miterlimit:10;stroke-width:11px;}</style></defs><g><path class="cls-1" d="M122.13,77.19l-6.7,2.96v22.32h6.7v-25.28Z"/><path class="cls-1" d="M134.79,80.14l-6.7-2.96v25.28h6.7v-22.32Z"/><path class="cls-1" d="M109.46,82.77l-6.7,2.96v16.74h6.7v-19.69Z"/><path class="cls-1" d="M96.8,88.35l-6.7,2.96v11.15h6.7v-14.11Z"/><path class="cls-1" d="M166.07,93.94v8.53h9.89v-4.16l-9.89-4.36Z"/><path class="cls-1" d="M84.14,93.94l-9.89,4.36v4.16h9.89v-8.53Z"/><path class="cls-1" d="M147.45,85.73l-6.7-2.96v19.69h6.7v-16.74Z"/><path class="cls-1" d="M160.11,91.31l-6.7-2.96v14.11h6.7v-11.15Z"/><circle class="cls-1" cx="128.09" cy="170.79" r="5.2"/><circle class="cls-1" cx="163.99" cy="170.79" r="5.2"/><path class="cls-1" d="M111.18,170.03h5.78c.39-5.8,5.23-10.4,11.13-10.4s10.74,4.6,11.13,10.4h11.82v-35.51h-39.86v35.51Z"/><path class="cls-1" d="M157,141.99v20.12c1.91-1.54,4.35-2.47,6.99-2.47,5.9,0,10.74,4.6,11.13,10.4h.84v-13.71l-7.82-14.33h-11.15Z"/><path class="cls-1" d="M157,136.03h3.32v-14.94h-25.91v7.48h22.58v7.46Z"/><path class="cls-1" d="M74.25,163.67h9.68v-48.54h37.83v13.44h6.7v-13.44h37.83v20.9h5.4l4.28,7.84v-35.45H74.25v55.25Z"/><path class="cls-1" d="M115.8,128.56v-7.48h-25.91v42.58h15.33v-35.11h10.57Z"/></g><circle class="cls-2" cx="125.11" cy="126.59" r="97"/></svg>