<?xml version="1.0" encoding="UTF-8"?><svg id="Capa_1" xmlns="http://www.w3.org/2000/svg" viewBox="0 0 250 250"><defs><style>.cls-1{fill:#3e4248;}.cls-2{fill:none;stroke:#3e4248;stroke-miterlimit:10;stroke-width:11px;}</style></defs><g><path class="cls-1" d="M174.52,164.69H76.36c-1.89,.61-3.26,1.98-3.26,3.67v6.52c0,1.69,1.37,3.05,3.05,3.05h98.16c1.69,0,3.05-1.37,3.05-3.05v-6.52c0-1.69-1.37-3.05-2.85-3.67Z"/><path class="cls-1" d="M175.49,94.26l-49.08-20.37c-.75-.31-1.59-.31-2.34,0l-49.08,20.37c-1.14,.47-1.88,1.59-1.88,2.82v6.11c0,1.69,1.37,3.05,3.05,3.05h98.16c1.69,0,3.05-1.37,3.05-3.05v-6.11c0-1.23-.74-2.35-1.88-2.82Zm-31.92,2.82h-36.66c-1.69,0-3.05-1.37-3.05-3.05s1.37-3.05,3.05-3.05h36.66c1.69,0,3.05,1.37,3.05,3.05s-1.37,3.05-3.05,3.05Z"/><path class="cls-1" d="M78.91,153.08v6.11h23.42v-6.11c0-1.69-1.37-3.05-3.05-3.05h-17.31c-1.69,0-3.05,1.37-3.05,3.05Z"/><path class="cls-1" d="M82.98,112.35h15.27v31.57h-15.27v-31.57Z"/><path class="cls-1" d="M152.22,112.35h15.27v31.57h-15.27v-31.57Z"/><path class="cls-1" d="M148.15,153.08v6.11h23.42v-6.11c0-1.69-1.37-3.05-3.05-3.05h-17.31c-1.69,0-3.05,1.37-3.05,3.05Z"/><path class="cls-1" d="M125.24,144.94c-1.68,0-3.05-1.37-3.05-3.05s-1.37-3.05-3.05-3.05-3.05,1.37-3.05,3.05c0,3.98,2.55,7.38,6.11,8.64v1.54c0,1.69,1.37,3.05,3.05,3.05s3.05-1.37,3.05-3.05v-1.54c3.56-1.26,6.11-4.66,6.11-8.64,0-5.05-4.11-9.16-9.16-9.16-1.68,0-3.05-1.37-3.05-3.05s1.37-3.05,3.05-3.05,3.05,1.37,3.05,3.05,1.37,3.05,3.05,3.05,3.05-1.37,3.05-3.05c0-3.98-2.55-7.38-6.11-8.64v-1.54c0-1.69-1.37-3.05-3.05-3.05s-3.05,1.37-3.05,3.05v1.54c-3.56,1.26-6.11,4.66-6.11,8.64,0,5.05,4.11,9.16,9.16,9.16,1.68,0,3.05,1.37,3.05,3.05s-1.37,3.05-3.05,3.05Z"/></g><circle class="cls-2" cx="125.24" cy="125.79" r="97"/></svg>