<svg width="34" height="35" viewBox="0 0 34 35" fill="none" xmlns="http://www.w3.org/2000/svg">
<g id="_02-shop">
<g id="Glyph">
<path id="Vector" d="M33.9935 12.1826H0V13.6006C0 15.1657 1.26773 16.4334 2.83279 16.4334H7.08361C8.64866 16.4334 9.91639 15.1657 9.91639 13.6006C9.91639 15.1657 11.1841 16.4334 12.7492 16.4334H21.2508C22.8159 16.4334 24.0836 15.1657 24.0836 13.6006C24.0836 15.1657 25.3513 16.4334 26.9164 16.4334H31.1672C32.7323 16.4334 34 15.1657 34 13.6006V12.1826H33.9935Z" fill="#3E4248"/>
<path id="Vector_2" d="M33.6509 10.768L31.1122 1.87751C30.939 1.26978 30.3836 0.851562 29.7497 0.851562H23.2607L25.244 10.768H33.6509Z" fill="#3E4248"/>
<path id="Vector_3" d="M10.7359 0.851562H4.24691C3.61305 0.851562 3.0576 1.26978 2.88443 1.87751L0.345703 10.768H8.75258L10.7359 0.851562Z" fill="#3E4248"/>
<path id="Vector_4" d="M20.3716 0.851562H13.6278L11.6445 10.768H22.3549L20.3716 0.851562Z" fill="#3E4248"/>
<path id="Vector_5" d="M26.9167 17.8515C25.8711 17.8515 24.8615 17.4659 24.0839 16.7667C23.3063 17.4659 22.2966 17.8515 21.2511 17.8515H12.7495C11.7039 17.8515 10.6943 17.4659 9.91667 16.7667C9.13904 17.4659 8.12943 17.8515 7.08388 17.8515H2.83307C2.3495 17.8515 1.87247 17.7665 1.41504 17.6032V33.4335C1.41504 34.2144 2.0489 34.8515 2.83307 34.8515H5.66585V22.1023C5.66585 21.3214 6.29972 20.6843 7.08388 20.6843H14.1675C14.9484 20.6843 15.5855 21.3181 15.5855 22.1023V34.8515H31.1675C31.9484 34.8515 32.5855 34.2176 32.5855 33.4335V17.6032C32.1314 17.7665 31.6511 17.8515 31.1675 17.8515H26.9167ZM28.3347 26.3531C28.3347 27.134 27.7008 27.7711 26.9167 27.7711H19.8331C19.0522 27.7711 18.415 27.1373 18.415 26.3531V22.1023C18.415 21.3214 19.0489 20.6843 19.8331 20.6843H26.9167C27.6976 20.6843 28.3347 21.3181 28.3347 22.1023V26.3531Z" fill="#3E4248"/>
</g>
</g>
</svg>
