<svg width="51" height="48" viewBox="0 0 51 48" fill="none" xmlns="http://www.w3.org/2000/svg">
<path id="Vector" d="M50.4377 19.0201L43.2145 16.7786V11.3448C43.2145 11.0343 43.0415 10.7529 42.7675 10.617L23.2605 0.870072C23.2605 0.870072 23.2557 0.870072 23.246 0.870072C23.2076 0.850665 23.0634 0.782744 22.852 0.792447C22.6309 0.80215 22.4723 0.913736 22.4387 0.937994L8.52563 10.9518C8.31417 11.1022 8.18922 11.3496 8.18922 11.6116V18.6029L5.60365 18.2924H5.57963C5.54599 18.2924 5.46909 18.2924 5.3922 18.3021C5.30089 18.3118 5.21918 18.3457 5.19035 18.3554H5.18074L0.475781 20.4611C0.182622 20.592 0 20.8831 0 21.2034V34.7492C0 35.0451 0.158595 35.3168 0.418113 35.4575L5.13268 38.0677C5.13268 38.0677 5.25763 38.1405 5.40661 38.1599C5.54118 38.1793 5.6373 38.1599 5.6373 38.1599L8.18922 37.7863V39.2806C8.18922 39.5766 8.34781 39.8483 8.60733 39.9938L22.5155 47.6885C22.5155 47.6885 22.6693 47.7807 22.876 47.7904C23.0298 47.8001 23.1836 47.7419 23.1836 47.7419L42.6906 40.2509L50.481 37.2623C50.7933 37.141 51 36.8402 51 36.5055V19.8012C51 19.4422 50.7741 19.1317 50.4377 19.025V19.0201ZM2.23954 31.387C2.23954 31.4695 2.20109 31.5519 2.13381 31.6004C2.08575 31.6344 2.02808 31.6587 1.97041 31.6587C1.94638 31.6587 1.92235 31.6587 1.89832 31.649L1.00443 31.3967C0.889086 31.3627 0.807388 31.256 0.807388 31.1347V28.6215C0.807388 28.5439 0.841029 28.4711 0.893894 28.4226C0.951565 28.3692 1.02365 28.345 1.10055 28.3547L1.99444 28.442C2.12901 28.4566 2.23473 28.573 2.23473 28.7089V31.387H2.23954ZM2.23954 26.0356C2.23954 26.1763 2.13381 26.2927 1.99444 26.3073L1.10055 26.3801H1.07652C1.00923 26.3801 0.946759 26.3558 0.893894 26.3121C0.836223 26.2588 0.807388 26.1909 0.807388 26.1132V23.6001C0.807388 23.4788 0.889087 23.372 1.00923 23.3381L1.90313 23.1003C1.98483 23.0809 2.06653 23.1004 2.13381 23.1489C2.20109 23.1974 2.23954 23.2799 2.23954 23.3623V26.0404V26.0356ZM4.84913 32.1196C4.84913 32.202 4.81069 32.2845 4.7434 32.333C4.69535 32.367 4.63767 32.3864 4.58 32.3864C4.55597 32.3864 4.53194 32.3864 4.50791 32.3767L3.28242 32.0322C3.16708 31.9983 3.08537 31.8915 3.08537 31.7702V28.8399C3.08537 28.7622 3.11902 28.6895 3.17188 28.6409C3.22955 28.5876 3.30164 28.5633 3.37853 28.573L4.60403 28.6943C4.7434 28.7089 4.84433 28.8253 4.84433 28.9611V32.1147L4.84913 32.1196ZM4.84913 25.8173C4.84913 25.958 4.7434 26.0744 4.60403 26.089L3.37853 26.1908H3.3545C3.28722 26.1908 3.21994 26.1666 3.17188 26.1181C3.11421 26.0647 3.08537 25.9968 3.08537 25.9192V22.9936C3.08537 22.8723 3.16707 22.7656 3.28722 22.7316L4.51272 22.4066C4.59442 22.3823 4.67612 22.4066 4.7434 22.4551C4.81069 22.5084 4.84913 22.5861 4.84913 22.6686V25.8221V25.8173ZM11.5485 33.9972C11.5485 34.0796 11.5101 34.1621 11.4428 34.2106C11.3947 34.2446 11.3371 34.2689 11.2794 34.2689C11.2554 34.2689 11.2313 34.2689 11.2073 34.2592L9.62618 33.8176C9.51084 33.7837 9.42914 33.677 9.42914 33.5557V29.4706C9.42914 29.3929 9.46278 29.3202 9.51564 29.2717C9.57331 29.2183 9.6454 29.194 9.72229 29.2037L11.3034 29.359C11.4428 29.3735 11.5437 29.49 11.5437 29.6258V33.9972H11.5485ZM11.5485 25.2593C11.5485 25.4 11.4428 25.5165 11.3034 25.5262L9.72229 25.6572C9.72229 25.6572 9.70788 25.6572 9.69827 25.6572C9.63098 25.6572 9.5637 25.6329 9.51564 25.5844C9.45797 25.531 9.42914 25.4583 9.42914 25.3855V21.3004C9.42914 21.1791 9.51084 21.0724 9.63098 21.0384L11.2121 20.6212C11.2938 20.6017 11.3803 20.6212 11.4428 20.6697C11.5101 20.7182 11.5485 20.8007 11.5485 20.8831V25.2545V25.2593ZM11.5485 16.5215C11.5485 16.6282 11.4861 16.7253 11.3899 16.7689L9.8088 17.4724C9.77516 17.487 9.73671 17.4967 9.69827 17.4967C9.6454 17.4967 9.59734 17.4821 9.55409 17.453C9.47719 17.4045 9.43394 17.3172 9.43394 17.225V13.1399C9.43394 13.0477 9.482 12.9604 9.55889 12.9119L11.14 11.9173C11.2217 11.8639 11.3275 11.8639 11.4092 11.9076C11.4957 11.9561 11.5485 12.0434 11.5485 12.1453V16.5118V16.5215ZM15.4845 35.1033C15.4845 35.1858 15.4461 35.2683 15.3788 35.3168C15.3308 35.3508 15.2731 35.375 15.2154 35.375C15.1914 35.375 15.1674 35.375 15.1433 35.3653L13.0287 34.7734C12.9134 34.7395 12.8317 34.6327 12.8317 34.5114V29.8102C12.8317 29.7326 12.8653 29.6598 12.9182 29.6113C12.9759 29.5627 13.048 29.5385 13.1249 29.5433L15.2394 29.752C15.374 29.7665 15.4797 29.883 15.4797 30.0188V35.1033H15.4845ZM15.4845 24.9343C15.4845 25.075 15.3788 25.1914 15.2394 25.206L13.1249 25.3806C13.1249 25.3806 13.1104 25.3806 13.1008 25.3806C13.0335 25.3806 12.9711 25.3564 12.9182 25.3079C12.8605 25.2545 12.8317 25.1866 12.8317 25.1089V20.4077C12.8317 20.2864 12.9134 20.1797 13.0335 20.1457L15.1481 19.5829C15.2298 19.5586 15.3163 19.5829 15.3788 19.6314C15.4461 19.6848 15.4845 19.7624 15.4845 19.8449V24.9294V24.9343ZM15.4845 14.7652C15.4845 14.8719 15.4221 14.969 15.326 15.0126L13.2114 15.9587C13.1777 15.9733 13.1393 15.983 13.1008 15.983C13.048 15.983 12.9999 15.9684 12.9567 15.9393C12.8798 15.8908 12.8365 15.8035 12.8365 15.7113V11.01C12.8365 10.9178 12.8846 10.8305 12.9615 10.782L15.076 9.45265C15.1577 9.39928 15.2635 9.39928 15.3452 9.44295C15.4317 9.49146 15.4845 9.57879 15.4845 9.68068V14.7652ZM20.9584 36.6365C20.9584 36.7141 20.9296 36.7917 20.8719 36.8499C20.7758 36.9518 20.6413 36.9518 20.598 36.9518C20.0694 36.9518 18.022 36.2095 17.6184 36.0591C17.5126 36.0203 17.4405 35.9184 17.4405 35.8068V30.2662C17.4405 30.1886 17.4742 30.1158 17.527 30.0673C17.5847 30.014 17.6568 29.9897 17.7337 29.9994L20.7133 30.2954C20.8479 30.3099 20.9536 30.4263 20.9536 30.5622C20.9536 30.6204 20.9536 36.3842 20.9536 36.6413L20.9584 36.6365ZM20.9584 24.4782C20.9584 24.6189 20.8527 24.7354 20.7133 24.7451L17.7337 24.9925C17.7337 24.9925 17.7193 24.9925 17.7097 24.9925C17.6424 24.9925 17.5751 24.9682 17.527 24.9197C17.4694 24.8663 17.4405 24.7984 17.4405 24.7208V19.1802C17.4405 19.0589 17.5222 18.9522 17.6424 18.9182L20.622 18.1274C20.7037 18.1031 20.7854 18.1274 20.8527 18.1759C20.92 18.2244 20.9584 18.3069 20.9584 18.3894V24.4734V24.4782ZM20.9584 12.3151C20.9584 12.4219 20.896 12.5189 20.7998 12.5626L17.8202 13.8968C17.7866 13.9113 17.7481 13.921 17.7097 13.921C17.6568 13.921 17.6087 13.9065 17.5655 13.8774C17.4886 13.8288 17.4453 13.7415 17.4453 13.6493V8.11359C17.4453 8.02141 17.4934 7.93408 17.5703 7.88556L20.5499 6.01282C20.6316 5.95945 20.7374 5.95946 20.8191 6.00312C20.9056 6.05164 20.9584 6.13897 20.9584 6.24085V12.32V12.3151ZM32.8097 9.28284C32.8097 9.19066 32.8578 9.10818 32.9299 9.05481C33.002 9.00144 33.0981 8.99659 33.1846 9.03055L36.3661 10.4181C36.4622 10.4618 36.5295 10.5588 36.5295 10.6656V15.4638C36.5295 15.5512 36.491 15.6288 36.419 15.6822C36.3709 15.7161 36.318 15.7355 36.2604 15.7355C36.2363 15.7355 36.2075 15.7355 36.1835 15.7258L33.002 14.741C32.8914 14.707 32.8146 14.6003 32.8146 14.4838V9.28284H32.8097ZM32.8097 19.6799C32.8097 19.6023 32.8434 19.5247 32.9059 19.4713C32.9683 19.4179 33.05 19.3985 33.1269 19.4131L36.3084 20.0001C36.4334 20.0244 36.5295 20.136 36.5295 20.267V25.1089C36.5295 25.1817 36.5007 25.2545 36.443 25.3079C36.3949 25.3564 36.3276 25.3806 36.2604 25.3806C36.2556 25.3806 36.2459 25.3806 36.2411 25.3806L33.0596 25.1526C32.9203 25.1429 32.8097 25.0265 32.8097 24.8858V19.6848V19.6799ZM24.5292 5.66836C24.5292 5.57617 24.5725 5.4937 24.6494 5.44033C24.7263 5.39182 24.8176 5.38211 24.9041 5.41607L29.4216 7.39069C29.5177 7.43436 29.585 7.53139 29.585 7.63813V13.3097C29.585 13.397 29.5465 13.4747 29.4745 13.528C29.4264 13.562 29.3735 13.5814 29.3159 13.5814C29.2918 13.5814 29.263 13.5814 29.239 13.5717L24.7214 12.1696C24.6109 12.1356 24.534 12.0289 24.534 11.9124V5.66351L24.5292 5.66836ZM24.5292 24.4006V18.1565C24.5292 18.0789 24.5629 18.0013 24.6253 17.9479C24.6878 17.8945 24.7647 17.8751 24.8464 17.8897L29.3639 18.7193C29.4889 18.7436 29.585 18.8552 29.585 18.9861V24.6577C29.585 24.7305 29.5562 24.8033 29.4985 24.8566C29.4504 24.9052 29.3831 24.9294 29.3159 24.9294C29.3111 24.9294 29.3063 24.9294 29.3014 24.9294L24.7839 24.6674C24.6446 24.6577 24.534 24.5413 24.534 24.3957L24.5292 24.4006ZM33.348 43.0746C33.348 43.1862 33.2807 43.2881 33.175 43.3269L27.2589 45.5975C27.2301 45.6072 27.1965 45.6169 27.1628 45.6169C27.11 45.6169 27.0571 45.6023 27.009 45.5684C26.937 45.5198 26.8937 45.4325 26.8937 45.3452V30.4797C26.8937 30.339 27.0042 30.2177 27.1436 30.208L33.0596 29.8053C33.1365 29.8005 33.2038 29.8296 33.2615 29.8781C33.3144 29.9266 33.348 29.9994 33.348 30.077V43.0746ZM40.4751 40.3383C40.4751 40.4499 40.4078 40.5517 40.3021 40.5906L36.3565 42.1043C36.3228 42.114 36.294 42.1237 36.2604 42.1237C36.2075 42.1237 36.1546 42.1043 36.1066 42.0752C36.0345 42.0266 35.9912 41.9393 35.9912 41.852V29.8587C35.9912 29.718 36.1018 29.6016 36.2411 29.587L40.1868 29.3153C40.2637 29.3105 40.3309 29.3347 40.3886 29.3881C40.4415 29.4366 40.4751 29.5094 40.4751 29.587V40.3334V40.3383ZM41.6141 25.3564C41.6141 25.4291 41.5853 25.5019 41.5276 25.5553C41.4795 25.6038 41.4123 25.6281 41.345 25.6281H41.3306L38.9709 25.4922C38.8315 25.4825 38.721 25.3661 38.721 25.2205V20.7667C38.721 20.6891 38.7546 20.6115 38.8171 20.5581C38.8796 20.5047 38.9613 20.4853 39.0382 20.4999L41.3978 20.9365C41.5228 20.9608 41.6189 21.0724 41.6189 21.2034V25.3612L41.6141 25.3564ZM41.6141 17.0455C41.6141 17.1328 41.5757 17.2104 41.5036 17.2638C41.4555 17.2978 41.4027 17.3172 41.345 17.3172C41.321 17.3172 41.2921 17.3172 41.2681 17.3026L38.9084 16.57C38.7979 16.5361 38.721 16.4293 38.721 16.3129V11.8591C38.721 11.7669 38.7642 11.6844 38.8411 11.631C38.918 11.5777 39.0093 11.5728 39.0958 11.6068L41.4555 12.6353C41.5516 12.679 41.6189 12.776 41.6189 12.8828V17.0358L41.6141 17.0455ZM46.3335 32.7503C46.3335 32.8813 46.2422 32.9929 46.1172 33.0171L44.4015 33.3519C44.4015 33.3519 44.3679 33.3519 44.3535 33.3519C44.291 33.3519 44.2285 33.3276 44.1853 33.2888C44.1228 33.2403 44.0891 33.1627 44.0891 33.0802V29.3056C44.0891 29.1649 44.1997 29.0485 44.339 29.0339L46.0547 28.9175C46.1268 28.9175 46.1989 28.9417 46.2566 28.9903C46.3095 29.0388 46.3431 29.1115 46.3431 29.1892V32.7503H46.3335ZM46.3335 25.6329C46.3335 25.7057 46.3047 25.7785 46.247 25.827C46.1989 25.8755 46.1316 25.8998 46.0644 25.8998H46.0499L44.3342 25.7979C44.1949 25.7882 44.0843 25.6717 44.0843 25.5262V21.7516C44.0843 21.674 44.118 21.5963 44.1805 21.543C44.2429 21.4896 44.3198 21.4702 44.4015 21.4847L46.1172 21.8001C46.2422 21.8244 46.3383 21.936 46.3383 22.0669V25.6281L46.3335 25.6329ZM49.2362 32.1875C49.2362 32.3185 49.1449 32.4301 49.02 32.4543L47.6455 32.7212C47.6455 32.7212 47.6119 32.7212 47.5974 32.7212C47.535 32.7212 47.4725 32.6969 47.4292 32.6581C47.3667 32.6047 47.3331 32.532 47.3331 32.4495V29.0824C47.3331 28.9417 47.4436 28.8253 47.583 28.8156L48.9527 28.7234C49.0248 28.7186 49.0969 28.7477 49.1545 28.7962C49.2074 28.8496 49.241 28.9175 49.241 28.9951V32.1875H49.2362ZM49.2362 25.7979C49.2362 25.8706 49.2074 25.9434 49.1545 25.9968C49.1065 26.0453 49.0392 26.0696 48.9719 26.0696C48.9671 26.0696 48.9623 26.0696 48.9575 26.0696L47.5878 25.9919C47.4485 25.9822 47.3379 25.8658 47.3379 25.7202V22.3969C47.3379 22.3192 47.3716 22.2416 47.4292 22.1931C47.4869 22.1397 47.5638 22.1203 47.6407 22.13L49.0152 22.3386C49.1449 22.358 49.241 22.4745 49.241 22.6055V25.7979H49.2362Z" fill="#3E4248"/>
</svg>
