<?xml version="1.0" encoding="UTF-8"?><svg id="Capa_1" xmlns="http://www.w3.org/2000/svg" viewBox="0 0 250 250"><defs><style>.cls-1{fill:#3e4248;}.cls-2{fill:none;stroke:#3e4248;stroke-miterlimit:10;stroke-width:11px;}</style></defs><path class="cls-1" d="M170.38,164.5v-1.67c-.01-2.11-1.35-3.98-3.33-4.68v-1.99c0-2.11-1.34-3.99-3.33-4.69v-25.6c1.99-.7,3.32-2.58,3.33-4.69v-2.94l3.04-6.07,4.81-4.81c.65-.65,.65-1.7,0-2.35-.09-.09-.2-.18-.31-.25l-48.31-29.48c-.53-.33-1.2-.33-1.73,0l-48.31,29.48c-.79,.48-1.03,1.5-.56,2.29,.07,.11,.15,.22,.25,.31l4.81,4.81,3.04,6.07v2.94c0,2.11,1.34,3.99,3.33,4.69v25.6c-1.99,.7-3.32,2.58-3.33,4.69v1.99c-1.99,.7-3.32,2.57-3.33,4.68v1.67c-2.76,0-4.99,2.24-5,5v3.33c0,.92,.75,1.67,1.66,1.67h96.61c.92,0,1.67-.75,1.67-1.66h0v-3.33c0-2.76-2.24-4.99-5-5Zm-6.66-43.31c0,.92-.75,1.66-1.67,1.67h-9.99c-.92,0-1.66-.75-1.67-1.67v-1.67h13.33v1.67h0Zm-81.37-12.1l-2.57-2.57,45.63-27.85,45.63,27.85-2.57,2.57-42.19-25.96c-.54-.33-1.21-.33-1.75,0l-42.19,25.96Zm49.72-10.38c0,3.68-2.98,6.66-6.66,6.66s-6.66-2.98-6.66-6.66,2.98-6.66,6.66-6.66c3.68,0,6.66,2.98,6.66,6.66Zm-45.61,17.49l-1.67-3.33h81.23l-1.67,3.33H86.46Zm60.6,3.33v1.67c0,.92-.75,1.66-1.67,1.67h-9.99c-.92,0-1.66-.75-1.67-1.67v-1.67h13.33Zm-29.98,0v1.67c0,.92-.75,1.66-1.67,1.67h-9.99c-.92,0-1.66-.75-1.67-1.67v-1.67h13.33Zm-16.66,0v1.67c0,.92-.75,1.66-1.67,1.67h-9.99c-.92,0-1.66-.75-1.67-1.67v-1.67h13.33Zm0,38.31h-13.33v-1.67c0-.92,.75-1.66,1.67-1.67h9.99c.92,0,1.66,.75,1.67,1.67v1.67h0Zm0-6.36v-25.6c.62-.22,1.18-.56,1.67-.99,.48,.44,1.05,.77,1.67,.99v25.6c-.62,.22-1.18,.56-1.67,.99-.48-.44-1.05-.77-1.67-.99Zm16.66,6.36h-13.33v-1.67c0-.92,.75-1.66,1.67-1.67h9.99c.92,0,1.66,.75,1.67,1.67v1.67h0Zm13.33-1.67v1.67h-9.99v-1.67c0-2.11-1.34-3.99-3.33-4.69v-25.6c1.99-.7,3.32-2.58,3.33-4.69v-1.67h9.99v1.67c0,2.11,1.34,3.99,3.33,4.69v25.6c-1.99,.7-3.33,2.58-3.33,4.69Zm16.66,1.67h-13.33v-1.67c0-.92,.75-1.66,1.67-1.67h9.99c.92,0,1.66,.75,1.67,1.67v1.67Zm0-6.36v-25.6c.62-.22,1.18-.56,1.67-.99,.48,.44,1.05,.77,1.67,.99v25.6c-.62,.22-1.18,.56-1.67,.99-.48-.44-1.05-.77-1.67-.99Zm16.66,6.36h-13.33v-1.67c0-.92,.75-1.66,1.67-1.67h9.99c.92,0,1.66,.75,1.67,1.67v1.67h0Z"/><circle class="cls-2" cx="125.41" cy="124.77" r="97"/></svg>