<?xml version="1.0" encoding="UTF-8"?><svg id="Capa_1" xmlns="http://www.w3.org/2000/svg" viewBox="0 0 250 250"><defs><style>.cls-1{fill:#3e4248;}.cls-2{fill:none;stroke:#3e4248;stroke-miterlimit:10;stroke-width:11px;}</style></defs><g id="_02-shop"><g id="Glyph"><path class="cls-1" d="M177.12,107.31H73.08v4.34c0,4.79,3.88,8.67,8.67,8.67h13.01c4.79,0,8.67-3.88,8.67-8.67,0,4.79,3.88,8.67,8.67,8.67h26.02c4.79,0,8.67-3.88,8.67-8.67,0,4.79,3.88,8.67,8.67,8.67h13.01c4.79,0,8.67-3.88,8.67-8.67v-4.34h-.02Z"/><path class="cls-1" d="M176.07,102.98l-7.77-27.21c-.53-1.86-2.23-3.14-4.17-3.14h-19.86l6.07,30.35h25.73Z"/><path class="cls-1" d="M105.94,72.63h-19.86c-1.94,0-3.64,1.28-4.17,3.14l-7.77,27.21h25.73l6.07-30.35Z"/><path class="cls-1" d="M135.43,72.63h-20.64l-6.07,30.35h32.78l-6.07-30.35Z"/><path class="cls-1" d="M155.46,124.66c-3.2,0-6.29-1.18-8.67-3.32-2.38,2.14-5.47,3.32-8.67,3.32h-26.02c-3.2,0-6.29-1.18-8.67-3.32-2.38,2.14-5.47,3.32-8.67,3.32h-13.01c-1.48,0-2.94-.26-4.34-.76v48.45c0,2.39,1.94,4.34,4.34,4.34h8.67v-39.02c0-2.39,1.94-4.34,4.34-4.34h21.68c2.39,0,4.34,1.94,4.34,4.34v39.02h47.69c2.39,0,4.34-1.94,4.34-4.34v-48.45c-1.39,.5-2.86,.76-4.34,.76h-13.01Zm4.34,26.02c0,2.39-1.94,4.34-4.34,4.34h-21.68c-2.39,0-4.34-1.94-4.34-4.34v-13.01c0-2.39,1.94-4.34,4.34-4.34h21.68c2.39,0,4.34,1.94,4.34,4.34v13.01Z"/></g></g><circle class="cls-2" cx="125.11" cy="124.66" r="97"/></svg>