<svg width="46" height="49" viewBox="0 0 46 49" fill="none" xmlns="http://www.w3.org/2000/svg">
<g id="Group">
<g id="surface1">
<path id="Vector" d="M12.029 8.74991L15.1132 10.0252L14.4575 10.3282C14.2721 10.4231 14.1907 10.6402 14.2721 10.8301L15.1584 12.7385C15.2036 12.8335 15.2805 12.9058 15.38 12.942C15.475 12.9827 15.5835 12.9827 15.6785 12.942L22.4347 9.77193L22.5206 8.87201L22.6382 7.6691C22.6517 7.51082 22.7919 7.39325 22.9547 7.40681C23.0587 7.41586 23.1492 7.47917 23.1899 7.57413C23.2125 7.61936 23.2261 7.6691 23.2215 7.72337L22.4392 16.0216C22.6156 16.1483 22.8326 16.198 23.0452 16.1573C23.3436 16.0804 23.6104 15.7277 23.8275 15.1534L26.9614 5.82404L27.0518 5.55722C27.0971 5.40347 27.2599 5.31303 27.4181 5.35825C27.5719 5.40347 27.6623 5.56627 27.6171 5.72455C27.6171 5.73359 27.6126 5.73811 27.6081 5.74716L27.3006 6.64256L26.9569 7.6691L32.2479 5.19092C33.7764 4.47641 34.5633 3.02931 34.0342 1.90327C33.7357 1.31539 33.1614 0.912907 32.5011 0.831507C31.773 0.722974 31.0224 0.836031 30.3621 1.16163L24.3702 3.95636L17.9351 1.44653C17.1256 1.14354 16.4834 1.14806 16.0312 1.47366C15.6559 1.78117 15.4388 2.25148 15.4478 2.73988C15.4478 2.86198 15.5157 2.97956 15.6152 3.04739L19.9474 6.01849L17.4647 7.19427L13.2998 6.14964C13.1279 6.10894 12.9516 6.18581 12.8657 6.33504L11.8301 8.19368C11.7261 8.38361 11.7894 8.61877 11.9793 8.7273C11.9929 8.73634 12.0064 8.74087 12.0155 8.74539L12.029 8.74991Z" fill="#3E4248"/>
</g>
<g id="Group_2">
<path id="Vector_2" d="M5.4804 15.886V23.9717H2.78516V29.3622H16.2614V26.667H18.9566V23.9717H13.5661V18.5812H10.8709V23.9717H8.17564V15.886H5.4804Z" fill="#3E4248"/>
<path id="Vector_3" d="M18.9571 34.7526H21.6524V32.0574H2.78568V37.4479H0V40.1431C0 42.6122 0.836608 44.9005 2.10283 46.8179C3.59968 46.1169 5.22768 45.7506 6.89638 45.7506C9.13488 45.7506 11.3101 46.4109 13.1823 47.659C13.7204 48.0163 14.3445 48.2062 14.9821 48.2062C15.6197 48.2062 16.2438 48.0163 16.782 47.659C18.6541 46.4109 20.8293 45.7506 23.0678 45.7506C25.3063 45.7506 27.4815 46.4109 29.3537 47.659C29.8919 48.0163 30.5159 48.2062 31.1536 48.2062C31.7912 48.2062 32.4153 48.0163 32.9534 47.659C34.8256 46.4109 37.0008 45.7506 39.2393 45.7506C40.8628 45.7506 42.4546 46.1079 43.9198 46.7772C45.1724 44.8688 46 42.5941 46 40.1431V37.4479H18.9571V34.7526Z" fill="#3E4248"/>
<path id="Vector_4" d="M25.6953 30.7097H29.7382V34.7526H25.6953V30.7097Z" fill="#3E4248"/>
<path id="Vector_5" d="M32.4336 30.7097H36.4765V34.7526H32.4336V30.7097Z" fill="#3E4248"/>
<path id="Vector_6" d="M32.4336 17.2336H36.4765V21.2765H32.4336V17.2336Z" fill="#3E4248"/>
<path id="Vector_7" d="M39.1709 30.7097H43.2138V34.7526H39.1709V30.7097Z" fill="#3E4248"/>
<path id="Vector_8" d="M29.0645 23.9717H33.1073V28.0145H29.0645V23.9717Z" fill="#3E4248"/>
<path id="Vector_9" d="M35.8027 23.9717H39.8456V28.0145H35.8027V23.9717Z" fill="#3E4248"/>
</g>
</g>
</svg>
