<?xml version="1.0" encoding="UTF-8"?><svg id="Capa_1" xmlns="http://www.w3.org/2000/svg" viewBox="0 0 250 250"><defs><style>.cls-1{fill:#3e4248;}.cls-2{fill:none;stroke:#3e4248;stroke-miterlimit:10;stroke-width:11px;}</style></defs><g><path class="cls-1" d="M99.24,178.74h51.83v-55.3h-51.83v55.3Zm31.02-48.87h6.12v9.79h-6.12v-9.79Zm0,16.32h6.12v9.79h-6.12v-9.79Zm0,16.32h6.12v9.79h-6.12v-9.79Zm-16.32-32.65h6.12v9.79h-6.12v-9.79Zm0,16.32h6.12v9.79h-6.12v-9.79Zm0,16.32h6.12v9.79h-6.12v-9.79Z"/><path class="cls-1" d="M73.12,178.74h20v-48.67h-20v48.67h0Zm6.94-37.4h6.12v9.79h-6.12v-9.79Zm0,16.32h6.12v9.79h-6.12v-9.79Z"/><path class="cls-1" d="M157.19,130.07v48.67h20v-48.67h-20Zm13.06,37.39h-6.12v-9.79h6.12v9.79Zm0-16.32h-6.12v-9.79h6.12v9.79Z"/><path class="cls-1" d="M128.21,97.27v-3.63h19.59v-19.18c-18.58,0-25.71-.01-25.71,0-.11,0-.08-1.77,0,22.81l-20.69,13.3h-5.63v6.12h58.77v-6.12h-5.63l-20.7-13.31Z"/></g><circle class="cls-2" cx="125.15" cy="126.59" r="97"/></svg>