<?xml version="1.0" encoding="UTF-8"?><svg id="Capa_1" xmlns="http://www.w3.org/2000/svg" viewBox="0 0 250 250"><defs><style>.cls-1{fill:#3e4248;}.cls-2{fill:none;stroke:#3e4248;stroke-miterlimit:10;stroke-width:11px;}</style></defs><path class="cls-1" d="M176.99,113.9l-15.03-4.62v-11.2c0-.64-.36-1.22-.93-1.5l-40.59-20.09s-.01,0-.03,0c-.08-.04-.38-.18-.82-.16-.46,.02-.79,.25-.86,.3h0l-28.95,20.64c-.44,.31-.7,.82-.7,1.36v14.41l-5.38-.64h-.05c-.07,0-.23,0-.39,.02-.19,.02-.36,.09-.42,.11h-.02l-9.79,4.34c-.61,.27-.99,.87-.99,1.53v27.92c0,.61,.33,1.17,.87,1.46l9.81,5.38s.26,.15,.57,.19c.28,.04,.48,0,.48,0l5.31-.77v3.08c0,.61,.33,1.17,.87,1.47l28.94,15.86s.32,.19,.75,.21c.32,.02,.64-.1,.64-.1h0l40.59-15.44,16.21-6.16c.65-.25,1.08-.87,1.08-1.56v-34.43c0-.74-.47-1.38-1.17-1.6Zm-100.29,25.49c0,.17-.08,.34-.22,.44-.1,.07-.22,.12-.34,.12-.05,0-.1,0-.15-.02l-1.86-.52c-.24-.07-.41-.29-.41-.54v-5.18c0-.16,.07-.31,.18-.41,.12-.11,.27-.16,.43-.14l1.86,.18c.28,.03,.5,.27,.5,.55v5.52h0Zm0-11.03c0,.29-.22,.53-.51,.56l-1.86,.15h-.05c-.14,0-.27-.05-.38-.14-.12-.11-.18-.25-.18-.41v-5.18c0-.25,.17-.47,.42-.54l1.86-.49c.17-.04,.34,0,.48,.1,.14,.1,.22,.27,.22,.44v5.52h0Zm5.43,12.54c0,.17-.08,.34-.22,.44-.1,.07-.22,.11-.34,.11-.05,0-.1,0-.15-.02l-2.55-.71c-.24-.07-.41-.29-.41-.54v-6.04c0-.16,.07-.31,.18-.41,.12-.11,.27-.16,.43-.14l2.55,.25c.29,.03,.5,.27,.5,.55v6.5h0Zm0-12.99c0,.29-.22,.53-.51,.56l-2.55,.21h-.05c-.14,0-.28-.05-.38-.15-.12-.11-.18-.25-.18-.41v-6.03c0-.25,.17-.47,.42-.54l2.55-.67c.17-.05,.34,0,.48,.1,.14,.11,.22,.27,.22,.44v6.5Zm13.94,16.86c0,.17-.08,.34-.22,.44-.1,.07-.22,.12-.34,.12-.05,0-.1,0-.15-.02l-3.29-.91c-.24-.07-.41-.29-.41-.54v-8.42c0-.16,.07-.31,.18-.41,.12-.11,.27-.16,.43-.14l3.29,.32c.29,.03,.5,.27,.5,.55v9.01h0Zm0-18.01c0,.29-.22,.53-.51,.55l-3.29,.27s-.03,0-.05,0c-.14,0-.28-.05-.38-.15-.12-.11-.18-.26-.18-.41v-8.42c0-.25,.17-.47,.42-.54l3.29-.86c.17-.04,.35,0,.48,.1,.14,.1,.22,.27,.22,.44v9.01h0Zm0-18.01c0,.22-.13,.42-.33,.51l-3.29,1.45c-.07,.03-.15,.05-.23,.05-.11,0-.21-.03-.3-.09-.16-.1-.25-.28-.25-.47v-8.42c0-.19,.1-.37,.26-.47l3.29-2.05c.17-.11,.39-.11,.56-.02,.18,.1,.29,.28,.29,.49v9h0Zm8.19,38.3c0,.17-.08,.34-.22,.44-.1,.07-.22,.12-.34,.12-.05,0-.1,0-.15-.02l-4.4-1.22c-.24-.07-.41-.29-.41-.54v-9.69c0-.16,.07-.31,.18-.41,.12-.1,.27-.15,.43-.14l4.4,.43c.28,.03,.5,.27,.5,.55v10.48h0Zm0-20.96c0,.29-.22,.53-.51,.56l-4.4,.36s-.03,0-.05,0c-.14,0-.27-.05-.38-.15-.12-.11-.18-.25-.18-.41v-9.69c0-.25,.17-.47,.42-.54l4.4-1.16c.17-.05,.35,0,.48,.1,.14,.11,.22,.27,.22,.44v10.48h0Zm0-20.96c0,.22-.13,.42-.33,.51l-4.4,1.95c-.07,.03-.15,.05-.23,.05-.11,0-.21-.03-.3-.09-.16-.1-.25-.28-.25-.47v-9.69c0-.19,.1-.37,.26-.47l4.4-2.74c.17-.11,.39-.11,.56-.02,.18,.1,.29,.28,.29,.49v10.48h0Zm11.39,45.08c0,.16-.06,.32-.18,.44-.2,.21-.48,.21-.57,.21h0c-1.1,0-5.36-1.53-6.2-1.84-.22-.08-.37-.29-.37-.52v-11.42c0-.16,.07-.31,.18-.41,.12-.11,.27-.16,.43-.14l6.2,.61c.28,.03,.5,.27,.5,.55,0,.12,0,12,0,12.53Zm0-25.06c0,.29-.22,.53-.51,.55l-6.2,.51s-.03,0-.05,0c-.14,0-.28-.05-.38-.15-.12-.11-.18-.25-.18-.41v-11.42c0-.25,.17-.47,.42-.54l6.2-1.63c.17-.05,.34,0,.48,.1s.22,.27,.22,.44v12.54h0Zm0-25.07c0,.22-.13,.42-.33,.51l-6.2,2.75c-.07,.03-.15,.05-.23,.05-.11,0-.21-.03-.3-.09-.16-.1-.25-.28-.25-.47v-11.41c0-.19,.1-.37,.26-.47l6.2-3.86c.17-.11,.39-.11,.56-.02,.18,.1,.29,.28,.29,.49v12.53h0Zm24.66-6.25c0-.19,.1-.36,.25-.47s.35-.12,.53-.05l6.62,2.86c.2,.09,.34,.29,.34,.51v9.89c0,.18-.08,.34-.23,.45-.1,.07-.21,.11-.33,.11-.05,0-.11,0-.16-.02l-6.62-2.03c-.23-.07-.39-.29-.39-.53v-10.72h0Zm0,21.43c0-.16,.07-.32,.2-.43,.13-.11,.3-.15,.46-.12l6.62,1.21c.26,.05,.46,.28,.46,.55v9.98c0,.15-.06,.3-.18,.41-.1,.1-.24,.15-.38,.15-.01,0-.03,0-.04,0l-6.62-.47c-.29-.02-.52-.26-.52-.55v-10.72h0Zm-17.23-28.88c0-.19,.09-.36,.25-.47,.16-.1,.35-.12,.53-.05l9.4,4.07c.2,.09,.34,.29,.34,.51v11.69c0,.18-.08,.34-.23,.45-.1,.07-.21,.11-.33,.11-.05,0-.11,0-.16-.02l-9.4-2.89c-.23-.07-.39-.29-.39-.53v-12.88h0Zm0,38.61v-12.87c0-.16,.07-.32,.2-.43,.13-.11,.29-.15,.46-.12l9.4,1.71c.26,.05,.46,.28,.46,.55v11.69c0,.15-.06,.3-.18,.41-.1,.1-.24,.15-.38,.15-.01,0-.02,0-.03,0l-9.4-.54c-.29-.02-.52-.26-.52-.56Zm18.35,38.49c0,.23-.14,.44-.36,.52l-12.31,4.68c-.06,.02-.13,.04-.2,.04-.11,0-.22-.03-.32-.1-.15-.1-.24-.28-.24-.46v-30.64c0-.29,.23-.54,.52-.56l12.31-.83c.16-.01,.3,.05,.42,.15,.11,.1,.18,.25,.18,.41v26.79h0Zm14.83-5.64c0,.23-.14,.44-.36,.52l-8.21,3.12c-.07,.02-.13,.04-.2,.04-.11,0-.22-.04-.32-.1-.15-.1-.24-.28-.24-.46v-24.72c0-.29,.23-.53,.52-.56l8.21-.56c.16-.01,.3,.04,.42,.15,.11,.1,.18,.25,.18,.41v22.15Zm2.37-30.88c0,.15-.06,.3-.18,.41-.1,.1-.24,.15-.38,.15h-.03l-4.91-.28c-.29-.02-.52-.26-.52-.56v-9.18c0-.16,.07-.32,.2-.43,.13-.11,.3-.15,.46-.12l4.91,.9c.26,.05,.46,.28,.46,.55v8.57h0Zm0-17.13c0,.18-.08,.34-.23,.45-.1,.07-.21,.11-.33,.11-.05,0-.11,0-.16-.03l-4.91-1.51c-.23-.07-.39-.29-.39-.53v-9.18c0-.19,.09-.36,.25-.47s.35-.12,.53-.05l4.91,2.12c.2,.09,.34,.29,.34,.51v8.56h0Zm9.82,32.37c0,.27-.19,.5-.45,.55l-3.57,.69s-.07,0-.1,0c-.13,0-.26-.05-.35-.13-.13-.1-.2-.26-.2-.43v-7.78c0-.29,.23-.53,.52-.56l3.57-.24c.15,0,.3,.05,.42,.15,.11,.1,.18,.25,.18,.41v7.34h0Zm0-14.67c0,.15-.06,.3-.18,.4-.1,.1-.24,.15-.38,.15h-.03l-3.57-.21c-.29-.02-.52-.26-.52-.56v-7.78c0-.16,.07-.32,.2-.43,.13-.11,.29-.15,.46-.12l3.57,.65c.26,.05,.46,.28,.46,.55v7.34h0Zm6.04,13.51c0,.27-.19,.5-.45,.55l-2.86,.55s-.07,0-.1,0c-.13,0-.26-.05-.35-.13-.13-.11-.2-.26-.2-.43v-6.94c0-.29,.23-.53,.52-.55l2.85-.19c.15-.01,.3,.05,.42,.15,.11,.11,.18,.25,.18,.41v6.58h0Zm0-13.17c0,.15-.06,.3-.17,.41-.1,.1-.24,.15-.38,.15-.01,0-.02,0-.03,0l-2.85-.16c-.29-.02-.52-.26-.52-.56v-6.85c0-.16,.07-.32,.19-.42,.12-.11,.28-.15,.44-.13l2.86,.43c.27,.04,.47,.28,.47,.55v6.58h0Z"/><circle class="cls-2" cx="125.11" cy="124.77" r="97"/></svg>