<svg width="38" height="40" viewBox="0 0 38 40" fill="none" xmlns="http://www.w3.org/2000/svg">
<g id="hand-Food-hotel_service-room_service-hotel">
<path id="Vector" d="M19.0002 3.50473C19.7494 3.50473 20.3568 2.89735 20.3568 2.14812C20.3568 1.39888 19.7494 0.791504 19.0002 0.791504C18.2509 0.791504 17.6436 1.39888 17.6436 2.14812C17.6436 2.89735 18.2509 3.50473 19.0002 3.50473Z" fill="#3E4248"/>
<path id="Vector_2" d="M0 21.8246V23.1812C0 23.5566 0.304774 23.8614 0.680165 23.8614H37.3198C37.6952 23.8614 38 23.5566 38 23.1812V21.8246H0Z" fill="#3E4248"/>
<path id="Vector_3" d="M19.0003 4.18115C9.90171 4.1923 2.42734 11.3731 2.05566 20.4679H35.9412C35.5696 11.3768 28.0989 4.1923 18.9966 4.18115H19.0003Z" fill="#3E4248"/>
<path id="Vector_4" d="M29.5187 36.0746H14.2503V34.718H20.6951C21.6318 34.718 22.39 33.9598 22.39 33.0231C22.39 32.0865 21.6318 31.3283 20.6951 31.3283H16.2834C16.2239 31.3283 16.1644 31.3209 16.1087 31.3023L8.7867 29.3064L5.42676 29.8713V37.6691L9.64155 39.4754H29.515C30.4516 39.4754 31.2098 38.7172 31.2098 37.7806C31.2098 36.844 30.4516 36.0857 29.515 36.0857L29.5187 36.0746Z" fill="#3E4248"/>
<path id="Vector_5" d="M0 39.4679H4.06983V28.6113H0V39.4679ZM2.03677 29.2915C2.78756 29.2915 3.39339 29.8973 3.39339 30.6481C3.39339 31.3989 2.78756 32.0047 2.03677 32.0047C1.28599 32.0047 0.680165 31.3989 0.680165 30.6481C0.680165 29.8973 1.28599 29.2915 2.03677 29.2915Z" fill="#3E4248"/>
</g>
</svg>
