<?xml version="1.0" encoding="UTF-8"?><svg id="Capa_1" xmlns="http://www.w3.org/2000/svg" viewBox="0 0 250 250"><defs><style>.cls-1{fill:#3e4248;}.cls-2{fill:none;stroke:#3e4248;stroke-miterlimit:10;stroke-width:11px;}</style></defs><path class="cls-1" d="M142.92,167.94c-.49-.31-2.01-.7-2.43-1.02l-8.6,5.65-6.99-6.99,6.01-9.58c-.22-.41-.18-.48-.38-.91l-11.07-1.97,.04-10.78,8.08-1.4-4.03-3.93c-3.36,2.74-7.47,4.36-11.86,4.36h-.03c-4.15,0-8.04-1.45-11.28-3.92h0l-4.1,3.92h-8.01c-3.69,0-6.59,1.26-8.84,3.87-6.59,7.61-5.48,23.99-4.96,29.01h69.65l-1.2-6.32Zm-47.91-46.84c.53,4.57,2.45,8.64,5.24,11.62,.59,.63,1.2,1.2,1.86,1.72,.84,.67,1.72,1.24,2.66,1.73,2.11,1.09,4.43,1.72,6.91,1.72s4.8-.63,6.91-1.72c.94-.49,1.82-1.06,2.66-1.73,.66-.53,1.29-1.1,1.87-1.73,2.78-2.98,4.7-7.01,5.23-11.55,.06,0,.1,.01,.15,.01,2.91,0,5.27-2.71,5.27-6.05,0-2.03-.87-3.8-2.2-4.91h-38.9c-1.33,1.1-2.2,2.88-2.2,4.91,0,3.08,1.97,5.58,4.53,5.98Zm81.21,28.87v-4.66l-9.69-1.75c-.43-1.8-1.15-3.48-2.08-5.02l5.64-8.05-3.3-3.3-8.08,5.62c-1.54-.94-3.23-1.65-5.02-2.07l-1.72-9.68h-4.66l-1.75,9.69c-1.8,.43-3.48,1.15-5.02,2.08l-8.05-5.64-3.3,3.3,5.62,8.08c-.94,1.54-1.65,3.23-2.07,5.02l-9.68,1.72v4.66l9.69,1.75c.43,1.8,1.15,3.48,2.08,5.02l-5.65,8.05,3.3,3.3,8.08-5.62c1.54,.94,3.23,1.65,5.02,2.07l1.72,9.68h4.66l1.75-9.69c1.8-.43,3.48-1.15,5.02-2.08l8.05,5.64,3.3-3.3-5.62-8.08c.94-1.54,1.65-3.23,2.07-5.02l9.69-1.72Zm-26.6,4.87c-3.97,0-7.19-3.22-7.19-7.19s3.22-7.19,7.19-7.19,7.19,3.22,7.19,7.19c0,3.97-3.22,7.19-7.19,7.19Zm-45.33-70.57c-5.82,2.96-10.4,8.89-12.14,14.65l-.39,1.23h-3.19v6.99h47.09v-6.99h-3.13l-.39-1.23c-1.73-5.76-6.32-11.63-12.14-14.6v15.21c-.06,.62-.17,1.17-.45,1.73-.73,1.4-2.18,2.41-3.86,2.41h-7.05c-1.57,0-2.96-.84-3.69-2.07-.34-.5-.5-1.06-.62-1.68-.06-.22-.06-.39-.06-.62v-15.05h0Zm4.36,17.56h6.99c1.01,0,1.85-.56,2.29-1.4,.22-.39,.34-.78,.34-1.23v-18.4c0-.45-.11-.84-.22-1.23-.5-1.29-1.79-2.24-3.24-2.24h-6.15c-1.34,0-2.46,1.01-2.57,2.29,0,.11-.06,.22-.06,.34v19.24c0,.56,.17,1.06,.45,1.51,.5,.67,1.29,1.12,2.18,1.12Z"/><circle class="cls-2" cx="125.15" cy="125.79" r="97"/></svg>