<svg width="79" height="79" viewBox="0 0 79 79" fill="none" xmlns="http://www.w3.org/2000/svg">
<g id="Frame" clip-path="url(#clip0_2102_2329)">
<g id="Group">
<g id="Group_2">
<g id="Group_3">
<g id="Group_4">
<g id="Group_5">
<path id="Vector" d="M8.39385 27.8712C14.5031 10.1221 35.2091 -0.847517 58.2935 5.03747C57.2675 4.56667 52.6973 2.44807 51.6247 2.07143C32.924 -4.47267 9.41982 4.80207 2.05146 25.6584C-4.57073 44.4433 5.45583 65.1114 24.1099 71.6555C25.1825 72.0321 26.2551 72.3617 27.3277 72.5971C10.679 65.0172 2.238 45.6674 8.39385 27.8712Z" fill="#D29D04"/>
<path id="Vector_2" d="M40.3389 6.16744C60.4853 6.87364 71.6777 21.1859 73.6364 38.7467C75.0821 52.0232 69.5325 65.3468 59.5992 73.4916C70.9782 69.0191 80.4918 51.1287 78.8595 36.2986C76.7143 17.5608 59.5526 2.63645 40.3389 6.16744Z" fill="#E7B405"/>
<path id="Vector_3" d="M34.2297 75.469C24.5762 75.469 15.7621 72.0322 8.81348 66.2884C15.389 74.0566 25.1358 79 36.0484 79C53.0236 79 67.2474 67.0888 70.9315 51.0816C64.8223 65.441 50.6919 75.469 34.2297 75.469Z" fill="#F9BF1E"/>
</g>
</g>
</g>
</g>
<g id="Group_6">
<path id="Vector_4" d="M39.6399 61.2038C37.9144 60.2622 36.2821 59.2264 34.7432 58.0024C30.4061 54.5185 27.2815 50.14 25.2296 45.0083C23.8305 41.5715 22.9445 37.9463 22.4781 34.2741C22.1517 31.6847 22.0118 29.0953 22.1517 26.5059C22.1517 26.0822 22.3382 25.7997 22.7113 25.6114C28.2609 22.8808 33.8105 20.1502 39.4067 17.4195C39.7798 17.2312 40.0596 17.2312 40.4327 17.4195C45.9823 20.1502 51.5318 22.8808 57.0814 25.6114C57.4545 25.7997 57.6877 26.0822 57.6877 26.5059C57.9675 32.4851 57.0814 38.2759 55.0295 43.9255C53.2573 48.8218 50.5059 53.1531 46.6352 56.6841C44.7697 58.4261 42.6712 59.8856 40.4327 61.0626C40.3394 61.1096 40.2461 61.1567 40.1529 61.2509C39.9663 61.2038 39.8264 61.2038 39.6399 61.2038ZM39.9197 27.8713C34.4167 27.8713 29.8931 32.3909 29.8465 37.8993C29.8465 43.5489 34.3235 48.1627 39.873 48.1627C45.376 48.1627 49.8996 43.5959 49.8996 38.0876C49.9463 32.438 45.5159 27.8713 39.9197 27.8713Z" fill="#2E2E2D"/>
<path id="Vector_5" d="M38.2405 39.2646C38.3337 39.0763 38.427 38.935 38.5203 38.8409C40.1525 37.1931 41.7847 35.5453 43.4636 33.8504C43.8833 33.3796 44.4429 33.2854 45.0026 33.4267C45.5622 33.5679 45.9353 33.9916 46.0752 34.6037C46.2151 35.1215 46.0285 35.5923 45.6555 35.969C43.5102 38.1347 41.365 40.3003 39.2198 42.466C38.6135 43.078 37.7275 43.078 37.0746 42.466C36.0952 41.4773 35.1159 40.5357 34.1832 39.5C33.577 38.8879 33.577 37.9463 34.1832 37.3343C34.7428 36.7223 35.7222 36.7223 36.3284 37.2872C36.6549 37.5697 36.9347 37.8993 37.2611 38.2288C37.5409 38.5584 37.8208 38.8409 38.2405 39.2646Z" fill="#2E2E2D"/>
</g>
</g>
</g>
<defs>
<clipPath id="clip0_2102_2329">
<rect width="79" height="79" fill="white"/>
</clipPath>
</defs>
</svg>
