<?xml version="1.0" encoding="UTF-8"?><svg id="Capa_1" xmlns="http://www.w3.org/2000/svg" viewBox="0 0 250 250"><defs><style>.cls-1{fill:#3e4248;}.cls-2{fill:none;stroke:#3e4248;stroke-miterlimit:10;stroke-width:11px;}</style></defs><path class="cls-1" d="M73.78,107.04l6.51,5.09-6.13,11.74c-3.06,5.41,2.2,10.69,5.55,12.52,3.3,1.81,8.43,2.02,13.21,1.96l8.62-14.09,6.51,3.52-11.3-20.93-22.98,.2Zm.96,28.74l13.98,25.83c2.81,3.59,8.11,4.43,13.6,4.3h14.74v-24.46l-27.96-.2c-4.34,.26-10.02-.65-14.36-5.48Zm87.95-47.59l-7.61,3.23-7.3-11.05c-3.25-5.3-10.41-3.26-13.64-1.21-3.18,2.01-5.85,6.39-8.12,10.61l8.14,14.37-6.24,3.99,23.79,.27,10.97-20.19Zm-25.6-13.09l-29.36-.29c-4.5,.72-7.81,4.94-10.36,9.8l-7.15,12.9,21.39,11.86,13.73-24.36c1.88-3.92,5.43-8.45,11.75-9.91Zm1.28,99.65l.86-8.22,13.2-1.02c6.21-.27,7.9-7.53,7.68-11.34-.22-3.76-2.75-8.22-5.34-12.24l-16.51,.16-.46-7.39-11.77,20.67,12.34,19.38Zm23.86-16.04l14.49-25.54c1.55-4.28-.53-9.22-3.55-13.81l-7.81-12.5-20.74,12.96,14.65,23.81c2.52,3.54,4.76,8.84,2.96,15.08Z"/><circle class="cls-2" cx="125.24" cy="124.77" r="97"/></svg>