<svg width="39" height="38" viewBox="0 0 39 38" fill="none" xmlns="http://www.w3.org/2000/svg">
<path id="Vector" d="M0.203172 12.7238L2.64423 14.6082L0.345663 18.9546C-0.801748 20.9575 1.1706 22.9123 2.42675 23.5898C3.66415 24.2599 5.58775 24.3376 7.38011 24.3154L10.6124 19.099L13.0534 20.4022L8.81625 12.6534L0.199421 12.7275L0.203172 12.7238ZM0.563143 23.3639L5.80524 32.9268C6.8589 34.2559 8.84625 34.5669 10.9048 34.5187H16.4319V25.4631L5.94772 25.3891C4.32035 25.4853 2.19052 25.1484 0.563143 23.3602V23.3639ZM33.5418 5.74508L30.6883 6.94089L27.951 2.84994C26.7324 0.887764 24.0476 1.64302 22.8364 2.40197C21.644 3.14612 20.6428 4.76769 19.7916 6.33003L22.8439 11.6501L20.5041 13.1273L29.4246 13.2273L33.5381 5.75248L33.5418 5.74508ZM23.9426 0.898869L12.9334 0.791504C11.2461 1.05806 10.0049 2.6204 9.04873 4.41968L6.36769 9.19555L14.3883 13.5864L19.5367 4.56777C20.2416 3.1165 21.5728 1.43939 23.9426 0.898869ZM24.4225 37.7915L24.745 34.7483L29.6946 34.3706C32.0232 34.2707 32.6569 31.5829 32.5744 30.1723C32.4919 28.7803 31.5432 27.1291 30.5721 25.6408L24.3813 25.7L24.2088 22.9641L19.7954 30.6166L24.4225 37.7915ZM33.3693 31.8531L38.8027 22.3977C39.3839 20.8131 38.6039 18.9842 37.4715 17.2849L34.543 12.6571L26.7661 17.4552L32.2594 26.2702C33.2044 27.5808 34.0443 29.543 33.3693 31.8531Z" fill="#3E4248"/>
</svg>
