<svg width="79" height="78" viewBox="0 0 79 78" fill="none" xmlns="http://www.w3.org/2000/svg">
<g id="Frame" clip-path="url(#clip0_2094_2298)">
<g id="Group">
<g id="Group_2">
<g id="Group_3">
<g id="Group_4">
<g id="Group_5">
<path id="Vector" d="M8.39482 27.5185C14.504 9.99408 35.2101 -0.836674 58.2945 4.97381C57.2685 4.50898 52.6982 2.4172 51.6256 2.04533C32.9249 -4.41593 9.4208 4.74139 2.05244 25.3338C-4.56976 43.8808 5.45681 64.2873 24.1109 70.7485C25.1835 71.1204 26.2561 71.4458 27.3287 71.6782C10.6799 64.1943 2.23898 45.0894 8.39482 27.5185Z" fill="#21386F"/>
<path id="Vector_2" d="M40.3398 6.08939C60.4862 6.78664 71.6787 20.9178 73.6374 38.2563C75.0831 51.3647 69.5335 64.5197 59.6002 72.5614C70.9792 68.1454 80.4927 50.4815 78.8605 35.8391C76.7153 17.3385 59.5535 2.60309 40.3398 6.08939Z" fill="#294697"/>
<path id="Vector_3" d="M34.2306 74.5137C24.5771 74.5137 15.7631 71.1204 8.81445 65.4494C15.39 73.1192 25.1368 78 36.0494 78C53.0246 78 67.2483 66.2396 70.9325 50.4351C64.8233 64.6126 50.6929 74.5137 34.2306 74.5137Z" fill="#3E62AC"/>
</g>
</g>
</g>
</g>
<g id="Group_6">
<path id="Vector_4" d="M38.8934 21.4291C43.7901 21.4291 48.7334 21.4291 53.6301 21.4291C54.7027 21.4291 55.4023 21.8474 55.6821 22.7306C55.7754 22.963 55.822 23.2419 55.822 23.5208C55.822 29.7497 55.822 35.9785 55.822 42.1609C55.822 43.4624 54.9826 44.2991 53.7234 44.2991C43.8367 44.2991 33.9501 44.2991 24.0634 44.2991C22.8043 44.2991 21.9648 43.4624 21.9648 42.1609C21.9648 35.932 21.9648 29.7497 21.9648 23.5208C21.9648 22.3587 22.8509 21.3826 24.1101 21.3826C29.0068 21.4291 33.9501 21.4291 38.8934 21.4291ZM38.9401 37.3266C38.4271 36.3039 37.9141 35.3742 37.4477 34.3981C37.2612 33.9797 36.9814 33.8403 36.5617 33.8403C34.4164 33.9332 32.7376 34.8164 31.4318 36.4898C30.4058 37.8379 30.0794 39.3718 30.126 40.9988C30.1726 41.7425 30.2659 41.882 30.9654 41.882C36.2352 41.882 41.505 41.882 46.7748 41.882C46.868 41.882 46.9613 41.882 47.0546 41.882C47.4277 41.8355 47.6608 41.6496 47.6142 41.2777C47.6142 40.6269 47.6142 39.9761 47.5209 39.3254C46.9613 36.1645 44.3964 33.9332 41.1785 33.8403C40.7588 33.8403 40.5256 33.9797 40.3857 34.3051C39.966 35.3277 39.4997 36.2574 38.9401 37.3266ZM43.1839 28.82C43.1839 26.4028 41.2718 24.5435 38.8468 24.5435C36.5617 24.5435 34.5563 26.5888 34.5563 28.913C34.603 31.2372 36.5617 33.143 38.8934 33.143C41.2718 33.143 43.1839 31.2372 43.1839 28.82Z" fill="#2E2E2D"/>
<path id="Vector_5" d="M53.5836 51.1787C53.1639 51.1787 52.8374 51.1787 52.4177 51.1787C52.4177 50.4815 52.4177 49.7842 52.4177 49.0869C48.034 49.0869 43.6969 49.0869 39.3132 49.0869C39.3132 49.7842 39.3132 50.4815 39.3132 51.1787C38.8935 51.1787 38.567 51.1787 38.1473 51.1787C38.1473 50.4815 38.1473 49.7842 38.1473 49.0869C33.7636 49.0869 29.4265 49.0869 25.0428 49.0869C25.0428 49.7842 25.0428 50.4815 25.0428 51.1787C24.6231 51.1787 24.2967 51.1787 23.877 51.1787C23.877 50.8069 23.877 50.3885 23.877 50.0166C23.877 49.5053 23.877 49.0405 23.877 48.5291C23.877 48.1108 24.0635 47.9249 24.4832 47.8784C24.5765 47.8784 24.7164 47.8784 24.8097 47.8784C29.1001 47.8784 33.3905 47.8784 37.681 47.8784C37.8209 47.8784 37.9608 47.8784 38.1473 47.8784C38.1473 47.0881 38.1473 46.2979 38.1473 45.5077C38.567 45.5077 38.8935 45.5077 39.3132 45.5077C39.3132 46.2979 39.3132 47.0417 39.3132 47.8784C39.4997 47.8784 39.6863 47.8784 39.8262 47.8784C44.1166 47.8784 48.4071 47.8784 52.6975 47.8784C53.4903 47.8784 53.6302 48.0178 53.6302 48.808C53.5836 49.5983 53.5836 50.3885 53.5836 51.1787Z" fill="#2E2E2D"/>
<path id="Vector_6" d="M38.7071 52.3408C39.5465 52.3408 40.386 52.3408 41.2254 52.3408C41.7384 52.3408 41.9249 52.5268 41.9249 53.0381C41.9249 54.7115 41.9249 56.4314 41.9249 58.1048C41.9249 58.5697 41.6917 58.8021 41.2254 58.8021C39.5465 58.8021 37.8677 58.8021 36.1888 58.8021C35.6758 58.8021 35.4893 58.6161 35.4893 58.0583C35.4893 56.3849 35.4893 54.7115 35.4893 53.0846C35.4893 52.5732 35.7224 52.3408 36.2354 52.3408C37.0749 52.3408 37.9143 52.3408 38.7071 52.3408Z" fill="#2E2E2D"/>
<path id="Vector_7" d="M24.4366 58.7556C23.5971 58.7556 22.7577 58.7556 21.9183 58.7556C21.4053 58.7556 21.2188 58.5697 21.2188 58.0583C21.2188 56.3849 21.2188 54.7115 21.2188 53.0846C21.2188 52.5268 21.4053 52.3408 21.9649 52.3408C23.6438 52.3408 25.3226 52.3408 26.9549 52.3408C27.4679 52.3408 27.6544 52.5268 27.6544 53.0381C27.6544 54.7115 27.6544 56.3849 27.6544 58.0583C27.6544 58.6161 27.4679 58.7556 26.9549 58.7556C26.1154 58.8021 25.276 58.7556 24.4366 58.7556Z" fill="#2E2E2D"/>
<path id="Vector_8" d="M49.8057 55.5482C49.8057 54.7115 49.8057 53.8748 49.8057 53.0381C49.8057 52.5268 49.9922 52.3408 50.5052 52.3408C52.1841 52.3408 53.9096 52.3408 55.5884 52.3408C56.1014 52.3408 56.288 52.5268 56.288 53.0381C56.288 54.7115 56.288 56.3849 56.288 58.0583C56.288 58.5697 56.1014 58.7556 55.5884 58.7556C53.9096 58.7556 52.1841 58.7556 50.5052 58.7556C49.9922 58.7556 49.8057 58.5697 49.8057 58.0583C49.8057 57.2216 49.8057 56.3849 49.8057 55.5482Z" fill="#2E2E2D"/>
<path id="Vector_9" d="M31.2919 40.7198C31.1987 38.907 31.8516 37.4195 33.2506 36.2109C34.0434 35.5136 35.0228 35.1418 36.0487 34.9558C36.3285 34.9094 36.4685 35.0023 36.6084 35.2347C37.168 36.3504 37.7276 37.4195 38.2872 38.5351C38.4271 38.814 38.567 38.9999 38.9401 38.9999C39.2666 38.9999 39.4065 38.7675 39.5464 38.5351C40.106 37.466 40.6656 36.3504 41.2252 35.2812C41.3651 35.0023 41.5517 34.9094 41.8781 34.9558C44.1166 35.3277 45.6089 36.6293 46.3551 38.814C46.5417 39.4183 46.5883 40.0226 46.6816 40.6734C41.4584 40.7198 36.3752 40.7198 31.2919 40.7198Z" fill="#2E2E2D"/>
<path id="Vector_10" d="M35.7227 28.7271C35.7227 27.0072 37.215 25.5662 38.8939 25.5662C40.6194 25.5662 42.065 27.0072 42.065 28.7736C42.065 30.4935 40.6194 31.9345 38.8939 31.888C37.1683 31.9345 35.7227 30.4935 35.7227 28.7271Z" fill="#2E2E2D"/>
</g>
</g>
</g>
<defs>
<clipPath id="clip0_2094_2298">
<rect width="79" height="78" fill="white"/>
</clipPath>
</defs>
</svg>
