<?xml version="1.0" encoding="UTF-8"?><svg id="Capa_1" xmlns="http://www.w3.org/2000/svg" viewBox="0 0 250 250"><defs><style>.cls-1{fill:#3e4248;}.cls-2{fill:none;stroke:#3e4248;stroke-miterlimit:10;stroke-width:11px;}</style></defs><g><path class="cls-1" d="M163.38,86.48c-9.31-9.3-24.45-9.3-33.76,0l-19.68,19.68,22.35,22.35c4.6-3.83,10.43-6.23,16.87-6.23,3.69,0,7.21,.77,10.41,2.14l3.82-4.18c9.31-9.31,9.31-24.45,0-33.76Z"/><path class="cls-1" d="M128.56,132.3l-22.38-22.38-19.27,19.28c-9.31,9.31-9.31,24.45,0,33.76,9.31,9.3,24.63,9.48,33.94,.18l3.91-3.92c-1.37-3.2-2.14-6.71-2.14-10.41,0-6.27,2.28-11.97,5.94-16.52Z"/><path class="cls-1" d="M127.93,148.81c0,10.81,8.11,19.63,18.57,20.95v-41.91c-10.45,1.32-18.57,10.14-18.57,20.95Z"/><path class="cls-1" d="M151.8,127.86v41.91c10.45-1.32,18.57-10.14,18.57-20.95s-8.11-19.63-18.57-20.95Z"/></g><circle class="cls-2" cx="125.15" cy="124.77" r="97"/></svg>