<svg width="49" height="51" viewBox="0 0 49 51" fill="none" xmlns="http://www.w3.org/2000/svg">
<g id="Group">
<path id="Vector" d="M12.2988 50.1H36.7022V24.0627H12.2988V50.1ZM26.9041 27.0902H29.7857V31.6997H26.9041V27.0902ZM26.9041 34.7743H29.7857V39.3837H26.9041V34.7743ZM26.9041 42.4583H29.7857V47.0678H26.9041V42.4583ZM19.2201 27.0855H22.1016V31.695H19.2201V27.0855ZM19.2201 34.7695H22.1016V39.379H19.2201V34.7695ZM19.2201 42.4536H22.1016V47.0631H19.2201V42.4536Z" fill="#3E4248"/>
<path id="Vector_2" d="M0 50.0996H9.41671V27.1841H0V50.0996ZM3.2676 32.4904H6.14911V37.0999H3.2676V32.4904ZM3.2676 40.1744H6.14911V44.7839H3.2676V40.1744Z" fill="#3E4248"/>
<path id="Vector_3" d="M39.583 27.1841V50.0996H48.9997V27.1841H39.583ZM45.7321 44.7886H42.8506V40.1791H45.7321V44.7886ZM45.7321 37.1046H42.8506V32.4951H45.7321V37.1046Z" fill="#3E4248"/>
<path id="Vector_4" d="M25.938 11.7408V10.0316H35.1616V1.001C26.4135 1.001 23.0565 0.996292 23.0565 1.001C23.0047 1.001 23.0188 0.167621 23.0565 11.7408L13.3149 18.0029H10.6641V20.8844H38.3351V18.0029H35.6843L25.938 11.7361V11.7408Z" fill="#3E4248"/>
</g>
</svg>
