<?xml version="1.0" encoding="UTF-8"?><svg id="Capa_1" xmlns="http://www.w3.org/2000/svg" viewBox="0 0 250 250"><defs><style>.cls-1{fill:#3e4248;}.cls-2{fill:none;stroke:#3e4248;stroke-miterlimit:10;stroke-width:11px;}</style></defs><g><g id="surface1"><path class="cls-1" d="M101.15,91.76l6.82,2.82-1.45,.67c-.41,.21-.59,.69-.41,1.11l1.96,4.22c.1,.21,.27,.37,.49,.45,.21,.09,.45,.09,.66,0l14.94-7.01,.19-1.99,.26-2.66c.03-.35,.34-.61,.7-.58,.23,.02,.43,.16,.52,.37,.05,.1,.08,.21,.07,.33l-1.73,18.35c.39,.28,.87,.39,1.34,.3,.66-.17,1.25-.95,1.73-2.22l6.93-20.63,.2-.59c.1-.34,.46-.54,.81-.44,.34,.1,.54,.46,.44,.81,0,.02-.01,.03-.02,.05l-.68,1.98-.76,2.27,11.7-5.48c3.38-1.58,5.12-4.78,3.95-7.27-.66-1.3-1.93-2.19-3.39-2.37-1.61-.24-3.27,.01-4.73,.73l-13.25,6.18-14.23-5.55c-1.79-.67-3.21-.66-4.21,.06-.83,.68-1.31,1.72-1.29,2.8,0,.27,.15,.53,.37,.68l9.58,6.57-5.49,2.6-9.21-2.31c-.38-.09-.77,.08-.96,.41l-2.29,4.11c-.23,.42-.09,.94,.33,1.18,.03,.02,.06,.03,.08,.04Z"/></g><g><path class="cls-1" d="M86.67,107.54v17.88h-5.96v11.92h29.8v-5.96h5.96v-5.96h-11.92v-11.92h-5.96v11.92h-5.96v-17.88h-5.96Z"/><path class="cls-1" d="M116.47,149.26h5.96v-5.96h-41.72v11.92h-6.16v5.96c0,5.46,1.85,10.52,4.65,14.76,3.31-1.55,6.91-2.36,10.6-2.36,4.95,0,9.76,1.46,13.9,4.22,1.19,.79,2.57,1.21,3.98,1.21s2.79-.42,3.98-1.21c4.14-2.76,8.95-4.22,13.9-4.22s9.76,1.46,13.9,4.22c1.19,.79,2.57,1.21,3.98,1.21s2.79-.42,3.98-1.21c4.14-2.76,8.95-4.22,13.9-4.22,3.59,0,7.11,.79,10.35,2.27,2.77-4.22,4.6-9.25,4.6-14.67v-5.96h-59.8v-5.96Z"/><path class="cls-1" d="M131.37,140.32h8.94v8.94h-8.94v-8.94Z"/><path class="cls-1" d="M146.27,140.32h8.94v8.94h-8.94v-8.94Z"/><path class="cls-1" d="M146.27,110.52h8.94v8.94h-8.94v-8.94Z"/><path class="cls-1" d="M161.17,140.32h8.94v8.94h-8.94v-8.94Z"/><path class="cls-1" d="M138.82,125.42h8.94v8.94h-8.94v-8.94Z"/><path class="cls-1" d="M153.72,125.42h8.94v8.94h-8.94v-8.94Z"/></g></g><circle class="cls-2" cx="125.41" cy="126.59" r="97"/></svg>