<svg width="49" height="39" viewBox="0 0 49 39" fill="none" xmlns="http://www.w3.org/2000/svg">
<path d="M17 32V7M17 32C17 33.3261 16.4732 34.5979 15.5355 35.5355C14.5979 36.4732 13.3261 37 12 37H7C5.67392 37 4.40215 36.4732 3.46447 35.5355C2.52678 34.5979 2 33.3261 2 32V7C2 5.67392 2.52678 4.40215 3.46447 3.46447C4.40215 2.52678 5.67392 2 7 2H12C13.3261 2 14.5979 2.52678 15.5355 3.46447C16.4732 4.40215 17 5.67392 17 7M17 32C17 33.3261 17.5268 34.5979 18.4645 35.5355C19.4021 36.4732 20.6739 37 22 37H27C28.3261 37 29.5979 36.4732 30.5355 35.5355C31.4732 34.5979 32 33.3261 32 32M17 7C17 5.67392 17.5268 4.40215 18.4645 3.46447C19.4021 2.52678 20.6739 2 22 2H27C28.3261 2 29.5979 2.52678 30.5355 3.46447C31.4732 4.40215 32 5.67392 32 7M32 32V7M32 32C32 33.3261 32.5268 34.5979 33.4645 35.5355C34.4021 36.4732 35.6739 37 37 37H42C43.3261 37 44.5979 36.4732 45.5355 35.5355C46.4732 34.5979 47 33.3261 47 32V7C47 5.67392 46.4732 4.40215 45.5355 3.46447C44.5979 2.52678 43.3261 2 42 2H37C35.6739 2 34.4021 2.52678 33.4645 3.46447C32.5268 4.40215 32 5.67392 32 7" stroke="#0DB760" stroke-width="4" stroke-linecap="round" stroke-linejoin="round"/>
</svg>
