<svg width="106" height="112" viewBox="0 0 106 112" fill="none" xmlns="http://www.w3.org/2000/svg">
<path d="M100.578 72.0269H98.599C94.9636 72.0312 91.4124 73.1006 88.4019 75.0975C85.3914 77.0945 83.0591 79.9279 81.7045 83.2337C80.3499 79.9279 78.0175 77.0945 75.007 75.0975C71.9965 73.1006 68.4454 72.0312 64.8099 72.0269H62.8305C62.4832 72.0269 62.1501 72.162 61.9045 72.4027C61.6589 72.6433 61.5209 72.9697 61.5209 73.3101V75.2499C61.5264 79.979 63.446 84.5129 66.8587 87.8569C70.2714 91.2009 74.8985 93.0819 79.7248 93.0872H80.3949V101.615C73.9991 101.837 67.7821 103.742 62.3954 107.128C60.3272 108.426 57.9224 109.116 55.4662 109.116C53.01 109.116 50.6053 108.426 48.5371 107.128C43.1504 103.742 36.9336 101.838 30.538 101.615V93.0872H31.208C36.0343 93.0819 40.6614 91.2009 44.0742 87.857C47.4869 84.513 49.4066 79.979 49.4121 75.2499V73.3101C49.4121 72.9697 49.2741 72.6433 49.0285 72.4027C48.783 72.162 48.4499 72.0269 48.1025 72.0269H46.1228C42.4874 72.0312 38.9363 73.1005 35.9259 75.0975C32.9154 77.0944 30.583 79.9278 29.2285 83.2335C27.8739 79.9278 25.5415 77.0944 22.531 75.0975C19.5206 73.1005 15.9695 72.0312 12.334 72.0269H10.3545C10.0072 72.0269 9.67408 72.162 9.42849 72.4027C9.18289 72.6433 9.04492 72.9697 9.04492 73.3101V75.2499C9.05036 79.979 10.97 84.5129 14.3828 87.8569C17.7955 91.2009 22.4226 93.0819 27.2489 93.0872H27.9189V101.615C21.5233 101.838 15.3066 103.742 9.91995 107.128C9.62772 107.311 9.42204 107.602 9.34814 107.934C9.27425 108.267 9.33819 108.614 9.52591 108.901C9.71363 109.187 10.0097 109.389 10.3491 109.461C10.6885 109.533 11.0433 109.471 11.3355 109.287C16.677 105.936 22.8863 104.156 29.2283 104.156C35.5704 104.156 41.7798 105.936 47.1212 109.287C49.612 110.85 52.5081 111.681 55.4662 111.681C58.4243 111.681 61.3204 110.85 63.8113 109.287C69.1528 105.936 75.3622 104.156 81.7045 104.156C88.0467 104.156 94.2561 105.936 99.5977 109.287C99.7423 109.38 99.9044 109.444 100.075 109.475C100.245 109.507 100.419 109.505 100.589 109.47C100.758 109.434 100.919 109.366 101.061 109.27C101.204 109.174 101.325 109.05 101.419 108.908C101.512 108.765 101.576 108.606 101.606 108.439C101.636 108.272 101.632 108.1 101.595 107.935C101.557 107.769 101.486 107.613 101.386 107.474C101.286 107.335 101.16 107.218 101.013 107.128C95.6264 103.742 89.4097 101.837 83.0141 101.615V93.0872H83.6842C88.5105 93.0819 93.1376 91.2009 96.5503 87.8569C99.963 84.5129 101.883 79.979 101.888 75.2499V73.3101C101.888 72.9697 101.75 72.6433 101.504 72.4027C101.259 72.162 100.926 72.0269 100.578 72.0269ZM46.1228 74.5933H46.793V75.2499C46.7883 79.2986 45.1448 83.1802 42.223 86.0431C39.3013 88.9059 35.3399 90.5163 31.208 90.5208H30.538V89.8644C30.5427 85.8157 32.1862 81.9341 35.1079 79.0712C38.0296 76.2083 41.9909 74.5979 46.1228 74.5933ZM11.6641 75.2499V74.5933H12.334C16.466 74.5979 20.4273 76.2083 23.349 79.0712C26.2707 81.9341 27.9142 85.8157 27.9189 89.8644V90.5208H27.2489C23.117 90.5162 19.1556 88.9059 16.2339 86.043C13.3122 83.1802 11.6687 79.2986 11.6641 75.2499ZM64.14 75.2499V74.5933H64.8099C68.9418 74.5979 72.9032 76.2083 75.8249 79.0712C78.7466 81.9341 80.3901 85.8157 80.3948 89.8644V90.5208H79.7247C75.5928 90.5162 71.6315 88.9058 68.7098 86.043C65.7882 83.1801 64.1447 79.2986 64.14 75.2499ZM99.2688 75.2499C99.2641 79.2986 97.6207 83.1802 94.699 86.043C91.7773 88.9059 87.816 90.5162 83.6841 90.5208H83.0141V89.8644C83.0188 85.8157 84.6622 81.9341 87.584 79.0712C90.5057 76.2083 94.4671 74.5979 98.599 74.5933H99.2689L99.2688 75.2499Z" fill="#285A43" stroke="#285A43" stroke-width="0.445322"/>
<path d="M22.1296 53.6903C22.634 54.1867 23.2336 54.5805 23.8939 54.8491C24.5541 55.1177 25.2621 55.2557 25.977 55.2553C26.1721 55.2552 26.3671 55.245 26.5611 55.2247C27.3702 55.1421 28.15 54.8824 28.8429 54.4647C29.5357 54.0471 30.1239 53.4821 30.5639 52.8117L35.754 44.9404L56.1174 42.4553L60.5614 45.2036C60.7595 45.3261 60.9875 45.3942 61.2216 45.401C61.4558 45.4078 61.6875 45.3529 61.8926 45.242C62.0977 45.1312 62.2687 44.9685 62.3878 44.7709C62.507 44.5732 62.5698 44.3479 62.5698 44.1184V32.5884C62.5698 32.3589 62.5069 32.1336 62.3878 31.936C62.2687 31.7383 62.0977 31.5756 61.8926 31.4648C61.6875 31.3539 61.4557 31.2991 61.2216 31.3058C60.9875 31.3126 60.7595 31.3808 60.5614 31.5033L56.1174 34.2512L43.7938 32.7473L47.6974 26.8271C47.86 26.5806 47.9314 26.287 47.8997 25.9951C47.8681 25.7033 47.7353 25.4309 47.5235 25.2234L31.1169 9.14688L31.1152 9.14549L24.9246 3.07924C24.0314 2.20405 22.9711 1.50981 21.8041 1.03616C20.6372 0.56251 19.3864 0.318726 18.1233 0.318726C16.8602 0.318726 15.6094 0.56251 14.4425 1.03616C13.2755 1.50981 12.2152 2.20405 11.322 3.07924L8.68228 5.66561C6.88121 7.4345 5.86972 9.83118 5.86972 12.3299C5.86972 14.8286 6.88121 17.2253 8.68228 18.9942L10.6346 20.9072L2.96164 25.7647C2.27856 26.1972 1.70286 26.7739 1.27672 27.4526C0.850571 28.1313 0.584781 28.8949 0.498811 29.6873C0.412842 30.4797 0.508872 31.2809 0.779869 32.0323C1.05087 32.7836 1.48996 33.466 2.065 34.0295L22.1294 53.69L22.1296 53.6903ZM56.2587 36.8547C56.5591 36.8907 56.8629 36.8242 57.1192 36.6665L59.9506 34.9156V41.7911L57.1192 40.0401C56.8631 39.8821 56.5591 39.8156 56.2587 39.8519L37.6085 42.1279L42.2156 35.1409L56.2587 36.8547ZM10.5343 17.1797C9.22363 15.8925 8.48756 14.1483 8.48756 12.33C8.48756 10.5116 9.22363 8.7675 10.5343 7.48023L13.1741 4.89386C14.4867 3.60777 16.2669 2.88526 18.1232 2.88526C19.9795 2.88526 21.7597 3.60777 23.0724 4.89386L28.1186 9.83847L12.8846 19.4827L10.5343 17.1797ZM3.10328 29.9586C3.14709 29.5466 3.28482 29.1495 3.50631 28.7968C3.72779 28.444 4.02737 28.1445 4.38288 27.9204L30.013 11.6946L44.9234 26.305L28.364 51.4187C28.1347 51.7665 27.8288 52.0597 27.4689 52.2767C27.109 52.4937 26.7041 52.629 26.2839 52.6728C25.8637 52.7165 25.4388 52.6676 25.0403 52.5296C24.6419 52.3916 24.28 52.168 23.9813 51.8751L23.9814 51.8754L3.91708 32.215C3.61754 31.9227 3.38888 31.5681 3.24802 31.1776C3.10716 30.787 3.05769 30.3704 3.10328 29.9586Z" fill="#285A43" stroke="#285A43" stroke-width="0.445322"/>
<path d="M83.0986 54.0144C83.2987 54.2926 83.6033 54.4816 83.9455 54.5397C84.2877 54.5978 84.6395 54.5204 84.9234 54.3243C85.2074 54.1283 85.4002 53.8298 85.4595 53.4945C85.5188 53.1592 85.4398 52.8145 85.2397 52.5363C83.9895 50.8122 82.5068 49.2619 80.8319 47.9278C80.6988 47.8211 80.5456 47.741 80.381 47.6922C80.2164 47.6435 80.0435 47.627 79.8724 47.6436C79.7013 47.6603 79.5351 47.7099 79.3835 47.7894C79.232 47.869 79.0978 47.9771 78.9889 48.1075C78.7688 48.3707 78.6644 48.7089 78.6988 49.0476C78.7332 49.3863 78.9035 49.6977 79.1722 49.9133C80.664 51.1004 81.9848 52.4799 83.0986 54.0144Z" fill="#285A43" stroke="#285A43" stroke-width="0.445322"/>
<path d="M86.4896 57.383C86.3262 57.4354 86.1749 57.5188 86.0443 57.6285C85.9138 57.7382 85.8066 57.872 85.7288 58.0223C85.6511 58.1726 85.6043 58.3365 85.5912 58.5045C85.5781 58.6725 85.5989 58.8414 85.6524 59.0015C86.2403 60.7921 86.5811 62.6517 86.6655 64.5309C86.6819 64.8598 86.8268 65.17 87.07 65.3973C87.3133 65.6245 87.6364 65.7514 87.9726 65.7517C87.9942 65.7517 88.0158 65.7512 88.0374 65.7503C88.3843 65.7337 88.7103 65.5828 88.9436 65.3307C89.177 65.0786 89.2987 64.7461 89.2819 64.4061C89.1859 62.298 88.8023 60.2119 88.1414 58.2034C88.0879 58.0433 88.0028 57.895 87.8909 57.7671C87.7789 57.6392 87.6423 57.5341 87.489 57.4579C87.3356 57.3817 87.1684 57.3359 86.9969 57.3231C86.8254 57.3102 86.6531 57.3306 86.4896 57.383Z" fill="#285A43" stroke="#285A43" stroke-width="0.445322"/>
<path d="M68.8572 44.8256C70.735 45.2959 72.5539 45.9686 74.2805 46.8314C74.4343 46.9069 74.6017 46.952 74.7732 46.9641C74.9448 46.9761 75.1171 46.955 75.2803 46.9018C75.4435 46.8487 75.5944 46.7645 75.7244 46.6542C75.8544 46.5439 75.961 46.4096 76.038 46.2589C76.115 46.1082 76.161 45.9442 76.1733 45.7761C76.1857 45.608 76.1641 45.4392 76.1098 45.2793C76.0556 45.1194 75.9697 44.9715 75.8571 44.8441C75.7445 44.7167 75.6074 44.6123 75.4537 44.5368C73.5342 43.5744 71.5088 42.8302 69.4168 42.3185C69.0785 42.2483 68.7256 42.3121 68.4351 42.4959C68.1446 42.6797 67.9401 42.9687 67.8662 43.2997C67.7923 43.6307 67.855 43.977 68.0407 44.2628C68.2264 44.5487 68.5199 44.751 68.8572 44.8256Z" fill="#285A43" stroke="#285A43" stroke-width="0.445322"/>
<path d="M92.8513 42.6323C94.4231 43.7485 95.8638 45.0318 97.1472 46.4588C97.3767 46.7143 97.7004 46.8699 98.047 46.8916C98.3936 46.9132 98.7349 46.799 98.9956 46.5741C99.2563 46.3492 99.4151 46.0321 99.4372 45.6924C99.4593 45.3527 99.3428 45.0184 99.1132 44.7629C97.7018 43.1937 96.1173 41.7824 94.3888 40.5549C94.1074 40.3604 93.7591 40.2823 93.4194 40.3375C93.0797 40.3928 92.7758 40.5769 92.5737 40.8501C92.3715 41.1232 92.2873 41.4634 92.3392 41.797C92.3912 42.1306 92.5751 42.4307 92.8513 42.6323Z" fill="#285A43" stroke="#285A43" stroke-width="0.445322"/>
<path d="M82.2426 37.9068C84.1469 38.3696 86.0058 38.9962 87.7975 39.7796C87.9545 39.8492 88.1239 39.8878 88.2961 39.8932C88.4683 39.8985 88.6399 39.8706 88.801 39.8108C88.9622 39.7511 89.1097 39.6608 89.2352 39.5451C89.3606 39.4294 89.4616 39.2906 89.5322 39.1367C89.6028 38.9827 89.6418 38.8165 89.6468 38.6478C89.6517 38.4791 89.6227 38.311 89.5613 38.1533C89.4999 37.9955 89.4073 37.8512 89.2889 37.7286C89.1705 37.606 89.0285 37.5075 88.8712 37.4387C86.9384 36.5932 84.933 35.9168 82.8787 35.4173C82.5424 35.3365 82.1872 35.3895 81.8907 35.5647C81.5942 35.7398 81.3806 36.0229 81.2965 36.352C81.2125 36.681 81.2648 37.0294 81.4421 37.3207C81.6194 37.6121 81.9072 37.8228 82.2426 37.9068Z" fill="#285A43" stroke="#285A43" stroke-width="0.445322"/>
<path d="M105.322 55.5582C104.656 53.5894 103.805 51.6851 102.78 49.8696C102.697 49.7224 102.584 49.5927 102.45 49.4881C102.315 49.3834 102.16 49.3058 101.995 49.2597C101.829 49.2136 101.656 49.1998 101.485 49.2192C101.315 49.2386 101.149 49.2908 100.999 49.3728C100.849 49.4548 100.717 49.565 100.61 49.6971C100.503 49.8292 100.424 49.9806 100.377 50.1427C100.33 50.3047 100.316 50.4743 100.335 50.6417C100.355 50.8091 100.408 50.971 100.492 51.1183C101.438 52.7952 102.223 54.5541 102.838 56.3725C102.949 56.6953 103.185 56.9619 103.496 57.1137C103.807 57.2656 104.166 57.2903 104.496 57.1823C104.825 57.0743 105.097 56.8425 105.252 56.538C105.407 56.2334 105.432 55.881 105.322 55.5582Z" fill="#285A43" stroke="#285A43" stroke-width="0.445322"/>
<path d="M70.5617 36.8743C70.5705 36.8735 71.4522 36.7847 72.9049 36.7847C74.0505 36.7847 75.2313 36.8384 76.4146 36.9445C76.4553 36.9481 76.4956 36.9498 76.5354 36.9498C76.8723 36.9495 77.1962 36.8221 77.4396 36.5938C77.6831 36.3656 77.8274 36.0542 77.8426 35.7244C77.8578 35.3946 77.7427 35.0718 77.5212 34.823C77.2997 34.5742 76.9888 34.4187 76.6533 34.3887C75.3909 34.2756 74.1299 34.2183 72.905 34.2183C71.299 34.2183 70.3257 34.3182 70.285 34.3224C69.9421 34.3613 69.6287 34.5313 69.413 34.7954C69.1974 35.0595 69.0968 35.3964 69.1333 35.7327C69.1698 36.0691 69.3403 36.3778 69.6079 36.5915C69.8754 36.8053 70.2181 36.907 70.5617 36.8743Z" fill="#285A43" stroke="#285A43" stroke-width="0.445322"/>
</svg>
