<svg width="93" height="93" viewBox="0 0 93 93" fill="none" xmlns="http://www.w3.org/2000/svg">
<path fill-rule="evenodd" clip-rule="evenodd" d="M22.5119 7.75H70.4881C78.6409 7.75 85.25 14.3591 85.25 22.5119V70.4881C85.25 78.6409 78.6409 85.25 70.4881 85.25H22.5119C14.3591 85.25 7.75 78.6409 7.75 70.4881V22.5119C7.75 14.3591 14.3591 7.75 22.5119 7.75ZM70.4881 79.7143C75.5836 79.7143 79.7143 75.5836 79.7143 70.4881V22.5119C79.7143 17.4164 75.5836 13.2857 70.4881 13.2857H22.5119C17.4164 13.2857 13.2857 17.4164 13.2857 22.5119V70.4881C13.2857 75.5836 17.4164 79.7143 22.5119 79.7143H70.4881Z" fill="black"/>
<path d="M66.7976 34.506H55.7262C54.1975 34.506 52.9583 35.7452 52.9583 37.2738C52.9583 38.8025 54.1975 40.0417 55.7262 40.0417H59.1583L46.0202 53.1798L38.6393 45.7988C36.6806 43.8469 33.5122 43.8469 31.5536 45.7988L21.9214 55.1357C20.8421 56.2163 20.8421 57.967 21.9214 59.0476C22.4377 59.5703 23.1427 59.863 23.8774 59.8595C24.6129 59.8672 25.3195 59.5739 25.8333 59.0476L34.9488 49.9321L42.3298 57.3131C44.301 59.2692 47.4811 59.2692 49.4524 57.3131L63.8821 42.8833V48.3452C63.8821 49.8739 65.1214 51.1131 66.65 51.1131C68.1786 51.1131 69.4179 49.8739 69.4179 48.3452V37.2738C69.4017 35.8083 68.26 34.6023 66.7976 34.506Z" fill="black"/>
</svg>
