<svg width="96" height="96" viewBox="0 0 96 96" fill="none" xmlns="http://www.w3.org/2000/svg">
<rect x="0.5" y="0.617676" width="95" height="95" rx="18" fill="#F9F8F8"/>
<circle cx="55" cy="39.1177" r="14.5" fill="#C6EFD1"/>
<path d="M37.2178 38.7615C39.1553 39.2714 40.8888 40.2911 42.3674 41.7187L43.5401 42.8914C43.3872 40.699 43.7951 38.4556 44.6618 36.4161L46.1405 33H45.4776C41.7046 33 38.4415 35.3964 37.2178 38.7615Z" fill="#282828"/>
<path d="M46.7533 45.6957L50.7302 41.7188C52.1579 40.2911 53.9424 39.2714 55.8799 38.7615C54.7072 35.8553 52.1069 33.6119 48.9457 33.102L47.0592 37.4359C45.9375 40.0872 45.8355 43.0444 46.7533 45.6957Z" fill="#282828"/>
<path d="M61.9982 45.3898L65.4653 44.0131L65.0065 43.5542C63.3239 41.8717 61.1315 40.9539 58.7861 40.9539C56.4407 40.9539 54.2482 41.8717 52.5657 43.5542L48.3848 47.7861L51.6989 51.1003C52.5657 51.9671 53.2795 52.9358 53.7894 54.0065C55.166 50.0806 58.1232 46.9194 61.9982 45.3898Z" fill="#282828"/>
<path d="M26.5621 57.5247L29.9272 60.8898C31.2529 58.5954 33.2923 56.7599 35.7907 55.7911C32.4256 54.3125 29.7743 51.5592 28.3976 48.0921L27.021 44.625L26.5621 45.0839C23.146 48.5 23.146 54.0576 26.5621 57.5247Z" fill="#282828"/>
<path d="M39.9203 77.3075H53.1769C57.5617 77.3075 61.1818 74.0953 61.8446 69.9144L57.5108 68.0279C54.1966 66.6003 50.3216 66.8042 47.2114 68.6397C45.07 69.9144 42.5716 70.5262 40.1243 70.5262C38.2378 70.5262 36.3003 70.1183 34.5157 69.3535L31.0996 67.8749V68.5378C31.0996 73.3815 35.0766 77.3075 39.9203 77.3075Z" fill="#282828"/>
<path d="M53.1265 57.6776H39.8699C35.485 57.6776 31.865 60.8898 31.2021 65.0707L35.536 66.9572C38.8502 68.3848 42.7252 68.1809 45.8354 66.3454C49.7103 64.1019 54.4011 63.847 58.5311 65.6315L61.9472 67.1102V66.4473C61.9472 61.6036 57.9702 57.6776 53.1265 57.6776Z" fill="#282828"/>
<path d="M67.3519 46.1546L62.967 47.8882C59.6529 49.1628 57.1035 51.9671 56.1348 55.4342C59.092 56.25 61.5903 58.2385 63.12 60.8898L66.4851 57.5247C69.5443 54.4145 69.8502 49.5707 67.3519 46.1546Z" fill="#282828"/>
<path d="M30.8449 47.0724C32.1705 50.4375 35.0258 52.9868 38.5439 53.9556C39.5126 54.2105 40.4304 54.5674 41.2972 55.0263H51.3925C50.9847 54.2615 50.4748 53.5987 49.8629 52.9868L40.4814 43.6053C38.7988 41.9227 36.6064 41.0049 34.261 41.0049C32.3745 41.0049 30.5899 41.5658 29.1113 42.6875L30.8449 47.0724Z" fill="#282828"/>
</svg>
