<svg width="82" height="83" viewBox="0 0 82 83" fill="none" xmlns="http://www.w3.org/2000/svg">
<rect width="82" height="83" rx="10" fill="url(#paint0_linear_2220_19846)"/>
<path d="M17 21.875C66.0393 21.875 54.642 50.3824 54.6933 54.7848L63 62.125H60.3304L53.1018 55.7281C49.0973 56.1055 40.3286 58.8277 31.0875 52.4039C21.8259 45.9801 22.3393 38.2895 17 21.875ZM25.1835 26.0078C20.0804 23.8965 24.6496 26.8344 24.6496 26.8344C29.2906 29.6375 31.4263 33.4559 33.9112 37.6066C37.1455 43.0152 42.0228 50.1578 48.7174 52.6734C55.3915 55.1891 52.229 53.7965 49.3335 51.9098C46.4379 50.0051 42.3308 44.0934 39.9897 40.2121C36.7348 34.8215 33.7263 29.5566 25.1835 26.0078Z" fill="white"/>
<defs>
<linearGradient id="paint0_linear_2220_19846" x1="0" y1="0" x2="82" y2="83" gradientUnits="userSpaceOnUse">
<stop stop-color="#4CCA8D"/>
<stop offset="1" stop-color="#00BB60"/>
</linearGradient>
</defs>
</svg>
