<svg width="80" height="81" viewBox="0 0 80 81" fill="none" xmlns="http://www.w3.org/2000/svg">
<rect width="80" height="81" rx="10" fill="url(#paint0_linear_2220_19845)"/>
<path fill-rule="evenodd" clip-rule="evenodd" d="M61.6004 49.1001V27.5001C61.6004 26.0679 61.0315 24.6944 60.0188 23.6817C59.0061 22.669 57.6326 22.1001 56.2004 22.1001H23.8004C22.3682 22.1001 20.9947 22.669 19.982 23.6817C18.9693 24.6944 18.4004 26.0679 18.4004 27.5001V49.1001C18.4004 50.5323 18.9693 51.9058 19.982 52.9185C20.9947 53.9312 22.3682 54.5001 23.8004 54.5001H31.9004L40.0004 62.6001L48.1004 54.5001H56.2004C57.6326 54.5001 59.0061 53.9312 60.0188 52.9185C61.0315 51.9058 61.6004 50.5323 61.6004 49.1001ZM26.5004 32.9001C26.5004 32.184 26.7849 31.4973 27.2912 30.9909C27.7976 30.4846 28.4843 30.2001 29.2004 30.2001H50.8004C51.5165 30.2001 52.2032 30.4846 52.7096 30.9909C53.2159 31.4973 53.5004 32.184 53.5004 32.9001C53.5004 33.6162 53.2159 34.3029 52.7096 34.8093C52.2032 35.3156 51.5165 35.6001 50.8004 35.6001H29.2004C28.4843 35.6001 27.7976 35.3156 27.2912 34.8093C26.7849 34.3029 26.5004 33.6162 26.5004 32.9001ZM29.2004 41.0001C28.4843 41.0001 27.7976 41.2846 27.2912 41.7909C26.7849 42.2973 26.5004 42.984 26.5004 43.7001C26.5004 44.4162 26.7849 45.1029 27.2912 45.6093C27.7976 46.1156 28.4843 46.4001 29.2004 46.4001H37.3004C38.0165 46.4001 38.7032 46.1156 39.2096 45.6093C39.7159 45.1029 40.0004 44.4162 40.0004 43.7001C40.0004 42.984 39.7159 42.2973 39.2096 41.7909C38.7032 41.2846 38.0165 41.0001 37.3004 41.0001H29.2004Z" fill="white"/>
<defs>
<linearGradient id="paint0_linear_2220_19845" x1="0" y1="0" x2="80" y2="81" gradientUnits="userSpaceOnUse">
<stop stop-color="#FF73B4"/>
<stop offset="1" stop-color="#A90250" stop-opacity="0.65"/>
</linearGradient>
</defs>
</svg>
