<svg width="100" height="81" viewBox="0 0 100 81" fill="none" xmlns="http://www.w3.org/2000/svg">
<g clip-path="url(#clip0_2405_1136)">
<path d="M90 20.5C89.9997 19.4392 89.4728 18.422 88.535 17.672L68.535 1.672C67.5969 0.922546 66.3258 0.501103 65 0.5L17.5 0.5C15.5109 0.5 13.6032 1.13214 12.1967 2.25736C10.7902 3.38258 10 4.9087 10 6.5V24.5C10 25.5609 10.5268 26.5783 11.4645 27.3284C12.4021 28.0786 13.6739 28.5 15 28.5C16.3261 28.5 17.5979 28.0786 18.5355 27.3284C19.4732 26.5783 20 25.5609 20 24.5V8.5H62.93L80 22.156V72.5H20V68.5C20 67.4391 19.4732 66.4217 18.5355 65.6716C17.5979 64.9214 16.3261 64.5 15 64.5C13.6739 64.5 12.4021 64.9214 11.4645 65.6716C10.5268 66.4217 10 67.4391 10 68.5V74.5C10 76.0913 10.7902 77.6174 12.1967 78.7426C13.6032 79.8679 15.5109 80.5 17.5 80.5H82.5C84.4891 80.5 86.3968 79.8679 87.8033 78.7426C89.2098 77.6174 90 76.0913 90 74.5V20.5Z" fill="white"/>
<path d="M45 24.5C43.6739 24.5 42.4021 24.9214 41.4645 25.6716C40.5268 26.4217 40 27.4391 40 28.5C40 29.5609 40.5268 30.5783 41.4645 31.3284C42.4021 32.0786 43.6739 32.5 45 32.5H60V44.5C60 45.5609 60.5268 46.5783 61.4645 47.3284C62.4021 48.0786 63.6739 48.5 65 48.5C66.3261 48.5 67.5979 48.0786 68.5355 47.3284C69.4732 46.5783 70 45.5609 70 44.5V28.5C70 27.4391 69.4732 26.4217 68.5355 25.6716C67.5979 24.9214 66.3261 24.5 65 24.5H45Z" fill="white"/>
<path d="M35.0003 52.4999L31.1603 55.0599C31.6051 55.4867 32.1561 55.8347 32.7783 56.0817C33.4004 56.3287 34.0801 56.4693 34.774 56.4945C35.4678 56.5197 36.1606 56.429 36.8082 56.2281C37.4558 56.0273 38.044 55.7207 38.5353 55.3279L35.0003 52.4999ZM22.5003 40.4999L26.3403 37.9399C25.8774 37.4963 25.2999 37.1382 24.6475 36.8902C23.9951 36.6422 23.2833 36.5103 22.561 36.5034C21.8388 36.4966 21.1233 36.615 20.4637 36.8505C19.8041 37.0861 19.2162 37.4332 18.7403 37.8679L22.5003 40.4999ZM1.2353 53.8639C0.361415 54.6627 -0.0800123 55.7065 0.00812978 56.7657C0.0962719 57.825 0.706764 58.8128 1.7053 59.5119C2.70384 60.211 4.00864 60.5641 5.33264 60.4936C6.65665 60.4231 7.89142 59.9347 8.7653 59.1359L1.2353 53.8639ZM56.4653 29.6719L31.4653 49.6719L38.5353 55.3279L63.5353 35.3279L56.4653 29.6719ZM38.8403 49.9399L26.3403 37.9399L18.6603 43.0599L31.1603 55.0599L38.8403 49.9399ZM18.7403 37.8679L1.2403 53.8679L8.7653 59.1319L26.2653 43.1319L18.7403 37.8679Z" fill="white"/>
</g>
<defs>
<clipPath id="clip0_2405_1136">
<rect width="100" height="80" fill="white" transform="translate(0 0.5)"/>
</clipPath>
</defs>
</svg>
