<svg width="80" height="80" viewBox="0 0 80 80" fill="none" xmlns="http://www.w3.org/2000/svg">
<circle cx="40" cy="40" r="40" fill="#111110"/>
<path d="M69.8452 23.4064C69.5747 22.1046 68.9706 20.9133 68.127 19.9292C67.9491 19.7147 67.7632 19.5227 67.5618 19.3306C66.0671 17.8954 63.9692 17 61.6773 17H18.3228C16.031 17 13.9406 17.8954 12.4388 19.3306C12.2378 19.5227 12.052 19.7147 11.8736 19.9292C11.0295 20.9132 10.4254 22.1046 10.1624 23.4064C10.0544 23.9088 10 24.4281 10 24.953V54.0478C10 55.1639 10.2477 56.2369 10.6895 57.2058C11.0993 58.1307 11.7036 58.9676 12.4387 59.6694C12.625 59.8469 12.81 60.0102 13.012 60.1726C14.4517 61.3119 16.3102 62 18.3228 62H61.6773C63.6906 62 65.5572 61.3119 66.9886 60.1654C67.19 60.0102 67.3759 59.8469 67.5618 59.6694C68.2966 58.9676 68.9007 58.1307 69.3189 57.2058V57.1986C69.7606 56.2297 70 55.1639 70 54.0479V24.953C70.0001 24.4281 69.9466 23.9088 69.8452 23.4064ZM15.4503 22.2078C16.1938 21.4981 17.1924 21.0685 18.3228 21.0685H61.6773C62.8077 21.0685 63.8151 21.4981 64.5498 22.2078C64.6813 22.3343 64.8052 22.4751 64.9145 22.6151L42.191 41.5383C41.5643 42.0631 40.7901 42.3223 40.0001 42.3223C39.2179 42.3223 38.4443 42.0631 37.8092 41.5383L15.0944 22.607C15.1949 22.4671 15.3188 22.3343 15.4503 22.2078ZM14.2579 54.0478V26.8172L30.7022 40.5246L14.2662 54.2174C14.2579 54.1655 14.2579 54.107 14.2579 54.0478ZM61.6773 57.9307H18.3228C17.5867 57.9307 16.898 57.7459 16.3102 57.421L33.6514 42.9809L35.2704 44.3266C36.6252 45.4515 38.3205 46.0212 40.0001 46.0212C41.6883 46.0212 43.3835 45.4515 44.7382 44.3266L46.3563 42.9809L63.6907 57.421C63.1021 57.7459 62.4134 57.9307 61.6773 57.9307ZM65.7422 54.0478C65.7422 54.107 65.7422 54.1655 65.7343 54.2174L49.2984 40.5325L65.7422 26.8244V54.0478Z" fill="white"/>
</svg>
