<svg width="411" height="237" viewBox="0 0 411 237" fill="none" xmlns="http://www.w3.org/2000/svg">
<g filter="url(#filter0_d_1295_801)">
<rect x="30" y="26" width="351" height="177" rx="30" fill="white"/>
</g>
<path d="M187.405 90.005H197.755V95H181.105V63.59H187.405V90.005ZM213.129 95.405C210.729 95.405 208.569 94.88 206.649 93.83C204.729 92.75 203.214 91.235 202.104 89.285C201.024 87.335 200.484 85.085 200.484 82.535C200.484 79.985 201.039 77.735 202.149 75.785C203.289 73.835 204.834 72.335 206.784 71.285C208.734 70.205 210.909 69.665 213.309 69.665C215.709 69.665 217.884 70.205 219.834 71.285C221.784 72.335 223.314 73.835 224.424 75.785C225.564 77.735 226.134 79.985 226.134 82.535C226.134 85.085 225.549 87.335 224.379 89.285C223.239 91.235 221.679 92.75 219.699 93.83C217.749 94.88 215.559 95.405 213.129 95.405ZM213.129 89.915C214.269 89.915 215.334 89.645 216.324 89.105C217.344 88.535 218.154 87.695 218.754 86.585C219.354 85.475 219.654 84.125 219.654 82.535C219.654 80.165 219.024 78.35 217.764 77.09C216.534 75.8 215.019 75.155 213.219 75.155C211.419 75.155 209.904 75.8 208.674 77.09C207.474 78.35 206.874 80.165 206.874 82.535C206.874 84.905 207.459 86.735 208.629 88.025C209.829 89.285 211.329 89.915 213.129 89.915ZM240.596 95.405C238.556 95.405 236.726 95.045 235.106 94.325C233.486 93.575 232.196 92.57 231.236 91.31C230.306 90.05 229.796 88.655 229.706 87.125H236.051C236.171 88.085 236.636 88.88 237.446 89.51C238.286 90.14 239.321 90.455 240.551 90.455C241.751 90.455 242.681 90.215 243.341 89.735C244.031 89.255 244.376 88.64 244.376 87.89C244.376 87.08 243.956 86.48 243.116 86.09C242.306 85.67 241.001 85.22 239.201 84.74C237.341 84.29 235.811 83.825 234.611 83.345C233.441 82.865 232.421 82.13 231.551 81.14C230.711 80.15 230.291 78.815 230.291 77.135C230.291 75.755 230.681 74.495 231.461 73.355C232.271 72.215 233.411 71.315 234.881 70.655C236.381 69.995 238.136 69.665 240.146 69.665C243.116 69.665 245.486 70.415 247.256 71.915C249.026 73.385 250.001 75.38 250.181 77.9H244.151C244.061 76.91 243.641 76.13 242.891 75.56C242.171 74.96 241.196 74.66 239.966 74.66C238.826 74.66 237.941 74.87 237.311 75.29C236.711 75.71 236.411 76.295 236.411 77.045C236.411 77.885 236.831 78.53 237.671 78.98C238.511 79.4 239.816 79.835 241.586 80.285C243.386 80.735 244.871 81.2 246.041 81.68C247.211 82.16 248.216 82.91 249.056 83.93C249.926 84.92 250.376 86.24 250.406 87.89C250.406 89.33 250.001 90.62 249.191 91.76C248.411 92.9 247.271 93.8 245.771 94.46C244.301 95.09 242.576 95.405 240.596 95.405ZM212.065 104.71C215.125 104.71 217.585 105.655 219.445 107.545C221.335 109.405 222.28 112.015 222.28 115.375V130H215.98V116.23C215.98 114.28 215.485 112.795 214.495 111.775C213.505 110.725 212.155 110.2 210.445 110.2C208.735 110.2 207.37 110.725 206.35 111.775C205.36 112.795 204.865 114.28 204.865 116.23V130H198.565V116.23C198.565 114.28 198.07 112.795 197.08 111.775C196.09 110.725 194.74 110.2 193.03 110.2C191.29 110.2 189.91 110.725 188.89 111.775C187.9 112.795 187.405 114.28 187.405 116.23V130H181.105V105.07H187.405V108.085C188.215 107.035 189.25 106.21 190.51 105.61C191.8 105.01 193.21 104.71 194.74 104.71C196.69 104.71 198.43 105.13 199.96 105.97C201.49 106.78 202.675 107.95 203.515 109.48C204.325 108.04 205.495 106.885 207.025 106.015C208.585 105.145 210.265 104.71 212.065 104.71ZM251.733 116.995C251.733 117.895 251.673 118.705 251.553 119.425H233.328C233.478 121.225 234.108 122.635 235.218 123.655C236.328 124.675 237.693 125.185 239.313 125.185C241.653 125.185 243.318 124.18 244.308 122.17H251.103C250.383 124.57 249.003 126.55 246.963 128.11C244.923 129.64 242.418 130.405 239.448 130.405C237.048 130.405 234.888 129.88 232.968 128.83C231.078 127.75 229.593 126.235 228.513 124.285C227.463 122.335 226.938 120.085 226.938 117.535C226.938 114.955 227.463 112.69 228.513 110.74C229.563 108.79 231.033 107.29 232.923 106.24C234.813 105.19 236.988 104.665 239.448 104.665C241.818 104.665 243.933 105.175 245.793 106.195C247.683 107.215 249.138 108.67 250.158 110.56C251.208 112.42 251.733 114.565 251.733 116.995ZM245.208 115.195C245.178 113.575 244.593 112.285 243.453 111.325C242.313 110.335 240.918 109.84 239.268 109.84C237.708 109.84 236.388 110.32 235.308 111.28C234.258 112.21 233.613 113.515 233.373 115.195H245.208ZM259.827 102.1C258.687 102.1 257.742 101.755 256.992 101.065C256.272 100.345 255.912 99.46 255.912 98.41C255.912 97.36 256.272 96.49 256.992 95.8C257.742 95.08 258.687 94.72 259.827 94.72C260.937 94.72 261.852 95.08 262.572 95.8C263.292 96.49 263.652 97.36 263.652 98.41C263.652 99.46 263.292 100.345 262.572 101.065C261.852 101.755 260.937 102.1 259.827 102.1ZM262.932 134.095C262.932 136.855 262.242 138.835 260.862 140.035C259.512 141.265 257.562 141.88 255.012 141.88H252.222V136.525H254.022C254.982 136.525 255.657 136.33 256.047 135.94C256.437 135.58 256.632 134.98 256.632 134.14V105.07H262.932V134.095ZM280.526 130.405C278.126 130.405 275.966 129.88 274.046 128.83C272.126 127.75 270.611 126.235 269.501 124.285C268.421 122.335 267.881 120.085 267.881 117.535C267.881 114.985 268.436 112.735 269.546 110.785C270.686 108.835 272.231 107.335 274.181 106.285C276.131 105.205 278.306 104.665 280.706 104.665C283.106 104.665 285.281 105.205 287.231 106.285C289.181 107.335 290.711 108.835 291.821 110.785C292.961 112.735 293.531 114.985 293.531 117.535C293.531 120.085 292.946 122.335 291.776 124.285C290.636 126.235 289.076 127.75 287.096 128.83C285.146 129.88 282.956 130.405 280.526 130.405ZM280.526 124.915C281.666 124.915 282.731 124.645 283.721 124.105C284.741 123.535 285.551 122.695 286.151 121.585C286.751 120.475 287.051 119.125 287.051 117.535C287.051 115.165 286.421 113.35 285.161 112.09C283.931 110.8 282.416 110.155 280.616 110.155C278.816 110.155 277.301 110.8 276.071 112.09C274.871 113.35 274.271 115.165 274.271 117.535C274.271 119.905 274.856 121.735 276.026 123.025C277.226 124.285 278.726 124.915 280.526 124.915ZM304.752 108.94C305.562 107.62 306.612 106.585 307.902 105.835C309.222 105.085 310.722 104.71 312.402 104.71V111.325H310.737C308.757 111.325 307.257 111.79 306.237 112.72C305.247 113.65 304.752 115.27 304.752 117.58V130H298.452V105.07H304.752V108.94ZM340.121 116.995C340.121 117.895 340.061 118.705 339.941 119.425H321.716C321.866 121.225 322.496 122.635 323.606 123.655C324.716 124.675 326.081 125.185 327.701 125.185C330.041 125.185 331.706 124.18 332.696 122.17H339.491C338.771 124.57 337.391 126.55 335.351 128.11C333.311 129.64 330.806 130.405 327.836 130.405C325.436 130.405 323.276 129.88 321.356 128.83C319.466 127.75 317.981 126.235 316.901 124.285C315.851 122.335 315.326 120.085 315.326 117.535C315.326 114.955 315.851 112.69 316.901 110.74C317.951 108.79 319.421 107.29 321.311 106.24C323.201 105.19 325.376 104.665 327.836 104.665C330.206 104.665 332.321 105.175 334.181 106.195C336.071 107.215 337.526 108.67 338.546 110.56C339.596 112.42 340.121 114.565 340.121 116.995ZM333.596 115.195C333.566 113.575 332.981 112.285 331.841 111.325C330.701 110.335 329.306 109.84 327.656 109.84C326.096 109.84 324.776 110.32 323.696 111.28C322.646 112.21 322.001 113.515 321.761 115.195H333.596ZM354.559 130.405C352.519 130.405 350.689 130.045 349.069 129.325C347.449 128.575 346.159 127.57 345.199 126.31C344.269 125.05 343.759 123.655 343.669 122.125H350.014C350.134 123.085 350.599 123.88 351.409 124.51C352.249 125.14 353.284 125.455 354.514 125.455C355.714 125.455 356.644 125.215 357.304 124.735C357.994 124.255 358.339 123.64 358.339 122.89C358.339 122.08 357.919 121.48 357.079 121.09C356.269 120.67 354.964 120.22 353.164 119.74C351.304 119.29 349.774 118.825 348.574 118.345C347.404 117.865 346.384 117.13 345.514 116.14C344.674 115.15 344.254 113.815 344.254 112.135C344.254 110.755 344.644 109.495 345.424 108.355C346.234 107.215 347.374 106.315 348.844 105.655C350.344 104.995 352.099 104.665 354.109 104.665C357.079 104.665 359.449 105.415 361.219 106.915C362.989 108.385 363.964 110.38 364.144 112.9H358.114C358.024 111.91 357.604 111.13 356.854 110.56C356.134 109.96 355.159 109.66 353.929 109.66C352.789 109.66 351.904 109.87 351.274 110.29C350.674 110.71 350.374 111.295 350.374 112.045C350.374 112.885 350.794 113.53 351.634 113.98C352.474 114.4 353.779 114.835 355.549 115.285C357.349 115.735 358.834 116.2 360.004 116.68C361.174 117.16 362.179 117.91 363.019 118.93C363.889 119.92 364.339 121.24 364.369 122.89C364.369 124.33 363.964 125.62 363.154 126.76C362.374 127.9 361.234 128.8 359.734 129.46C358.264 130.09 356.539 130.405 354.559 130.405Z" fill="#373737"/>
<path opacity="0.7" d="M187.182 163.255C186.436 163.255 185.764 163.127 185.166 162.871C184.569 162.604 184.1 162.231 183.758 161.751C183.417 161.271 183.246 160.711 183.246 160.071H185.198C185.241 160.551 185.428 160.945 185.758 161.255C186.1 161.564 186.574 161.719 187.182 161.719C187.812 161.719 188.302 161.569 188.654 161.271C189.006 160.961 189.182 160.567 189.182 160.087C189.182 159.713 189.07 159.409 188.846 159.175C188.633 158.94 188.361 158.759 188.03 158.631C187.71 158.503 187.262 158.364 186.686 158.215C185.961 158.023 185.369 157.831 184.91 157.639C184.462 157.436 184.078 157.127 183.758 156.711C183.438 156.295 183.278 155.74 183.278 155.047C183.278 154.407 183.438 153.847 183.758 153.367C184.078 152.887 184.526 152.519 185.102 152.263C185.678 152.007 186.345 151.879 187.102 151.879C188.18 151.879 189.06 152.151 189.742 152.695C190.436 153.228 190.82 153.964 190.894 154.903H188.878C188.846 154.497 188.654 154.151 188.302 153.863C187.95 153.575 187.486 153.431 186.91 153.431C186.388 153.431 185.961 153.564 185.63 153.831C185.3 154.097 185.134 154.481 185.134 154.983C185.134 155.324 185.236 155.607 185.438 155.831C185.652 156.044 185.918 156.215 186.238 156.343C186.558 156.471 186.996 156.609 187.55 156.759C188.286 156.961 188.884 157.164 189.342 157.367C189.812 157.569 190.206 157.884 190.526 158.311C190.857 158.727 191.022 159.287 191.022 159.991C191.022 160.556 190.868 161.089 190.558 161.591C190.26 162.092 189.817 162.497 189.23 162.807C188.654 163.105 187.972 163.255 187.182 163.255ZM201.555 158.519C201.555 158.849 201.533 159.148 201.491 159.415H194.755C194.808 160.119 195.069 160.684 195.539 161.111C196.008 161.537 196.584 161.751 197.267 161.751C198.248 161.751 198.941 161.34 199.347 160.519H201.315C201.048 161.329 200.563 161.996 199.859 162.519C199.165 163.031 198.301 163.287 197.267 163.287C196.424 163.287 195.667 163.1 194.995 162.727C194.333 162.343 193.811 161.809 193.427 161.127C193.053 160.433 192.867 159.633 192.867 158.727C192.867 157.82 193.048 157.025 193.411 156.343C193.784 155.649 194.301 155.116 194.963 154.743C195.635 154.369 196.403 154.183 197.267 154.183C198.099 154.183 198.84 154.364 199.491 154.727C200.141 155.089 200.648 155.601 201.011 156.263C201.373 156.913 201.555 157.665 201.555 158.519ZM199.651 157.943C199.64 157.271 199.4 156.732 198.931 156.327C198.461 155.921 197.88 155.719 197.187 155.719C196.557 155.719 196.019 155.921 195.571 156.327C195.123 156.721 194.856 157.26 194.771 157.943H199.651ZM205.474 155.607C205.74 155.159 206.092 154.812 206.53 154.567C206.978 154.311 207.506 154.183 208.114 154.183V156.071H207.65C206.935 156.071 206.391 156.252 206.018 156.615C205.655 156.977 205.474 157.607 205.474 158.503V163.143H203.65V154.327H205.474V155.607ZM213.498 161.511L215.994 154.327H217.93L214.57 163.143H212.394L209.05 154.327H211.002L213.498 161.511ZM220.537 153.159C220.206 153.159 219.929 153.047 219.705 152.823C219.481 152.599 219.369 152.321 219.369 151.991C219.369 151.66 219.481 151.383 219.705 151.159C219.929 150.935 220.206 150.823 220.537 150.823C220.857 150.823 221.129 150.935 221.353 151.159C221.577 151.383 221.689 151.66 221.689 151.991C221.689 152.321 221.577 152.599 221.353 152.823C221.129 153.047 220.857 153.159 220.537 153.159ZM221.433 154.327V163.143H219.609V154.327H221.433ZM223.52 158.727C223.52 157.82 223.701 157.025 224.064 156.343C224.437 155.649 224.949 155.116 225.6 154.743C226.25 154.369 226.997 154.183 227.84 154.183C228.906 154.183 229.786 154.439 230.48 154.951C231.184 155.452 231.658 156.172 231.904 157.111H229.936C229.776 156.673 229.52 156.332 229.168 156.087C228.816 155.841 228.373 155.719 227.84 155.719C227.093 155.719 226.496 155.985 226.048 156.519C225.61 157.041 225.392 157.777 225.392 158.727C225.392 159.676 225.61 160.417 226.048 160.951C226.496 161.484 227.093 161.751 227.84 161.751C228.896 161.751 229.594 161.287 229.936 160.359H231.904C231.648 161.255 231.168 161.969 230.464 162.503C229.76 163.025 228.885 163.287 227.84 163.287C226.997 163.287 226.25 163.1 225.6 162.727C224.949 162.343 224.437 161.809 224.064 161.127C223.701 160.433 223.52 159.633 223.52 158.727ZM234.949 153.159C234.619 153.159 234.341 153.047 234.117 152.823C233.893 152.599 233.781 152.321 233.781 151.991C233.781 151.66 233.893 151.383 234.117 151.159C234.341 150.935 234.619 150.823 234.949 150.823C235.269 150.823 235.541 150.935 235.765 151.159C235.989 151.383 236.101 151.66 236.101 151.991C236.101 152.321 235.989 152.599 235.765 152.823C235.541 153.047 235.269 153.159 234.949 153.159ZM235.845 154.327V163.143H234.021V154.327H235.845ZM242.364 163.287C241.532 163.287 240.78 163.1 240.108 162.727C239.436 162.343 238.908 161.809 238.524 161.127C238.14 160.433 237.948 159.633 237.948 158.727C237.948 157.831 238.146 157.036 238.54 156.343C238.935 155.649 239.474 155.116 240.156 154.743C240.839 154.369 241.602 154.183 242.444 154.183C243.287 154.183 244.05 154.369 244.732 154.743C245.415 155.116 245.954 155.649 246.348 156.343C246.743 157.036 246.94 157.831 246.94 158.727C246.94 159.623 246.738 160.417 246.332 161.111C245.927 161.804 245.372 162.343 244.668 162.727C243.975 163.1 243.207 163.287 242.364 163.287ZM242.364 161.703C242.834 161.703 243.271 161.591 243.676 161.367C244.092 161.143 244.428 160.807 244.684 160.359C244.94 159.911 245.068 159.367 245.068 158.727C245.068 158.087 244.946 157.548 244.7 157.111C244.455 156.663 244.13 156.327 243.724 156.103C243.319 155.879 242.882 155.767 242.412 155.767C241.943 155.767 241.506 155.879 241.1 156.103C240.706 156.327 240.391 156.663 240.156 157.111C239.922 157.548 239.804 158.087 239.804 158.727C239.804 159.676 240.044 160.412 240.524 160.935C241.015 161.447 241.628 161.703 242.364 161.703ZM252.243 163.287C251.55 163.287 250.926 163.164 250.371 162.919C249.827 162.663 249.395 162.321 249.075 161.895C248.755 161.457 248.585 160.972 248.563 160.439H250.451C250.483 160.812 250.659 161.127 250.979 161.383C251.31 161.628 251.721 161.751 252.211 161.751C252.723 161.751 253.118 161.655 253.395 161.463C253.683 161.26 253.827 161.004 253.827 160.695C253.827 160.364 253.667 160.119 253.347 159.959C253.038 159.799 252.542 159.623 251.859 159.431C251.198 159.249 250.659 159.073 250.243 158.903C249.827 158.732 249.465 158.471 249.155 158.119C248.857 157.767 248.707 157.303 248.707 156.727C248.707 156.257 248.846 155.831 249.123 155.447C249.401 155.052 249.795 154.743 250.307 154.519C250.83 154.295 251.427 154.183 252.099 154.183C253.102 154.183 253.907 154.439 254.515 154.951C255.134 155.452 255.465 156.14 255.507 157.015H253.683C253.651 156.62 253.491 156.305 253.203 156.071C252.915 155.836 252.526 155.719 252.035 155.719C251.555 155.719 251.187 155.809 250.931 155.991C250.675 156.172 250.547 156.412 250.547 156.711C250.547 156.945 250.633 157.143 250.803 157.303C250.974 157.463 251.182 157.591 251.427 157.687C251.673 157.772 252.035 157.884 252.515 158.023C253.155 158.193 253.678 158.369 254.083 158.551C254.499 158.721 254.857 158.977 255.155 159.319C255.454 159.66 255.609 160.113 255.619 160.679C255.619 161.18 255.481 161.628 255.203 162.023C254.926 162.417 254.531 162.727 254.019 162.951C253.518 163.175 252.926 163.287 252.243 163.287ZM261.738 158.695C261.738 157.809 261.92 157.025 262.282 156.343C262.656 155.66 263.157 155.132 263.786 154.759C264.426 154.375 265.136 154.183 265.914 154.183C266.49 154.183 267.056 154.311 267.61 154.567C268.176 154.812 268.624 155.143 268.954 155.559V151.303H270.794V163.143H268.954V161.815C268.656 162.241 268.24 162.593 267.706 162.871C267.184 163.148 266.581 163.287 265.898 163.287C265.13 163.287 264.426 163.095 263.786 162.711C263.157 162.316 262.656 161.772 262.282 161.079C261.92 160.375 261.738 159.58 261.738 158.695ZM268.954 158.727C268.954 158.119 268.826 157.591 268.57 157.143C268.325 156.695 268 156.353 267.594 156.119C267.189 155.884 266.752 155.767 266.282 155.767C265.813 155.767 265.376 155.884 264.97 156.119C264.565 156.343 264.234 156.679 263.978 157.127C263.733 157.564 263.61 158.087 263.61 158.695C263.61 159.303 263.733 159.836 263.978 160.295C264.234 160.753 264.565 161.105 264.97 161.351C265.386 161.585 265.824 161.703 266.282 161.703C266.752 161.703 267.189 161.585 267.594 161.351C268 161.116 268.325 160.775 268.57 160.327C268.826 159.868 268.954 159.335 268.954 158.727ZM281.57 158.519C281.57 158.849 281.549 159.148 281.506 159.415H274.77C274.824 160.119 275.085 160.684 275.554 161.111C276.024 161.537 276.6 161.751 277.282 161.751C278.264 161.751 278.957 161.34 279.362 160.519H281.33C281.064 161.329 280.578 161.996 279.874 162.519C279.181 163.031 278.317 163.287 277.282 163.287C276.44 163.287 275.682 163.1 275.01 162.727C274.349 162.343 273.826 161.809 273.442 161.127C273.069 160.433 272.882 159.633 272.882 158.727C272.882 157.82 273.064 157.025 273.426 156.343C273.8 155.649 274.317 155.116 274.978 154.743C275.65 154.369 276.418 154.183 277.282 154.183C278.114 154.183 278.856 154.364 279.506 154.727C280.157 155.089 280.664 155.601 281.026 156.263C281.389 156.913 281.57 157.665 281.57 158.519ZM279.666 157.943C279.656 157.271 279.416 156.732 278.946 156.327C278.477 155.921 277.896 155.719 277.202 155.719C276.573 155.719 276.034 155.921 275.586 156.327C275.138 156.721 274.872 157.26 274.786 157.943H279.666ZM289.945 161.671H293.705V163.143H288.121V152.023H289.945V161.671ZM296.459 153.159C296.128 153.159 295.851 153.047 295.627 152.823C295.403 152.599 295.291 152.321 295.291 151.991C295.291 151.66 295.403 151.383 295.627 151.159C295.851 150.935 296.128 150.823 296.459 150.823C296.779 150.823 297.051 150.935 297.275 151.159C297.499 151.383 297.611 151.66 297.611 151.991C297.611 152.321 297.499 152.599 297.275 152.823C297.051 153.047 296.779 153.159 296.459 153.159ZM297.355 154.327V163.143H295.531V154.327H297.355ZM310.722 154.183C311.415 154.183 312.034 154.327 312.578 154.615C313.132 154.903 313.564 155.329 313.874 155.895C314.194 156.46 314.354 157.143 314.354 157.943V163.143H312.546V158.215C312.546 157.425 312.348 156.823 311.954 156.407C311.559 155.98 311.02 155.767 310.338 155.767C309.655 155.767 309.111 155.98 308.706 156.407C308.311 156.823 308.114 157.425 308.114 158.215V163.143H306.306V158.215C306.306 157.425 306.108 156.823 305.714 156.407C305.319 155.98 304.78 155.767 304.098 155.767C303.415 155.767 302.871 155.98 302.466 156.407C302.071 156.823 301.874 157.425 301.874 158.215V163.143H300.05V154.327H301.874V155.335C302.172 154.972 302.551 154.689 303.01 154.487C303.468 154.284 303.959 154.183 304.482 154.183C305.186 154.183 305.815 154.332 306.37 154.631C306.924 154.929 307.351 155.361 307.65 155.927C307.916 155.393 308.332 154.972 308.898 154.663C309.463 154.343 310.071 154.183 310.722 154.183ZM318.799 155.623C319.108 155.217 319.529 154.876 320.063 154.599C320.596 154.321 321.199 154.183 321.871 154.183C322.639 154.183 323.337 154.375 323.967 154.759C324.607 155.132 325.108 155.66 325.471 156.343C325.833 157.025 326.015 157.809 326.015 158.695C326.015 159.58 325.833 160.375 325.471 161.079C325.108 161.772 324.607 162.316 323.967 162.711C323.337 163.095 322.639 163.287 321.871 163.287C321.199 163.287 320.601 163.153 320.079 162.887C319.556 162.609 319.129 162.268 318.799 161.863V167.335H316.975V154.327H318.799V155.623ZM324.159 158.695C324.159 158.087 324.031 157.564 323.775 157.127C323.529 156.679 323.199 156.343 322.783 156.119C322.377 155.884 321.94 155.767 321.471 155.767C321.012 155.767 320.575 155.884 320.159 156.119C319.753 156.353 319.423 156.695 319.167 157.143C318.921 157.591 318.799 158.119 318.799 158.727C318.799 159.335 318.921 159.868 319.167 160.327C319.423 160.775 319.753 161.116 320.159 161.351C320.575 161.585 321.012 161.703 321.471 161.703C321.94 161.703 322.377 161.585 322.783 161.351C323.199 161.105 323.529 160.753 323.775 160.295C324.031 159.836 324.159 159.303 324.159 158.695ZM329.046 153.159C328.716 153.159 328.438 153.047 328.214 152.823C327.99 152.599 327.878 152.321 327.878 151.991C327.878 151.66 327.99 151.383 328.214 151.159C328.438 150.935 328.716 150.823 329.046 150.823C329.366 150.823 329.638 150.935 329.862 151.159C330.086 151.383 330.198 151.66 330.198 151.991C330.198 152.321 330.086 152.599 329.862 152.823C329.638 153.047 329.366 153.159 329.046 153.159ZM329.942 154.327V163.143H328.118V154.327H329.942ZM340.717 158.519C340.717 158.849 340.696 159.148 340.653 159.415H333.917C333.97 160.119 334.232 160.684 334.701 161.111C335.17 161.537 335.746 161.751 336.429 161.751C337.41 161.751 338.104 161.34 338.509 160.519H340.477C340.21 161.329 339.725 161.996 339.021 162.519C338.328 163.031 337.464 163.287 336.429 163.287C335.586 163.287 334.829 163.1 334.157 162.727C333.496 162.343 332.973 161.809 332.589 161.127C332.216 160.433 332.029 159.633 332.029 158.727C332.029 157.82 332.21 157.025 332.573 156.343C332.946 155.649 333.464 155.116 334.125 154.743C334.797 154.369 335.565 154.183 336.429 154.183C337.261 154.183 338.002 154.364 338.653 154.727C339.304 155.089 339.81 155.601 340.173 156.263C340.536 156.913 340.717 157.665 340.717 158.519ZM338.813 157.943C338.802 157.271 338.562 156.732 338.093 156.327C337.624 155.921 337.042 155.719 336.349 155.719C335.72 155.719 335.181 155.921 334.733 156.327C334.285 156.721 334.018 157.26 333.933 157.943H338.813ZM344.428 161.655H348.428V163.143H342.316V161.655L346.332 155.815H342.316V154.327H348.428V155.815L344.428 161.655ZM350.035 158.695C350.035 157.809 350.217 157.025 350.579 156.343C350.953 155.66 351.454 155.132 352.083 154.759C352.723 154.375 353.427 154.183 354.195 154.183C354.889 154.183 355.491 154.321 356.003 154.599C356.526 154.865 356.942 155.201 357.251 155.607V154.327H359.091V163.143H357.251V161.831C356.942 162.247 356.521 162.593 355.987 162.871C355.454 163.148 354.846 163.287 354.163 163.287C353.406 163.287 352.713 163.095 352.083 162.711C351.454 162.316 350.953 161.772 350.579 161.079C350.217 160.375 350.035 159.58 350.035 158.695ZM357.251 158.727C357.251 158.119 357.123 157.591 356.867 157.143C356.622 156.695 356.297 156.353 355.891 156.119C355.486 155.884 355.049 155.767 354.579 155.767C354.11 155.767 353.673 155.884 353.267 156.119C352.862 156.343 352.531 156.679 352.275 157.127C352.03 157.564 351.907 158.087 351.907 158.695C351.907 159.303 352.03 159.836 352.275 160.295C352.531 160.753 352.862 161.105 353.267 161.351C353.683 161.585 354.121 161.703 354.579 161.703C355.049 161.703 355.486 161.585 355.891 161.351C356.297 161.116 356.622 160.775 356.867 160.327C357.123 159.868 357.251 159.335 357.251 158.727Z" fill="#2F2F2F"/>
<path d="M127.856 75.3441C127.687 76.4155 127.602 77.4869 127.602 78.5583C127.602 88.201 135.296 95.9966 144.765 95.9966C145.822 95.9966 146.836 95.8724 147.893 95.7009V130.282C147.893 144.814 139.439 153.429 125.066 153.429H93.8312C79.4544 153.429 71 144.814 71 130.282V98.5723C71 84.0011 79.4544 75.3441 93.8312 75.3441H127.856ZM128.706 101.401C127.56 101.272 126.423 101.787 125.742 102.729L115.517 116.143L103.803 106.801C103.085 106.244 102.239 106.025 101.394 106.115C100.552 106.244 99.7915 106.711 99.28 107.396L86.7717 123.901L86.5139 124.286C85.7952 125.653 86.1334 127.41 87.4016 128.358C87.9934 128.743 88.6275 129 89.3461 129C90.3226 129.043 91.2483 128.525 91.8401 127.715L102.45 113.868L114.498 123.043L114.878 123.296C116.231 124.025 117.922 123.686 118.894 122.396L131.111 106.415L130.942 106.501C131.618 105.558 131.745 104.358 131.28 103.287C130.819 102.215 129.8 101.487 128.706 101.401ZM145.357 67.7144C150.979 67.7144 155.545 72.3429 155.545 78.0428C155.545 83.7427 150.979 88.3712 145.357 88.3712C139.735 88.3712 135.169 83.7427 135.169 78.0428C135.169 72.3429 139.735 67.7144 145.357 67.7144Z" fill="#FE7443"/>
<defs>
<filter id="filter0_d_1295_801" x="0" y="0" width="411" height="237" filterUnits="userSpaceOnUse" color-interpolation-filters="sRGB">
<feFlood flood-opacity="0" result="BackgroundImageFix"/>
<feColorMatrix in="SourceAlpha" type="matrix" values="0 0 0 0 0 0 0 0 0 0 0 0 0 0 0 0 0 0 127 0" result="hardAlpha"/>
<feOffset dy="4"/>
<feGaussianBlur stdDeviation="15"/>
<feComposite in2="hardAlpha" operator="out"/>
<feColorMatrix type="matrix" values="0 0 0 0 0 0 0 0 0 0 0 0 0 0 0 0 0 0 0.05 0"/>
<feBlend mode="normal" in2="BackgroundImageFix" result="effect1_dropShadow_1295_801"/>
<feBlend mode="normal" in="SourceGraphic" in2="effect1_dropShadow_1295_801" result="shape"/>
</filter>
</defs>
</svg>
