<svg width="29" height="25" viewBox="0 0 29 25" fill="none" xmlns="http://www.w3.org/2000/svg">
<path d="M7.625 7H21.375M7.625 12.5H13.125M14.5 23.5L9 18H4.875C4.14565 18 3.44618 17.7103 2.93046 17.1945C2.41473 16.6788 2.125 15.9793 2.125 15.25V4.25C2.125 3.52065 2.41473 2.82118 2.93046 2.30546C3.44618 1.78973 4.14565 1.5 4.875 1.5H24.125C24.8543 1.5 25.5538 1.78973 26.0695 2.30546C26.5853 2.82118 26.875 3.52065 26.875 4.25V15.25C26.875 15.9793 26.5853 16.6788 26.0695 17.1945C25.5538 17.7103 24.8543 18 24.125 18H20L14.5 23.5Z" stroke="#18181B" stroke-width="3" stroke-linecap="round" stroke-linejoin="round"/>
</svg>
