<svg width="80" height="80" viewBox="0 0 80 80" fill="none" xmlns="http://www.w3.org/2000/svg">
<circle cx="40" cy="40" r="40" fill="#86AE51"/>
<path d="M56.875 43.75H47.5V41.875C47.5 40.84 46.66 40 45.625 40H43.9056L42.955 28.5944C42.8744 27.6231 42.0625 26.875 41.0875 26.875H38.9125C37.9375 26.875 37.1256 27.6231 37.0431 28.5944L36.0944 40H34.375C33.34 40 32.5 40.84 32.5 41.875V43.75H23.125C21.0531 43.75 19.375 45.4281 19.375 47.5V64.375C19.375 66.4469 21.0531 68.125 23.125 68.125H32.5V60.625C32.5 59.59 33.34 58.75 34.375 58.75H36.25C37.285 58.75 38.125 59.59 38.125 60.625V68.125H56.875C58.9469 68.125 60.625 66.4469 60.625 64.375V47.5C60.625 45.4281 58.9469 43.75 56.875 43.75ZM28.75 62.5C28.75 63.535 27.91 64.375 26.875 64.375H25C23.965 64.375 23.125 63.535 23.125 62.5V60.625C23.125 59.59 23.965 58.75 25 58.75H26.875C27.91 58.75 28.75 59.59 28.75 60.625V62.5ZM28.75 53.125C28.75 54.16 27.91 55 26.875 55H25C23.965 55 23.125 54.16 23.125 53.125V51.25C23.125 50.215 23.965 49.375 25 49.375H26.875C27.91 49.375 28.75 50.215 28.75 51.25V53.125ZM38.125 53.125C38.125 54.16 37.285 55 36.25 55H34.375C33.34 55 32.5 54.16 32.5 53.125V51.25C32.5 50.215 33.34 49.375 34.375 49.375H36.25C37.285 49.375 38.125 50.215 38.125 51.25V53.125ZM47.5 62.5C47.5 63.535 46.66 64.375 45.625 64.375H43.75C42.715 64.375 41.875 63.535 41.875 62.5V60.625C41.875 59.59 42.715 58.75 43.75 58.75H45.625C46.66 58.75 47.5 59.59 47.5 60.625V62.5ZM47.5 53.125C47.5 54.16 46.66 55 45.625 55H43.75C42.715 55 41.875 54.16 41.875 53.125V51.25C41.875 50.215 42.715 49.375 43.75 49.375H45.625C46.66 49.375 47.5 50.215 47.5 51.25V53.125ZM56.875 62.5C56.875 63.535 56.035 64.375 55 64.375H53.125C52.09 64.375 51.25 63.535 51.25 62.5V60.625C51.25 59.59 52.09 58.75 53.125 58.75H55C56.035 58.75 56.875 59.59 56.875 60.625V62.5ZM56.875 53.125C56.875 54.16 56.035 55 55 55H53.125C52.09 55 51.25 54.16 51.25 53.125V51.25C51.25 50.215 52.09 49.375 53.125 49.375H55C56.035 49.375 56.875 50.215 56.875 51.25V53.125ZM19.375 16.5625C19.375 15.01 20.635 13.75 22.1875 13.75C22.7725 13.75 23.3163 13.93 23.7663 14.2356C24.5763 12.8313 26.0744 11.875 27.8125 11.875C29.8337 11.875 31.5419 13.1631 32.2 14.9575C33.0288 14.215 34.1125 13.75 35.3125 13.75C37.9019 13.75 40 15.8481 40 18.4375C40 18.8069 39.9475 19.1613 39.8669 19.5063C41.0256 19.8531 41.875 20.9163 41.875 22.1875C41.875 23.74 40.615 25 39.0625 25C37.7913 25 36.7281 24.1506 36.3812 22.9919C36.0362 23.0725 35.6819 23.125 35.3125 23.125C33.2913 23.125 31.5831 21.8369 30.925 20.0425C30.0962 20.785 29.0125 21.25 27.8125 21.25C26.0744 21.25 24.5763 20.2938 23.7663 18.8894C23.3163 19.195 22.7725 19.375 22.1875 19.375C20.635 19.375 19.375 18.115 19.375 16.5625Z" fill="black"/>
</svg>
