<svg width="96" height="96" viewBox="0 0 96 96" fill="none" xmlns="http://www.w3.org/2000/svg">
<rect x="0.5" y="0.617676" width="95" height="95" rx="18" fill="#F9F8F8"/>
<circle cx="63" cy="40.1177" r="14.5" fill="#C6EFD1"/>
<path d="M80.1357 53.5612C79.0439 50.5041 77.5153 47.8109 75.6228 45.6272C72.2745 41.7694 68.7806 40.7503 68.635 40.6776C67.7615 40.4592 66.8153 40.7503 66.3786 41.551C64.1221 45.1177 62.0112 47.4469 58.0078 48.6843V64.334C58.0806 64.334 58.1534 64.2612 58.2262 64.2612C61.2105 63.6061 64.4133 66.0809 64.4133 66.1537C64.85 66.5177 65.5051 66.6632 66.0874 66.5905C66.6697 66.4449 67.1792 66.0809 67.4704 65.5714C67.8343 64.8435 68.3439 64.4796 69.0718 64.334C71.6922 63.7517 76.4962 66.4449 78.8983 68.3374C79.4806 68.7741 80.2813 68.9197 81.0092 68.5558C81.6643 68.1918 82.101 67.5367 82.101 66.736C82.101 61.7136 81.4459 57.3462 80.1357 53.5612Z" fill="#282828"/>
<path d="M37.9916 48.6115C33.9882 47.3741 31.8773 45.0449 29.6209 41.4782C29.1114 40.7503 28.2379 40.3864 27.3644 40.6047C27.2188 40.6775 23.725 41.6966 20.3767 45.5544C18.4841 47.7381 16.9556 50.4313 15.8637 53.4884C14.5535 57.3462 13.8984 61.7136 13.8984 66.6632C13.8984 67.3911 14.3352 68.119 14.9903 68.483C15.6454 68.8469 16.5188 68.7013 17.1012 68.2646C19.5032 66.4449 24.3073 63.6789 26.9277 64.2612C27.6556 64.4068 28.0923 64.7707 28.529 65.4986C28.8202 66.0081 29.3297 66.3721 29.912 66.5177C30.4943 66.6632 31.0767 66.4449 31.5862 66.0809C31.5862 66.0809 34.7889 63.5333 37.7733 64.1884C37.846 64.1884 37.9188 64.2612 37.9916 64.2612V48.6115Z" fill="#282828"/>
<path d="M54.0048 36.9653C54.0048 35.8735 53.1314 35 52.0395 35C50.9477 35 50.0742 35.8735 50.0742 36.9653V37.9116C51.53 38.2027 52.913 38.8578 54.0776 39.7313V36.9653H54.0048Z" fill="#282828"/>
<path d="M45.999 36.9653C45.999 35.8735 45.1255 35 44.0337 35C42.9418 35 42.0684 35.8735 42.0684 36.9653V39.6585C43.233 38.785 44.616 38.1299 46.0718 37.8388V36.9653H45.999Z" fill="#282828"/>
<path d="M54.0049 67.7551V47.6653C54.0049 44.317 51.3117 41.6238 47.9634 41.6238C44.6151 41.6238 41.9219 44.317 41.9219 47.6653V67.7551C41.9219 72.4863 46.0709 76.7081 46.5076 77.2176C46.8715 77.5816 47.3811 77.7999 47.8906 77.7999C48.4001 77.7999 48.9096 77.5816 49.2736 77.2176C49.9287 76.7081 54.0049 72.4863 54.0049 67.7551Z" fill="#282828"/>
</svg>
