<svg width="60" height="56" viewBox="0 0 60 56" fill="none" xmlns="http://www.w3.org/2000/svg">
<path id="Vector (Stroke)" fill-rule="evenodd" clip-rule="evenodd" d="M15.4867 2.32241C15.9429 1.17434 17.0177 0.425781 18.2099 0.425781H41.7905C42.9827 0.425781 44.0575 1.17434 44.5137 2.32241C44.97 3.47048 44.7178 4.79196 43.8748 5.67065L41.7905 7.84315V22.4602C41.7905 22.46 41.7905 22.4604 41.7905 22.4602C41.7909 23.2747 42.1015 24.0565 42.6542 24.6324L57.3924 39.9946C62.9651 45.8032 59.0133 55.7285 51.1373 55.7285H8.86015C0.981012 55.7285 -2.96243 45.8009 2.60802 39.9946L17.3459 24.6327C17.8986 24.0568 18.2095 23.2754 18.2099 22.4609C18.2099 22.4606 18.2099 22.4611 18.2099 22.4609V7.84315L16.1256 5.67065C15.2826 4.79196 15.0304 3.47048 15.4867 2.32241ZM24.105 6.57053V22.4609C24.1045 24.905 23.1727 27.2496 21.5144 28.9777C21.5143 28.9778 21.5145 28.9776 21.5144 28.9777L15.3461 35.4072L18.7317 36.1127C21.9454 36.7826 25.2819 36.3168 28.2133 34.789L28.22 34.7855L29.1506 34.3036C29.1518 34.3029 29.1531 34.3023 29.1543 34.3017C33.0324 32.2814 37.4164 31.5887 41.6835 32.3106L38.4863 28.978C38.4862 28.9779 38.4864 28.9781 38.4863 28.978C36.828 27.2499 35.8959 24.9057 35.8954 22.4615V6.57053H24.105ZM48.3043 39.9414L41.2689 38.476C38.0552 37.8061 34.7185 38.2717 31.7871 39.7996L31.7804 39.803L30.8498 40.285C30.8486 40.2856 30.8473 40.2863 30.8461 40.2869C26.7432 42.4243 22.0739 43.0757 17.5761 42.1382M17.5761 42.1382L11.8846 40.9523C11.8845 40.9523 11.8847 40.9524 11.8846 40.9523C11.409 40.8533 10.917 40.8782 10.4528 41.0247C9.98844 41.1713 9.56602 41.4351 9.22297 41.7926C9.19651 41.8202 9.16966 41.8472 9.14246 41.8735L6.77653 44.3396C4.91907 46.2757 6.23411 49.5838 8.86015 49.5838H51.1373C53.7665 49.5838 55.0791 46.2734 53.2239 44.3396L49.8118 40.783C49.8113 40.7826 49.8122 40.7834 49.8118 40.783C49.4004 40.3542 48.8747 40.0604 48.3043 39.9414C48.3041 39.9413 48.3045 39.9414 48.3043 39.9414" fill="#282828"/>
</svg>
