<svg width="97" height="120" viewBox="0 0 97 120" fill="none" xmlns="http://www.w3.org/2000/svg">
<path d="M56.6436 74.4877C55.2499 70.6851 52.9164 67.44 49.9341 65.157C46.9518 62.8741 43.4527 61.6544 39.8733 61.6501H38.5927C38.2137 61.6501 37.8502 61.8238 37.5822 62.1329C37.3141 62.442 37.1636 62.8613 37.1636 63.2985V64.7755C37.1693 70.3104 39.0684 75.6192 42.4482 79.5486C45.828 83.4781 50.4156 85.7107 55.2144 85.7616V97.8227C49.1252 98.1062 43.2114 100.256 38.0817 104.051C37.9217 104.166 37.7832 104.318 37.6742 104.496C37.5652 104.674 37.4879 104.875 37.4467 105.087C37.4056 105.3 37.4014 105.52 37.4344 105.735C37.4674 105.949 37.537 106.154 37.639 106.337C37.7411 106.521 37.8737 106.679 38.0292 106.803C38.1846 106.927 38.3598 107.014 38.5445 107.059C38.7293 107.104 38.9201 107.107 39.1057 107.066C39.2914 107.026 39.4683 106.944 39.6262 106.824C44.7063 103.074 50.6118 101.08 56.6436 101.08C62.6754 101.08 68.5809 103.074 73.661 106.824C73.8189 106.944 73.9958 107.026 74.1815 107.066C74.3672 107.107 74.5579 107.104 74.7427 107.059C74.9275 107.014 75.1027 106.927 75.2581 106.803C75.4135 106.679 75.5461 106.521 75.6482 106.337C75.7503 106.154 75.8199 105.949 75.8529 105.735C75.8859 105.52 75.8817 105.3 75.8405 105.087C75.7994 104.875 75.722 104.674 75.6131 104.496C75.5041 104.318 75.3656 104.166 75.2056 104.051C70.0758 100.256 64.162 98.1062 58.0727 97.8227V85.7616C62.8715 85.7107 67.4591 83.4781 70.8389 79.5486C74.2188 75.6192 76.1178 70.3104 76.1236 64.7755V63.2985C76.1236 62.8613 75.973 62.442 75.705 62.1329C75.437 61.8238 75.0735 61.6501 74.6944 61.6501H73.4138C69.8344 61.6544 66.3353 62.8741 63.353 65.1571C60.3707 67.44 58.0372 70.6851 56.6436 74.4877ZM40.0225 64.9479C44.038 64.9979 47.8768 66.8598 50.7164 70.1348C53.556 73.4098 55.1704 77.8373 55.2138 82.4686C51.1983 82.4186 47.3595 80.5567 44.5199 77.2817C41.6803 74.0067 40.0659 69.5792 40.0225 64.9479ZM73.2647 64.9479C73.2213 69.5792 71.6069 74.0067 68.7673 77.2817C65.9277 80.5567 62.0889 82.4186 58.0734 82.4686C58.1168 77.8373 59.7312 73.4098 62.5708 70.1348C65.4103 66.8598 69.2492 64.9979 73.2647 64.9479Z" fill="#285A43" stroke="#285A43" stroke-width="0.445322"/>
<path d="M95.7218 48.9771L57.496 16.1847C57.2494 15.9732 56.9503 15.859 56.643 15.859C56.3358 15.859 56.0367 15.9732 55.7901 16.1847L22.4472 44.7882V9.60825C22.4472 7.3252 21.6609 5.13566 20.2612 3.5213C18.8615 1.90694 16.963 1 14.9835 1C13.0041 1 11.1056 1.90694 9.70593 3.5213C8.30622 5.13566 7.51987 7.3252 7.51987 9.60825V61.025C5.41318 62.5467 3.69899 64.6922 2.55601 67.238C1.41304 69.7839 0.883139 72.6367 1.02157 75.4992C1.21777 79.5332 2.71428 83.337 5.21732 86.1638C7.72036 88.9906 11.0491 90.6362 14.5502 90.7776C14.6969 90.7826 14.8426 90.7853 14.9887 90.7853C15.6576 90.7853 16.3257 90.7307 16.9879 90.6219V117.936C16.9879 118.374 17.1385 118.793 17.4065 119.102C17.6745 119.411 18.038 119.585 18.417 119.585H94.8689C95.2479 119.585 95.6114 119.411 95.8795 119.102C96.1475 118.793 96.2981 118.374 96.2981 117.936V50.2997C96.2981 50.0427 96.2459 49.7892 96.1459 49.5596C96.0458 49.3299 95.9006 49.1305 95.7218 48.9771ZM14.6371 87.4824C12.1984 87.3947 9.85229 86.3845 7.96033 84.6075C6.06836 82.8306 4.73549 80.3854 4.16706 77.6487C3.59863 74.912 3.82618 72.0357 4.81466 69.4629C5.80313 66.8901 7.49768 64.7635 9.63724 63.4108C9.86158 63.2686 10.0487 63.0595 10.179 62.8054C10.3094 62.5512 10.3782 62.2614 10.3782 61.9662V9.60822C10.3782 8.19949 10.8634 6.84846 11.7271 5.85234C12.5907 4.85621 13.7621 4.2966 14.9835 4.2966C16.205 4.2966 17.3764 4.85621 18.24 5.85234C19.1037 6.84846 19.5889 8.19949 19.5889 9.60822V61.9662C19.589 62.2614 19.6577 62.5512 19.7881 62.8054C19.9184 63.0595 20.1055 63.2686 20.3299 63.4108C22.5215 64.7964 24.2446 66.9929 25.2214 69.6462C26.1983 72.2995 26.3718 75.2549 25.7142 78.0358C25.0565 80.8168 23.6059 83.2613 21.5963 84.9751C19.5867 86.6889 17.1352 87.5721 14.6371 87.4824ZM93.4397 116.288H19.8463V89.7846C22.2906 88.738 24.4325 86.9242 26.0303 84.5479C27.6281 82.1716 28.6182 79.3275 28.8887 76.3366C29.1592 73.3457 28.6994 70.3272 27.5612 67.6217C26.423 64.9163 24.6518 62.6317 22.4474 61.0258V48.8968L56.6432 19.5616L93.4399 51.128L93.4397 116.288Z" fill="#285A43" stroke="#285A43" stroke-width="0.445322"/>
<path d="M16.4132 67.2205V13.3312C16.4132 12.894 16.2626 12.4748 15.9946 12.1656C15.7266 11.8565 15.3631 11.6829 14.9841 11.6829C14.605 11.6829 14.2415 11.8565 13.9735 12.1656C13.7055 12.4748 13.5549 12.894 13.5549 13.3312V67.2205C11.9364 67.6271 10.5053 68.7093 9.53665 70.2592C8.56806 71.8091 8.13034 73.7172 8.30763 75.6167C8.48492 77.5163 9.26472 79.2732 10.4971 80.5498C11.7295 81.8264 13.3276 82.5325 14.9841 82.5325C16.6405 82.5325 18.2386 81.8264 19.471 80.5498C20.7034 79.2732 21.4832 77.5163 21.6605 75.6167C21.8378 73.7172 21.4001 71.8091 20.4315 70.2592C19.4629 68.7093 18.0317 67.6271 16.4132 67.2205ZM14.9841 79.2323C14.2213 79.2322 13.4757 78.9713 12.8415 78.4826C12.2073 77.9938 11.7131 77.2991 11.4212 76.4863C11.1293 75.6736 11.053 74.7792 11.2018 73.9164C11.3506 73.0536 11.7179 72.2611 12.2573 71.6391C12.7967 71.017 13.4838 70.5934 14.2319 70.4218C14.98 70.2502 15.7554 70.3383 16.4601 70.675C17.1648 71.0117 17.7671 71.5818 18.1908 72.3132C18.6146 73.0447 18.8407 73.9046 18.8407 74.7844C18.8396 75.9636 18.4329 77.0943 17.7099 77.9281C16.9868 78.762 16.0065 79.231 14.9841 79.2323Z" fill="#285A43" stroke="#285A43" stroke-width="0.445322"/>
<path d="M50.0749 54.9135C50.0749 55.3507 50.2255 55.77 50.4935 56.0791C50.7615 56.3882 51.1251 56.5619 51.5041 56.5619C51.8831 56.5619 52.2466 56.3882 52.5147 56.0791C52.7827 55.77 52.9332 55.3507 52.9332 54.9135C52.9239 54.4799 53.0602 54.0588 53.3138 53.7385C53.8911 52.86 54.2036 51.7879 54.2036 50.6856C54.2036 49.5833 53.8911 48.5112 53.3138 47.6328C53.0684 47.3071 52.9333 46.8902 52.9332 46.4587C52.9332 46.0273 53.0682 45.6103 53.3135 45.2846C53.8998 44.412 54.2134 43.3366 54.2036 42.2328C54.2036 41.7956 54.053 41.3764 53.785 41.0673C53.517 40.7581 53.1535 40.5845 52.7744 40.5845C52.3954 40.5845 52.0319 40.7581 51.7639 41.0673C51.4959 41.3764 51.3453 41.7956 51.3453 42.2328C51.3545 42.6657 51.2183 43.0861 50.9651 43.4059C50.3876 44.2841 50.075 45.356 50.0749 46.4582C50.0749 47.5604 50.3874 48.6324 50.9648 49.5107C51.2102 49.8367 51.3453 50.2539 51.3453 50.6856C51.3453 51.1173 51.2102 51.5345 50.9648 51.8605C50.3786 52.7336 50.065 53.8093 50.0749 54.9135Z" fill="#285A43" stroke="#285A43" stroke-width="0.445322"/>
<path d="M59.0832 54.9135C59.0832 55.3507 59.2338 55.77 59.5018 56.0791C59.7698 56.3882 60.1334 56.5619 60.5124 56.5619C60.8914 56.5619 61.2549 56.3882 61.523 56.0791C61.791 55.77 61.9415 55.3507 61.9415 54.9135C61.9322 54.4799 62.0685 54.0588 62.3221 53.7385C62.8994 52.86 63.2119 51.7879 63.2119 50.6856C63.2119 49.5833 62.8994 48.5112 62.3221 47.6328C62.0767 47.3071 61.9416 46.8902 61.9415 46.4587C61.9415 46.0273 62.0765 45.6103 62.3218 45.2846C62.9081 44.412 63.2217 43.3367 63.2119 42.2328C63.2119 41.7956 63.0613 41.3764 62.7933 41.0673C62.5253 40.7581 62.1618 40.5845 61.7827 40.5845C61.4037 40.5845 61.0402 40.7581 60.7722 41.0673C60.5042 41.3764 60.3536 41.7956 60.3536 42.2328C60.3628 42.6658 60.2266 43.0861 59.9733 43.4059C59.3959 44.2841 59.0833 45.356 59.0832 46.4582C59.0832 47.5604 59.3957 48.6324 59.973 49.5107C60.2185 49.8367 60.3536 50.2539 60.3536 50.6856C60.3536 51.1173 60.2185 51.5345 59.973 51.8605C59.3869 52.7336 59.0733 53.8093 59.0832 54.9135Z" fill="#285A43" stroke="#285A43" stroke-width="0.445322"/>
</svg>
