<svg width="99" height="122" viewBox="0 0 99 122" fill="none" xmlns="http://www.w3.org/2000/svg">
<path d="M57.6436 75.4877C56.2499 71.6851 53.9164 68.44 50.9341 66.157C47.9518 63.8741 44.4527 62.6544 40.8733 62.6501H39.5927C39.2137 62.6501 38.8502 62.8238 38.5822 63.1329C38.3141 63.442 38.1636 63.8613 38.1636 64.2985V65.7755C38.1693 71.3104 40.0684 76.6192 43.4482 80.5486C46.828 84.4781 51.4156 86.7107 56.2144 86.7616V98.8227C50.1252 99.1062 44.2114 101.256 39.0817 105.051C38.9217 105.166 38.7832 105.318 38.6742 105.496C38.5652 105.674 38.4879 105.875 38.4467 106.087C38.4056 106.3 38.4014 106.52 38.4344 106.735C38.4674 106.949 38.537 107.154 38.639 107.337C38.7411 107.521 38.8737 107.679 39.0292 107.803C39.1846 107.927 39.3598 108.014 39.5445 108.059C39.7293 108.104 39.9201 108.107 40.1057 108.066C40.2914 108.026 40.4683 107.944 40.6262 107.824C45.7063 104.074 51.6118 102.08 57.6436 102.08C63.6754 102.08 69.5809 104.074 74.661 107.824C74.8189 107.944 74.9958 108.026 75.1815 108.066C75.3672 108.107 75.5579 108.104 75.7427 108.059C75.9275 108.014 76.1027 107.927 76.2581 107.803C76.4135 107.679 76.5461 107.521 76.6482 107.337C76.7503 107.154 76.8199 106.949 76.8529 106.735C76.8859 106.52 76.8817 106.3 76.8405 106.087C76.7994 105.875 76.722 105.674 76.6131 105.496C76.5041 105.318 76.3656 105.166 76.2056 105.051C71.0758 101.256 65.162 99.1062 59.0727 98.8227V86.7616C63.8715 86.7107 68.4591 84.4781 71.8389 80.5486C75.2188 76.6192 77.1178 71.3104 77.1236 65.7755V64.2985C77.1236 63.8613 76.973 63.442 76.705 63.1329C76.437 62.8238 76.0735 62.6501 75.6944 62.6501H74.4138C70.8344 62.6544 67.3353 63.8741 64.353 66.1571C61.3707 68.44 59.0372 71.6851 57.6436 75.4877ZM41.0225 65.9479C45.038 65.9979 48.8768 67.8598 51.7164 71.1348C54.556 74.4098 56.1704 78.8373 56.2138 83.4686C52.1983 83.4186 48.3595 81.5567 45.5199 78.2817C42.6803 75.0067 41.0659 70.5792 41.0225 65.9479ZM74.2647 65.9479C74.2213 70.5792 72.6069 75.0067 69.7673 78.2817C66.9277 81.5567 63.0889 83.4186 59.0734 83.4686C59.1168 78.8373 60.7312 74.4098 63.5708 71.1348C66.4103 67.8598 70.2492 65.9979 74.2647 65.9479Z" fill="#8C571A" stroke="#8C571A" stroke-width="2.5"/>
<path d="M96.7218 49.9771L58.496 17.1847C58.2494 16.9732 57.9503 16.859 57.643 16.859C57.3358 16.859 57.0367 16.9732 56.7901 17.1847L23.4472 45.7882V10.6083C23.4472 8.3252 22.6609 6.13566 21.2612 4.5213C19.8615 2.90694 17.963 2 15.9835 2C14.0041 2 12.1056 2.90694 10.7059 4.5213C9.30622 6.13566 8.51987 8.3252 8.51987 10.6083V62.025C6.41318 63.5467 4.69899 65.6922 3.55601 68.238C2.41304 70.7839 1.88314 73.6367 2.02157 76.4992C2.21777 80.5332 3.71428 84.337 6.21732 87.1638C8.72036 89.9906 12.0491 91.6362 15.5502 91.7776C15.6969 91.7826 15.8426 91.7853 15.9887 91.7853C16.6576 91.7853 17.3257 91.7307 17.9879 91.6219V118.936C17.9879 119.374 18.1385 119.793 18.4065 120.102C18.6745 120.411 19.038 120.585 19.417 120.585H95.8689C96.2479 120.585 96.6114 120.411 96.8795 120.102C97.1475 119.793 97.298 119.374 97.298 118.936V51.2997C97.2981 51.0427 97.2459 50.7892 97.1459 50.5596C97.0458 50.3299 96.9006 50.1305 96.7218 49.9771ZM15.6371 88.4824C13.1984 88.3947 10.8523 87.3845 8.96033 85.6075C7.06836 83.8306 5.73549 81.3854 5.16706 78.6487C4.59863 75.912 4.82618 73.0357 5.81466 70.4629C6.80313 67.8901 8.49768 65.7635 10.6372 64.4108C10.8616 64.2686 11.0487 64.0595 11.179 63.8054C11.3094 63.5512 11.3782 63.2614 11.3782 62.9662V10.6082C11.3782 9.19949 11.8634 7.84846 12.7271 6.85234C13.5907 5.85621 14.7621 5.2966 15.9835 5.2966C17.205 5.2966 18.3764 5.85621 19.24 6.85234C20.1037 7.84846 20.5889 9.19949 20.5889 10.6082V62.9662C20.589 63.2614 20.6577 63.5512 20.7881 63.8054C20.9184 64.0595 21.1055 64.2686 21.3299 64.4108C23.5215 65.7964 25.2446 67.9929 26.2214 70.6462C27.1983 73.2995 27.3718 76.2549 26.7142 79.0358C26.0565 81.8168 24.6059 84.2613 22.5963 85.9751C20.5867 87.6889 18.1352 88.5721 15.6371 88.4824ZM94.4397 117.288H20.8463V90.7846C23.2906 89.738 25.4325 87.9242 27.0303 85.5479C28.6281 83.1716 29.6182 80.3275 29.8887 77.3366C30.1592 74.3457 29.6994 71.3272 28.5612 68.6217C27.423 65.9163 25.6518 63.6317 23.4474 62.0258V49.8968L57.6432 20.5616L94.4399 52.128L94.4397 117.288Z" fill="#8C571A" stroke="#8C571A" stroke-width="2.5"/>
<path d="M17.4132 68.2205V14.3312C17.4132 13.894 17.2626 13.4748 16.9946 13.1656C16.7266 12.8565 16.3631 12.6829 15.9841 12.6829C15.605 12.6829 15.2415 12.8565 14.9735 13.1656C14.7055 13.4748 14.5549 13.894 14.5549 14.3312V68.2205C12.9364 68.6271 11.5053 69.7093 10.5367 71.2592C9.56806 72.8091 9.13034 74.7172 9.30763 76.6167C9.48492 78.5163 10.2647 80.2732 11.4971 81.5498C12.7295 82.8264 14.3276 83.5325 15.9841 83.5325C17.6405 83.5325 19.2386 82.8264 20.471 81.5498C21.7034 80.2732 22.4832 78.5163 22.6605 76.6167C22.8378 74.7172 22.4001 72.8091 21.4315 71.2592C20.4629 69.7093 19.0317 68.6271 17.4132 68.2205ZM15.9841 80.2323C15.2213 80.2322 14.4757 79.9713 13.8415 79.4826C13.2073 78.9938 12.7131 78.2991 12.4212 77.4863C12.1293 76.6736 12.053 75.7792 12.2018 74.9164C12.3506 74.0536 12.7179 73.2611 13.2573 72.6391C13.7967 72.017 14.4838 71.5934 15.2319 71.4218C15.98 71.2502 16.7554 71.3383 17.4601 71.675C18.1648 72.0117 18.7671 72.5818 19.1908 73.3132C19.6146 74.0447 19.8407 74.9046 19.8407 75.7844C19.8396 76.9636 19.4329 78.0943 18.7099 78.9281C17.9868 79.762 17.0065 80.231 15.9841 80.2323Z" fill="#8C571A" stroke="#8C571A" stroke-width="2.5"/>
<path d="M51.0749 55.9135C51.0749 56.3507 51.2255 56.77 51.4935 57.0791C51.7615 57.3882 52.1251 57.5619 52.5041 57.5619C52.8831 57.5619 53.2466 57.3882 53.5147 57.0791C53.7827 56.77 53.9332 56.3507 53.9332 55.9135C53.9239 55.4799 54.0602 55.0588 54.3138 54.7385C54.8911 53.86 55.2036 52.7879 55.2036 51.6856C55.2036 50.5833 54.8911 49.5112 54.3138 48.6328C54.0684 48.3071 53.9333 47.8902 53.9332 47.4587C53.9332 47.0273 54.0682 46.6103 54.3135 46.2846C54.8998 45.412 55.2134 44.3366 55.2036 43.2328C55.2036 42.7956 55.053 42.3764 54.785 42.0673C54.517 41.7581 54.1535 41.5845 53.7744 41.5845C53.3954 41.5845 53.0319 41.7581 52.7639 42.0673C52.4959 42.3764 52.3453 42.7956 52.3453 43.2328C52.3545 43.6657 52.2183 44.0861 51.9651 44.4059C51.3876 45.2841 51.075 46.356 51.0749 47.4582C51.0749 48.5604 51.3874 49.6324 51.9648 50.5107C52.2102 50.8367 52.3453 51.2539 52.3453 51.6856C52.3453 52.1173 52.2102 52.5345 51.9648 52.8605C51.3786 53.7336 51.065 54.8093 51.0749 55.9135Z" fill="#8C571A" stroke="#8C571A" stroke-width="2.5"/>
<path d="M60.0832 55.9135C60.0832 56.3507 60.2338 56.77 60.5018 57.0791C60.7698 57.3882 61.1334 57.5619 61.5124 57.5619C61.8914 57.5619 62.2549 57.3882 62.523 57.0791C62.791 56.77 62.9415 56.3507 62.9415 55.9135C62.9322 55.4799 63.0685 55.0588 63.3221 54.7385C63.8994 53.86 64.2119 52.7879 64.2119 51.6856C64.2119 50.5833 63.8994 49.5112 63.3221 48.6328C63.0767 48.3071 62.9416 47.8902 62.9415 47.4587C62.9415 47.0273 63.0765 46.6103 63.3218 46.2846C63.9081 45.412 64.2217 44.3367 64.2119 43.2328C64.2119 42.7956 64.0613 42.3764 63.7933 42.0673C63.5253 41.7581 63.1618 41.5845 62.7827 41.5845C62.4037 41.5845 62.0402 41.7581 61.7722 42.0673C61.5042 42.3764 61.3536 42.7956 61.3536 43.2328C61.3628 43.6658 61.2266 44.0861 60.9733 44.4059C60.3959 45.2841 60.0833 46.356 60.0832 47.4582C60.0832 48.5604 60.3957 49.6324 60.973 50.5107C61.2185 50.8367 61.3536 51.2539 61.3536 51.6856C61.3536 52.1173 61.2185 52.5345 60.973 52.8605C60.3869 53.7336 60.0733 54.8093 60.0832 55.9135Z" fill="#8C571A" stroke="#8C571A" stroke-width="2.5"/>
</svg>
