<svg width="80" height="80" viewBox="0 0 80 80" fill="none" xmlns="http://www.w3.org/2000/svg">
<circle cx="40" cy="40" r="40" fill="#E8EDF4"/>
<g clip-path="url(#clip0_2693_2203)">
<path d="M52.9375 55.625C52.5231 55.625 52.1257 55.7896 51.8326 56.0826C51.5396 56.3757 51.375 56.7731 51.375 57.1875V61.875H20.125V24.375H26.375V25.9375C26.375 26.3519 26.5396 26.7493 26.8326 27.0424C27.1257 27.3354 27.5231 27.5 27.9375 27.5H43.5625C43.9769 27.5 44.3743 27.3354 44.6674 27.0424C44.9604 26.7493 45.125 26.3519 45.125 25.9375V24.375H51.375V25.9375C51.375 26.3519 51.5396 26.7493 51.8326 27.0424C52.1257 27.3354 52.5231 27.5 52.9375 27.5C53.3519 27.5 53.7493 27.3354 54.0424 27.0424C54.3354 26.7493 54.5 26.3519 54.5 25.9375V22.8125C54.5 22.3981 54.3354 22.0007 54.0424 21.7076C53.7493 21.4146 53.3519 21.25 52.9375 21.25H45.125V19.6875C45.125 18.4443 44.6311 17.252 43.7521 16.3729C42.873 15.4939 41.6807 15 40.4375 15H31.0625C29.8193 15 28.627 15.4939 27.7479 16.3729C26.8689 17.252 26.375 18.4443 26.375 19.6875V21.25H18.5625C18.1481 21.25 17.7507 21.4146 17.4576 21.7076C17.1646 22.0007 17 22.3981 17 22.8125V63.4375C17 63.8519 17.1646 64.2493 17.4576 64.5424C17.7507 64.8354 18.1481 65 18.5625 65H52.9375C53.3519 65 53.7493 64.8354 54.0424 64.5424C54.3354 64.2493 54.5 63.8519 54.5 63.4375V57.1875C54.5 56.7731 54.3354 56.3757 54.0424 56.0826C53.7493 55.7896 53.3519 55.625 52.9375 55.625ZM29.5 19.6875C29.5 19.2731 29.6646 18.8757 29.9576 18.5826C30.2507 18.2896 30.6481 18.125 31.0625 18.125H40.4375C40.8519 18.125 41.2493 18.2896 41.5424 18.5826C41.8354 18.8757 42 19.2731 42 19.6875V24.375H29.5V19.6875ZM66.5438 34.2062L60.2938 27.9562C60.1486 27.8107 59.9762 27.6953 59.7864 27.6165C59.5965 27.5378 59.393 27.4972 59.1875 27.4972C58.982 27.4972 58.7785 27.5378 58.5886 27.6165C58.3988 27.6953 58.2264 27.8107 58.0813 27.9562L39.3313 46.7062C39.1862 46.8516 39.0713 47.0241 38.993 47.214C38.9147 47.4038 38.8746 47.6072 38.875 47.8125V54.0625C38.875 54.4769 39.0396 54.8743 39.3326 55.1674C39.6257 55.4604 40.0231 55.625 40.4375 55.625H46.6875C46.8928 55.6254 47.0962 55.5853 47.286 55.507C47.4759 55.4287 47.6484 55.3138 47.7938 55.1688L66.5438 36.4188C66.6893 36.2736 66.8047 36.1012 66.8835 35.9114C66.9622 35.7215 67.0028 35.518 67.0028 35.3125C67.0028 35.107 66.9622 34.9035 66.8835 34.7136C66.8047 34.5238 66.6893 34.3514 66.5438 34.2062ZM42 52.5V48.4594L59.1875 31.2719L63.2281 35.3125L46.0406 52.5H42ZM35.75 54.0625C35.75 54.4769 35.5854 54.8743 35.2924 55.1674C34.9993 55.4604 34.6019 55.625 34.1875 55.625H27.9375C27.5231 55.625 27.1257 55.4604 26.8326 55.1674C26.5396 54.8743 26.375 54.4769 26.375 54.0625C26.375 53.6481 26.5396 53.2507 26.8326 52.9576C27.1257 52.6646 27.5231 52.5 27.9375 52.5H34.1875C34.6019 52.5 34.9993 52.6646 35.2924 52.9576C35.5854 53.2507 35.75 53.6481 35.75 54.0625ZM35.75 44.6875C35.75 45.1019 35.5854 45.4993 35.2924 45.7924C34.9993 46.0854 34.6019 46.25 34.1875 46.25H27.9375C27.5231 46.25 27.1257 46.0854 26.8326 45.7924C26.5396 45.4993 26.375 45.1019 26.375 44.6875C26.375 44.2731 26.5396 43.8757 26.8326 43.5826C27.1257 43.2896 27.5231 43.125 27.9375 43.125H34.1875C34.6019 43.125 34.9993 43.2896 35.2924 43.5826C35.5854 43.8757 35.75 44.2731 35.75 44.6875ZM43.5625 36.875H27.9375C27.5231 36.875 27.1257 36.7104 26.8326 36.4174C26.5396 36.1243 26.375 35.7269 26.375 35.3125C26.375 34.8981 26.5396 34.5007 26.8326 34.2076C27.1257 33.9146 27.5231 33.75 27.9375 33.75H43.5625C43.9769 33.75 44.3743 33.9146 44.6674 34.2076C44.9604 34.5007 45.125 34.8981 45.125 35.3125C45.125 35.7269 44.9604 36.1243 44.6674 36.4174C44.3743 36.7104 43.9769 36.875 43.5625 36.875Z" fill="black"/>
</g>
<defs>
<clipPath id="clip0_2693_2203">
<rect width="50" height="50" fill="white" transform="translate(17 15)"/>
</clipPath>
</defs>
</svg>
