<svg width="95" height="95" viewBox="0 0 95 95" fill="none" xmlns="http://www.w3.org/2000/svg">
<path d="M19.7915 35.6211C19.7915 43.1498 22.8196 49.9779 27.7082 54.9773V83.125C27.7057 83.8006 27.8765 84.4656 28.2043 85.0564C28.5321 85.6472 29.0059 86.144 29.5805 86.4994C30.1551 86.8548 30.8113 87.0569 31.4862 87.0864C32.1612 87.1158 32.8325 86.9717 33.4359 86.6677L47.4998 79.6338L61.5638 86.6638C62.1657 86.9683 62.8359 87.1126 63.5098 87.0828C64.1837 87.0529 64.8386 86.85 65.4113 86.4936C66.579 85.7692 67.2915 84.4986 67.2915 83.125V54.9813C72.367 49.8156 75.2101 42.8629 75.2082 35.6211C75.2082 20.3459 62.779 7.91669 47.4998 7.91669C32.2207 7.91669 19.7915 20.3459 19.7915 35.6211ZM49.2692 71.6656C48.7193 71.3905 48.1128 71.2472 47.4979 71.2472C46.8829 71.2472 46.2764 71.3905 45.7265 71.6656L35.6248 76.7204V60.6219C39.2309 62.3398 43.2486 63.3334 47.4998 63.3334C51.7511 63.3334 55.7688 62.3438 59.3748 60.6219V76.7165L49.2692 71.6656ZM47.4998 15.8334C58.409 15.8334 67.2915 24.7079 67.2915 35.6211C67.2863 40.8689 65.1995 45.9003 61.4891 49.6115C57.7787 53.3226 52.7477 55.4104 47.4998 55.4167C36.5867 55.4167 27.7082 46.5381 27.7082 35.6211C27.7145 30.3743 29.8018 25.3443 33.5122 21.6346C37.2226 17.9249 42.2531 15.8386 47.4998 15.8334V15.8334Z" fill="#8C571A"/>
</svg>
