<svg width="100" height="81" viewBox="0 0 100 81" fill="none" xmlns="http://www.w3.org/2000/svg">
<path d="M9.52171 50.3553C9.52171 50.3553 10.4404 46.5945 7.27534 43.3517C4.10714 40.0996 0.142953 40.0996 0.142953 40.0996C0.142953 40.0996 -0.822924 44.5221 2.26662 47.6868C5.35931 50.8484 9.52171 50.3553 9.52171 50.3553Z" fill="white"/>
<path d="M57.9042 53.4104V18.9199H49.7116C49.6455 20.3431 49.3057 21.5385 48.686 22.5122C48.0693 23.486 47.2796 24.2662 46.3169 24.8405C45.3479 25.421 44.2687 25.8299 43.0669 26.0796C41.8682 26.3261 40.638 26.4354 39.3701 26.4042V33.5388H47.5156V53.4104H57.9042Z" fill="white"/>
<path d="M26.0647 35.2059C25.8067 33.8014 25.6557 32.3626 25.6557 30.8832C25.6557 17.5315 36.5446 6.66716 49.9756 6.55168V6.56416C63.435 6.65155 74.3554 17.5315 74.3554 30.8988C74.3554 32.3782 74.2012 33.817 73.9464 35.2215H80.1034C80.3048 33.8045 80.4464 32.372 80.4464 30.8988C80.4464 14.2169 66.8203 0.637325 50.0323 0.518726V0.5C33.2159 0.587389 19.5615 14.1826 19.5615 30.8832C19.5615 32.3564 19.7031 33.7889 19.9076 35.2059H26.0647Z" fill="white"/>
<path d="M16.475 49.645C16.475 49.645 20.1528 47.6382 20.8073 43.2875C21.4617 38.9305 18.0795 35.8906 18.0795 35.8906C18.0795 35.8906 14.861 38.1815 14.1877 42.6508C13.5176 47.1139 16.475 49.645 16.475 49.645Z" fill="white"/>
<path d="M18.888 53.9447C18.8125 58.4578 22.0751 60.5832 22.0751 60.5832C22.0751 60.5832 25.4572 58.1176 25.5359 53.7169C25.6082 49.3163 21.858 46.7383 21.858 46.7383C21.858 46.7383 18.9635 49.4224 18.888 53.9447Z" fill="white"/>
<path d="M28.875 53.1055C28.875 53.1055 26.2511 56.0517 26.6004 60.5616C26.9527 65.0653 30.4009 66.8692 30.4009 66.8692C30.4009 66.8692 33.5377 64.104 33.1979 59.7127C32.8518 55.3245 28.875 53.1055 28.875 53.1055Z" fill="white"/>
<path d="M40.8555 72.2951C40.8555 72.2951 43.0578 68.7465 41.4564 64.6392C39.8519 60.5382 35.3969 59.5488 35.3969 59.5488C35.3969 59.5488 33.7389 63.1224 35.3843 67.3358C37.0298 71.5492 40.8555 72.2951 40.8555 72.2951Z" fill="white"/>
<path d="M11.014 40.7203C11.014 40.7203 13.8864 38.0986 13.0653 33.6543C12.2504 29.213 8.95322 27.0283 8.95322 27.0283C8.95322 27.0283 5.67805 30.1774 6.47718 34.5126C7.27316 38.8414 11.014 40.7203 11.014 40.7203Z" fill="white"/>
<path d="M13.3732 58.8667C13.3732 58.8667 13.1341 55.0028 9.14475 52.8243C5.15225 50.649 1.36426 51.8069 1.36426 51.8069C1.36426 51.8069 1.75753 56.3137 5.64935 58.4391C9.53488 60.5614 13.3732 58.8667 13.3732 58.8667Z" fill="white"/>
<path d="M20.1215 66.3441C20.1215 66.3441 19.0235 62.6331 14.6471 61.3879C10.2645 60.1519 6.83203 62.1088 6.83203 62.1088C6.83203 62.1088 8.22579 66.419 12.492 67.6299C16.7614 68.8378 20.1215 66.3441 20.1215 66.3441Z" fill="white"/>
<path d="M27.6481 71.6602C27.6481 71.6602 25.4678 68.4549 20.9152 68.5828C16.3596 68.7108 13.6885 71.6165 13.6885 71.6165C13.6885 71.6165 16.3313 75.3087 20.7674 75.1807C25.2035 75.0496 27.6481 71.6602 27.6481 71.6602Z" fill="white"/>
<path d="M30.8662 73.8323C26.3608 74.5033 24.0547 77.6961 24.0547 77.6961C24.0547 77.6961 27.1254 81.0481 31.5143 80.3958C35.9063 79.7372 37.9199 76.0856 37.9199 76.0856C37.9199 76.0856 35.3621 73.1581 30.8662 73.8323Z" fill="white"/>
<path d="M12.5076 42.9175L10.3399 42.8457C10.3304 43.0767 9.90569 66.4376 45.4764 76.7869L46.0867 74.7208C12.215 64.8646 12.4761 43.8132 12.5076 42.9175Z" fill="white"/>
<path d="M90.4794 50.3739C90.4794 50.3739 94.6481 50.867 97.7345 47.7054C100.821 44.5407 99.8582 40.1182 99.8582 40.1182C99.8582 40.1182 95.894 40.1182 92.7258 43.3672C89.5607 46.6068 90.4794 50.3739 90.4794 50.3739Z" fill="white"/>
<path d="M79.1943 43.3011C79.8487 47.6581 83.5266 49.6587 83.5266 49.6587C83.5266 49.6587 86.4809 47.1306 85.8139 42.6645C85.1469 38.1983 81.9252 35.9043 81.9252 35.9043C81.9252 35.9043 78.5399 38.9442 79.1943 43.3011Z" fill="white"/>
<path d="M74.4688 53.7327C74.5412 58.1303 77.9296 60.5959 77.9296 60.5959C77.9296 60.5959 81.1922 58.4736 81.1167 53.9574C81.0443 49.4413 78.153 46.751 78.153 46.751C78.153 46.751 74.3964 49.3321 74.4688 53.7327Z" fill="white"/>
<path d="M66.8016 59.7303C66.465 64.1216 69.6017 66.8868 69.6017 66.8868C69.6017 66.8868 73.0531 65.0828 73.4023 60.5792C73.7484 56.0755 71.1245 53.123 71.1245 53.123C71.1245 53.123 67.1509 55.3421 66.8016 59.7303Z" fill="white"/>
<path d="M58.5465 64.6558C56.9482 68.7662 59.1506 72.3117 59.1506 72.3117C59.1506 72.3117 62.9795 71.5689 64.6218 67.3524C66.2609 63.1359 64.6092 59.5654 64.6092 59.5654C64.6092 59.5654 60.1542 60.5548 58.5465 64.6558Z" fill="white"/>
<path d="M93.5319 34.5282C94.331 30.1931 91.0559 27.0439 91.0559 27.0439C91.0559 27.0439 87.7587 29.2287 86.9407 33.673C86.1227 38.1142 88.992 40.739 88.992 40.739C88.992 40.739 92.7359 38.8602 93.5319 34.5282Z" fill="white"/>
<path d="M90.8632 52.8419C86.8707 55.0173 86.6348 58.8842 86.6348 58.8842C86.6348 58.8842 90.47 60.579 94.3618 58.4567C98.2473 56.3344 98.6437 51.8245 98.6437 51.8245C98.6437 51.8245 94.8526 50.6666 90.8632 52.8419Z" fill="white"/>
<path d="M85.3611 61.4065C80.9816 62.6456 79.8867 66.3627 79.8867 66.3627C79.8867 66.3627 83.2468 68.8564 87.5162 67.6486C91.7824 66.4345 93.1762 62.1244 93.1762 62.1244C93.1762 62.1244 89.7405 60.1644 85.3611 61.4065Z" fill="white"/>
<path d="M79.0902 68.5945C74.5409 68.4666 72.3574 71.6781 72.3574 71.6781C72.3574 71.6781 74.7957 75.0676 79.2381 75.1955C83.6742 75.3235 86.317 71.6282 86.317 71.6282C86.317 71.6282 83.6459 68.7287 79.0902 68.5945Z" fill="white"/>
<path d="M69.1426 73.8469C64.6404 73.1759 62.0889 76.1066 62.0889 76.1066C62.0889 76.1066 64.1056 79.7582 68.4945 80.4167C72.8866 81.0627 75.9541 77.7201 75.9541 77.7201C75.9541 77.7201 73.6479 74.5179 69.1426 73.8469Z" fill="white"/>
<path d="M89.6717 42.8613L87.504 42.9362C87.5323 43.8257 87.7903 64.8771 53.9248 74.7364L54.5352 76.8057C90.1059 66.4532 89.678 43.0954 89.6717 42.8613Z" fill="white"/>
</svg>
