<svg width="59" height="56" viewBox="0 0 59 56" fill="none" xmlns="http://www.w3.org/2000/svg">
<path id="Vector (Stroke)" fill-rule="evenodd" clip-rule="evenodd" d="M28.0674 0.385458C28.9583 -0.128486 30.0417 -0.128486 30.9326 0.385458L57.4827 15.7005C58.4192 16.2408 59 17.2657 59 18.3781C59 19.4905 58.4192 20.5154 57.4827 21.0557L51.2866 24.6298C53.157 30.7373 53.5932 37.2352 52.5409 43.5769C52.3153 44.9368 51.2416 45.9722 49.9187 46.1055C43.0623 46.7965 36.598 49.7448 31.4695 54.5201C30.3488 55.5637 28.6511 55.5636 27.5304 54.5201C25.438 52.5717 23.1231 50.9274 20.65 49.6165V52.0713C20.65 53.7629 19.3292 55.1343 17.7 55.1343C16.0708 55.1343 14.75 53.7629 14.75 52.0713V47.2137C12.9063 46.6724 11.0106 46.2998 9.08394 46.1055C7.76131 45.9721 6.68785 44.9369 6.46209 43.5772C5.4092 37.236 5.84511 30.7382 7.71572 24.6311L1.51735 21.0557C0.580831 20.5154 0 19.4905 0 18.3781C0 17.2657 0.580831 16.2408 1.51735 15.7005L28.0674 0.385458ZM12.9968 27.6774C11.8967 31.7833 11.5504 36.0719 11.9802 40.3178C12.9118 40.4721 13.8356 40.6619 14.75 40.8863V29.0987C14.75 28.9653 14.7584 28.8332 14.7747 28.703L12.9968 27.6774ZM20.65 32.0921V42.8716C23.8071 44.2369 26.7856 46.0414 29.5 48.2459C34.5982 44.1054 40.6284 41.3763 47.0226 40.3176C47.4519 36.0715 47.1055 31.7827 46.0056 27.6766L30.9326 36.3707C30.0417 36.8846 28.9583 36.8847 28.0674 36.3707L20.65 32.0921ZM29.5001 30.1892L49.9756 18.3781L29.5 6.56698L9.02442 18.3781L12.7009 20.4988C12.7219 20.5103 12.7429 20.522 12.7637 20.534L19.6182 24.4884L28.0675 19.615C29.4917 18.7935 31.2877 19.3264 32.0788 20.8052C32.87 22.284 32.3568 24.1488 30.9325 24.9703L25.6925 27.9926L29.5001 30.1892Z" fill="#282828"/>
</svg>
