<svg width="91" height="104" viewBox="0 0 91 104" fill="none" xmlns="http://www.w3.org/2000/svg">
<path d="M83.3201 66.5468L56.9364 43.129L49.3568 36.4017V12.6475C49.3528 9.43203 47.9119 6.34933 45.3502 4.07565C42.7886 1.80197 39.3155 0.522986 35.6928 0.519287H32.7437C32.3497 0.519287 31.9719 0.658184 31.6934 0.905425C31.4148 1.15267 31.2583 1.488 31.2583 1.83765V31.9233L9.21917 12.3618C9.08125 12.2393 8.91751 12.1422 8.73728 12.0759C8.55706 12.0096 8.36389 11.9755 8.16881 11.9755C7.97373 11.9755 7.78057 12.0096 7.60034 12.0759C7.42012 12.1422 7.25637 12.2393 7.11846 12.3618L5.03322 14.2126C2.47455 16.4888 1.0376 19.5728 1.0376 22.7882C1.0376 26.0036 2.47455 29.0876 5.03322 31.3638L29.0006 52.6367C29.7762 53.3254 30.6417 53.9293 31.5789 54.4355V86.659C31.57 89.692 32.3379 92.6873 33.8248 95.4182C35.3116 98.1492 37.4784 100.544 40.1614 102.423C40.9677 102.991 41.9378 103.345 42.9607 103.445C43.9835 103.546 45.0175 103.388 45.944 102.991C46.8706 102.593 47.6521 101.972 48.1991 101.199C48.746 100.425 49.0361 99.53 49.0361 98.6167V58.0297L80.5025 85.9584C81.007 86.4102 81.6072 86.769 82.2686 87.014C82.9299 87.259 83.6394 87.3855 84.3561 87.3861C84.975 87.3855 85.5895 87.2926 86.1738 87.1112C87.1481 86.8144 88.0073 86.2779 88.6512 85.5642C89.2951 84.8505 89.6971 83.989 89.8104 83.0803C90.2111 80.068 89.8351 77.0143 88.7107 74.1501C87.5863 71.2858 85.743 68.6859 83.3201 66.5468ZM35.6928 3.15601C38.5279 3.15889 41.246 4.15982 43.2507 5.93919C45.2554 7.71857 46.383 10.1311 46.3861 12.6475V33.7651L45.2044 32.7163C43.7896 31.4637 41.9565 30.6508 39.9785 30.3986C38.0005 30.1464 35.9837 30.4686 34.2289 31.317V3.15601H35.6928ZM7.13393 29.4998C5.13142 27.7184 4.0068 25.3048 4.0068 22.7884C4.0068 20.272 5.13142 17.8583 7.13393 16.077L8.1688 15.1586L31.0859 35.4991C31.3644 35.7463 31.7422 35.8852 32.1361 35.8852C32.53 35.8853 32.9078 35.7465 33.1864 35.4993L34.2213 34.581V34.5807C35.4001 33.5368 36.9973 32.9507 38.6625 32.9507C40.3276 32.9507 41.9248 33.5368 43.1037 34.5807L53.7853 44.0611L46.224 50.7726C44.2186 52.5524 41.4987 53.5523 38.6627 53.5523C35.8266 53.5523 33.1068 52.5524 31.1013 50.7726L7.13393 29.4998ZM46.0654 98.6167C46.0654 99.0343 45.9327 99.4435 45.6827 99.7972C45.4326 100.151 45.0752 100.435 44.6516 100.617C44.2279 100.798 43.7551 100.871 43.2875 100.825C42.8198 100.779 42.3761 100.617 42.0074 100.357C39.6761 98.7249 37.7932 96.6435 36.5012 94.2704C35.2092 91.8973 34.5419 89.2946 34.5496 86.659V55.6303C37.9768 56.5851 41.6893 56.3085 44.8892 54.8598H45.4647L46.0655 55.393L46.0654 98.6167ZM86.8589 82.778C86.805 83.1929 86.6204 83.5859 86.3263 83.9119C86.0322 84.2379 85.6405 84.4837 85.1962 84.6211C84.7518 84.7585 84.2728 84.7819 83.8142 84.6887C83.3555 84.5955 82.9357 84.3894 82.603 84.0941L47.7432 53.1532L55.8862 45.9257L81.2197 68.411C83.325 70.2699 84.9266 72.5291 85.9035 75.0181C86.8805 77.507 87.2071 80.1605 86.8589 82.778Z" fill="#285A43" stroke="#285A43" stroke-width="0.445322"/>
<path d="M44.2709 44.0615C44.2709 42.9099 43.821 41.7938 42.9979 40.9036C42.1747 40.0133 41.0293 39.4039 39.7567 39.1793C38.4841 38.9546 37.1631 39.1285 36.0188 39.6714C34.8744 40.2143 33.9776 41.0926 33.4811 42.1566C32.9845 43.2206 32.919 44.4045 33.2957 45.5066C33.6724 46.6086 34.468 47.5607 35.5469 48.2005C36.6258 48.8403 37.9212 49.1282 39.2125 49.0153C40.5038 48.9024 41.711 48.3955 42.6284 47.5812C43.1508 47.12 43.5649 46.5715 43.8469 45.9673C44.1288 45.3632 44.2729 44.7154 44.2709 44.0615ZM40.5276 45.7168C40.096 46.0998 39.5282 46.3381 38.9209 46.3912C38.3136 46.4442 37.7043 46.3088 37.1969 46.0078C36.6895 45.7069 36.3154 45.2591 36.1383 44.7407C35.9612 44.2224 35.9921 43.6656 36.2256 43.1652C36.4592 42.6648 36.881 42.2517 37.4193 41.9964C37.9575 41.7412 38.5788 41.6594 39.1773 41.7651C39.7758 41.8708 40.3145 42.1575 40.7016 42.5762C41.0887 42.995 41.3003 43.5199 41.3002 44.0615C41.3011 44.3691 41.2333 44.6738 41.1007 44.9579C40.9681 45.242 40.7733 45.4999 40.5276 45.7168Z" fill="#285A43" stroke="#285A43" stroke-width="0.445322"/>
</svg>
