<svg width="96" height="96" viewBox="0 0 96 96" fill="none" xmlns="http://www.w3.org/2000/svg">
<rect x="0.5" y="0.617676" width="95" height="95" rx="18" fill="#F9F8F8"/>
<circle cx="63" cy="40.1177" r="14.5" fill="#C6EFD1"/>
<path d="M40.1563 56.588C42.9757 57.4338 45.2311 57.8849 46.4717 57.8849C47.7122 57.8849 49.9676 57.4338 52.787 56.588C53.2944 56.4188 53.6328 56.0241 53.6328 55.4602C53.6328 54.84 53.1253 54.2761 52.4486 54.2761H51.8284H41.1149H40.4947C39.8744 54.2761 39.3105 54.7836 39.3105 55.4602C39.3669 55.9677 39.7053 56.4188 40.1563 56.588Z" fill="#282828"/>
<path d="M41.1149 52.5282H51.8284C52.787 52.5282 53.6328 51.7388 53.6328 50.7238C53.6328 49.7088 52.8433 48.9194 51.8284 48.9194H41.1149C40.1563 48.9194 39.3105 49.7088 39.3105 50.7238C39.3105 51.7388 40.1563 52.5282 41.1149 52.5282Z" fill="#282828"/>
<path d="M39.3672 42.717C39.3672 46.3821 43.2579 47.1715 46.5283 47.1715C49.7987 47.1715 53.6894 46.3821 53.6894 42.717C53.6894 39.3902 51.4903 34.7101 46.5283 34.7101C41.5663 34.7101 39.3672 39.3338 39.3672 42.717Z" fill="#282828"/>
<path d="M46.4717 63.1853C49.4038 63.1853 51.8848 61.8884 53.6328 60.7043C53.3508 59.9712 53.0125 59.2382 52.6178 58.4488C50.5879 59.0127 48.1069 59.6329 46.4717 59.6329C44.8364 59.6329 42.3554 59.069 40.3255 58.4488C39.9308 59.2382 39.5925 59.9712 39.3105 60.7043C41.0585 61.9448 43.5959 63.1853 46.4717 63.1853Z" fill="#282828"/>
<path d="M37.957 64.9333C39.5922 66.2866 42.6371 67.6398 46.5278 67.6398C50.4185 67.6398 53.407 66.2302 55.0986 64.9333C54.9294 64.1439 54.5911 63.2981 54.2528 62.3959C52.3356 63.6928 49.6855 64.9897 46.5278 64.9897C43.3702 64.9897 40.6072 63.6928 38.6901 62.3959C38.3517 63.2981 38.1262 64.1439 37.957 64.9333Z" fill="#282828"/>
<path d="M46.4716 69.4442C42.6937 69.4442 39.5924 68.2601 37.6189 66.9068C37.6189 67.1887 37.5625 67.4143 37.5625 67.6398C37.5625 68.4856 37.6753 69.275 37.8444 70.0645C39.9307 71.5305 43.4831 72.9966 46.528 72.9966C49.9676 72.9966 53.4635 71.305 55.2115 70.0081C55.3243 69.275 55.4371 68.4856 55.4371 67.6398C55.4371 67.4143 55.4371 67.1323 55.3807 66.9068C53.3508 68.2601 50.2495 69.4442 46.4716 69.4442Z" fill="#282828"/>
<path d="M38.6904 72.7146C40.8331 77.1691 45.5132 78.9171 46.5282 79.2554C47.5995 79.0299 52.4488 77.6202 54.4787 72.6018C52.1668 73.8423 49.1783 74.8573 46.4718 74.8573C43.7652 74.8573 40.8895 73.8423 38.6904 72.7146Z" fill="#282828"/>
<path d="M53.4075 36.5144C53.9149 35.8378 54.4788 34.8228 54.4788 33.8078C54.4788 30.2555 49.1221 28.4511 49.1221 28.4511C49.1221 28.4511 50.5317 30.5938 50.8137 34.0898C51.9414 34.71 52.7872 35.5558 53.4075 36.5144Z" fill="#282828"/>
<path d="M54.7607 39.0518C54.9863 39.6157 55.1555 40.1795 55.2118 40.7998C56.7343 40.4614 60.7377 39.3337 60.7377 36.458C60.7377 31.8343 58.9334 28.1692 58.877 28L57.2981 28.7894C57.2981 28.7894 58.9897 32.229 58.9897 36.4016C58.9897 37.7549 56.3396 38.7135 54.7607 39.0518Z" fill="#282828"/>
<path d="M53.0127 47.3406C53.2382 47.397 53.4074 47.5098 53.5766 47.6226L62.2037 45.2543L66.8274 39.672L65.4741 38.5443L61.1888 43.6755L54.7607 45.4235C54.366 46.1001 53.8021 46.7768 53.0127 47.3406Z" fill="#282828"/>
<path d="M69.3653 58.0541L63.783 50.6674L55.0995 52.2462C54.9303 52.641 54.7048 52.9793 54.4229 53.2612C54.7048 53.4868 54.9303 53.7687 55.0995 54.107L63.1064 52.641L68.2376 59.4637L70.2111 60.4223L71.0005 58.8435L69.3653 58.0541Z" fill="#282828"/>
<path d="M64.1777 62.565L54.4229 58.1105C54.7048 58.6743 55.5506 60.5915 55.5506 60.5915L62.7117 63.8619L66.3204 75.5339L69.4217 76.5489L69.9856 74.8573L67.7301 74.1243L64.1777 62.565Z" fill="#282828"/>
<path d="M28.8225 62.565L25.2701 74.1243L23.0146 74.8573L23.5785 76.5489L26.6798 75.5339L30.2885 63.8619L37.4496 60.5915C37.4496 60.5915 38.2954 58.6743 38.5774 58.1105L28.8225 62.565Z" fill="#282828"/>
<path d="M29.8941 52.5846L37.901 54.0506C38.0702 53.7123 38.2957 53.4867 38.5777 53.2048C38.2957 52.9229 38.0702 52.5846 37.901 52.1899L29.1611 50.611L23.5788 58.0541L22 58.8435L22.7894 60.4223L24.7629 59.4637L29.8941 52.5846Z" fill="#282828"/>
<path d="M39.4237 47.6226C39.5929 47.5098 39.8184 47.4534 39.9876 47.3406C39.1418 46.7768 38.6343 46.1001 38.2396 45.4235L31.8115 43.6755L27.5261 38.5443L26.1729 39.672L30.7966 45.2543L39.4237 47.6226Z" fill="#282828"/>
<path d="M37.7883 40.7998C37.9011 40.2359 38.0703 39.672 38.2394 39.0518C36.6606 38.7135 34.0104 37.7549 34.0104 36.458C34.0104 32.2854 35.702 28.8458 35.702 28.8458L34.0668 28C34.0104 28.1692 32.2061 31.8343 32.2061 36.458C32.2061 39.2773 36.2095 40.4614 37.7883 40.7998Z" fill="#282828"/>
<path d="M42.0733 34.0898C42.4117 30.5938 43.7649 28.4511 43.7649 28.4511C43.7649 28.4511 38.4082 30.2555 38.4082 33.8078C38.4082 34.8228 38.9721 35.8378 39.4795 36.5144C40.2126 35.5558 41.0584 34.71 42.0733 34.0898Z" fill="#282828"/>
<path d="M39.3667 60.7043C39.3667 60.7043 38.1262 63.6364 37.957 64.9333C37.957 64.9333 46.4714 69.8953 55.0422 64.9333L53.6325 60.7043H39.3667Z" fill="#282828"/>
<path d="M37.8447 70.1209C37.8447 70.1209 38.3522 72.7146 39.5363 74.1807C39.5363 74.1807 48.671 78.0714 54.5352 72.6583C54.5352 72.6583 55.2682 70.1772 55.3246 69.4442L37.8447 70.1209Z" fill="#282828"/>
</svg>
