<svg width="80" height="80" viewBox="0 0 80 80" fill="none" xmlns="http://www.w3.org/2000/svg">
<circle cx="40" cy="40" r="40" fill="#111110"/>
<path fill-rule="evenodd" clip-rule="evenodd" d="M19.2501 37.25C19.2501 25.514 28.764 16 40.5 16C52.236 16 61.75 25.514 61.75 37.25C61.75 48.986 52.236 58.5 40.5 58.5C36.3195 58.5 32.4282 57.2955 29.145 55.2152C28.5339 54.8283 27.7852 54.7247 27.0921 54.9315L19.8942 57.0798L22.6043 50.7383C22.9247 49.9888 22.8595 49.1302 22.4297 48.4377C20.4143 45.19 19.2501 41.3598 19.2501 37.25ZM40.5 11C26.0026 11 14.2501 22.7525 14.2501 37.25C14.2501 41.8452 15.4329 46.1707 17.5116 49.9318L13.2012 60.0175C12.8201 60.9093 12.989 61.9408 13.6346 62.6643C14.2801 63.388 15.2858 63.673 16.215 63.3955L27.4635 60.0387C31.3061 62.2412 35.7593 63.5 40.5 63.5C54.9975 63.5 66.75 51.7475 66.75 37.25C66.75 22.7525 54.9975 11 40.5 11ZM46.2313 42.706L42.9458 45.0202C41.407 44.1437 39.7058 42.9202 37.9993 41.2137C36.2253 39.4397 34.9101 37.6082 33.9403 35.9282L36.0283 34.156C36.9243 33.3955 37.1695 32.1133 36.6175 31.0757L33.9571 26.0757C33.5989 25.4024 32.9529 24.9295 32.2029 24.7914C31.4528 24.6532 30.6808 24.865 30.1062 25.3665L29.3174 26.0549C27.4206 27.7104 26.2988 30.4307 27.2285 33.1852C28.1925 36.0407 30.2496 40.535 34.4638 44.7492C38.9978 49.2832 43.6033 51.0687 46.2965 51.7622C48.4665 52.3207 50.52 51.572 51.967 50.393L53.4458 49.188C54.0783 48.6727 54.4195 47.881 54.36 47.0672C54.3003 46.2535 53.8473 45.52 53.1463 45.1022L48.9505 42.6022C48.103 42.0975 47.038 42.138 46.2313 42.706Z" fill="white"/>
</svg>
