<svg width="80" height="80" viewBox="0 0 80 80" fill="none" xmlns="http://www.w3.org/2000/svg">
<circle cx="40" cy="40" r="40" fill="#86AE51"/>
<path d="M31.155 52V48.325L40.605 39.4C41.3517 38.7233 41.9 38.1167 42.25 37.58C42.6 37.0433 42.8333 36.5533 42.95 36.11C43.09 35.6667 43.16 35.2583 43.16 34.885C43.16 33.905 42.8217 33.1583 42.145 32.645C41.4917 32.1083 40.5233 31.84 39.24 31.84C38.2133 31.84 37.2567 32.0383 36.37 32.435C35.5067 32.8317 34.7717 33.45 34.165 34.29L30.035 31.63C30.9683 30.23 32.275 29.1217 33.955 28.305C35.635 27.4883 37.5717 27.08 39.765 27.08C41.585 27.08 43.1717 27.3833 44.525 27.99C45.9017 28.5733 46.9633 29.4017 47.71 30.475C48.48 31.5483 48.865 32.8317 48.865 34.325C48.865 35.1183 48.76 35.9117 48.55 36.705C48.3633 37.475 47.9667 38.2917 47.36 39.155C46.7767 40.0183 45.9133 40.9867 44.77 42.06L36.93 49.445L35.845 47.38H49.67V52H31.155Z" fill="black"/>
</svg>
