<svg width="80" height="80" viewBox="0 0 80 80" fill="none" xmlns="http://www.w3.org/2000/svg">
<circle cx="40" cy="40" r="40" fill="#86AE51"/>
<path d="M39.695 52.42C37.9917 52.42 36.3 52.1983 34.62 51.755C32.9633 51.2883 31.54 50.635 30.35 49.795L32.59 45.455C33.5233 46.1317 34.5967 46.6683 35.81 47.065C37.0467 47.4617 38.295 47.66 39.555 47.66C40.9783 47.66 42.0983 47.38 42.915 46.82C43.7317 46.26 44.14 45.4783 44.14 44.475C44.14 43.845 43.9767 43.285 43.65 42.795C43.3233 42.305 42.74 41.9317 41.9 41.675C41.0833 41.4183 39.9283 41.29 38.435 41.29H32.17L33.43 27.5H48.375V32.05H35.46L38.4 29.46L37.525 39.295L34.585 36.705H39.765C42.1917 36.705 44.14 37.0433 45.61 37.72C47.1033 38.3733 48.1883 39.2717 48.865 40.415C49.5417 41.5583 49.88 42.8533 49.88 44.3C49.88 45.7467 49.5183 47.0883 48.795 48.325C48.0717 49.5383 46.9517 50.53 45.435 51.3C43.9417 52.0467 42.0283 52.42 39.695 52.42Z" fill="black"/>
</svg>
