<svg width="100" height="100" viewBox="0 0 100 100" fill="none" xmlns="http://www.w3.org/2000/svg">
<path d="M50.5988 55.0004V42.5004C50.5988 38.7004 53.0988 35.4004 56.4988 34.2004C55.9988 33.2004 54.8988 32.4004 53.5988 32.4004H39.9988C38.1988 32.4004 36.7988 33.9004 36.7988 35.6004V41.9004V82.7004V92.8004H44.3988V78.8004H49.3988V92.8004H56.9988V63.5004C53.2988 62.4004 50.5988 59.0004 50.5988 55.0004Z" fill="#3E4248"/>
<path d="M76.3992 51.2992H61.2992V42.4992C61.2992 40.3992 59.5992 38.6992 57.4992 38.6992C55.3992 38.6992 53.6992 40.3992 53.6992 42.4992V54.9992C53.6992 57.0992 55.3992 58.7992 57.4992 58.7992H76.3992C78.4992 58.7992 80.1992 57.0992 80.1992 54.9992C80.1992 52.9992 78.4992 51.2992 76.3992 51.2992Z" fill="#3E4248"/>
<path d="M72.4988 72.6008V82.9008C72.4988 86.3008 69.6988 89.1008 66.2988 89.1008H62.7988V92.5008H66.2988C71.5988 92.5008 75.8988 88.2008 75.8988 82.9008V72.3008C75.2988 72.5008 74.6988 72.6008 74.0988 72.6008H72.4988Z" fill="#3E4248"/>
<mask id="mask0_2706_31597" style="mask-type:luminance" maskUnits="userSpaceOnUse" x="15" y="25" width="19" height="48">
<path d="M33.1992 25.1992H15.1992V72.2992H33.1992V25.1992Z" fill="white"/>
</mask>
<g mask="url(#mask0_2706_31597)">
<path d="M30.6988 30.8988V28.2988H17.7988V30.8988H22.9988V36.0988H20.3988V38.6988H28.0988V36.0988H25.4988V30.8988H30.6988Z" fill="#3E4248"/>
</g>
<mask id="mask1_2706_31597" style="mask-type:luminance" maskUnits="userSpaceOnUse" x="15" y="25" width="19" height="48">
<path d="M33.1992 25.1992H15.1992V72.2992H33.1992V25.1992Z" fill="white"/>
</mask>
<g mask="url(#mask1_2706_31597)">
<path d="M43.5992 32.1988V38.6988H40.9992V52.8988C40.9992 54.5988 42.0992 55.9988 43.5992 56.4988V64.5988C43.5992 65.9988 42.3992 67.1988 40.9992 67.1988C39.5992 67.1988 38.3992 65.9988 38.3992 64.5988V47.6988C38.3992 45.5988 36.6992 43.7988 34.4992 43.7988H33.1992V41.1988H15.1992V46.3988H34.4992C35.1992 46.3988 35.7992 46.9988 35.7992 47.6988V64.4988C35.7992 67.2988 38.0992 69.6988 40.9992 69.6988C43.7992 69.6988 46.1992 67.3988 46.1992 64.4988V56.3988C47.6992 55.8988 48.7992 54.3988 48.7992 52.7988V38.6988H46.1992V32.1988C46.1992 31.4988 46.7992 30.8988 47.4992 30.8988H51.3992V28.2988H47.4992C45.2992 28.2988 43.5992 30.0988 43.5992 32.1988Z" fill="#3E4248"/>
</g>
<mask id="mask2_2706_31597" style="mask-type:luminance" maskUnits="userSpaceOnUse" x="15" y="25" width="19" height="48">
<path d="M33.1992 25.1992H15.1992V72.2992H33.1992V25.1992Z" fill="white"/>
</mask>
<g mask="url(#mask2_2706_31597)">
<path d="M15.1992 67.1992H33.1992V72.3992H15.1992V67.1992Z" fill="#3E4248"/>
</g>
<mask id="mask3_2706_31597" style="mask-type:luminance" maskUnits="userSpaceOnUse" x="15" y="25" width="19" height="48">
<path d="M33.1992 25.1992H15.1992V72.2992H33.1992V25.1992Z" fill="white"/>
</mask>
<g mask="url(#mask3_2706_31597)">
<path d="M15.1992 49H33.1992V64.6H15.1992V49Z" fill="#3E4248"/>
</g>
<path d="M46.8988 28.7C52.4769 28.7 56.9988 24.1781 56.9988 18.6C56.9988 13.0219 52.4769 8.5 46.8988 8.5C41.3208 8.5 36.7988 13.0219 36.7988 18.6C36.7988 24.1781 41.3208 28.7 46.8988 28.7Z" fill="#3E4248"/>
<mask id="mask4_2706_31597" style="mask-type:luminance" maskUnits="userSpaceOnUse" x="66" y="28" width="19" height="43">
<path d="M66.8574 70.6465H84.3574V28.7465H66.8574V70.6465Z" fill="white"/>
</mask>
<g mask="url(#mask4_2706_31597)">
<path d="M79.1988 48.2008V41.7008H75.8988V33.6008C75.8988 32.7008 76.5988 32.0008 77.5988 32.0008H82.5988V28.8008H77.5988C74.7988 28.8008 72.5988 30.9008 72.5988 33.6008V41.7008H69.2988V48.2008H79.1988Z" fill="#3E4248"/>
<path d="M69.3988 62.3012V66.1012C69.3988 68.2012 70.7988 69.9012 72.6988 70.6012V80.6012C72.6988 82.4012 71.1988 83.8012 69.3988 83.8012C67.5988 83.8012 66.0988 82.4012 66.0988 80.6012V62.3012H62.7988V80.5012C62.7988 84.0012 65.7988 86.9012 69.4988 86.9012C73.1988 86.9012 76.1988 84.0012 76.1988 80.5012V70.5012C78.0988 69.8012 79.4988 68.1012 79.4988 66.0012V62.2012H69.3988V62.3012Z" fill="#3E4248"/>
</g>
</svg>
