<svg width="210" height="210" viewBox="0 0 210 210" fill="none" xmlns="http://www.w3.org/2000/svg">
<g filter="url(#filter0_d_1299_805)">
<rect x="30" y="26" width="150" height="150" rx="30" fill="white"/>
</g>
<path d="M106.384 66.3485L130.124 74.1428C132.781 75.0111 134.578 77.3999 134.592 80.0769L134.744 103.319C134.791 110.365 132.166 117.199 127.359 122.553C125.148 125.01 122.314 127.121 118.695 129.009L105.934 135.684C105.534 135.89 105.095 135.996 104.652 136C104.209 136.003 103.767 135.9 103.37 135.698L90.4906 129.177C86.8322 127.32 83.9732 125.24 81.7408 122.817C76.8546 117.518 74.1396 110.715 74.0928 103.659L73.9415 80.4339C73.9272 77.7534 75.6915 75.3475 78.3345 74.4448L101.984 66.3725C103.388 65.8851 104.955 65.8748 106.384 66.3485ZM117.737 91.2653C116.674 90.2665 114.964 90.2734 113.916 91.2859L101.868 102.907L96.9352 98.2668C95.873 97.2681 94.1662 97.2784 93.1148 98.2908C92.067 99.3033 92.0778 100.93 93.14 101.929L99.9922 108.381C100.525 108.882 101.216 109.129 101.908 109.123C102.599 109.119 103.287 108.865 103.813 108.357L117.758 94.9033C118.806 93.8909 118.795 92.264 117.737 91.2653Z" fill="#FE7443"/>
<defs>
<filter id="filter0_d_1299_805" x="0" y="0" width="210" height="210" filterUnits="userSpaceOnUse" color-interpolation-filters="sRGB">
<feFlood flood-opacity="0" result="BackgroundImageFix"/>
<feColorMatrix in="SourceAlpha" type="matrix" values="0 0 0 0 0 0 0 0 0 0 0 0 0 0 0 0 0 0 127 0" result="hardAlpha"/>
<feOffset dy="4"/>
<feGaussianBlur stdDeviation="15"/>
<feComposite in2="hardAlpha" operator="out"/>
<feColorMatrix type="matrix" values="0 0 0 0 0 0 0 0 0 0 0 0 0 0 0 0 0 0 0.05 0"/>
<feBlend mode="normal" in2="BackgroundImageFix" result="effect1_dropShadow_1299_805"/>
<feBlend mode="normal" in="SourceGraphic" in2="effect1_dropShadow_1299_805" result="shape"/>
</filter>
</defs>
</svg>
