<svg width="96" height="96" viewBox="0 0 96 96" fill="none" xmlns="http://www.w3.org/2000/svg">
<rect x="0.5" y="0.617676" width="95" height="95" rx="18" fill="#F9F8F8"/>
<circle cx="56" cy="40.1177" r="14.5" fill="#C6EFD1"/>
<g clip-path="url(#clip0_3108_3949)">
<path d="M21 64.365C21 65.2409 21.7097 65.9416 22.5968 65.9416H67.957C72.3925 65.9416 76 62.3796 76 58C76 53.6204 72.3925 50.0584 67.957 50.0584C67.0699 50.0584 66.3602 49.3577 66.3602 48.4818C66.3602 47.6058 67.0699 46.9051 67.957 46.9051H74.4032C75.2903 46.9051 76 46.2044 76 45.3285C76 44.4526 75.2903 43.7518 74.4032 43.7518H67.957C65.2957 43.7518 63.1075 45.9124 63.1075 48.5401C63.1075 51.1679 65.2957 53.3285 67.957 53.3285C70.6183 53.3285 72.8064 55.4891 72.8064 58.1168C72.8064 60.7445 70.6183 62.9051 67.957 62.9051H63.0484C62.2204 52.4526 53.586 44.219 43 43.7518C43.414 44.7445 43.6505 45.7956 43.6505 46.9051C43.6505 51.2847 40.043 54.8467 35.6075 54.8467C34.7204 54.8467 34.0108 54.146 34.0108 53.2701C34.0108 52.3942 34.7204 51.6934 35.6075 51.6934C38.2688 51.6934 40.457 49.5328 40.457 46.9051C40.457 44.2774 38.2688 42 35.6075 42C32.9462 42 30.7581 44.219 30.7581 46.9051V46.9635C24.7849 50.7591 21 57.3577 21 64.365ZM29.1613 56.4234C29.1613 55.5474 29.871 54.8467 30.7581 54.8467C31.6452 54.8467 32.3548 55.5474 32.3548 56.4234C32.3548 57.2993 31.6452 58 30.7581 58C29.871 58 29.1613 57.2993 29.1613 56.4234Z" fill="#282828"/>
</g>
<defs>
<clipPath id="clip0_3108_3949">
<rect width="55" height="24" fill="white" transform="translate(21 42)"/>
</clipPath>
</defs>
</svg>
