<svg width="80" height="80" viewBox="0 0 80 80" fill="none" xmlns="http://www.w3.org/2000/svg">
<circle cx="40" cy="40" r="40" fill="#E8EDF4"/>
<path d="M45.54 26.1387H48.1759" stroke="black" stroke-width="1.25" stroke-linecap="round" stroke-linejoin="round"/>
<path d="M45.54 28.7754H47.2533" stroke="black" stroke-width="1.25" stroke-linecap="round" stroke-linejoin="round"/>
<path d="M45.54 26.1387V31.4104" stroke="black" stroke-width="1.25" stroke-linecap="round" stroke-linejoin="round"/>
<path d="M39.4814 31.4104V26.1387H40.3381C41.7878 26.1387 42.9739 27.3248 42.9739 28.7745C42.9739 30.2243 41.7878 31.4104 40.3381 31.4104H39.4814Z" stroke="black" stroke-width="1.25" stroke-linecap="round" stroke-linejoin="round"/>
<path d="M33.6309 31.1194V25.8477H35.3442C36.3327 25.8477 37.1235 26.6384 37.1235 27.6269C37.1235 28.6154 36.3327 29.4062 35.3442 29.4062H33.6309" stroke="black" stroke-width="1.25" stroke-linecap="round" stroke-linejoin="round"/>
<path d="M30.8281 54.5898H40.3916" stroke="black" stroke-width="1.25" stroke-linecap="round" stroke-linejoin="round"/>
<path d="M30.8652 50.8652H48.017" stroke="black" stroke-width="1.25" stroke-linecap="round" stroke-linejoin="round"/>
<path d="M30.8652 46.9453H51.0585" stroke="black" stroke-width="1.25" stroke-linecap="round" stroke-linejoin="round"/>
<path d="M52.8071 21.6094H28.6034C27.219 21.6094 26.0967 22.7317 26.0967 24.1161V56.6675C26.0967 58.0519 27.219 59.1742 28.6034 59.1742H52.8071C54.1915 59.1742 55.3138 58.0519 55.3138 56.6675V24.1161C55.3138 22.7317 54.1915 21.6094 52.8071 21.6094Z" stroke="black" stroke-width="1.25" stroke-linecap="round" stroke-linejoin="round"/>
<path d="M26.5643 16.8438H18.7881V24.8081" stroke="black" stroke-width="1.25" stroke-linecap="round" stroke-linejoin="round"/>
<path d="M53.4043 16.8438H61.306V24.8081" stroke="black" stroke-width="1.25" stroke-linecap="round" stroke-linejoin="round"/>
<path d="M61.306 55.2852V63.1555H53.4043" stroke="black" stroke-width="1.25" stroke-linecap="round" stroke-linejoin="round"/>
<path d="M26.5643 63.1555H18.7881V55.2852" stroke="black" stroke-width="1.25" stroke-linecap="round" stroke-linejoin="round"/>
<path d="M16.875 40.1094H63.125" stroke="black" stroke-width="1.25" stroke-linecap="round" stroke-linejoin="round"/>
<path d="M30.8281 35.9082H51.0214" stroke="black" stroke-width="1.25" stroke-linecap="round" stroke-linejoin="round"/>
<path d="M30.8652 42.3984H51.0585" stroke="black" stroke-width="1.25" stroke-linecap="round" stroke-linejoin="round"/>
</svg>
