<svg width="79" height="78" viewBox="0 0 79 78" fill="none" xmlns="http://www.w3.org/2000/svg">
<g id="Frame" clip-path="url(#clip0_2094_2204)">
<g id="Group">
<g id="Group_2">
<g id="Group_3">
<g id="Group_4">
<g id="Group_5">
<path id="Vector" d="M8.39385 27.5185C14.5031 9.99405 35.2091 -0.836704 58.2935 4.97378C57.2675 4.50895 52.6973 2.41717 51.6247 2.0453C32.924 -4.41597 9.41982 4.74137 2.05146 25.3337C-4.57073 43.8808 5.45583 64.2873 24.1099 70.7485C25.1825 71.1204 26.2551 71.4458 27.3277 71.6782C10.679 64.1943 2.238 45.0894 8.39385 27.5185Z" fill="#BC181A"/>
<path id="Vector_2" d="M40.3389 6.08939C60.4853 6.78664 71.6777 20.9178 73.6364 38.2563C75.0821 51.3647 69.5325 64.5197 59.5992 72.5614C70.9782 68.1454 80.4918 50.4815 78.8595 35.8391C76.7143 17.3385 59.5526 2.60309 40.3389 6.08939Z" fill="#D81D27"/>
<path id="Vector_3" d="M34.2297 74.5137C24.5762 74.5137 15.7621 71.1204 8.81348 65.4494C15.389 73.1192 25.1358 78 36.0484 78C53.0236 78 67.2474 66.2396 70.9315 50.4351C64.8223 64.6126 50.6919 74.5137 34.2297 74.5137Z" fill="#E73241"/>
</g>
</g>
</g>
</g>
<g id="Group_6">
<path id="Vector_4" d="M33.2031 54.5256C33.2031 54.6651 33.2031 54.7581 33.2031 54.851C33.2031 55.9666 33.2031 57.0822 33.2031 58.1979C33.2031 59.0811 33.8094 59.6389 34.6488 59.6389C38.6128 59.6389 42.6234 59.6389 46.5874 59.6389C47.4735 59.6389 48.0331 59.0811 48.0331 58.1979C48.0331 57.0822 48.0331 55.9666 48.0331 54.851C48.0331 54.7581 48.0331 54.6651 47.9865 54.5721C43.0432 54.5256 38.1465 54.5256 33.2031 54.5256Z" fill="#2E2E2D"/>
<path id="Vector_5" d="M51.7175 18.826C51.9973 19.0584 52.3704 19.2443 52.5569 19.5697C53.0233 20.36 52.6035 21.1967 51.6242 21.5685C52.3704 21.8939 52.7901 22.4052 52.6968 23.056C52.6035 23.8463 51.9507 24.4505 51.1112 24.3111C49.2925 24.0787 47.4737 23.7998 45.6549 23.5673C44.4424 23.3814 43.2299 23.242 41.9707 23.056C41.9707 23.6138 41.9707 24.2181 41.9707 24.7294C42.7169 25.0083 43.4631 25.2408 44.1159 25.6126C46.541 27.0072 47.94 29.0989 47.94 31.888C47.9867 38.7211 47.94 45.5078 47.94 52.3409C47.94 52.4339 47.94 52.5268 47.94 52.6663C42.9967 52.6663 38.0534 52.6663 33.0634 52.6663C33.0634 52.5268 33.0634 52.3409 33.0634 52.2014C33.0634 45.5542 33.11 38.9535 33.0634 32.3063C33.0168 28.5876 35.6283 25.5662 38.8462 24.8689C38.9394 24.8689 39.0327 24.8224 39.126 24.7759C39.126 24.1716 39.126 23.6138 39.126 23.0095C39.0327 23.0095 38.9394 22.9631 38.8462 22.9631C37.3538 22.9631 35.8615 22.9631 34.3692 22.9631C33.5298 22.9631 32.8302 23.2884 32.4572 23.7998C32.6437 24.0787 32.8302 24.3111 32.9701 24.5435C33.2499 24.9619 33.2033 25.3802 33.0634 25.8451C31.4778 31.2837 29.8922 36.7223 28.3066 42.2074C28.0734 42.9976 27.8403 43.7878 27.6071 44.5781C27.3273 45.6007 26.5345 45.9726 25.5551 45.6007C23.5032 44.8105 21.4979 44.0203 19.4459 43.1836C18.5132 42.8117 18.1868 42.0215 18.6531 41.0918C21.6378 35.2813 24.6224 29.4708 27.5605 23.6138C27.9802 22.7771 28.5398 22.6377 29.659 22.9631C29.7989 22.7306 29.9389 22.4982 30.1254 22.2658C31.198 20.8713 32.6437 20.2205 34.3692 20.2205C35.7682 20.2205 37.2139 20.2205 38.613 20.2205C38.7529 20.2205 38.8928 20.2205 39.0793 20.2205C39.126 19.5232 39.5457 19.1049 40.152 18.8725C40.3851 18.8725 40.6183 18.8725 40.8515 18.8725C41.3645 19.1514 41.7842 19.5232 41.8308 20.1275C42.1106 20.0811 42.3438 20.0811 42.5303 20.0346C44.5823 19.7557 46.6342 19.4768 48.6862 19.1979C49.3391 19.1049 49.992 18.9654 50.6915 18.8725C51.1112 18.826 51.4377 18.826 51.7175 18.826Z" fill="#2E2E2D"/>
<path id="Vector_6" d="M33.2035 54.5256C38.1468 54.5256 43.0901 54.5256 48.0335 54.5256C48.0335 54.6186 48.0801 54.7116 48.0801 54.8045C48.0801 55.9202 48.0801 57.0358 48.0801 58.1514C48.0801 59.0811 47.5205 59.5924 46.6344 59.5924C42.6704 59.5924 38.6598 59.5924 34.6958 59.5924C33.8097 59.5924 33.2501 59.0346 33.2501 58.1514C33.2501 57.0358 33.2501 55.9202 33.2501 54.8045C33.1569 54.7581 33.1568 54.6651 33.2035 54.5256Z" fill="#2E2E2D"/>
</g>
</g>
</g>
<defs>
<clipPath id="clip0_2094_2204">
<rect width="79" height="78" fill="white"/>
</clipPath>
</defs>
</svg>
