<svg width="44" height="45" viewBox="0 0 44 45" fill="none" xmlns="http://www.w3.org/2000/svg">
<g id="Group">
<path id="Vector" d="M42.7975 39.2056H1.37566C0.578117 39.463 0 40.0411 0 40.7542V43.5056C0 44.2187 0.578117 44.7926 1.28705 44.7926H42.7088C43.422 44.7926 43.9959 44.2145 43.9959 43.5056V40.7542C43.9959 40.0411 43.4178 39.4672 42.7932 39.2056H42.7975Z" fill="#3E4248"/>
<path id="Vector_2" d="M43.2065 9.4854L22.4956 0.889615C22.1791 0.7588 21.8246 0.7588 21.5081 0.889615L0.797232 9.4854C0.316172 9.68373 0.00390625 10.1563 0.00390625 10.6754V13.2537C0.00390625 13.9669 0.582023 14.5407 1.29095 14.5407H42.7127C43.4259 14.5407 43.9998 13.9626 43.9998 13.2537V10.6754C43.9998 10.1563 43.6875 9.68373 43.2065 9.4854ZM29.7368 10.6754H14.2669C13.5538 10.6754 12.9799 10.0973 12.9799 9.38834C12.9799 8.67941 13.558 8.1013 14.2669 8.1013H29.7368C30.4499 8.1013 31.0238 8.67941 31.0238 9.38834C31.0238 10.0973 30.4457 10.6754 29.7368 10.6754Z" fill="#3E4248"/>
<path id="Vector_3" d="M2.45117 34.3063V36.8846H12.334V34.3063C12.334 33.5932 11.7559 33.0193 11.047 33.0193H3.74244C3.02929 33.0193 2.45539 33.5974 2.45539 34.3063H2.45117Z" fill="#3E4248"/>
<path id="Vector_4" d="M4.16895 17.1191H10.6126V30.4411H4.16895V17.1191Z" fill="#3E4248"/>
<path id="Vector_5" d="M33.3867 17.1191H39.8304V30.4411H33.3867V17.1191Z" fill="#3E4248"/>
<path id="Vector_6" d="M31.6699 34.3063V36.8846H41.5528V34.3063C41.5528 33.5932 40.9746 33.0193 40.2657 33.0193H32.9612C32.248 33.0193 31.6741 33.5974 31.6741 34.3063H31.6699Z" fill="#3E4248"/>
<path id="Vector_7" d="M22.0021 30.8714C21.2931 30.8714 20.715 30.2933 20.715 29.5844C20.715 28.8754 20.1369 28.2973 19.428 28.2973C18.7191 28.2973 18.1409 28.8754 18.1409 29.5844C18.1409 31.2638 19.217 32.6986 20.7192 33.2303V33.8801C20.7192 34.5933 21.2974 35.1672 22.0063 35.1672C22.7152 35.1672 23.2933 34.5891 23.2933 33.8801V33.2303C24.7956 32.6986 25.8717 31.2638 25.8717 29.5844C25.8717 27.4533 24.1373 25.719 22.0063 25.719C21.2974 25.719 20.7192 25.1409 20.7192 24.4319C20.7192 23.723 21.2974 23.1449 22.0063 23.1449C22.7152 23.1449 23.2933 23.723 23.2933 24.4319C23.2933 25.1409 23.8715 25.719 24.5804 25.719C25.2893 25.719 25.8674 25.1409 25.8674 24.4319C25.8674 22.7525 24.7914 21.3177 23.2891 20.786V20.1362C23.2891 19.423 22.711 18.8491 22.0021 18.8491C21.2931 18.8491 20.715 19.4272 20.715 20.1362V20.786C19.2128 21.3177 18.1367 22.7525 18.1367 24.4319C18.1367 26.563 19.8711 28.2973 22.0021 28.2973C22.711 28.2973 23.2891 28.8754 23.2891 29.5844C23.2891 30.2933 22.711 30.8714 22.0021 30.8714Z" fill="#3E4248"/>
</g>
</svg>
