<svg width="48" height="48" viewBox="0 0 48 48" fill="none" xmlns="http://www.w3.org/2000/svg">
<g id="Group">
<path id="Vector" d="M22.5933 0.739014L19.4316 2.13579V12.6682H22.5933V0.739014Z" fill="#3E4248"/>
<path id="Vector_2" d="M28.5679 2.13115L25.4062 0.734375V12.6636H28.5679V2.13115Z" fill="#3E4248"/>
<path id="Vector_3" d="M16.6147 3.37207L13.4531 4.76885V12.6682H16.6147V3.37679V3.37207Z" fill="#3E4248"/>
<path id="Vector_4" d="M10.6411 6.00537L7.47949 7.40215V12.6636H10.6411V6.00537Z" fill="#3E4248"/>
<path id="Vector_5" d="M43.3281 8.64307V12.6682H47.9951V10.7052L43.3281 8.64778V8.64307Z" fill="#3E4248"/>
<path id="Vector_6" d="M4.66693 8.64315L0 10.7006V12.6636H4.66693V8.63843V8.64315Z" fill="#3E4248"/>
<path id="Vector_7" d="M34.5415 4.76885L31.3799 3.37207V12.6635H34.5415V4.76413V4.76885Z" fill="#3E4248"/>
<path id="Vector_8" d="M40.5161 7.40215L37.3545 6.00537V12.6636H40.5161V7.40215Z" fill="#3E4248"/>
<path id="Vector_9" d="M25.4059 47.3612C26.7611 47.3612 27.8597 46.2626 27.8597 44.9074C27.8597 43.5522 26.7611 42.4536 25.4059 42.4536C24.0507 42.4536 22.9521 43.5522 22.9521 44.9074C22.9521 46.2626 24.0507 47.3612 25.4059 47.3612Z" fill="#3E4248"/>
<path id="Vector_10" d="M42.3474 47.3612C43.7025 47.3612 44.8011 46.2626 44.8011 44.9074C44.8011 43.5522 43.7025 42.4536 42.3474 42.4536C40.9922 42.4536 39.8936 43.5522 39.8936 44.9074C39.8936 46.2626 40.9922 47.3612 42.3474 47.3612Z" fill="#3E4248"/>
<path id="Vector_11" d="M17.4258 44.5488H20.1533C20.3373 41.8119 22.6212 39.6412 25.4053 39.6412C28.1894 39.6412 30.4734 41.8119 30.6574 44.5488H36.2351V27.7922H17.4258V44.5488Z" fill="#3E4248"/>
<path id="Vector_12" d="M39.0487 31.3174V40.8117C39.95 40.085 41.1014 39.6461 42.3471 39.6461C45.1312 39.6461 47.4152 41.8168 47.5992 44.5537H47.9956V38.0842L44.3054 31.3221H39.0439L39.0487 31.3174Z" fill="#3E4248"/>
<path id="Vector_13" d="M39.0485 28.5048H40.6152V21.4548H28.3887V24.9845H39.0438V28.5048H39.0485Z" fill="#3E4248"/>
<path id="Vector_14" d="M0 41.5476H4.56783V18.6424H22.4192V24.9845H25.5808V18.6424H43.4322V28.5048H45.9803L48 32.2043V15.4761H0V41.5476Z" fill="#3E4248"/>
<path id="Vector_15" d="M19.6064 24.9799V21.4502H7.37988V41.543H14.6139V24.9752H19.6017L19.6064 24.9799Z" fill="#3E4248"/>
</g>
</svg>
