<svg width="42" height="41" viewBox="0 0 42 41" fill="none" xmlns="http://www.w3.org/2000/svg">
<g id="Group">
<path id="Vector" d="M8.47095 13.0244H0V40.7877H8.47095V13.0244ZM5.59603 32.1669H2.87492V29.7494H5.59603V32.1669ZM5.59603 26.7207H2.87492V24.3032H5.59603V26.7207ZM2.87492 21.2745V18.8571H5.59603V21.2745H2.87492Z" fill="#3E4248"/>
<path id="Vector_2" d="M32.8145 40.7916H41.2854V13.0244H32.8145V40.7877V40.7916ZM35.6894 18.861H38.4105V21.2785H35.6894V18.861ZM35.6894 24.3072H38.4105V26.7246H35.6894V24.3072ZM38.4105 29.7533V32.1708H35.6894V29.7533H38.4105Z" fill="#3E4248"/>
<path id="Vector_3" d="M16.4092 37.6128H19.434V40.7914H16.4092V37.6128Z" fill="#3E4248"/>
<path id="Vector_4" d="M21.8555 37.6128H24.8802V40.7914H21.8555V37.6128Z" fill="#3E4248"/>
<path id="Vector_5" d="M10.8916 40.7915H13.9913V36.2444H27.3011V40.7915H30.4008V0.731934H10.8955V40.7875L10.8916 40.7915ZM22.0048 32.1667H19.2837V29.7493H22.0048V32.1667ZM22.0048 26.7205H19.2837V24.3031H22.0048V26.7205ZM22.0048 21.2744H19.2837V18.8569H22.0048V21.2744ZM27.451 32.1628H24.7298V29.7453H27.451V32.1628ZM27.451 26.7166H24.7298V24.2991H27.451V26.7166ZM27.451 21.2704H24.7298V18.853H27.451V21.2704ZM16.5626 10.6857H19.4375V7.81077H21.8549V10.6857H24.7298V13.1031H21.8549V15.9781H19.4375V13.1031H16.5626V10.6857ZM13.8414 18.849H16.5626V21.2665H13.8414V18.849ZM13.8414 24.2952H16.5626V26.7127H13.8414V24.2952ZM13.8414 29.7414H16.5626V32.1588H13.8414V29.7414Z" fill="#3E4248"/>
</g>
</svg>
