<svg width="323" height="167" viewBox="0 0 323 167" fill="none" xmlns="http://www.w3.org/2000/svg">
<g filter="url(#filter0_d_1295_802)">
<rect x="30" y="26" width="276" height="107" rx="30" fill="white"/>
</g>
<path d="M114.98 67.2C114.98 65.2773 115.409 63.56 116.268 62.048C117.145 60.5173 118.331 59.332 119.824 58.492C121.336 57.6333 123.025 57.204 124.892 57.204C127.076 57.204 128.989 57.764 130.632 58.884C132.275 60.004 133.423 61.5533 134.076 63.532H129.568C129.12 62.5987 128.485 61.8987 127.664 61.432C126.861 60.9653 125.928 60.732 124.864 60.732C123.725 60.732 122.708 61.0027 121.812 61.544C120.935 62.0667 120.244 62.8133 119.74 63.784C119.255 64.7547 119.012 65.8933 119.012 67.2C119.012 68.488 119.255 69.6267 119.74 70.616C120.244 71.5867 120.935 72.3427 121.812 72.884C122.708 73.4067 123.725 73.668 124.864 73.668C125.928 73.668 126.861 73.4347 127.664 72.968C128.485 72.4827 129.12 71.7733 129.568 70.84H134.076C133.423 72.8373 132.275 74.396 130.632 75.516C129.008 76.6173 127.095 77.168 124.892 77.168C123.025 77.168 121.336 76.748 119.824 75.908C118.331 75.0493 117.145 73.864 116.268 72.352C115.409 70.84 114.98 69.1227 114.98 67.2ZM152.368 61.488V77H148.42V75.04C147.916 75.712 147.254 76.244 146.432 76.636C145.63 77.0093 144.752 77.196 143.8 77.196C142.587 77.196 141.514 76.944 140.58 76.44C139.647 75.9173 138.91 75.1613 138.368 74.172C137.846 73.164 137.584 71.9693 137.584 70.588V61.488H141.504V70.028C141.504 71.26 141.812 72.212 142.428 72.884C143.044 73.5373 143.884 73.864 144.948 73.864C146.031 73.864 146.88 73.5373 147.496 72.884C148.112 72.212 148.42 71.26 148.42 70.028V61.488H152.368ZM155.528 69.188C155.528 67.62 155.836 66.2293 156.452 65.016C157.087 63.8027 157.936 62.8693 159 62.216C160.083 61.5627 161.287 61.236 162.612 61.236C163.769 61.236 164.777 61.4693 165.636 61.936C166.513 62.4027 167.213 62.9907 167.736 63.7V61.488H171.684V77H167.736V74.732C167.232 75.46 166.532 76.0667 165.636 76.552C164.759 77.0187 163.741 77.252 162.584 77.252C161.277 77.252 160.083 76.916 159 76.244C157.936 75.572 157.087 74.6293 156.452 73.416C155.836 72.184 155.528 70.7747 155.528 69.188ZM167.736 69.244C167.736 68.292 167.549 67.48 167.176 66.808C166.803 66.1173 166.299 65.5947 165.664 65.24C165.029 64.8667 164.348 64.68 163.62 64.68C162.892 64.68 162.22 64.8573 161.604 65.212C160.988 65.5667 160.484 66.0893 160.092 66.78C159.719 67.452 159.532 68.2547 159.532 69.188C159.532 70.1213 159.719 70.9427 160.092 71.652C160.484 72.3427 160.988 72.8747 161.604 73.248C162.239 73.6213 162.911 73.808 163.62 73.808C164.348 73.808 165.029 73.6307 165.664 73.276C166.299 72.9027 166.803 72.38 167.176 71.708C167.549 71.0173 167.736 70.196 167.736 69.244ZM179.732 56.28V77H175.812V56.28H179.732ZM185.893 59.64C185.203 59.64 184.624 59.4253 184.157 58.996C183.709 58.548 183.485 57.9973 183.485 57.344C183.485 56.6907 183.709 56.1493 184.157 55.72C184.624 55.272 185.203 55.048 185.893 55.048C186.584 55.048 187.153 55.272 187.601 55.72C188.068 56.1493 188.301 56.6907 188.301 57.344C188.301 57.9973 188.068 58.548 187.601 58.996C187.153 59.4253 186.584 59.64 185.893 59.64ZM187.825 61.488V77H183.905V61.488H187.825ZM199.11 64.708H196.394V77H192.418V64.708H190.654V61.488H192.418V60.704C192.418 58.8 192.96 57.4 194.042 56.504C195.125 55.608 196.758 55.188 198.942 55.244V58.548C197.99 58.5293 197.328 58.688 196.954 59.024C196.581 59.36 196.394 59.9667 196.394 60.844V61.488H199.11V64.708ZM203.939 59.64C203.248 59.64 202.669 59.4253 202.203 58.996C201.755 58.548 201.531 57.9973 201.531 57.344C201.531 56.6907 201.755 56.1493 202.203 55.72C202.669 55.272 203.248 55.048 203.939 55.048C204.629 55.048 205.199 55.272 205.647 55.72C206.113 56.1493 206.347 56.6907 206.347 57.344C206.347 57.9973 206.113 58.548 205.647 58.996C205.199 59.4253 204.629 59.64 203.939 59.64ZM205.871 61.488V77H201.951V61.488H205.871ZM209.036 69.244C209.036 67.6387 209.362 66.2387 210.016 65.044C210.669 63.8307 211.574 62.8973 212.732 62.244C213.889 61.572 215.214 61.236 216.708 61.236C218.63 61.236 220.217 61.7213 221.468 62.692C222.737 63.644 223.586 64.988 224.016 66.724H219.788C219.564 66.052 219.181 65.5293 218.64 65.156C218.117 64.764 217.464 64.568 216.68 64.568C215.56 64.568 214.673 64.9787 214.02 65.8C213.366 66.6027 213.04 67.7507 213.04 69.244C213.04 70.7187 213.366 71.8667 214.02 72.688C214.673 73.4907 215.56 73.892 216.68 73.892C218.266 73.892 219.302 73.1827 219.788 71.764H224.016C223.586 73.444 222.737 74.7787 221.468 75.768C220.198 76.7573 218.612 77.252 216.708 77.252C215.214 77.252 213.889 76.9253 212.732 76.272C211.574 75.6 210.669 74.6667 210.016 73.472C209.362 72.2587 209.036 70.8493 209.036 69.244ZM226.179 69.188C226.179 67.62 226.487 66.2293 227.103 65.016C227.738 63.8027 228.587 62.8693 229.651 62.216C230.734 61.5627 231.938 61.236 233.263 61.236C234.421 61.236 235.429 61.4693 236.287 61.936C237.165 62.4027 237.865 62.9907 238.387 63.7V61.488H242.335V77H238.387V74.732C237.883 75.46 237.183 76.0667 236.287 76.552C235.41 77.0187 234.393 77.252 233.235 77.252C231.929 77.252 230.734 76.916 229.651 76.244C228.587 75.572 227.738 74.6293 227.103 73.416C226.487 72.184 226.179 70.7747 226.179 69.188ZM238.387 69.244C238.387 68.292 238.201 67.48 237.827 66.808C237.454 66.1173 236.95 65.5947 236.315 65.24C235.681 64.8667 234.999 64.68 234.271 64.68C233.543 64.68 232.871 64.8573 232.255 65.212C231.639 65.5667 231.135 66.0893 230.743 66.78C230.37 67.452 230.183 68.2547 230.183 69.188C230.183 70.1213 230.37 70.9427 230.743 71.652C231.135 72.3427 231.639 72.8747 232.255 73.248C232.89 73.6213 233.562 73.808 234.271 73.808C234.999 73.808 235.681 73.6307 236.315 73.276C236.95 72.9027 237.454 72.38 237.827 71.708C238.201 71.0173 238.387 70.196 238.387 69.244ZM245.456 69.188C245.456 67.62 245.764 66.2293 246.38 65.016C247.015 63.8027 247.873 62.8693 248.956 62.216C250.039 61.5627 251.243 61.236 252.568 61.236C253.576 61.236 254.537 61.46 255.452 61.908C256.367 62.3373 257.095 62.916 257.636 63.644V56.28H261.612V77H257.636V74.704C257.151 75.4693 256.469 76.0853 255.592 76.552C254.715 77.0187 253.697 77.252 252.54 77.252C251.233 77.252 250.039 76.916 248.956 76.244C247.873 75.572 247.015 74.6293 246.38 73.416C245.764 72.184 245.456 70.7747 245.456 69.188ZM257.664 69.244C257.664 68.292 257.477 67.48 257.104 66.808C256.731 66.1173 256.227 65.5947 255.592 65.24C254.957 64.8667 254.276 64.68 253.548 64.68C252.82 64.68 252.148 64.8573 251.532 65.212C250.916 65.5667 250.412 66.0893 250.02 66.78C249.647 67.452 249.46 68.2547 249.46 69.188C249.46 70.1213 249.647 70.9427 250.02 71.652C250.412 72.3427 250.916 72.8747 251.532 73.248C252.167 73.6213 252.839 73.808 253.548 73.808C254.276 73.808 254.957 73.6307 255.592 73.276C256.227 72.9027 256.731 72.38 257.104 71.708C257.477 71.0173 257.664 70.196 257.664 69.244ZM272.629 77.252C271.135 77.252 269.791 76.9253 268.597 76.272C267.402 75.6 266.459 74.6573 265.769 73.444C265.097 72.2307 264.761 70.8307 264.761 69.244C264.761 67.6573 265.106 66.2573 265.797 65.044C266.506 63.8307 267.467 62.8973 268.681 62.244C269.894 61.572 271.247 61.236 272.741 61.236C274.234 61.236 275.587 61.572 276.801 62.244C278.014 62.8973 278.966 63.8307 279.657 65.044C280.366 66.2573 280.721 67.6573 280.721 69.244C280.721 70.8307 280.357 72.2307 279.629 73.444C278.919 74.6573 277.949 75.6 276.717 76.272C275.503 76.9253 274.141 77.252 272.629 77.252ZM272.629 73.836C273.338 73.836 274.001 73.668 274.617 73.332C275.251 72.9773 275.755 72.4547 276.129 71.764C276.502 71.0733 276.689 70.2333 276.689 69.244C276.689 67.7693 276.297 66.64 275.513 65.856C274.747 65.0533 273.805 64.652 272.685 64.652C271.565 64.652 270.622 65.0533 269.857 65.856C269.11 66.64 268.737 67.7693 268.737 69.244C268.737 70.7187 269.101 71.8573 269.829 72.66C270.575 73.444 271.509 73.836 272.629 73.836Z" fill="#373737"/>
<path opacity="0.7" d="M117.402 95.146V98.818H121.722V100.492H117.402V104.326H122.262V106H115.35V93.472H122.262V95.146H117.402ZM124.405 100.996C124.405 100 124.609 99.118 125.017 98.35C125.437 97.582 126.001 96.988 126.709 96.568C127.429 96.136 128.227 95.92 129.103 95.92C129.871 95.92 130.549 96.076 131.137 96.388C131.737 96.7 132.199 97.078 132.523 97.522V96.082H134.593V110.716H132.523V104.56C132.199 105.004 131.731 105.382 131.119 105.694C130.507 106.006 129.811 106.162 129.031 106.162C128.179 106.162 127.399 105.946 126.691 105.514C125.995 105.07 125.437 104.458 125.017 103.678C124.609 102.886 124.405 101.992 124.405 100.996ZM132.523 101.032C132.523 100.348 132.379 99.754 132.091 99.25C131.815 98.746 131.449 98.362 130.993 98.098C130.537 97.834 130.045 97.702 129.517 97.702C128.989 97.702 128.497 97.834 128.041 98.098C127.585 98.35 127.213 98.728 126.925 99.232C126.649 99.724 126.511 100.312 126.511 100.996C126.511 101.68 126.649 102.28 126.925 102.796C127.213 103.312 127.585 103.708 128.041 103.984C128.509 104.248 129.001 104.38 129.517 104.38C130.045 104.38 130.537 104.248 130.993 103.984C131.449 103.72 131.815 103.336 132.091 102.832C132.379 102.316 132.523 101.716 132.523 101.032ZM146.571 96.082V106H144.519V104.83C144.195 105.238 143.769 105.562 143.241 105.802C142.725 106.03 142.173 106.144 141.585 106.144C140.805 106.144 140.103 105.982 139.479 105.658C138.867 105.334 138.381 104.854 138.021 104.218C137.673 103.582 137.499 102.814 137.499 101.914V96.082H139.533V101.608C139.533 102.496 139.755 103.18 140.199 103.66C140.643 104.128 141.249 104.362 142.017 104.362C142.785 104.362 143.391 104.128 143.835 103.66C144.291 103.18 144.519 102.496 144.519 101.608V96.082H146.571ZM150.622 94.768C150.25 94.768 149.938 94.642 149.686 94.39C149.434 94.138 149.308 93.826 149.308 93.454C149.308 93.082 149.434 92.77 149.686 92.518C149.938 92.266 150.25 92.14 150.622 92.14C150.982 92.14 151.288 92.266 151.54 92.518C151.792 92.77 151.918 93.082 151.918 93.454C151.918 93.826 151.792 94.138 151.54 94.39C151.288 94.642 150.982 94.768 150.622 94.768ZM151.63 96.082V106H149.578V96.082H151.63ZM156.676 97.54C157.024 97.084 157.498 96.7 158.098 96.388C158.698 96.076 159.376 95.92 160.132 95.92C160.996 95.92 161.782 96.136 162.49 96.568C163.21 96.988 163.774 97.582 164.182 98.35C164.59 99.118 164.794 100 164.794 100.996C164.794 101.992 164.59 102.886 164.182 103.678C163.774 104.458 163.21 105.07 162.49 105.514C161.782 105.946 160.996 106.162 160.132 106.162C159.376 106.162 158.704 106.012 158.116 105.712C157.528 105.4 157.048 105.016 156.676 104.56V110.716H154.624V96.082H156.676V97.54ZM162.706 100.996C162.706 100.312 162.562 99.724 162.274 99.232C161.998 98.728 161.626 98.35 161.158 98.098C160.702 97.834 160.21 97.702 159.682 97.702C159.166 97.702 158.674 97.834 158.206 98.098C157.75 98.362 157.378 98.746 157.09 99.25C156.814 99.754 156.676 100.348 156.676 101.032C156.676 101.716 156.814 102.316 157.09 102.832C157.378 103.336 157.75 103.72 158.206 103.984C158.674 104.248 159.166 104.38 159.682 104.38C160.21 104.38 160.702 104.248 161.158 103.984C161.626 103.708 161.998 103.312 162.274 102.796C162.562 102.28 162.706 101.68 162.706 100.996ZM171.425 106.162C170.489 106.162 169.643 105.952 168.887 105.532C168.131 105.1 167.537 104.5 167.105 103.732C166.673 102.952 166.457 102.052 166.457 101.032C166.457 100.024 166.679 99.13 167.123 98.35C167.567 97.57 168.173 96.97 168.941 96.55C169.709 96.13 170.567 95.92 171.515 95.92C172.463 95.92 173.321 96.13 174.089 96.55C174.857 96.97 175.463 97.57 175.907 98.35C176.351 99.13 176.573 100.024 176.573 101.032C176.573 102.04 176.345 102.934 175.889 103.714C175.433 104.494 174.809 105.1 174.017 105.532C173.237 105.952 172.373 106.162 171.425 106.162ZM171.425 104.38C171.953 104.38 172.445 104.254 172.901 104.002C173.369 103.75 173.747 103.372 174.035 102.868C174.323 102.364 174.467 101.752 174.467 101.032C174.467 100.312 174.329 99.706 174.053 99.214C173.777 98.71 173.411 98.332 172.955 98.08C172.499 97.828 172.007 97.702 171.479 97.702C170.951 97.702 170.459 97.828 170.003 98.08C169.559 98.332 169.205 98.71 168.941 99.214C168.677 99.706 168.545 100.312 168.545 101.032C168.545 102.1 168.815 102.928 169.355 103.516C169.907 104.092 170.597 104.38 171.425 104.38ZM183.194 100.996C183.194 100 183.398 99.118 183.806 98.35C184.226 97.582 184.79 96.988 185.498 96.568C186.218 96.136 187.016 95.92 187.892 95.92C188.54 95.92 189.176 96.064 189.8 96.352C190.436 96.628 190.94 97 191.312 97.468V92.68H193.382V106H191.312V104.506C190.976 104.986 190.508 105.382 189.908 105.694C189.32 106.006 188.642 106.162 187.874 106.162C187.01 106.162 186.218 105.946 185.498 105.514C184.79 105.07 184.226 104.458 183.806 103.678C183.398 102.886 183.194 101.992 183.194 100.996ZM191.312 101.032C191.312 100.348 191.168 99.754 190.88 99.25C190.604 98.746 190.238 98.362 189.782 98.098C189.326 97.834 188.834 97.702 188.306 97.702C187.778 97.702 187.286 97.834 186.83 98.098C186.374 98.35 186.002 98.728 185.714 99.232C185.438 99.724 185.3 100.312 185.3 100.996C185.3 101.68 185.438 102.28 185.714 102.796C186.002 103.312 186.374 103.708 186.83 103.984C187.298 104.248 187.79 104.38 188.306 104.38C188.834 104.38 189.326 104.248 189.782 103.984C190.238 103.72 190.604 103.336 190.88 102.832C191.168 102.316 191.312 101.716 191.312 101.032ZM205.467 100.798C205.467 101.17 205.443 101.506 205.395 101.806H197.817C197.877 102.598 198.171 103.234 198.699 103.714C199.227 104.194 199.875 104.434 200.643 104.434C201.747 104.434 202.527 103.972 202.983 103.048H205.197C204.897 103.96 204.351 104.71 203.559 105.298C202.779 105.874 201.807 106.162 200.643 106.162C199.695 106.162 198.843 105.952 198.087 105.532C197.343 105.1 196.755 104.5 196.323 103.732C195.903 102.952 195.693 102.052 195.693 101.032C195.693 100.012 195.897 99.118 196.305 98.35C196.725 97.57 197.307 96.97 198.051 96.55C198.807 96.13 199.671 95.92 200.643 95.92C201.579 95.92 202.413 96.124 203.145 96.532C203.877 96.94 204.447 97.516 204.855 98.26C205.263 98.992 205.467 99.838 205.467 100.798ZM203.325 100.15C203.313 99.394 203.043 98.788 202.515 98.332C201.987 97.876 201.333 97.648 200.553 97.648C199.845 97.648 199.239 97.876 198.735 98.332C198.231 98.776 197.931 99.382 197.835 100.15H203.325ZM215.156 97.756V103.246C215.156 103.618 215.24 103.888 215.408 104.056C215.588 104.212 215.888 104.29 216.308 104.29H217.568V106H215.948C215.024 106 214.316 105.784 213.824 105.352C213.332 104.92 213.086 104.218 213.086 103.246V97.756H211.916V96.082H213.086V93.616H215.156V96.082H217.568V97.756H215.156ZM221.811 97.522C222.111 97.018 222.507 96.628 222.999 96.352C223.503 96.064 224.097 95.92 224.781 95.92V98.044H224.259C223.455 98.044 222.843 98.248 222.423 98.656C222.015 99.064 221.811 99.772 221.811 100.78V106H219.759V96.082H221.811V97.522ZM226.284 100.996C226.284 100 226.488 99.118 226.896 98.35C227.316 97.582 227.88 96.988 228.588 96.568C229.308 96.136 230.1 95.92 230.964 95.92C231.744 95.92 232.422 96.076 232.998 96.388C233.586 96.688 234.054 97.066 234.402 97.522V96.082H236.472V106H234.402V104.524C234.054 104.992 233.58 105.382 232.98 105.694C232.38 106.006 231.696 106.162 230.928 106.162C230.076 106.162 229.296 105.946 228.588 105.514C227.88 105.07 227.316 104.458 226.896 103.678C226.488 102.886 226.284 101.992 226.284 100.996ZM234.402 101.032C234.402 100.348 234.258 99.754 233.97 99.25C233.694 98.746 233.328 98.362 232.872 98.098C232.416 97.834 231.924 97.702 231.396 97.702C230.868 97.702 230.376 97.834 229.92 98.098C229.464 98.35 229.092 98.728 228.804 99.232C228.528 99.724 228.39 100.312 228.39 100.996C228.39 101.68 228.528 102.28 228.804 102.796C229.092 103.312 229.464 103.708 229.92 103.984C230.388 104.248 230.88 104.38 231.396 104.38C231.924 104.38 232.416 104.248 232.872 103.984C233.328 103.72 233.694 103.336 233.97 102.832C234.258 102.316 234.402 101.716 234.402 101.032ZM241.519 97.558C241.867 97.078 242.341 96.688 242.941 96.388C243.553 96.076 244.231 95.92 244.975 95.92C245.851 95.92 246.643 96.13 247.351 96.55C248.059 96.97 248.617 97.57 249.025 98.35C249.433 99.118 249.637 100 249.637 100.996C249.637 101.992 249.433 102.886 249.025 103.678C248.617 104.458 248.053 105.07 247.333 105.514C246.625 105.946 245.839 106.162 244.975 106.162C244.207 106.162 243.523 106.012 242.923 105.712C242.335 105.412 241.867 105.028 241.519 104.56V106H239.467V92.68H241.519V97.558ZM247.549 100.996C247.549 100.312 247.405 99.724 247.117 99.232C246.841 98.728 246.469 98.35 246.001 98.098C245.545 97.834 245.053 97.702 244.525 97.702C244.009 97.702 243.517 97.834 243.049 98.098C242.593 98.362 242.221 98.746 241.933 99.25C241.657 99.754 241.519 100.348 241.519 101.032C241.519 101.716 241.657 102.316 241.933 102.832C242.221 103.336 242.593 103.72 243.049 103.984C243.517 104.248 244.009 104.38 244.525 104.38C245.053 104.38 245.545 104.248 246.001 103.984C246.469 103.708 246.841 103.312 247.117 102.796C247.405 102.28 247.549 101.68 247.549 100.996ZM251.282 100.996C251.282 100 251.486 99.118 251.894 98.35C252.314 97.582 252.878 96.988 253.586 96.568C254.306 96.136 255.098 95.92 255.962 95.92C256.742 95.92 257.42 96.076 257.996 96.388C258.584 96.688 259.052 97.066 259.4 97.522V96.082H261.47V106H259.4V104.524C259.052 104.992 258.578 105.382 257.978 105.694C257.378 106.006 256.694 106.162 255.926 106.162C255.074 106.162 254.294 105.946 253.586 105.514C252.878 105.07 252.314 104.458 251.894 103.678C251.486 102.886 251.282 101.992 251.282 100.996ZM259.4 101.032C259.4 100.348 259.256 99.754 258.968 99.25C258.692 98.746 258.326 98.362 257.87 98.098C257.414 97.834 256.922 97.702 256.394 97.702C255.866 97.702 255.374 97.834 254.918 98.098C254.462 98.35 254.09 98.728 253.802 99.232C253.526 99.724 253.388 100.312 253.388 100.996C253.388 101.68 253.526 102.28 253.802 102.796C254.09 103.312 254.462 103.708 254.918 103.984C255.386 104.248 255.878 104.38 256.394 104.38C256.922 104.38 257.414 104.248 257.87 103.984C258.326 103.72 258.692 103.336 258.968 102.832C259.256 102.316 259.4 101.716 259.4 101.032ZM265.509 94.768C265.137 94.768 264.825 94.642 264.573 94.39C264.321 94.138 264.195 93.826 264.195 93.454C264.195 93.082 264.321 92.77 264.573 92.518C264.825 92.266 265.137 92.14 265.509 92.14C265.869 92.14 266.175 92.266 266.427 92.518C266.679 92.77 266.805 93.082 266.805 93.454C266.805 93.826 266.679 94.138 266.427 94.39C266.175 94.642 265.869 94.768 265.509 94.768ZM266.517 107.944C266.517 108.916 266.271 109.618 265.779 110.05C265.299 110.494 264.597 110.716 263.673 110.716H262.611V108.988H263.313C263.733 108.988 264.027 108.904 264.195 108.736C264.375 108.58 264.465 108.316 264.465 107.944V96.082H266.517V107.944ZM273.813 106.162C272.877 106.162 272.031 105.952 271.275 105.532C270.519 105.1 269.925 104.5 269.493 103.732C269.061 102.952 268.845 102.052 268.845 101.032C268.845 100.024 269.067 99.13 269.511 98.35C269.955 97.57 270.561 96.97 271.329 96.55C272.097 96.13 272.955 95.92 273.903 95.92C274.851 95.92 275.709 96.13 276.477 96.55C277.245 96.97 277.851 97.57 278.295 98.35C278.739 99.13 278.961 100.024 278.961 101.032C278.961 102.04 278.733 102.934 278.277 103.714C277.821 104.494 277.197 105.1 276.405 105.532C275.625 105.952 274.761 106.162 273.813 106.162ZM273.813 104.38C274.341 104.38 274.833 104.254 275.289 104.002C275.757 103.75 276.135 103.372 276.423 102.868C276.711 102.364 276.855 101.752 276.855 101.032C276.855 100.312 276.717 99.706 276.441 99.214C276.165 98.71 275.799 98.332 275.343 98.08C274.887 97.828 274.395 97.702 273.867 97.702C273.339 97.702 272.847 97.828 272.391 98.08C271.947 98.332 271.593 98.71 271.329 99.214C271.065 99.706 270.933 100.312 270.933 101.032C270.933 102.1 271.203 102.928 271.743 103.516C272.295 104.092 272.985 104.38 273.813 104.38Z" fill="#2F2F2F"/>
<path d="M77.9888 54C79.6903 54 81.2309 54.945 82.0817 56.34C82.4956 57.015 82.7715 57.8475 82.7025 58.725C82.6565 59.4 82.8635 60.075 83.2314 60.705C84.4041 62.6175 87.0024 63.3375 89.0259 62.2575C91.3023 60.9525 94.1766 61.74 95.4872 63.9675L97.0278 66.6225C98.3615 68.85 97.6257 71.7075 95.3263 72.99C93.3718 74.1375 92.6819 76.68 93.8546 78.615C94.2226 79.2225 94.6364 79.74 95.2803 80.055C96.0851 80.4825 96.7059 81.1575 97.1428 81.8325C97.9936 83.2275 97.9246 84.9375 97.0968 86.445L95.4872 89.145C94.6364 90.585 93.0499 91.485 91.4173 91.485C90.6125 91.485 89.7157 91.26 88.9799 90.81C88.3821 90.4275 87.6922 90.2925 86.9564 90.2925C84.68 90.2925 82.7715 92.16 82.7025 94.3875C82.7025 96.975 80.5871 99 77.9428 99H74.8156C72.1483 99 70.0328 96.975 70.0328 94.3875C69.9868 92.16 68.0783 90.2925 65.8019 90.2925C65.0431 90.2925 64.3533 90.4275 63.7784 90.81C63.0426 91.26 62.1229 91.485 61.3411 91.485C59.6855 91.485 58.0989 90.585 57.2481 89.145L55.6615 86.445C54.8108 84.9825 54.7648 83.2275 55.6156 81.8325C55.9835 81.1575 56.6733 80.4825 57.4551 80.055C58.0989 79.74 58.5128 79.2225 58.9037 78.615C60.0534 76.68 59.3636 74.1375 57.4091 72.99C55.1327 71.7075 54.3969 68.85 55.7075 66.6225L57.2481 63.9675C58.5818 61.74 61.433 60.9525 63.7325 62.2575C65.7329 63.3375 68.3313 62.6175 69.504 60.705C69.8719 60.075 70.0788 59.4 70.0328 58.725C69.9868 57.8475 70.2398 57.015 70.6767 56.34C71.5274 54.945 73.068 54.045 74.7466 54H77.9888ZM76.4022 70.155C72.7921 70.155 69.8719 72.99 69.8719 76.5225C69.8719 80.055 72.7921 82.8675 76.4022 82.8675C80.0122 82.8675 82.8635 80.055 82.8635 76.5225C82.8635 72.99 80.0122 70.155 76.4022 70.155Z" fill="#FE7443"/>
<defs>
<filter id="filter0_d_1295_802" x="0" y="0" width="336" height="167" filterUnits="userSpaceOnUse" color-interpolation-filters="sRGB">
<feFlood flood-opacity="0" result="BackgroundImageFix"/>
<feColorMatrix in="SourceAlpha" type="matrix" values="0 0 0 0 0 0 0 0 0 0 0 0 0 0 0 0 0 0 127 0" result="hardAlpha"/>
<feOffset dy="4"/>
<feGaussianBlur stdDeviation="15"/>
<feComposite in2="hardAlpha" operator="out"/>
<feColorMatrix type="matrix" values="0 0 0 0 0 0 0 0 0 0 0 0 0 0 0 0 0 0 0.05 0"/>
<feBlend mode="normal" in2="BackgroundImageFix" result="effect1_dropShadow_1295_802"/>
<feBlend mode="normal" in="SourceGraphic" in2="effect1_dropShadow_1295_802" result="shape"/>
</filter>
</defs>
</svg>
