<svg width="80" height="80" viewBox="0 0 80 80" fill="none" xmlns="http://www.w3.org/2000/svg">
<circle cx="40" cy="40" r="40" fill="#E8EDF4"/>
<g clip-path="url(#clip0_2693_2200)">
<path d="M58.5484 48.871H57.4556C59.1032 47.5395 60.1613 45.5048 60.1613 43.2258V40C60.1613 36.8879 57.6282 34.3548 54.5161 34.3548H51.2903C51.0161 34.3548 50.7484 34.3815 50.4839 34.4194V19.8387H52.0968V15H15V19.8387H16.6129V43.2258H15V48.0645H33.8565L37.8887 56.129H45.6452V65H65V55.3226C65 51.7653 62.1056 48.871 58.5484 48.871ZM57.5992 52.4323L54.3258 53.8355L56.5605 50.4839H57.1121L57.5992 52.4323ZM51.1839 50.4839H54.6226L52.9032 53.0621L51.1839 50.4839ZM51.479 53.8355L48.2056 52.4323L48.6935 50.4839H49.2452L51.479 53.8355ZM58.5492 43.2258C58.5484 46.3379 56.0153 48.871 52.9032 48.871C49.7911 48.871 47.2581 46.3379 47.2581 43.2258H51.0306C52.454 43.2258 53.7919 42.671 54.7976 41.6653L55.2137 41.2492C56.0508 42.2847 57.2411 42.9565 58.5492 43.1565V43.2258ZM19.8387 34.3548V41.6129H30.6427C30.6556 41.6411 30.6605 41.6718 30.6742 41.6992L31.4371 43.2258H18.2258V19.8387H48.871V34.9073C46.9669 35.8153 45.6452 37.754 45.6452 40V43.2258H39.0863L36.5847 38.5355C36.0048 37.4492 34.8798 36.7742 33.6492 36.7742C32.6371 36.7742 31.7395 37.2387 31.129 37.9548V34.3548H19.8387ZM29.5161 35.9677V40H21.4516V35.9677H29.5161ZM51.2903 35.9677H54.5161C56.7395 35.9677 58.5484 37.7766 58.5484 40V41.5194C57.6242 41.3145 56.8024 40.7653 56.2645 39.9589L55.4476 38.7339L53.6565 40.525C52.9548 41.2266 52.0226 41.6129 51.0306 41.6129H47.2581V40C47.2581 37.7766 49.0669 35.9677 51.2903 35.9677ZM16.6129 16.6129H50.4839V18.2258H16.6129V16.6129ZM16.6129 46.4516V44.8387H32.2435L33.05 46.4516H16.6129ZM40.8065 54.5161H38.8855L32.1169 40.979C31.9984 40.7411 31.9355 40.4758 31.9355 40.2121V40.1008C31.9355 39.1556 32.704 38.3871 33.6492 38.3871C34.2831 38.3871 34.8629 38.7355 35.1613 39.2944L40.8065 49.8782V54.5161ZM39.946 44.8387H45.8323C45.9613 45.4048 46.1581 45.9444 46.4113 46.4516H40.8065L39.946 44.8387ZM41.6669 48.0645H47.5089C47.7694 48.354 48.0484 48.6258 48.3516 48.871H42.0968L41.6669 48.0645ZM63.3871 63.3871H60.1613V60.1613H63.3871V63.3871ZM63.3871 58.5484H60.1613V55.3226H58.5484V63.3871H47.2581V54.5161H42.4194V50.4839H47.0323L46.3097 53.3742L52.9032 56.2L59.4976 53.3742L58.7774 50.4952C61.3387 50.6161 63.3871 52.7315 63.3871 55.3226V58.5484Z" fill="black"/>
<path d="M31.1292 27.9028V26.2899H29.4348C29.33 25.7762 29.1252 25.2988 28.8445 24.8762L30.0461 23.6746L28.9058 22.5342L27.7042 23.7358C27.2816 23.4552 26.8042 23.2504 26.2905 23.1455V21.4512H24.6776V23.1455C24.1639 23.2504 23.6864 23.4552 23.2639 23.7358L22.0623 22.5342L20.9219 23.6746L22.1235 24.8762C21.8429 25.2988 21.6381 25.7762 21.5332 26.2899H19.8389V27.9028H21.5332C21.6381 28.4165 21.8429 28.8939 22.1235 29.3165L20.9219 30.5181L22.0623 31.6584L23.2639 30.4568C23.6864 30.7375 24.1639 30.9423 24.6776 31.0471V32.7415H26.2905V31.0471C26.8042 30.9423 27.2816 30.7375 27.7042 30.4568L28.9058 31.6584L30.0461 30.5181L28.8445 29.3165C29.1252 28.8939 29.33 28.4165 29.4348 27.9028H31.1292ZM25.484 29.5157C24.1502 29.5157 23.0647 28.4302 23.0647 27.0963C23.0647 25.7625 24.1502 24.677 25.484 24.677C26.8179 24.677 27.9034 25.7625 27.9034 27.0963C27.9034 28.4302 26.8179 29.5157 25.484 29.5157Z" fill="black"/>
<path d="M39.6253 23.0641H42.4196V21.4512H38.7623L35.5365 26.2899H32.7422V27.9028H36.3994L39.6253 23.0641Z" fill="black"/>
<path d="M47.258 21.4512H44.0322V23.0641H47.258V21.4512Z" fill="black"/>
<path d="M37.5809 29.5156H32.7422V34.3543H37.5809V29.5156ZM35.968 32.7414H34.3551V31.1285H35.968V32.7414Z" fill="black"/>
<path d="M42.4192 31.1289H39.1934V32.7418H42.4192V31.1289Z" fill="black"/>
<path d="M47.258 31.1289H44.0322V32.7418H47.258V31.1289Z" fill="black"/>
</g>
<defs>
<clipPath id="clip0_2693_2200">
<rect width="50" height="50" fill="white" transform="translate(15 15)"/>
</clipPath>
</defs>
</svg>
