<svg width="109" height="116" viewBox="0 0 109 116" fill="none" xmlns="http://www.w3.org/2000/svg">
<mask id="path-1-outside-1_1064_1025" maskUnits="userSpaceOnUse" x="9.04492" y="72.0269" width="97" height="44" fill="black">
<rect fill="white" x="9.04492" y="72.0269" width="97" height="44"/>
<path d="M102.578 74.0269H100.599C96.9636 74.0312 93.4124 75.1006 90.4019 77.0975C87.3914 79.0945 85.0591 81.9279 83.7045 85.2337C82.3499 81.9279 80.0175 79.0945 77.007 77.0975C73.9965 75.1006 70.4454 74.0312 66.8099 74.0269H64.8305C64.4832 74.0269 64.1501 74.162 63.9045 74.4027C63.6589 74.6433 63.5209 74.9697 63.5209 75.3101V77.2499C63.5264 81.979 65.446 86.5129 68.8587 89.8569C72.2714 93.2009 76.8985 95.0819 81.7248 95.0872H82.3949V103.615C75.9991 103.837 69.7821 105.742 64.3954 109.128C62.3272 110.426 59.9224 111.116 57.4662 111.116C55.01 111.116 52.6053 110.426 50.5371 109.128C45.1504 105.742 38.9336 103.838 32.538 103.615V95.0872H33.208C38.0343 95.0819 42.6614 93.2009 46.0742 89.857C49.4869 86.513 51.4066 81.979 51.4121 77.2499V75.3101C51.4121 74.9697 51.2741 74.6433 51.0285 74.4027C50.783 74.162 50.4499 74.0269 50.1025 74.0269H48.1228C44.4874 74.0312 40.9363 75.1005 37.9259 77.0975C34.9154 79.0944 32.583 81.9278 31.2285 85.2335C29.8739 81.9278 27.5415 79.0944 24.531 77.0975C21.5206 75.1005 17.9695 74.0312 14.334 74.0269H12.3545C12.0072 74.0269 11.6741 74.162 11.4285 74.4027C11.1829 74.6433 11.0449 74.9697 11.0449 75.3101V77.2499C11.0504 81.979 12.97 86.5129 16.3828 89.8569C19.7955 93.2009 24.4226 95.0819 29.2489 95.0872H29.9189V103.615C23.5233 103.838 17.3066 105.742 11.9199 109.128C11.6277 109.311 11.422 109.602 11.3481 109.934C11.2742 110.267 11.3382 110.614 11.5259 110.901C11.7136 111.187 12.0097 111.389 12.3491 111.461C12.6885 111.533 13.0433 111.471 13.3355 111.287C18.677 107.936 24.8863 106.156 31.2283 106.156C37.5704 106.156 43.7798 107.936 49.1212 111.287C51.612 112.85 54.5081 113.681 57.4662 113.681C60.4243 113.681 63.3204 112.85 65.8113 111.287C71.1528 107.936 77.3622 106.156 83.7045 106.156C90.0467 106.156 96.2561 107.936 101.598 111.287C101.742 111.38 101.904 111.444 102.075 111.475C102.245 111.507 102.419 111.505 102.589 111.47C102.758 111.434 102.919 111.366 103.061 111.27C103.204 111.174 103.325 111.05 103.419 110.908C103.512 110.765 103.576 110.606 103.606 110.439C103.636 110.272 103.632 110.1 103.595 109.935C103.557 109.769 103.486 109.613 103.386 109.474C103.286 109.335 103.16 109.218 103.013 109.128C97.6264 105.742 91.4097 103.837 85.0141 103.615V95.0872H85.6842C90.5105 95.0819 95.1376 93.2009 98.5503 89.8569C101.963 86.5129 103.883 81.979 103.888 77.2499V75.3101C103.888 74.9697 103.75 74.6433 103.504 74.4027C103.259 74.162 102.926 74.0269 102.578 74.0269ZM48.1228 76.5933H48.793V77.2499C48.7883 81.2986 47.1448 85.1802 44.223 88.0431C41.3013 90.9059 37.3399 92.5163 33.208 92.5208H32.538V91.8644C32.5427 87.8157 34.1862 83.9341 37.1079 81.0712C40.0296 78.2083 43.9909 76.5979 48.1228 76.5933ZM13.6641 77.2499V76.5933H14.334C18.466 76.5979 22.4273 78.2083 25.349 81.0712C28.2707 83.9341 29.9142 87.8157 29.9189 91.8644V92.5208H29.2489C25.117 92.5162 21.1556 90.9059 18.2339 88.043C15.3122 85.1802 13.6687 81.2986 13.6641 77.2499ZM66.14 77.2499V76.5933H66.8099C70.9418 76.5979 74.9032 78.2083 77.8249 81.0712C80.7466 83.9341 82.3901 87.8157 82.3948 91.8644V92.5208H81.7247C77.5928 92.5162 73.6315 90.9058 70.7098 88.043C67.7882 85.1801 66.1447 81.2986 66.14 77.2499ZM101.269 77.2499C101.264 81.2986 99.6207 85.1802 96.699 88.043C93.7773 90.9059 89.816 92.5162 85.6841 92.5208H85.0141V91.8644C85.0188 87.8157 86.6622 83.9341 89.584 81.0712C92.5057 78.2083 96.4671 76.5979 100.599 76.5933H101.269L101.269 77.2499Z"/>
</mask>
<path d="M102.578 74.0269H100.599C96.9636 74.0312 93.4124 75.1006 90.4019 77.0975C87.3914 79.0945 85.0591 81.9279 83.7045 85.2337C82.3499 81.9279 80.0175 79.0945 77.007 77.0975C73.9965 75.1006 70.4454 74.0312 66.8099 74.0269H64.8305C64.4832 74.0269 64.1501 74.162 63.9045 74.4027C63.6589 74.6433 63.5209 74.9697 63.5209 75.3101V77.2499C63.5264 81.979 65.446 86.5129 68.8587 89.8569C72.2714 93.2009 76.8985 95.0819 81.7248 95.0872H82.3949V103.615C75.9991 103.837 69.7821 105.742 64.3954 109.128C62.3272 110.426 59.9224 111.116 57.4662 111.116C55.01 111.116 52.6053 110.426 50.5371 109.128C45.1504 105.742 38.9336 103.838 32.538 103.615V95.0872H33.208C38.0343 95.0819 42.6614 93.2009 46.0742 89.857C49.4869 86.513 51.4066 81.979 51.4121 77.2499V75.3101C51.4121 74.9697 51.2741 74.6433 51.0285 74.4027C50.783 74.162 50.4499 74.0269 50.1025 74.0269H48.1228C44.4874 74.0312 40.9363 75.1005 37.9259 77.0975C34.9154 79.0944 32.583 81.9278 31.2285 85.2335C29.8739 81.9278 27.5415 79.0944 24.531 77.0975C21.5206 75.1005 17.9695 74.0312 14.334 74.0269H12.3545C12.0072 74.0269 11.6741 74.162 11.4285 74.4027C11.1829 74.6433 11.0449 74.9697 11.0449 75.3101V77.2499C11.0504 81.979 12.97 86.5129 16.3828 89.8569C19.7955 93.2009 24.4226 95.0819 29.2489 95.0872H29.9189V103.615C23.5233 103.838 17.3066 105.742 11.9199 109.128C11.6277 109.311 11.422 109.602 11.3481 109.934C11.2742 110.267 11.3382 110.614 11.5259 110.901C11.7136 111.187 12.0097 111.389 12.3491 111.461C12.6885 111.533 13.0433 111.471 13.3355 111.287C18.677 107.936 24.8863 106.156 31.2283 106.156C37.5704 106.156 43.7798 107.936 49.1212 111.287C51.612 112.85 54.5081 113.681 57.4662 113.681C60.4243 113.681 63.3204 112.85 65.8113 111.287C71.1528 107.936 77.3622 106.156 83.7045 106.156C90.0467 106.156 96.2561 107.936 101.598 111.287C101.742 111.38 101.904 111.444 102.075 111.475C102.245 111.507 102.419 111.505 102.589 111.47C102.758 111.434 102.919 111.366 103.061 111.27C103.204 111.174 103.325 111.05 103.419 110.908C103.512 110.765 103.576 110.606 103.606 110.439C103.636 110.272 103.632 110.1 103.595 109.935C103.557 109.769 103.486 109.613 103.386 109.474C103.286 109.335 103.16 109.218 103.013 109.128C97.6264 105.742 91.4097 103.837 85.0141 103.615V95.0872H85.6842C90.5105 95.0819 95.1376 93.2009 98.5503 89.8569C101.963 86.5129 103.883 81.979 103.888 77.2499V75.3101C103.888 74.9697 103.75 74.6433 103.504 74.4027C103.259 74.162 102.926 74.0269 102.578 74.0269ZM48.1228 76.5933H48.793V77.2499C48.7883 81.2986 47.1448 85.1802 44.223 88.0431C41.3013 90.9059 37.3399 92.5163 33.208 92.5208H32.538V91.8644C32.5427 87.8157 34.1862 83.9341 37.1079 81.0712C40.0296 78.2083 43.9909 76.5979 48.1228 76.5933ZM13.6641 77.2499V76.5933H14.334C18.466 76.5979 22.4273 78.2083 25.349 81.0712C28.2707 83.9341 29.9142 87.8157 29.9189 91.8644V92.5208H29.2489C25.117 92.5162 21.1556 90.9059 18.2339 88.043C15.3122 85.1802 13.6687 81.2986 13.6641 77.2499ZM66.14 77.2499V76.5933H66.8099C70.9418 76.5979 74.9032 78.2083 77.8249 81.0712C80.7466 83.9341 82.3901 87.8157 82.3948 91.8644V92.5208H81.7247C77.5928 92.5162 73.6315 90.9058 70.7098 88.043C67.7882 85.1801 66.1447 81.2986 66.14 77.2499ZM101.269 77.2499C101.264 81.2986 99.6207 85.1802 96.699 88.043C93.7773 90.9059 89.816 92.5162 85.6841 92.5208H85.0141V91.8644C85.0188 87.8157 86.6622 83.9341 89.584 81.0712C92.5057 78.2083 96.4671 76.5979 100.599 76.5933H101.269L101.269 77.2499Z" fill="#8C571A"/>
<path d="M100.599 74.0269L100.599 72.5269L100.597 72.5269L100.599 74.0269ZM83.7045 85.2337L82.3165 85.8024L83.7045 89.1897L85.0925 85.8024L83.7045 85.2337ZM66.8099 74.0269L66.8117 72.5269H66.8099V74.0269ZM63.5209 77.2499L62.0209 77.2499L62.0209 77.2516L63.5209 77.2499ZM81.7248 95.0872L81.7231 96.5872H81.7248V95.0872ZM82.3949 95.0872H83.8949V93.5872H82.3949V95.0872ZM82.3949 103.615L82.4472 105.114L83.8949 105.063V103.615H82.3949ZM64.3954 109.128L65.1929 110.398L65.1937 110.398L64.3954 109.128ZM50.5371 109.128L49.7389 110.398L49.7396 110.398L50.5371 109.128ZM32.538 103.615H31.038V105.064L32.4858 105.114L32.538 103.615ZM32.538 95.0872V93.5872H31.038V95.0872H32.538ZM33.208 95.0872L33.208 96.5872L33.2096 96.5872L33.208 95.0872ZM51.4121 77.2499L52.9121 77.2516V77.2499H51.4121ZM48.1228 74.0269L48.1228 72.5269L48.1211 72.5269L48.1228 74.0269ZM31.2285 85.2335L29.8405 85.8022L31.2285 89.1895L32.6164 85.8022L31.2285 85.2335ZM14.334 74.0269L14.3358 72.5269H14.334V74.0269ZM11.0449 77.2499L9.54492 77.2499L9.54492 77.2516L11.0449 77.2499ZM29.2489 95.0872L29.2472 96.5872H29.2489V95.0872ZM29.9189 95.0872H31.4189V93.5872H29.9189V95.0872ZM29.9189 103.615L29.9711 105.114L31.4189 105.064V103.615H29.9189ZM11.9199 109.128L11.1217 107.858L11.1209 107.858L11.9199 109.128ZM13.3355 111.287L12.5385 110.016L12.5365 110.017L13.3355 111.287ZM49.1212 111.287L49.9188 110.016L49.9183 110.016L49.1212 111.287ZM65.8113 111.287L65.0142 110.016L65.0138 110.016L65.8113 111.287ZM83.7045 106.156V107.656V106.156ZM101.598 111.287L102.41 110.026L102.402 110.021L102.395 110.016L101.598 111.287ZM103.013 109.128L102.215 110.397L102.221 110.401L102.227 110.405L103.013 109.128ZM85.0141 103.615H83.5141V105.063L84.9618 105.114L85.0141 103.615ZM85.0141 95.0872V93.5872H83.5141V95.0872H85.0141ZM85.6842 95.0872L85.6842 96.5872L85.6858 96.5872L85.6842 95.0872ZM103.888 77.2499L105.388 77.2516V77.2499H103.888ZM103.888 75.3101L105.388 75.3101L103.888 75.3101ZM48.1228 76.5933L48.1228 75.0933L48.1212 75.0933L48.1228 76.5933ZM48.793 76.5933H50.293V75.0933H48.793V76.5933ZM48.793 77.2499L50.293 77.2516V77.2499H48.793ZM33.208 92.5208L33.208 94.0208L33.2096 94.0208L33.208 92.5208ZM32.538 92.5208H31.038V94.0208H32.538V92.5208ZM32.538 91.8644L31.038 91.8627V91.8644H32.538ZM13.6641 77.2499L12.1641 77.2499L12.1641 77.2516L13.6641 77.2499ZM13.6641 76.5933V75.0933H12.1641V76.5933H13.6641ZM14.334 76.5933L14.3357 75.0933H14.334V76.5933ZM29.9189 91.8644L31.4189 91.8644L31.4189 91.8627L29.9189 91.8644ZM29.9189 92.5208V94.0208H31.4189V92.5208H29.9189ZM29.2489 92.5208L29.2472 94.0208H29.2489V92.5208ZM66.14 77.2499L64.64 77.2499L64.64 77.2516L66.14 77.2499ZM66.14 76.5933V75.0933H64.64V76.5933H66.14ZM66.8099 76.5933L66.8115 75.0933H66.8099V76.5933ZM82.3948 91.8644L83.8948 91.8644L83.8948 91.8627L82.3948 91.8644ZM82.3948 92.5208V94.0208H83.8948V92.5208H82.3948ZM81.7247 92.5208L81.723 94.0208H81.7247V92.5208ZM101.269 77.2499L102.769 77.2516L102.769 77.2501L101.269 77.2499ZM85.6841 92.5208L85.6841 94.0208L85.6857 94.0208L85.6841 92.5208ZM85.0141 92.5208H83.5141V94.0208H85.0141V92.5208ZM85.0141 91.8644L83.5141 91.8627V91.8644H85.0141ZM100.599 76.5933L100.599 75.0933L100.597 75.0933L100.599 76.5933ZM101.269 76.5933L102.769 76.5935L102.769 75.0933H101.269V76.5933ZM102.578 72.5269H100.599V75.5269H102.578V72.5269ZM100.597 72.5269C96.6694 72.5316 92.8302 73.6868 89.5728 75.8475L91.2311 78.3475C93.9947 76.5144 97.2577 75.5309 100.601 75.5269L100.597 72.5269ZM89.5728 75.8475C86.315 78.0086 83.7863 81.078 82.3165 84.6649L85.0925 85.8024C86.3318 82.7779 88.4679 80.1805 91.2311 78.3475L89.5728 75.8475ZM85.0925 84.6649C83.6227 81.0779 81.094 78.0086 77.8362 75.8475L76.1779 78.3475C78.9411 80.1805 81.0771 82.7779 82.3165 85.8024L85.0925 84.6649ZM77.8362 75.8475C74.5788 73.6868 70.7396 72.5316 66.8117 72.5269L66.8082 75.5269C70.1513 75.5309 73.4143 76.5144 76.1779 78.3475L77.8362 75.8475ZM66.8099 72.5269H64.8305V75.5269H66.8099V72.5269ZM64.8305 72.5269C64.0951 72.5269 63.3838 72.8128 62.8547 73.3313L64.9543 75.4741C64.9164 75.5113 64.8713 75.5269 64.8305 75.5269V72.5269ZM62.8547 73.3313C62.3245 73.8508 62.0209 74.5619 62.0209 75.3101H65.0209C65.0209 75.3775 64.9933 75.4359 64.9543 75.4741L62.8547 73.3313ZM62.0209 75.3101V77.2499H65.0209V75.3101H62.0209ZM62.0209 77.2516C62.0268 82.3879 64.112 87.3059 67.8089 90.9283L69.9085 88.7855C66.78 85.72 65.0259 81.5701 65.0209 77.2482L62.0209 77.2516ZM67.8089 90.9283C71.5047 94.5497 76.5093 96.5815 81.7231 96.5872L81.7264 93.5872C77.2876 93.5823 73.0381 91.8521 69.9085 88.7855L67.8089 90.9283ZM81.7248 96.5872H82.3949V93.5872H81.7248V96.5872ZM80.8949 95.0872V103.615H83.8949V95.0872H80.8949ZM82.3427 102.116C75.6839 102.348 69.2093 104.33 63.5971 107.858L65.1937 110.398C70.3549 107.153 76.3142 105.327 82.4472 105.114L82.3427 102.116ZM63.598 107.857C61.7701 109.005 59.6421 109.616 57.4662 109.616L57.4662 112.616C60.2028 112.616 62.8842 111.847 65.1929 110.398L63.598 107.857ZM57.4662 109.616C55.2904 109.616 53.1624 109.004 51.3346 107.857L49.7396 110.398C52.0482 111.847 54.7296 112.616 57.4662 112.616L57.4662 109.616ZM51.3353 107.858C45.7232 104.33 39.2488 102.348 32.5903 102.116L32.4858 105.114C38.6185 105.328 44.5776 107.153 49.7389 110.398L51.3353 107.858ZM34.038 103.615V95.0872H31.038V103.615H34.038ZM32.538 96.5872H33.208V93.5872H32.538V96.5872ZM33.2096 96.5872C38.4235 96.5815 43.4281 94.5498 47.124 90.9284L45.0244 88.7856C41.8948 91.8521 37.6452 93.5823 33.2064 93.5872L33.2096 96.5872ZM47.124 90.9284C50.8209 87.3059 52.9062 82.3879 52.9121 77.2516L49.9121 77.2481C49.9071 81.5701 48.153 85.72 45.0244 88.7856L47.124 90.9284ZM52.9121 77.2499V75.3101H49.9121V77.2499H52.9121ZM52.9121 75.3101C52.9121 74.562 52.6085 73.8508 52.0784 73.3313L49.9787 75.4741C49.9397 75.4359 49.9121 75.3775 49.9121 75.3101H52.9121ZM52.0784 73.3313C51.5492 72.8128 50.8379 72.5269 50.1025 72.5269V75.5269C50.0618 75.5269 50.0167 75.5113 49.9787 75.4741L52.0784 73.3313ZM50.1025 72.5269H48.1228V75.5269H50.1025V72.5269ZM48.1211 72.5269C44.1933 72.5315 40.3541 73.6867 37.0967 75.8475L38.755 78.3475C41.5186 76.5143 44.7816 75.5308 48.1246 75.5269L48.1211 72.5269ZM37.0967 75.8475C33.839 78.0085 31.3103 81.0778 29.8405 84.6647L32.6164 85.8022C33.8558 82.7777 35.9918 80.1804 38.755 78.3475L37.0967 75.8475ZM32.6164 84.6647C31.1466 81.0778 28.618 78.0084 25.3602 75.8475L23.7019 78.3475C26.4651 80.1804 28.6011 82.7777 29.8405 85.8022L32.6164 84.6647ZM25.3602 75.8475C22.1028 73.6867 18.2636 72.5315 14.3358 72.5269L14.3323 75.5269C17.6753 75.5308 20.9383 76.5143 23.7019 78.3475L25.3602 75.8475ZM14.334 72.5269H12.3545V75.5269H14.334V72.5269ZM12.3545 72.5269C11.6191 72.5269 10.9078 72.8128 10.3787 73.3313L12.4783 75.4741C12.4403 75.5113 12.3952 75.5269 12.3545 75.5269V72.5269ZM10.3787 73.3313C9.84849 73.8508 9.54492 74.562 9.54492 75.3101H12.5449C12.5449 75.3775 12.5173 75.4359 12.4783 75.4741L10.3787 73.3313ZM9.54492 75.3101V77.2499H12.5449V75.3101H9.54492ZM9.54492 77.2516C9.55083 82.3879 11.636 87.3059 15.3329 90.9283L17.4326 88.7855C14.304 85.72 12.5499 81.5701 12.5449 77.2482L9.54492 77.2516ZM15.3329 90.9283C19.0288 94.5497 24.0334 96.5815 29.2472 96.5872L29.2505 93.5872C24.8117 93.5823 20.5622 91.8521 17.4326 88.7855L15.3329 90.9283ZM29.2489 96.5872H29.9189V93.5872H29.2489V96.5872ZM28.4189 95.0872V103.615H31.4189V95.0872H28.4189ZM29.8667 102.116C23.2082 102.348 16.7338 104.33 11.1217 107.858L12.7182 110.398C17.8794 107.154 23.8385 105.328 29.9711 105.114L29.8667 102.116ZM11.1209 107.858C10.495 108.252 10.0459 108.879 9.88386 109.609L12.8124 110.26C12.7981 110.324 12.7604 110.371 12.719 110.397L11.1209 107.858ZM9.88386 109.609C9.72163 110.339 9.86304 111.1 10.2715 111.723L12.7804 110.078C12.8133 110.129 12.8269 110.195 12.8124 110.26L9.88386 109.609ZM10.2715 111.723C10.6791 112.345 11.3161 112.774 12.0361 112.928L12.6621 109.994C12.7034 110.003 12.7482 110.029 12.7804 110.078L10.2715 111.723ZM12.0361 112.928C12.7556 113.082 13.5097 112.95 14.1346 112.556L12.5365 110.017C12.5769 109.992 12.6214 109.985 12.6621 109.994L12.0361 112.928ZM14.1326 112.558C19.2337 109.358 25.1665 107.656 31.2284 107.656L31.2283 104.656C24.606 104.656 18.1202 106.515 12.5385 110.016L14.1326 112.558ZM31.2284 107.656C37.2902 107.656 43.223 109.358 48.3242 112.557L49.9183 110.016C44.3365 106.515 37.8506 104.656 31.2283 104.656L31.2284 107.656ZM48.3237 112.557C51.0549 114.272 54.2277 115.181 57.4662 115.181L57.4662 112.181C54.7885 112.181 52.1691 111.429 49.9188 110.016L48.3237 112.557ZM57.4662 115.181C60.7047 115.181 63.8775 114.272 66.6088 112.557L65.0138 110.016C62.7634 111.429 60.144 112.181 57.4662 112.181L57.4662 115.181ZM66.6083 112.558C71.7095 109.358 77.6424 107.656 83.7045 107.656V104.656C77.082 104.656 70.5961 106.515 65.0142 110.016L66.6083 112.558ZM83.7045 107.656C89.7665 107.656 95.6994 109.358 100.801 112.558L102.395 110.016C96.8129 106.515 90.3269 104.656 83.7045 104.656V107.656ZM100.786 112.548C101.096 112.748 101.441 112.884 101.803 112.951L102.346 110C102.367 110.004 102.389 110.012 102.41 110.026L100.786 112.548ZM101.803 112.951C102.164 113.017 102.535 113.013 102.895 112.938L102.283 110.001C102.304 109.997 102.325 109.996 102.346 110L101.803 112.951ZM102.895 112.938C103.254 112.863 103.597 112.719 103.902 112.512L102.22 110.028C102.241 110.014 102.262 110.005 102.283 110.001L102.895 112.938ZM103.902 112.512C104.207 112.305 104.47 112.04 104.673 111.73L102.164 110.085C102.18 110.061 102.2 110.042 102.22 110.028L103.902 112.512ZM104.673 111.73C104.876 111.42 105.016 111.072 105.082 110.706L102.13 110.171C102.136 110.139 102.148 110.11 102.164 110.085L104.673 111.73ZM105.082 110.706C105.148 110.34 105.14 109.964 105.057 109.602L102.132 110.268C102.125 110.236 102.124 110.203 102.13 110.171L105.082 110.706ZM105.057 109.602C104.975 109.239 104.82 108.898 104.603 108.597L102.169 110.351C102.153 110.328 102.139 110.299 102.132 110.268L105.057 109.602ZM104.603 108.597C104.387 108.297 104.113 108.043 103.799 107.85L102.227 110.405C102.206 110.392 102.186 110.374 102.169 110.351L104.603 108.597ZM103.811 107.858C98.1992 104.33 91.7248 102.347 85.0663 102.116L84.9618 105.114C91.0945 105.327 97.0536 107.153 102.215 110.397L103.811 107.858ZM86.5141 103.615V95.0872H83.5141V103.615H86.5141ZM85.0141 96.5872H85.6842V93.5872H85.0141V96.5872ZM85.6858 96.5872C90.8997 96.5815 95.9043 94.5497 99.6001 90.9283L97.5005 88.7855C94.3709 91.8521 90.1213 93.5823 85.6825 93.5872L85.6858 96.5872ZM99.6001 90.9283C103.297 87.3059 105.382 82.3879 105.388 77.2516L102.388 77.2482C102.383 81.5701 100.629 85.72 97.5005 88.7855L99.6001 90.9283ZM105.388 77.2499V75.3101H102.388V77.2499H105.388ZM105.388 75.3101C105.388 74.5619 105.084 73.8508 104.554 73.3313L102.455 75.4741C102.416 75.4359 102.388 75.3775 102.388 75.3101L105.388 75.3101ZM104.554 73.3313C104.025 72.8128 103.314 72.5269 102.578 72.5269V75.5269C102.538 75.5269 102.493 75.5113 102.455 75.4741L104.554 73.3313ZM48.1228 78.0933H48.793V75.0933H48.1228V78.0933ZM47.293 76.5933V77.2499H50.293V76.5933H47.293ZM47.293 77.2481C47.2887 80.8897 45.8108 84.3872 43.1732 86.9717L45.2729 89.1145C48.4787 85.9732 50.2878 81.7075 50.293 77.2516L47.293 77.2481ZM43.1732 86.9717C40.5346 89.5571 36.9508 91.0167 33.2064 91.0208L33.2096 94.0208C37.7291 94.0159 42.068 92.2548 45.2729 89.1145L43.1732 86.9717ZM33.208 91.0208H32.538V94.0208H33.208V91.0208ZM34.038 92.5208V91.8644H31.038V92.5208H34.038ZM34.038 91.8662C34.0422 88.2246 35.5201 84.727 38.1577 82.1426L36.058 79.9998C32.8522 83.1411 31.0432 87.4068 31.038 91.8627L34.038 91.8662ZM38.1577 82.1426C40.7963 79.5571 44.3801 78.0974 48.1245 78.0933L48.1212 75.0933C43.6017 75.0983 39.2629 76.8595 36.058 79.9998L38.1577 82.1426ZM15.1641 77.2499V76.5933H12.1641V77.2499H15.1641ZM13.6641 78.0933H14.334V75.0933H13.6641V78.0933ZM14.3324 78.0933C18.0768 78.0974 21.6606 79.5571 24.2992 82.1426L26.3989 79.9998C23.194 76.8595 18.8552 75.0983 14.3357 75.0933L14.3324 78.0933ZM24.2992 82.1426C26.9368 84.727 28.4147 88.2246 28.4189 91.8662L31.4189 91.8627C31.4137 87.4068 29.6047 83.1411 26.3989 79.9998L24.2992 82.1426ZM28.4189 91.8644V92.5208H31.4189V91.8644H28.4189ZM29.9189 91.0208H29.2489V94.0208H29.9189V91.0208ZM29.2505 91.0208C25.5062 91.0167 21.9223 89.5571 19.2837 86.9716L17.1841 89.1144C20.3889 92.2547 24.7278 94.0158 29.2472 94.0208L29.2505 91.0208ZM19.2837 86.9716C16.6462 84.3872 15.1683 80.8897 15.1641 77.2481L12.1641 77.2516C12.1692 81.7075 13.9783 85.9731 17.1841 89.1144L19.2837 86.9716ZM67.64 77.2499V76.5933H64.64V77.2499H67.64ZM66.14 78.0933H66.8099V75.0933H66.14V78.0933ZM66.8082 78.0933C70.5526 78.0974 74.1365 79.5571 76.7751 82.1426L78.8747 79.9998C75.6699 76.8595 71.331 75.0983 66.8115 75.0933L66.8082 78.0933ZM76.7751 82.1426C79.4127 84.727 80.8906 88.2246 80.8948 91.8662L83.8948 91.8627C83.8896 87.4068 82.0806 83.1411 78.8747 79.9998L76.7751 82.1426ZM80.8948 91.8644V92.5208H83.8948V91.8644H80.8948ZM82.3948 91.0208H81.7247V94.0208H82.3948V91.0208ZM81.7263 91.0208C77.982 91.0166 74.3982 89.557 71.7597 86.9716L69.66 89.1144C72.8648 92.2547 77.2036 94.0158 81.723 94.0208L81.7263 91.0208ZM71.7597 86.9716C69.1221 84.3871 67.6442 80.8896 67.64 77.2482L64.64 77.2516C64.6451 81.7075 66.4542 85.9731 69.66 89.1144L71.7597 86.9716ZM99.7688 77.2482C99.7646 80.8897 98.2867 84.3872 95.6492 86.9716L97.7488 89.1144C100.955 85.9731 102.764 81.7075 102.769 77.2516L99.7688 77.2482ZM95.6492 86.9716C93.0106 89.5571 89.4268 91.0167 85.6824 91.0208L85.6857 94.0208C90.2052 94.0158 94.544 92.2547 97.7488 89.1144L95.6492 86.9716ZM85.6841 91.0208H85.0141V94.0208H85.6841V91.0208ZM86.5141 92.5208V91.8644H83.5141V92.5208H86.5141ZM86.5141 91.8662C86.5183 88.2246 87.9962 84.727 90.6338 82.1426L88.5342 79.9998C85.3283 83.1411 83.5192 87.4068 83.5141 91.8627L86.5141 91.8662ZM90.6338 82.1426C93.2724 79.5571 96.8563 78.0974 100.601 78.0933L100.597 75.0933C96.0779 75.0983 91.739 76.8595 88.5342 79.9998L90.6338 82.1426ZM100.599 78.0933H101.269V75.0933H100.599V78.0933ZM99.7689 76.5931L99.7688 77.2497L102.769 77.2501L102.769 76.5935L99.7689 76.5931Z" fill="#8C571A" mask="url(#path-1-outside-1_1064_1025)"/>
<path d="M3.54009 36.5652L23.5567 56.1788L23.6035 56.2249C24.1784 56.7906 24.8608 57.2386 25.6113 57.5438C26.3617 57.8491 27.1658 58.0058 27.9774 58.0053C28.1978 58.0052 28.4181 57.9937 28.6373 57.9708C29.5559 57.8771 30.442 57.5822 31.2301 57.1071C32.0182 56.632 32.6886 55.9885 33.1908 55.2234C33.1909 55.2233 33.1909 55.2233 33.1909 55.2232L38.1892 47.6429L57.9469 45.2317L62.1669 47.8415L62.167 47.8415C62.478 48.0338 62.8347 48.1401 63.2 48.1507C63.5652 48.1613 63.9275 48.0757 64.2491 47.9019C64.5709 47.728 64.8412 47.4717 65.0302 47.158C65.2193 46.8442 65.3198 46.4851 65.3198 46.1184V34.5884C65.3198 34.2217 65.2193 33.8626 65.0302 33.5488C64.8411 33.2351 64.5709 32.9788 64.2491 32.8049C63.9274 32.6311 63.5652 32.5456 63.1999 32.5561C62.8347 32.5667 62.478 32.673 62.167 32.8653L62.1669 32.8654L57.9469 35.4748L47.0864 34.1494L50.3236 29.24C50.5815 28.8488 50.6959 28.3807 50.6454 27.9143C50.5948 27.448 50.3828 27.0154 50.0485 26.6877L49.5614 27.1847L50.0484 26.6877L33.6418 10.6112L33.6194 10.5892L33.6177 10.5878L27.4495 4.54356C26.486 3.59946 25.3431 2.85136 24.0862 2.34122C22.8294 1.8311 21.4828 1.56873 20.1233 1.56873C18.7638 1.56873 17.4172 1.8311 16.1604 2.34122C14.9036 2.85135 13.7606 3.59945 12.7971 4.54352C12.7971 4.54353 12.7971 4.54354 12.7971 4.54355L10.1574 7.12989L10.1568 7.13052C8.21376 9.03879 7.11972 11.6276 7.11972 14.3299C7.11972 17.0322 8.21376 19.621 10.1568 21.5292L10.1574 21.5299L11.4332 22.78L4.56047 27.131L4.92977 27.7144L4.56046 27.1311C3.7837 27.6228 3.12772 28.2795 2.64154 29.0538C2.15531 29.8282 1.85148 30.7004 1.75319 31.6064C1.65489 32.5124 1.76475 33.4283 2.07436 34.2867C2.38395 35.1451 2.88512 35.9234 3.54006 36.5652L3.54009 36.5652ZM58.1678 39.5992L58.1694 39.5994C58.637 39.6554 59.111 39.5522 59.5124 39.3052L59.5137 39.3044L61.2006 38.2612V42.4455L59.5137 41.4022L59.5129 41.4017C59.1114 41.1541 58.6368 41.0508 58.1688 41.1073L58.1678 41.1074L41.1273 43.187L44.5859 37.9417L58.1678 39.5992ZM5.84873 32.0411L5.84908 32.0379C5.88074 31.7401 5.98037 31.4522 6.1415 31.1955C6.30267 30.9388 6.5215 30.7196 6.78278 30.5549L6.78405 30.5541L31.9123 14.646L45.9571 28.4081L29.7378 53.0058L29.7378 53.0059C29.5706 53.2595 29.3467 53.4746 29.0817 53.6344C28.8166 53.7942 28.5175 53.8944 28.2062 53.9268C27.8949 53.9592 27.5803 53.9229 27.2858 53.8209C26.9914 53.7189 26.7252 53.554 26.5062 53.3395L26.5062 53.3395L6.44199 33.6793L6.4409 33.6783C6.2218 33.4645 6.05563 33.2062 5.95354 32.9231C5.85147 32.6401 5.81577 32.3388 5.84873 32.0411ZM13.0598 18.6446C11.8911 17.4968 11.2376 15.9448 11.2376 14.33C11.2376 12.7152 11.8911 11.1632 13.0598 10.0153L15.6989 7.42958C16.8698 6.28239 18.461 5.63526 20.1232 5.63526C21.7855 5.63526 23.3766 6.28239 24.5475 7.42958L28.9173 11.7114L14.9853 20.5313L13.0598 18.6446Z" fill="#8C571A" stroke="#8C571A" stroke-width="1.5"/>
<path d="M87.8487 54.0984L87.8487 54.0984L82.8319 49.9278L83.3013 49.3429C83.3009 49.3426 83.3006 49.3423 83.3002 49.342C83.091 49.1743 82.8509 49.0492 82.594 48.9731C82.3366 48.8969 82.0668 48.8711 81.7996 48.8972C81.5325 48.9232 81.2727 49.0006 81.0349 49.1254C80.7972 49.2502 80.5858 49.4202 80.4134 49.6264C80.0649 50.0433 79.8977 50.5818 79.9527 51.1233C80.0076 51.6647 80.2794 52.1585 80.7027 52.4983L80.7027 52.4983L80.7052 52.5002C82.1439 53.6449 83.4172 54.9749 84.4908 56.4538C84.8077 56.8936 85.2866 57.1885 85.8199 57.2791C86.3536 57.3698 86.9036 57.2494 87.3495 56.9416C87.796 56.6333 88.1033 56.1608 88.198 55.6251C88.2929 55.0892 88.166 54.5397 87.8487 54.0984Z" fill="#8C571A" stroke="#8C571A" stroke-width="1.5"/>
<path d="M87.9163 66.5646L87.9163 66.5646C87.8349 64.7542 87.5067 62.9625 86.9404 61.2371C86.8556 60.9825 86.8226 60.7137 86.8435 60.4461C86.8644 60.1778 86.9391 59.9167 87.0627 59.6777C87.1863 59.4388 87.3561 59.2272 87.5618 59.0543C87.7674 58.8816 88.0049 58.7508 88.2605 58.6689L87.9163 66.5646ZM87.9163 66.5646L87.9165 66.5682M87.9163 66.5646L87.9165 66.5682M87.9165 66.5682C87.9427 67.0941 88.1741 67.5867 88.5581 67.9453C88.9416 68.3035 89.448 68.5012 89.9719 68.5017H89.9726M87.9165 66.5682L89.9726 68.5017M89.9726 68.5017C90.0069 68.5017 90.0387 68.5008 90.0661 68.4998L90.0661 68.4998M89.9726 68.5017L90.0661 68.4998M90.0661 68.4998L90.0732 68.4995M90.0661 68.4998L90.0732 68.4995M90.0732 68.4995C90.614 68.4736 91.1255 68.2382 91.494 67.8402C91.8626 67.4421 92.0574 66.9138 92.031 66.3708C91.9318 64.1948 91.5359 62.0417 90.8538 59.969L90.8538 59.969M90.0732 68.4995L90.8538 59.969M90.8538 59.969L90.8528 59.966M90.8538 59.969L90.8528 59.966M90.8528 59.966C90.7676 59.7108 90.6323 59.4754 90.4552 59.2732M90.8528 59.966L90.4552 59.2732M90.4552 59.2732C90.2782 59.0709 90.0631 58.9057 89.8226 58.7862M90.4552 59.2732L89.8226 58.7862M89.8226 58.7862C89.5821 58.6668 89.3206 58.5952 89.053 58.5752M89.8226 58.7862L89.053 58.5752M89.053 58.5752C88.7854 58.5551 88.5163 58.5869 88.2607 58.6688L89.053 58.5752Z" fill="#8C571A" stroke="#8C571A" stroke-width="1.5"/>
<path d="M75.9453 49.5023L75.9453 49.5023L75.95 49.5047C76.191 49.623 76.4529 49.6934 76.7206 49.7122C76.9883 49.731 77.2573 49.6981 77.5126 49.6149C77.7678 49.5318 78.0048 49.3999 78.2096 49.2261C78.4145 49.0522 78.5833 48.8398 78.7058 48.6003C78.8282 48.3608 78.9016 48.0993 78.9213 47.8309C78.941 47.5625 78.9065 47.2931 78.8201 47.0383C78.7336 46.7835 78.5971 46.5489 78.4191 46.3474C78.2419 46.1469 78.0271 45.9833 77.7873 45.8651C75.8181 44.878 73.7405 44.1147 71.595 43.59L71.5821 43.5868L71.5692 43.5841C71.0414 43.4746 70.4899 43.5737 70.034 43.8621C69.5777 44.1509 69.2522 44.6078 69.1342 45.1363C69.0161 45.6652 69.1169 46.2174 69.4117 46.6713C69.7041 47.1214 70.1621 47.4369 70.6839 47.5553C72.5058 48.0124 74.2703 48.6654 75.9453 49.5023Z" fill="#8C571A" stroke="#8C571A" stroke-width="1.5"/>
<path d="M94.409 45.238L94.409 45.2381L94.417 45.2438C95.9438 46.328 97.3431 47.5744 98.5892 48.96C98.9518 49.3636 99.4599 49.6064 100 49.6401C100.541 49.6738 101.075 49.4962 101.485 49.142C101.897 48.7874 102.15 48.284 102.186 47.741C102.221 47.1979 102.034 46.6658 101.671 46.2617L101.671 46.2614C100.222 44.6509 98.5964 43.2027 96.823 41.9434L96.8231 41.9434L96.8153 41.938C96.3733 41.6324 95.8288 41.5111 95.299 41.5972C94.769 41.6834 94.291 41.9713 93.9708 42.4039C93.6502 42.8371 93.5151 43.3792 93.5982 43.9125C93.6812 44.4454 93.9745 44.9208 94.409 45.238Z" fill="#8C571A" stroke="#8C571A" stroke-width="1.5"/>
<path d="M84.0605 40.6344L84.0605 40.6344C83.5367 40.5032 83.0828 40.173 82.8014 39.7106C82.5196 39.2476 82.4356 38.6919 82.5699 38.1663C82.704 37.6411 83.0438 37.1939 83.5092 36.9189C83.9742 36.6443 84.5291 36.562 85.0538 36.688L85.0559 36.6885L85.0559 36.6885C87.1523 37.1983 89.1989 37.8886 91.1716 38.7515L84.0605 40.6344ZM84.0605 40.6344L84.0656 40.6356M84.0605 40.6344L84.0656 40.6356M84.0656 40.6356C85.9271 41.088 87.7442 41.7005 89.4955 42.4661M84.0656 40.6356L89.4955 42.4661M89.4955 42.4661C89.7407 42.5745 90.0048 42.6345 90.2727 42.6428C90.5415 42.6512 90.8095 42.6075 91.0617 42.5141C91.3138 42.4206 91.5457 42.279 91.7436 42.0965C91.9415 41.914 92.1016 41.6943 92.2139 41.4493C92.3263 41.2044 92.3885 40.9395 92.3964 40.67C92.4044 40.4005 92.358 40.1323 92.2602 39.8812C92.1624 39.63 92.0154 39.4013 91.8284 39.2076C91.6414 39.014 91.4181 38.8593 91.1718 38.7516L89.4955 42.4661Z" fill="#8C571A" stroke="#8C571A" stroke-width="1.5"/>
<path d="M105.434 51.5011L105.434 51.5011L105.432 51.499C105.3 51.2652 105.122 51.0604 104.909 50.8956C104.697 50.7309 104.455 50.6094 104.196 50.5373C103.938 50.4652 103.667 50.4437 103.401 50.474C103.134 50.5043 102.876 50.5858 102.64 50.7145C102.404 50.8431 102.196 51.0165 102.027 51.2255C101.858 51.4346 101.732 51.6751 101.656 51.9334C101.581 52.1919 101.559 52.4625 101.591 52.7298C101.622 52.9966 101.707 53.2541 101.839 53.4876C102.762 55.1236 103.528 56.8393 104.128 58.6129L104.129 58.6148C104.304 59.1293 104.68 59.5496 105.167 59.7876C105.653 60.0254 106.215 60.0636 106.729 59.895C107.244 59.7262 107.674 59.3623 107.921 58.8781C108.167 58.3939 108.208 57.8321 108.033 57.3177C107.351 55.3044 106.481 53.3572 105.434 51.5011Z" fill="#8C571A" stroke="#8C571A" stroke-width="1.5"/>
<path d="M78.3482 39.6916L78.3476 39.6915C77.1858 39.5873 76.0274 39.5347 74.9049 39.5347C74.1938 39.5347 73.6241 39.5564 73.2333 39.5781C73.038 39.5889 72.8875 39.5996 72.7865 39.6076C72.6927 39.6151 72.6415 39.6201 72.6335 39.6209C72.6331 39.6209 72.6328 39.621 72.6326 39.621L78.3482 39.6916ZM78.3482 39.6916C78.4123 39.6973 78.4747 39.6998 78.5354 39.6998L78.5359 39.6998M78.3482 39.6916L78.5359 39.6998M78.5359 39.6998C79.0612 39.6994 79.5687 39.5008 79.9525 39.141M78.5359 39.6998L79.9525 39.141M72.2081 35.5763L72.2081 35.5764C72.2687 35.5701 73.2682 35.4683 74.905 35.4683C76.153 35.4683 77.4363 35.5267 78.7201 35.6417L72.2081 35.5763ZM72.2081 35.5763L72.2005 35.5772M72.2081 35.5763L72.2005 35.5772M72.2005 35.5772C71.6657 35.6378 71.1733 35.9033 70.8321 36.321M72.2005 35.5772L70.8321 36.321M79.9525 39.141C80.3368 38.7808 80.5675 38.2862 80.5918 37.7589M79.9525 39.141L80.5918 37.7589M80.5918 37.7589C80.6161 37.2316 80.4317 36.7178 80.0813 36.3243M80.5918 37.7589L80.0813 36.3243M80.0813 36.3243C79.7314 35.9312 79.2433 35.6885 78.7202 35.6417L80.0813 36.3243ZM70.8321 36.321C70.4905 36.7393 70.3294 37.2758 70.3877 37.8136M70.8321 36.321L70.3877 37.8136M70.3877 37.8136C70.446 38.3512 70.7182 38.8407 71.1396 39.1774M70.3877 37.8136L71.1396 39.1774M71.1396 39.1774C71.5605 39.5137 72.0968 39.6718 72.6325 39.621L71.1396 39.1774Z" fill="#8C571A" stroke="#8C571A" stroke-width="1.5"/>
</svg>
