<svg width="82" height="81" viewBox="0 0 82 81" fill="none" xmlns="http://www.w3.org/2000/svg">
<rect width="82" height="81" rx="10" fill="url(#paint0_linear_2220_19844)"/>
<path fill-rule="evenodd" clip-rule="evenodd" d="M30.6002 20.2002C29.9106 20.2002 29.2493 20.4741 28.7617 20.9617C28.2741 21.4493 28.0002 22.1106 28.0002 22.8002V25.4002H25.4002C24.0211 25.4002 22.6984 25.9481 21.7232 26.9232C20.7481 27.8984 20.2002 29.2211 20.2002 30.6002V56.6002C20.2002 57.9793 20.7481 59.302 21.7232 60.2771C22.6984 61.2523 24.0211 61.8002 25.4002 61.8002H56.6002C57.9793 61.8002 59.302 61.2523 60.2771 60.2771C61.2523 59.302 61.8002 57.9793 61.8002 56.6002V30.6002C61.8002 29.2211 61.2523 27.8984 60.2771 26.9232C59.302 25.9481 57.9793 25.4002 56.6002 25.4002H54.0002V22.8002C54.0002 22.1106 53.7263 21.4493 53.2387 20.9617C52.7511 20.4741 52.0898 20.2002 51.4002 20.2002C50.7106 20.2002 50.0493 20.4741 49.5617 20.9617C49.0741 21.4493 48.8002 22.1106 48.8002 22.8002V25.4002H33.2002V22.8002C33.2002 22.1106 32.9263 21.4493 32.4387 20.9617C31.9511 20.4741 31.2898 20.2002 30.6002 20.2002V20.2002ZM30.6002 33.2002C29.9106 33.2002 29.2493 33.4741 28.7617 33.9617C28.2741 34.4493 28.0002 35.1106 28.0002 35.8002C28.0002 36.4898 28.2741 37.1511 28.7617 37.6387C29.2493 38.1263 29.9106 38.4002 30.6002 38.4002H51.4002C52.0898 38.4002 52.7511 38.1263 53.2387 37.6387C53.7263 37.1511 54.0002 36.4898 54.0002 35.8002C54.0002 35.1106 53.7263 34.4493 53.2387 33.9617C52.7511 33.4741 52.0898 33.2002 51.4002 33.2002H30.6002Z" fill="white"/>
<defs>
<linearGradient id="paint0_linear_2220_19844" x1="0" y1="0" x2="82" y2="81" gradientUnits="userSpaceOnUse">
<stop stop-color="#FFDC54" stop-opacity="0.78"/>
<stop offset="1" stop-color="#FFCA00"/>
</linearGradient>
</defs>
</svg>
