<svg width="80" height="80" viewBox="0 0 80 80" fill="none" xmlns="http://www.w3.org/2000/svg">
<rect width="80" height="80" rx="10" fill="url(#paint0_linear_2220_19843)"/>
<path d="M35.75 18.5C35.0207 18.5 34.3212 18.7897 33.8055 19.3055C33.2897 19.8212 33 20.5207 33 21.25C33 21.9793 33.2897 22.6788 33.8055 23.1945C34.3212 23.7103 35.0207 24 35.75 24H41.25C41.9793 24 42.6788 23.7103 43.1945 23.1945C43.7103 22.6788 44 21.9793 44 21.25C44 20.5207 43.7103 19.8212 43.1945 19.3055C42.6788 18.7897 41.9793 18.5 41.25 18.5H35.75Z" fill="white"/>
<path fill-rule="evenodd" clip-rule="evenodd" d="M22 26.75C22 25.2913 22.5795 23.8924 23.6109 22.8609C24.6424 21.8295 26.0413 21.25 27.5 21.25C27.5 23.438 28.3692 25.5365 29.9164 27.0836C31.4635 28.6308 33.562 29.5 35.75 29.5H41.25C43.438 29.5 45.5365 28.6308 47.0836 27.0836C48.6308 25.5365 49.5 23.438 49.5 21.25C50.9587 21.25 52.3576 21.8295 53.3891 22.8609C54.4205 23.8924 55 25.2913 55 26.75V57C55 58.4587 54.4205 59.8576 53.3891 60.8891C52.3576 61.9205 50.9587 62.5 49.5 62.5H27.5C26.0413 62.5 24.6424 61.9205 23.6109 60.8891C22.5795 59.8576 22 58.4587 22 57V26.75ZM48.6942 42.4442C49.1952 41.9256 49.4724 41.2309 49.4661 40.5099C49.4598 39.7889 49.1706 39.0991 48.6608 38.5892C48.1509 38.0794 47.4611 37.7902 46.7401 37.7839C46.0191 37.7776 45.3244 38.0548 44.8058 38.5558L35.75 47.6115L32.1942 44.0558C31.6756 43.5548 30.9809 43.2776 30.2599 43.2839C29.5389 43.2902 28.8491 43.5794 28.3392 44.0892C27.8294 44.5991 27.5402 45.2889 27.5339 46.0099C27.5276 46.7309 27.8048 47.4256 28.3058 47.9442L33.8058 53.4442C34.3215 53.9598 35.0208 54.2494 35.75 54.2494C36.4792 54.2494 37.1785 53.9598 37.6942 53.4442L48.6942 42.4442V42.4442Z" fill="white"/>
<defs>
<linearGradient id="paint0_linear_2220_19843" x1="-16.5" y1="-13" x2="125.5" y2="108.5" gradientUnits="userSpaceOnUse">
<stop stop-color="#75A1FF"/>
<stop offset="1" stop-color="#2E6CF1"/>
</linearGradient>
</defs>
</svg>
