<svg width="80" height="80" viewBox="0 0 80 80" fill="none" xmlns="http://www.w3.org/2000/svg">
<path d="M26.6663 23.3333V50C26.6663 51.7681 27.3687 53.4638 28.619 54.714C29.8692 55.9643 31.5649 56.6667 33.333 56.6667H53.333M26.6663 23.3333V16.6667C26.6663 14.8986 27.3687 13.2029 28.619 11.9526C29.8692 10.7024 31.5649 10 33.333 10H48.6197C49.5037 10.0002 50.3514 10.3515 50.9763 10.9767L65.6897 25.69C66.3148 26.315 66.6662 27.1627 66.6663 28.0467V50C66.6663 51.7681 65.964 53.4638 64.7137 54.714C63.4635 55.9643 61.7678 56.6667 59.9997 56.6667H53.333M26.6663 23.3333H19.9997C18.2316 23.3333 16.5359 24.0357 15.2856 25.286C14.0354 26.5362 13.333 28.2319 13.333 30V63.3333C13.333 65.1014 14.0354 66.7971 15.2856 68.0474C16.5359 69.2976 18.2316 70 19.9997 70H46.6663C48.4345 70 50.1301 69.2976 51.3804 68.0474C52.6306 66.7971 53.333 65.1014 53.333 63.3333V56.6667" stroke="white" stroke-width="6" stroke-linecap="round" stroke-linejoin="round"/>
</svg>
