<svg width="80" height="80" viewBox="0 0 80 80" fill="none" xmlns="http://www.w3.org/2000/svg">
<circle cx="40" cy="40" r="40" fill="#86AE51"/>
<path fill-rule="evenodd" clip-rule="evenodd" d="M37.7139 25.0003C37.7139 23.7146 38.171 22.8574 38.8567 22.8574H41.1424C41.8282 22.8574 42.2853 23.7146 42.2853 25.0003V42.1431C42.2853 43.4288 41.8282 44.286 41.1424 44.286H38.8567C38.171 44.286 37.7139 43.4288 37.7139 42.1431V25.0003ZM37.7139 50.7146C37.7139 49.4288 38.171 48.5717 38.8567 48.5717H41.1424C41.8282 48.5717 42.2853 49.4288 42.2853 50.7146V55.0003C42.2853 56.286 41.8282 57.1431 41.1424 57.1431H38.8567C38.171 57.1431 37.7139 56.286 37.7139 55.0003V50.7146Z" fill="black"/>
</svg>
