<svg width="80" height="80" viewBox="0 0 80 80" fill="none" xmlns="http://www.w3.org/2000/svg">
<circle cx="40" cy="40" r="40" fill="#86AE51"/>
<path d="M38.972 22.6455C38.5467 21.005 37.0665 19.8594 35.3712 19.8594H22.6104C21.5827 19.8594 20.7497 20.692 20.7497 21.7189V39.3277H13.8601C12.833 39.3277 12 40.1604 12 41.1879V53.7658H14.0978C14.5732 50.6541 17.267 48.263 20.509 48.263C23.7511 48.263 26.4448 50.6541 26.9206 53.7658H32.4727C32.9479 50.6541 35.6417 48.263 38.8838 48.263C42.1259 48.263 44.8197 50.6541 45.2954 53.7658H46.3431V39.3277H43.2971L38.972 22.6455ZM25.9995 38.2343V25.1084H34.1872L37.59 38.2344L25.9995 38.2343Z" fill="black"/>
<path d="M51.812 53.3282V19.6406H47.6562V56.1715H68V53.3282H51.812Z" fill="black"/>
<path d="M20.5095 49.1387C17.4109 49.1387 14.8984 51.6511 14.8984 54.7493C14.8984 57.8482 17.411 60.3608 20.5095 60.3608C23.6088 60.3608 26.1204 57.8482 26.1204 54.7493C26.1205 51.6511 23.6088 49.1387 20.5095 49.1387ZM20.5095 56.6745C19.4468 56.6745 18.5851 55.8127 18.5851 54.7493C18.5851 53.6875 19.4469 52.8257 20.5095 52.8257C21.5729 52.8257 22.4338 53.6875 22.4338 54.7493C22.4338 55.8127 21.5729 56.6745 20.5095 56.6745Z" fill="black"/>
<path d="M38.8835 49.1387C35.785 49.1387 33.2725 51.6511 33.2725 54.7493C33.2725 57.8482 35.785 60.3608 38.8835 60.3608C41.9829 60.3608 44.4946 57.8482 44.4946 54.7493C44.4946 51.6511 41.9829 49.1387 38.8835 49.1387ZM38.8835 56.6745C37.8208 56.6745 36.9592 55.8127 36.9592 54.7493C36.9592 53.6875 37.8208 52.8257 38.8835 52.8257C39.9471 52.8257 40.8079 53.6875 40.8079 54.7493C40.8079 55.8127 39.947 56.6745 38.8835 56.6745Z" fill="black"/>
<path d="M67.7815 40.5957H54.2188V51.5331H67.7815V40.5957Z" fill="black"/>
<path d="M67.7815 27.4707H54.2188V38.4082H67.7815V27.4707Z" fill="black"/>
</svg>
