<svg width="30" height="30" viewBox="0 0 30 30" fill="none" xmlns="http://www.w3.org/2000/svg">
<path d="M9.342 10.5C10.1655 8.7525 12.387 7.5 15 7.5C18.315 7.5 21 9.5145 21 12C21 14.1 19.083 15.8625 16.491 16.3605C15.678 16.5165 15 17.1705 15 18M15 22.5H15.015M28.5 15C28.5 16.7728 28.1508 18.5283 27.4724 20.1662C26.7939 21.8041 25.7995 23.2923 24.5459 24.5459C23.2923 25.7995 21.8041 26.7939 20.1662 27.4724C18.5283 28.1508 16.7728 28.5 15 28.5C13.2272 28.5 11.4717 28.1508 9.83377 27.4724C8.19588 26.7939 6.70765 25.7995 5.45406 24.5459C4.20047 23.2923 3.20606 21.8041 2.52763 20.1662C1.84919 18.5283 1.5 16.7728 1.5 15C1.5 11.4196 2.92232 7.9858 5.45406 5.45406C7.9858 2.92232 11.4196 1.5 15 1.5C18.5804 1.5 22.0142 2.92232 24.5459 5.45406C27.0777 7.9858 28.5 11.4196 28.5 15Z" stroke="#18181B" stroke-width="3" stroke-linecap="round" stroke-linejoin="round"/>
</svg>
