<svg width="100" height="100" viewBox="0 0 100 100" fill="none" xmlns="http://www.w3.org/2000/svg">
<path d="M41.2 43.0996H35.5V55.9996H41.2V43.0996Z" fill="#3E4248"/>
<path d="M39.9004 77.2004C46.3004 79.6004 53.4004 79.6004 59.8004 77.2004C53.2004 76.3004 46.5004 76.3004 39.9004 77.2004Z" fill="#3E4248"/>
<path d="M83.6 73.8004L79.5 71.9004C60.7 62.9004 38.9 62.9004 20.1 71.9004L16 73.8004L20.1 80.0004C38.9 71.4004 60.5 71.4004 79.3 80.0004L83.6 73.8004ZM44.5 70.0004L43.2 71.0004L43.7 72.6004C43.8 72.9004 43.6 73.2004 43.4 73.3004C43.2 73.4004 43.1 73.3004 42.9 73.2004L41.6 72.2004L40.3 73.2004C40.1 73.4004 39.7 73.3004 39.5 73.1004C39.4 73.0004 39.4 72.8004 39.4 72.6004L39.9 71.0004L38.6 70.0004C38.4 69.8004 38.3 69.5004 38.5 69.2004C38.6 69.1004 38.8 69.0004 38.9 69.0004H40.5L41 67.4004C41.1 67.1004 41.4 67.0004 41.7 67.1004C41.9 67.2004 42 67.3004 42 67.4004L42.5 69.0004H44.1C44.4 69.0004 44.6 69.2004 44.6 69.5004C44.8 69.8004 44.7 69.9004 44.5 70.0004ZM52.8 69.0004L51.5 70.0004L52 71.6004C52.1 71.9004 51.9 72.2004 51.7 72.3004C51.5 72.4004 51.4 72.3004 51.2 72.2004L49.9 71.2004L48.6 72.2004C48.4 72.4004 48 72.3004 47.8 72.1004C47.7 72.0004 47.7 71.8004 47.7 71.6004L48.2 70.0004L46.9 69.0004C46.7 68.8004 46.6 68.5004 46.8 68.2004C46.9 68.1004 47.1 68.0004 47.2 68.0004H48.8L49.3 66.4004C49.4 66.1004 49.7 66.0004 50 66.1004C50.2 66.2004 50.3 66.3004 50.3 66.4004L50.8 68.0004H52.4C52.7 68.0004 52.9 68.2004 52.9 68.5004C53 68.7004 53 68.9004 52.8 69.0004ZM61.1 70.0004L59.8 71.0004L60.3 72.6004C60.4 72.9004 60.2 73.2004 60 73.3004C59.8 73.4004 59.7 73.3004 59.5 73.2004L58.2 72.2004L56.9 73.2004C56.7 73.4004 56.3 73.3004 56.1 73.1004C56 73.0004 56 72.8004 56 72.6004L56.5 71.0004L55.2 70.0004C55 69.8004 54.9 69.5004 55.1 69.2004C55.2 69.1004 55.4 69.0004 55.5 69.0004H57.1L57.6 67.4004C57.7 67.1004 58 67.0004 58.3 67.1004C58.5 67.2004 58.6 67.3004 58.6 67.4004L59.1 69.0004H60.7C61 69.0004 61.2 69.2004 61.2 69.5004C61.3 69.8004 61.2 69.9004 61.1 70.0004Z" fill="#3E4248"/>
<path d="M18.9008 69.3005C20.3008 68.6005 21.8008 68.0005 23.3008 67.4005C20.0008 62.3005 18.3008 56.4005 18.3008 50.3005C18.3008 32.9005 32.5008 18.7005 49.9008 18.7005C67.3008 18.7005 81.5008 32.9005 81.5008 50.3005C81.5008 56.4005 79.8008 62.3005 76.5008 67.4005C78.0008 68.0005 79.5008 68.6005 80.9008 69.3005L84.4008 71.0005C95.8008 52.0005 89.6008 27.3005 70.6008 15.9005C51.6008 4.50049 26.9008 10.7005 15.5008 29.7005C7.90078 42.4005 7.90078 58.3005 15.5008 71.0005L18.9008 69.3005Z" fill="#3E4248"/>
<path d="M59.9016 55.3008C59.9016 54.9008 59.6016 54.6008 59.2016 54.6008C58.4016 54.6008 57.8016 54.0008 57.8016 53.2008C57.8016 52.4008 58.4016 51.8008 59.2016 51.8008H60.6016C61.0016 51.8008 61.3016 51.5008 61.3016 51.1008C61.3016 50.7008 61.0016 50.4008 60.6016 50.4008C59.8016 50.4008 59.2016 49.8008 59.2016 49.0008C59.2016 48.2008 59.8016 47.6008 60.6016 47.6008H62.0016C62.4016 47.6008 62.7016 47.3008 62.7016 46.9008C62.7016 46.5008 62.4016 46.0008 62.0016 46.0008C61.2016 46.0008 60.6016 45.4008 60.6016 44.6008C60.6016 43.8008 61.2016 43.2008 62.0016 43.2008H63.4016C63.8016 43.2008 64.1016 42.9008 64.1016 42.5008C64.1016 42.1008 63.8016 41.8008 63.4016 41.8008H55.5016C53.1016 41.8008 51.2016 39.9008 51.2016 37.5008V33.2008C51.2016 32.4008 50.6016 31.8008 49.8016 31.8008H48.4016V33.5008C48.4016 36.5008 47.2016 39.3008 45.1016 41.4008L44.1016 42.4008V56.0008H59.2016C59.6016 56.0008 59.9016 55.7008 59.9016 55.3008Z" fill="#3E4248"/>
<path d="M49.8004 81.9012C44.6004 81.9012 39.5004 80.6012 34.9004 78.2012C31.8004 78.9012 28.8004 79.8012 25.9004 80.8012L28.0004 84.0012C28.0004 84.1012 28.1004 84.1012 28.1004 84.2012C41.3004 92.6012 58.2004 92.6012 71.4004 84.2012C71.4004 84.1012 71.5004 84.1012 71.5004 84.0012L73.6004 80.8012C70.7004 79.7012 67.7004 78.8012 64.6004 78.2012C60.1004 80.6012 55.0004 81.9012 49.8004 81.9012Z" fill="#3E4248"/>
<path d="M20.3012 83.2004C19.7012 83.5004 18.9012 83.3004 18.5012 82.7004L16.0012 78.9004L12.2012 81.2004L15.7012 81.9004C16.4012 82.0004 16.9012 82.7004 16.9012 83.4004L16.6012 89.3004L24.9012 84.3004L23.3012 81.9004C22.3012 82.3004 21.3012 82.7004 20.3012 83.2004Z" fill="#3E4248"/>
<path d="M81.2004 82.7004C80.8004 83.3004 80.0004 83.5004 79.4004 83.2004C78.4004 82.7004 77.5004 82.3004 76.5004 81.9004L74.9004 84.3004L83.2004 89.3004L82.9004 83.4004C82.9004 82.7004 83.4004 82.1004 84.1004 81.9004L87.6004 81.2004L83.8004 78.9004L81.2004 82.7004Z" fill="#3E4248"/>
<path d="M73.6016 66.2996C76.8016 61.5996 78.5016 55.9996 78.5016 50.2996C78.5016 34.4996 65.6016 21.5996 49.8016 21.5996C34.0016 21.5996 21.1016 34.4996 21.1016 50.2996C21.1016 55.9996 22.8016 61.5996 26.0016 66.2996C41.4016 60.8996 58.2016 60.8996 73.6016 66.2996ZM32.6016 57.4996V41.6996C32.6016 40.8996 33.2016 40.2996 34.0016 40.2996H42.0016L43.0016 39.2996C44.6016 37.7996 45.4016 35.6996 45.4016 33.4996V30.2996C45.4016 29.4996 46.0016 28.8996 46.8016 28.8996H49.7016C52.1016 28.8996 54.0016 30.7996 54.0016 33.1996V37.4996C54.0016 38.2996 54.6016 38.8996 55.4016 38.8996H63.3016C65.3016 38.8996 66.9016 40.4996 66.9016 42.4996C66.9016 43.6996 66.3016 44.8996 65.2016 45.4996C65.8016 47.0996 65.2016 48.8996 63.8016 49.7996C64.4016 51.3996 63.8016 53.1996 62.4016 54.0996C63.1016 55.9996 62.2016 57.9996 60.3016 58.6996C59.9016 58.8996 59.5016 58.8996 59.0016 58.8996H34.1016C33.3016 58.8996 32.6016 58.2996 32.6016 57.4996Z" fill="#3E4248"/>
</svg>
