<svg width="80" height="81" viewBox="0 0 80 81" fill="none" xmlns="http://www.w3.org/2000/svg">
<path d="M40.0003 73.8332C52.8637 73.8332 63.3337 63.3632 63.3337 50.4998C63.3337 37.6365 52.8637 27.1665 40.0003 27.1665C27.1337 27.1665 16.667 37.6365 16.667 50.4998C16.667 63.3632 27.1337 73.8332 40.0003 73.8332ZM40.0003 33.8332C49.1903 33.8332 56.667 41.3098 56.667 50.4998C56.667 59.6898 49.1903 67.1665 40.0003 67.1665C30.8103 67.1665 23.3337 59.6898 23.3337 50.4998C23.3337 41.3098 30.8103 33.8332 40.0003 33.8332ZM36.667 7.1665H23.3337V25.5598C27.3226 22.8906 31.8962 21.2223 36.667 20.6965V7.1665ZM56.667 7.1665H43.3337V20.6965C48.1044 21.2223 52.6781 22.8906 56.667 25.5598V7.1665Z" fill="white"/>
<path d="M33.3967 53.2032L31.8367 62.2898L40 57.9998L48.1634 62.2898L46.6034 53.2032L53.21 46.7632L44.0834 45.4365L40 37.1665L35.9167 45.4365L26.79 46.7632L33.3967 53.2032Z" fill="white"/>
</svg>
