<svg width="41" height="41" viewBox="0 0 41 41" fill="none" xmlns="http://www.w3.org/2000/svg">
<path d="M15.6962 30.7778H25.3018M20.5 2V4.05556M33.5816 7.41844L32.1283 8.87172M39 20.5H36.9444M4.05556 20.5H2M8.87172 8.87172L7.41844 7.41844M13.2316 27.7684C11.7945 26.331 10.8159 24.4996 10.4195 22.506C10.0232 20.5124 10.2269 18.446 11.0048 16.5682C11.7828 14.6903 13.1001 13.0853 14.7903 11.9561C16.4804 10.8269 18.4674 10.2241 20.5 10.2241C22.5326 10.2241 24.5196 10.8269 26.2097 11.9561C27.8999 13.0853 29.2172 14.6903 29.9952 16.5682C30.7732 18.446 30.9768 20.5124 30.5805 22.506C30.1841 24.4996 29.2055 26.331 27.7684 27.7684L26.642 28.8928C25.998 29.5369 25.4872 30.3016 25.1387 31.1431C24.7903 31.9846 24.611 32.8866 24.6111 33.7974V34.8889C24.6111 35.9792 24.178 37.0249 23.407 37.7959C22.636 38.5669 21.5903 39 20.5 39C19.4097 39 18.364 38.5669 17.593 37.7959C16.822 37.0249 16.3889 35.9792 16.3889 34.8889V33.7974C16.3889 31.9577 15.6571 30.1919 14.358 28.8928L13.2316 27.7684Z" stroke="#0DB760" stroke-width="4" stroke-linecap="round" stroke-linejoin="round"/>
</svg>
