<svg width="80" height="80" viewBox="0 0 80 80" fill="none" xmlns="http://www.w3.org/2000/svg">
<circle cx="40" cy="40" r="40" fill="#111110"/>
<path d="M43.1711 26.4737C45.4845 26.925 47.6104 28.0564 49.2771 29.723C50.9437 31.3896 52.0751 33.5156 52.5263 35.8289M43.1711 17C47.9773 17.5339 52.4591 19.6862 55.8807 23.1034C59.3021 26.5207 61.4602 30.9998 62 35.8053M53.7105 62C33.4359 62 17 45.5641 17 25.2895C17 24.3747 17.0335 23.4678 17.0992 22.5699C17.1747 21.5394 17.2124 21.0241 17.4824 20.5551C17.7061 20.1666 18.1025 19.7982 18.5063 19.6035C18.9938 19.3684 19.5623 19.3684 20.6995 19.3684H27.3721C28.3283 19.3684 28.8065 19.3684 29.2164 19.5258C29.5784 19.6648 29.9008 19.8906 30.1552 20.1834C30.4432 20.5148 30.6066 20.9642 30.9334 21.8629L33.6952 29.458C34.0754 30.5036 34.2656 31.0264 34.2333 31.5224C34.2049 31.9598 34.0555 32.3807 33.8021 32.7383C33.5147 33.1438 33.0376 33.43 32.0836 34.0025L28.8421 35.9474C31.6887 42.2211 36.7766 47.3156 43.0526 50.1579L44.9976 46.9165C45.57 45.9622 45.8561 45.4852 46.2616 45.1979C46.6192 44.9445 47.0401 44.7951 47.4776 44.7667C47.9735 44.7344 48.4964 44.9246 49.5421 45.3048L57.1372 48.0666C58.0357 48.3934 58.4853 48.5568 58.8166 48.8448C59.1093 49.0992 59.3353 49.4216 59.4741 49.7837C59.6316 50.1934 59.6316 50.6716 59.6316 51.628V58.3005C59.6316 59.4376 59.6316 60.0063 59.3964 60.4937C59.2017 60.8975 58.8334 61.294 58.445 61.5176C57.9758 61.7876 57.4607 61.8252 56.4302 61.9008C55.5321 61.9666 54.6252 62 53.7105 62Z" stroke="white" stroke-width="5" stroke-linecap="round" stroke-linejoin="round"/>
</svg>
