<svg width="82" height="84" viewBox="0 0 82 84" fill="none" xmlns="http://www.w3.org/2000/svg">
<g id="&#34;" opacity="0.3" clip-path="url(#clip0_572_1547)">
<path id="&#226;&#128;&#156;" fill-rule="evenodd" clip-rule="evenodd" d="M81.6404 13.1193C69.4125 20.4078 63.2986 28.9718 63.2986 38.8113C68.5105 39.5401 72.8203 42.1215 76.2281 46.5553C79.6358 50.9892 81.3397 56.1214 81.3397 61.9523C81.3397 68.1475 79.686 73.3709 76.3784 77.6226C73.0709 81.8742 68.9114 84 63.9 84C58.2872 84 53.4262 81.2365 49.3168 75.7093C45.2074 70.1822 43.1528 63.4708 43.1528 55.5748C43.1528 31.8871 54.0775 13.3623 75.9274 0L81.6404 13.1193ZM38.4876 13.1193C26.1595 20.4078 19.9955 28.9718 19.9955 38.8113C25.3076 39.5401 29.6675 42.1215 33.0753 46.5553C36.4831 50.9892 38.1869 56.1214 38.1869 61.9523C38.1869 68.1475 36.5081 73.3709 33.1505 77.6226C29.7928 81.8742 25.6083 84 20.5969 84C14.9841 84 10.1481 81.2365 6.08886 75.7093C2.0296 70.1822 0 63.4708 0 55.5748C0 31.8871 10.8746 13.3623 32.6243 0L38.4876 13.1193Z" fill="#2EC5CE"/>
</g>
<defs>
<clipPath id="clip0_572_1547">
<rect width="82" height="84" fill="white"/>
</clipPath>
</defs>
</svg>
