<?xml version="1.0" encoding="UTF-8"?><svg id="Diseño" xmlns="http://www.w3.org/2000/svg" xmlns:xlink="http://www.w3.org/1999/xlink" viewBox="0 0 557.82 234.24"><defs><style>.cls-1{fill:#343434;}.cls-2{clip-path:url(#clippath-2);}.cls-3{fill:#4b494a;}.cls-4{clip-path:url(#clippath-1);}.cls-5{fill:#696968;}.cls-6{clip-path:url(#clippath);}.cls-7{fill:none;}</style><clipPath id="clippath"><rect class="cls-7" x="70.71" y="101.98" width="62.37" height="113.48"/></clipPath><clipPath id="clippath-1"><rect class="cls-7" x="50.58" y="65.41" width="82.5" height="150.11"/></clipPath><clipPath id="clippath-2"><rect class="cls-7" x="29.06" y="26.32" width="104.02" height="189.28"/></clipPath></defs><g><g><g class="cls-6"><path class="cls-5" d="M81.97,158.72c0-29.44,22.42-53.63,51.11-56.46-1.85-.18-3.72-.28-5.62-.28-31.34,0-56.74,25.4-56.74,56.74s25.4,56.74,56.74,56.74c1.9,0,3.77-.1,5.62-.28-28.69-2.83-51.11-27.02-51.11-56.46"/></g><g class="cls-4"><path class="cls-3" d="M65.47,140.47c0-38.94,29.66-70.95,67.61-74.69-2.45-.24-4.93-.37-7.44-.37-41.45,0-75.06,33.61-75.06,75.06s33.6,75.06,75.06,75.06c2.51,0,4.99-.13,7.44-.37-37.96-3.74-67.61-35.75-67.61-74.69"/></g><g class="cls-2"><path class="cls-1" d="M47.82,120.96c0-49.1,37.39-89.46,85.26-94.17-3.09-.3-6.22-.46-9.39-.46-52.27,0-94.64,42.37-94.64,94.64s42.37,94.64,94.64,94.64c3.17,0,6.3-.16,9.39-.47-47.86-4.71-85.26-45.07-85.26-94.17"/></g></g><g><path class="cls-1" d="M249.42,111.47l-5.72,2.04c-3.84-4.09-9.22-6.13-16.14-6.13-5.24,0-9.51,1.34-12.81,4.04-3.3,2.69-4.95,6.12-4.95,10.27s1.63,7.77,4.9,10.4c3.26,2.64,7.67,3.96,13.23,3.96,6.71,0,11.99-2.08,15.83-6.24l5.41,2.99c-2.73,3.18-5.81,5.47-9.26,6.89-3.44,1.41-7.56,2.12-12.34,2.12-6.71,0-12.28-1.68-16.71-5.03-5.07-3.85-7.6-8.88-7.6-15.1s2.57-11.11,7.71-14.99c4.47-3.39,10.01-5.09,16.61-5.09,9.5,0,16.79,3.29,21.86,9.85"/><path class="cls-1" d="M306.71,121.74c0,6.22-2.55,11.25-7.65,15.09-4.47,3.36-10.03,5.03-16.67,5.03s-12.3-1.69-16.77-5.08c-5.1-3.85-7.66-8.86-7.66-15.04s2.59-11.08,7.76-14.99c4.54-3.42,10.1-5.13,16.66-5.13s12.14,1.71,16.62,5.13c5.14,3.91,7.7,8.91,7.7,14.99m-6.55,0c0-4.44-1.89-8.04-5.66-10.8-3.25-2.38-7.29-3.57-12.11-3.57-5.27,0-9.57,1.36-12.89,4.06-3.32,2.71-4.98,6.14-4.98,10.3s1.62,7.76,4.87,10.41c3.25,2.64,7.59,3.96,13,3.96s9.69-1.33,12.92-3.99c3.23-2.65,4.85-6.11,4.85-10.38"/><polygon class="cls-1" points="359.43 102.82 338.99 140.77 331.76 140.77 311.31 102.82 318.34 102.82 335.38 134.44 352.41 102.82 359.43 102.82"/><rect class="cls-1" x="366.04" y="102.83" width="6.29" height="37.94"/><polygon class="cls-1" points="422.28 108.48 404.14 108.48 404.14 140.77 397.85 140.77 397.85 108.48 379.72 108.48 379.72 102.83 422.28 102.83 422.28 108.48"/><path class="cls-1" d="M472.18,140.77h-6.88l-4.37-8.49h-25.56l-4.37,8.49h-6.88l20.08-37.94h7.91l20.07,37.94Zm-14.31-14.15l-9.66-18.39-9.79,18.39h19.45Z"/><polygon class="cls-1" points="514.89 140.77 479.3 140.77 479.3 102.82 485.59 102.82 485.59 135.11 514.89 135.11 514.89 140.77"/><rect class="cls-1" x="522.28" y="102.83" width="6.29" height="37.94"/><polygon class="cls-1" points="191.53 140.77 151.8 140.77 151.8 102.82 190.06 102.82 190.06 108.48 158.09 108.48 158.09 118.23 180.31 118.23 180.31 123.89 158.09 123.89 158.09 135.11 191.53 135.11 191.53 140.77"/></g></g><g><path class="cls-1" d="M270.84,177.39c-.78-.24-1.39-.55-1.84-.94l.69-1.56c.44,.35,.98,.63,1.63,.86,.64,.22,1.29,.33,1.94,.33,.8,0,1.4-.13,1.8-.39,.4-.26,.59-.6,.59-1.02,0-.31-.11-.56-.33-.76-.22-.2-.5-.36-.84-.47-.34-.11-.8-.24-1.39-.39-.82-.2-1.49-.39-2-.59s-.95-.5-1.31-.92c-.36-.42-.55-.98-.55-1.69,0-.6,.16-1.14,.49-1.63,.32-.49,.81-.88,1.47-1.16,.65-.29,1.45-.43,2.4-.43,.66,0,1.31,.08,1.94,.25s1.19,.4,1.65,.71l-.63,1.56c-.47-.28-.97-.49-1.48-.63-.51-.14-1.01-.22-1.5-.22-.79,0-1.38,.13-1.77,.4s-.58,.62-.58,1.06c0,.31,.11,.56,.33,.76s.5,.35,.84,.46c.34,.11,.8,.24,1.39,.39,.8,.18,1.46,.38,1.97,.58s.95,.51,1.32,.92c.36,.41,.55,.97,.55,1.67,0,.6-.16,1.14-.49,1.62-.32,.48-.82,.87-1.47,1.16-.66,.29-1.46,.43-2.41,.43-.83,0-1.64-.12-2.41-.35Z"/><path class="cls-1" d="M287.4,169.36v8.24h-1.84v-1.05c-.31,.37-.69,.66-1.16,.86-.46,.2-.96,.3-1.5,.3-1.1,0-1.97-.31-2.6-.92s-.95-1.52-.95-2.72v-4.7h1.93v4.44c0,.74,.17,1.29,.5,1.66,.33,.37,.81,.55,1.43,.55,.69,0,1.24-.21,1.64-.64,.41-.43,.61-1.04,.61-1.84v-4.16h1.93Z"/><path class="cls-1" d="M300.9,169.79c.63,.35,1.13,.84,1.49,1.48s.54,1.37,.54,2.21-.18,1.57-.54,2.21-.86,1.14-1.49,1.49c-.63,.35-1.35,.52-2.15,.52-.57,0-1.08-.1-1.55-.29-.47-.2-.86-.49-1.18-.88v1.06h-1.84v-11.45h1.93v4.21c.33-.36,.72-.63,1.16-.82,.45-.19,.94-.28,1.47-.28,.8,0,1.52,.17,2.15,.52Zm-.62,5.55c.46-.47,.69-1.1,.69-1.87s-.23-1.39-.69-1.87c-.46-.47-1.04-.71-1.75-.71-.46,0-.88,.11-1.25,.32s-.66,.51-.88,.9-.32,.84-.32,1.36,.11,.97,.32,1.36c.22,.39,.51,.69,.88,.9,.37,.21,.79,.32,1.25,.32,.71,0,1.29-.24,1.75-.71Z"/><path class="cls-1" d="M304.86,167.67c-.24-.22-.35-.5-.35-.83s.12-.6,.35-.83,.53-.33,.88-.33,.64,.11,.88,.32c.24,.21,.35,.48,.35,.79,0,.34-.12,.62-.35,.86-.23,.23-.53,.35-.89,.35s-.64-.11-.88-.33Zm-.09,1.69h1.93v8.24h-1.93v-8.24Z"/><path class="cls-1" d="M316.94,174.09h-6.46c.11,.61,.41,1.09,.89,1.44,.48,.35,1.07,.53,1.78,.53,.9,0,1.65-.3,2.24-.89l1.03,1.19c-.37,.44-.84,.78-1.4,1-.57,.23-1.2,.34-1.91,.34-.9,0-1.7-.18-2.39-.54-.69-.36-1.22-.86-1.6-1.5-.38-.64-.56-1.37-.56-2.18s.18-1.52,.55-2.17c.36-.64,.87-1.14,1.52-1.5s1.38-.54,2.19-.54,1.52,.18,2.15,.53,1.13,.85,1.48,1.5,.53,1.39,.53,2.23c0,.13-.01,.32-.03,.57Zm-5.7-2.74c-.43,.37-.69,.85-.78,1.46h4.67c-.08-.6-.33-1.08-.76-1.45s-.95-.56-1.57-.56-1.14,.18-1.57,.55Z"/><path class="cls-1" d="M325.99,170.17c.63,.61,.94,1.51,.94,2.7v4.72h-1.93v-4.47c0-.72-.17-1.26-.51-1.63-.34-.36-.82-.55-1.45-.55-.71,0-1.27,.21-1.68,.64s-.62,1.04-.62,1.84v4.16h-1.93v-8.24h1.84v1.06c.32-.38,.72-.67,1.2-.86,.48-.2,1.03-.29,1.64-.29,1.04,0,1.87,.3,2.5,.91Z"/><path class="cls-1" d="M337.18,174.09h-6.46c.11,.61,.41,1.09,.89,1.44,.48,.35,1.07,.53,1.78,.53,.9,0,1.65-.3,2.24-.89l1.03,1.19c-.37,.44-.84,.78-1.4,1-.57,.23-1.2,.34-1.91,.34-.9,0-1.7-.18-2.39-.54-.69-.36-1.22-.86-1.6-1.5-.38-.64-.56-1.37-.56-2.18s.18-1.52,.55-2.17c.36-.64,.87-1.14,1.52-1.5s1.38-.54,2.19-.54,1.52,.18,2.15,.53,1.13,.85,1.48,1.5,.53,1.39,.53,2.23c0,.13-.01,.32-.03,.57Zm-5.7-2.74c-.43,.37-.69,.85-.78,1.46h4.67c-.08-.6-.33-1.08-.76-1.45s-.95-.56-1.57-.56-1.14,.18-1.57,.55Z"/><path class="cls-1" d="M339.64,177.44c-.64-.17-1.15-.4-1.53-.66l.74-1.47c.37,.25,.81,.45,1.33,.59s1.03,.22,1.53,.22c1.15,0,1.73-.3,1.73-.91,0-.29-.15-.49-.44-.6-.29-.11-.76-.22-1.41-.32-.68-.1-1.23-.22-1.66-.35s-.8-.37-1.11-.7c-.31-.33-.47-.8-.47-1.4,0-.78,.33-1.41,.98-1.87s1.53-.7,2.65-.7c.57,0,1.13,.06,1.7,.19,.57,.13,1.03,.3,1.39,.52l-.74,1.47c-.7-.41-1.49-.62-2.36-.62-.57,0-.99,.08-1.29,.25-.29,.17-.44,.39-.44,.67,0,.31,.16,.53,.47,.66,.31,.13,.8,.25,1.46,.36,.66,.1,1.2,.22,1.62,.35,.42,.13,.78,.36,1.09,.68s.45,.77,.45,1.36c0,.77-.33,1.39-1,1.85s-1.58,.69-2.73,.69c-.67,0-1.32-.09-1.96-.26Z"/><path class="cls-1" d="M351.95,177.15c-.23,.19-.5,.32-.83,.42s-.67,.14-1.03,.14c-.9,0-1.6-.24-2.1-.71-.49-.47-.74-1.16-.74-2.07v-3.96h-1.36v-1.54h1.36v-1.88h1.93v1.88h2.21v1.54h-2.21v3.92c0,.4,.1,.71,.29,.92,.2,.21,.48,.32,.85,.32,.43,0,.79-.11,1.08-.34l.54,1.37Z"/><path class="cls-1" d="M359.47,170.14c.64,.58,.96,1.46,.96,2.63v4.83h-1.82v-1c-.24,.36-.57,.63-1.01,.83s-.96,.29-1.58,.29-1.16-.11-1.62-.32c-.46-.21-.82-.5-1.07-.88-.25-.38-.38-.8-.38-1.27,0-.74,.28-1.33,.83-1.78,.55-.45,1.42-.67,2.6-.67h2.13v-.12c0-.58-.17-1.02-.52-1.33-.35-.31-.86-.46-1.54-.46-.46,0-.92,.07-1.36,.22-.45,.14-.83,.35-1.13,.6l-.76-1.4c.43-.33,.95-.58,1.56-.76,.61-.17,1.25-.26,1.93-.26,1.21,0,2.14,.29,2.78,.87Zm-1.76,5.83c.38-.22,.64-.54,.79-.95v-.96h-1.99c-1.11,0-1.67,.37-1.67,1.1,0,.35,.14,.63,.42,.83,.28,.21,.66,.31,1.16,.31s.91-.11,1.29-.33Z"/><path class="cls-1" d="M367.67,169.26v1.84c-.16-.03-.31-.05-.45-.05-.75,0-1.34,.22-1.76,.66-.42,.44-.63,1.07-.63,1.89v4h-1.93v-8.24h1.84v1.2c.55-.86,1.53-1.3,2.93-1.3Z"/><path class="cls-1" d="M381.36,174.09h-6.46c.11,.61,.41,1.09,.89,1.44,.48,.35,1.07,.53,1.78,.53,.9,0,1.65-.3,2.24-.89l1.03,1.19c-.37,.44-.84,.78-1.4,1-.57,.23-1.2,.34-1.91,.34-.9,0-1.7-.18-2.39-.54-.69-.36-1.22-.86-1.6-1.5-.38-.64-.56-1.37-.56-2.18s.18-1.52,.55-2.17c.36-.64,.87-1.14,1.52-1.5s1.38-.54,2.19-.54,1.52,.18,2.15,.53,1.13,.85,1.48,1.5,.53,1.39,.53,2.23c0,.13-.01,.32-.03,.57Zm-5.7-2.74c-.43,.37-.69,.85-.78,1.46h4.67c-.08-.6-.33-1.08-.76-1.45s-.95-.56-1.57-.56-1.14,.18-1.57,.55Z"/><path class="cls-1" d="M383.82,177.44c-.64-.17-1.15-.4-1.53-.66l.74-1.47c.37,.25,.81,.45,1.33,.59s1.03,.22,1.53,.22c1.15,0,1.73-.3,1.73-.91,0-.29-.15-.49-.44-.6-.29-.11-.76-.22-1.41-.32-.68-.1-1.23-.22-1.66-.35s-.8-.37-1.11-.7c-.31-.33-.47-.8-.47-1.4,0-.78,.33-1.41,.98-1.87s1.53-.7,2.65-.7c.57,0,1.13,.06,1.7,.19,.57,.13,1.03,.3,1.39,.52l-.74,1.47c-.7-.41-1.49-.62-2.36-.62-.57,0-.99,.08-1.29,.25-.29,.17-.44,.39-.44,.67,0,.31,.16,.53,.47,.66,.31,.13,.8,.25,1.46,.36,.66,.1,1.2,.22,1.62,.35,.42,.13,.78,.36,1.09,.68s.45,.77,.45,1.36c0,.77-.33,1.39-1,1.85s-1.58,.69-2.73,.69c-.67,0-1.32-.09-1.96-.26Z"/><path class="cls-1" d="M397.58,172.97v4.63h-2.31v-8.3h2.31v.93c.7-.71,1.49-1.06,2.36-1.06s1.61,.31,2.2,.93,.89,1.44,.89,2.47v5.04h-2.31v-4.69c0-1.28-.47-1.91-1.4-1.91-.46,0-.87,.17-1.21,.5-.35,.33-.52,.83-.52,1.47Z"/><path class="cls-1" d="M410.48,173.77v-4.47h2.33v8.3h-2.33v-1.1c-.58,.81-1.32,1.22-2.23,1.22s-1.67-.29-2.29-.86c-.62-.57-.93-1.42-.93-2.54v-5.03h2.33v4.52c0,1.28,.47,1.91,1.4,1.91,.46,0,.86-.17,1.2-.5,.34-.33,.51-.82,.51-1.46Z"/><path class="cls-1" d="M422.19,176.39c-.94,.88-2.03,1.33-3.29,1.33s-2.3-.39-3.12-1.16c-.82-.78-1.23-1.82-1.23-3.12s.42-2.35,1.26-3.12,1.83-1.16,2.97-1.16,2.11,.35,2.91,1.03c.8,.69,1.2,1.63,1.2,2.84v1.23h-6.05c.07,.45,.31,.82,.71,1.11s.85,.43,1.36,.43c.81,0,1.48-.27,2.01-.82l1.3,1.4Zm-2.22-4.92c-.32-.27-.71-.4-1.16-.4s-.88,.14-1.26,.42c-.38,.28-.6,.65-.66,1.13h3.64c-.05-.49-.24-.87-.56-1.14Z"/><path class="cls-1" d="M430.78,175.01c0,.82-.3,1.47-.9,1.97s-1.37,.74-2.29,.74c-.62,0-1.26-.11-1.93-.33s-1.27-.55-1.8-.98l1.02-1.45c.86,.67,1.78,1,2.76,1,.3,0,.53-.06,.71-.18,.17-.12,.26-.28,.26-.47s-.12-.38-.36-.54-.59-.32-1.05-.46c-.46-.14-.81-.27-1.05-.37-.24-.1-.52-.25-.83-.45-.63-.39-.94-.97-.94-1.74s.31-1.39,.93-1.87c.62-.48,1.41-.73,2.39-.73s1.95,.33,2.93,.99l-.86,1.54c-.72-.49-1.44-.74-2.15-.74s-1.07,.2-1.07,.59c0,.22,.11,.39,.34,.51,.23,.12,.6,.27,1.13,.43,.52,.16,.9,.29,1.12,.38,.22,.09,.49,.22,.79,.41,.58,.35,.86,.93,.86,1.75Z"/><path class="cls-1" d="M435.25,170.96v3.72c0,.32,.08,.57,.25,.75s.36,.27,.59,.27c.43,0,.8-.2,1.1-.59l.86,1.62c-.72,.66-1.48,.99-2.28,.99s-1.47-.26-2.02-.79c-.55-.52-.83-1.24-.83-2.14v-3.83h-.97v-1.67h.97v-2.48h2.33v2.48h2.01v1.67h-2.01Z"/><path class="cls-1" d="M443.64,171.33c-.69,0-1.2,.24-1.54,.73-.34,.49-.51,1.13-.51,1.94v3.59h-2.31v-8.3h2.31v1.1c.3-.34,.67-.63,1.12-.86,.45-.24,.9-.36,1.37-.37l.02,2.18h-.45Z"/><path class="cls-1" d="M452.59,177.59h-2.18v-1c-.6,.75-1.33,1.13-2.21,1.13s-1.62-.25-2.21-.76c-.6-.51-.9-1.19-.9-2.04s.31-1.48,.93-1.9c.62-.42,1.46-.63,2.53-.63h1.73v-.05c0-.88-.47-1.33-1.4-1.33-.4,0-.83,.08-1.27,.24-.45,.16-.83,.36-1.13,.59l-1.03-1.5c1.09-.79,2.33-1.19,3.73-1.19,1.01,0,1.83,.25,2.47,.76s.96,1.3,.96,2.39v5.29Zm-2.33-3.16v-.4h-1.45c-.93,0-1.39,.29-1.39,.86,0,.3,.11,.53,.33,.69,.22,.16,.54,.24,.95,.24s.77-.13,1.09-.38c.31-.25,.47-.59,.47-1.01Z"/><path class="cls-1" d="M463.6,169.16c.97,0,1.83,.4,2.58,1.21,.76,.81,1.13,1.82,1.13,3.05s-.38,2.25-1.13,3.07c-.76,.82-1.64,1.23-2.65,1.23s-1.83-.41-2.45-1.22v4.09h-2.31v-11.29h2.31v.93c.71-.71,1.55-1.06,2.51-1.06Zm-2.55,4.3c0,.67,.19,1.22,.56,1.65,.38,.43,.83,.64,1.37,.64s1-.21,1.4-.64c.4-.43,.6-.97,.6-1.64s-.2-1.23-.59-1.68c-.39-.45-.86-.68-1.4-.68s-1.01,.22-1.38,.67c-.38,.45-.56,1.01-.56,1.68Z"/><path class="cls-1" d="M473.41,171.33c-.69,0-1.2,.24-1.54,.73-.34,.49-.51,1.13-.51,1.94v3.59h-2.31v-8.3h2.31v1.1c.3-.34,.67-.63,1.12-.86,.45-.24,.9-.36,1.37-.37l.02,2.18h-.45Z"/><path class="cls-1" d="M475.58,168.24c-.26-.26-.39-.58-.39-.96s.13-.7,.39-.96c.26-.26,.58-.39,.96-.39s.7,.13,.96,.39c.26,.26,.39,.58,.39,.96s-.13,.7-.39,.96c-.26,.26-.58,.39-.96,.39s-.7-.13-.96-.39Zm2.12,9.36h-2.31v-8.3h2.31v8.3Z"/><path class="cls-1" d="M488.19,173.44c0,1.2-.42,2.22-1.25,3.04-.83,.82-1.88,1.23-3.14,1.23s-2.31-.41-3.14-1.23c-.83-.82-1.25-1.84-1.25-3.04s.42-2.22,1.25-3.05c.83-.83,1.88-1.24,3.14-1.24s2.31,.41,3.14,1.24c.83,.83,1.25,1.84,1.25,3.05Zm-6.45,0c0,.68,.19,1.23,.58,1.66,.39,.43,.88,.64,1.48,.64s1.1-.21,1.48-.64,.58-.98,.58-1.66-.19-1.23-.58-1.67c-.39-.43-.88-.65-1.48-.65s-1.1,.22-1.48,.65c-.39,.43-.58,.99-.58,1.67Z"/><path class="cls-1" d="M494.27,171.33c-.69,0-1.2,.24-1.54,.73-.34,.49-.51,1.13-.51,1.94v3.59h-2.31v-8.3h2.31v1.1c.3-.34,.67-.63,1.12-.86,.45-.24,.9-.36,1.37-.37l.02,2.18h-.45Z"/><path class="cls-1" d="M496.44,168.24c-.26-.26-.39-.58-.39-.96s.13-.7,.39-.96c.26-.26,.58-.39,.96-.39s.7,.13,.96,.39c.26,.26,.39,.58,.39,.96s-.13,.7-.39,.96c-.26,.26-.58,.39-.96,.39s-.7-.13-.96-.39Zm2.12,9.36h-2.31v-8.3h2.31v8.3Z"/><path class="cls-1" d="M504.07,177.72c-.98,0-1.86-.42-2.63-1.25-.77-.83-1.16-1.87-1.16-3.1s.38-2.24,1.13-3.03c.75-.79,1.63-1.18,2.64-1.18s1.83,.35,2.47,1.06v-4.07h2.31v11.45h-2.31v-1.1c-.65,.81-1.46,1.22-2.45,1.22Zm-1.46-4.26c0,.67,.2,1.22,.6,1.64,.4,.43,.87,.64,1.4,.64s.99-.21,1.37-.64c.38-.43,.56-.98,.56-1.65s-.19-1.23-.56-1.68c-.38-.45-.84-.67-1.38-.67s-1.01,.23-1.4,.68-.59,1.01-.59,1.68Z"/><path class="cls-1" d="M518.07,177.59h-2.18v-1c-.6,.75-1.33,1.13-2.21,1.13s-1.62-.25-2.21-.76c-.6-.51-.9-1.19-.9-2.04s.31-1.48,.93-1.9c.62-.42,1.46-.63,2.53-.63h1.73v-.05c0-.88-.47-1.33-1.4-1.33-.4,0-.83,.08-1.27,.24-.45,.16-.83,.36-1.13,.59l-1.03-1.5c1.09-.79,2.33-1.19,3.73-1.19,1.01,0,1.83,.25,2.47,.76s.96,1.3,.96,2.39v5.29Zm-2.33-3.16v-.4h-1.45c-.93,0-1.39,.29-1.39,.86,0,.3,.11,.53,.33,.69,.22,.16,.54,.24,.95,.24s.77-.13,1.09-.38c.31-.25,.47-.59,.47-1.01Z"/><path class="cls-1" d="M523.51,177.72c-.98,0-1.86-.42-2.63-1.25-.77-.83-1.16-1.87-1.16-3.1s.38-2.24,1.13-3.03c.75-.79,1.63-1.18,2.64-1.18s1.83,.35,2.47,1.06v-4.07h2.31v11.45h-2.31v-1.1c-.65,.81-1.46,1.22-2.45,1.22Zm-1.46-4.26c0,.67,.2,1.22,.6,1.64,.4,.43,.87,.64,1.4,.64s.99-.21,1.37-.64c.38-.43,.56-.98,.56-1.65s-.19-1.23-.56-1.68c-.38-.45-.84-.67-1.38-.67s-1.01,.23-1.4,.68-.59,1.01-.59,1.68Z"/></g></svg>