<svg width="61" height="60" viewBox="0 0 61 60" fill="none" xmlns="http://www.w3.org/2000/svg">
<g id="grain_svgrepo.com">
<path id="Vector" d="M19.3699 2.76087C15.4346 2.76286 12.2014 3.15321 8.98588 3.8063C6.99323 2.99313 5.03549 2.45923 4.14955 3.94458C3.24076 5.46802 4.11463 6.9038 5.58428 8.31743C2.48783 20.674 3.23772 37.9656 4.86908 49.2468C3.67061 50.4558 2.8933 51.7066 3.67705 52.9024C4.71698 54.4888 6.55858 54.1979 8.63901 53.3704C14.208 54.3392 20.399 54.5457 26.7287 54.2847C28.2433 48.7306 31.0317 43.1423 33.684 39.021C35.5721 36.3493 37.3686 33.781 39.5474 31.7584C38.1448 22.8037 36.0951 14.3282 32.9753 7.48048C33.8824 6.36227 34.2676 5.22181 33.5551 4.02731C32.7752 2.71985 31.1642 2.97966 29.4306 3.61446C26.0155 3.02079 22.6138 2.75911 19.3699 2.76087ZM17.4533 11.028C19.3758 13.1981 20.577 15.3551 21.0189 17.1613L19.4222 20.675L16.4544 17.9569C16.2094 16.1543 16.5411 13.7604 17.4533 11.028ZM24.4608 15.8127C24.7097 17.7543 24.7252 19.5155 24.5456 21.017L21.3106 25.4468L20.615 22.0082L22.744 17.3231C23.2645 16.8177 23.8362 16.3128 24.4608 15.8127ZM14.6118 18.6497L19.056 22.56L19.7341 25.9117L15.0829 23.1407C14.2887 21.8007 12.6705 18.9627 12.7252 18.0721C14.5085 18.5807 14.3151 18.5385 14.6118 18.6497ZM26.8849 22.3693C27.0445 25.0496 26.669 27.165 25.9579 28.6604L22.4859 31.2582L21.7503 27.6208L24.6653 23.6294C25.3382 23.1993 26.0786 22.7775 26.8849 22.3694V22.3693ZM13.7376 25.0604C14.3169 25.1034 14.8734 25.1632 15.4049 25.2386L20.1724 28.079L20.8869 31.6114L17.2513 30.7375C15.9466 29.6651 14.693 27.7834 13.7376 25.0604ZM28.2739 29.8524C27.4685 34.3591 25.6348 36.8914 23.7319 37.4177L22.8452 33.0341L26.3545 30.4081C26.9864 30.1966 27.6267 30.0112 28.2739 29.8524ZM40.162 34.1059C40.5679 33.9508 41.0962 33.8647 41.6444 33.8643C42.8657 33.8643 43.8557 34.2811 43.8558 34.7954C43.8561 35.3097 42.866 35.7267 41.6445 35.7267C40.4964 35.7263 39.5398 35.3562 39.4423 34.8746C38.1153 36.3516 36.7437 38.1882 35.4516 40.1725C34.9548 40.9353 34.4716 41.722 34.0046 42.518C35.0797 42.5893 35.872 42.9793 35.8726 43.4375C35.8724 43.9517 34.8822 44.3686 33.6608 44.3685C33.4348 44.3684 33.2091 44.3533 32.9852 44.3231C31.1852 47.6363 29.7555 50.969 29.0937 53.4551C30.9482 53.9229 32.8483 54.2899 34.7711 54.5659L34.7709 54.5683C34.7709 55.0825 35.7611 55.4993 36.9823 55.4993C37.4232 55.4991 37.8537 55.4433 38.2187 55.3393C38.2096 55.3725 38.2049 55.4068 38.2046 55.4412C38.2046 55.9554 39.1948 56.3723 40.4159 56.3723C41.6374 56.3723 42.6274 55.9554 42.6275 55.4412C42.6267 55.3575 42.5991 55.2745 42.5455 55.194C44.0973 55.2265 45.6499 55.2071 47.2005 55.1356C47.1806 55.1843 47.1701 55.2364 47.1697 55.2891C47.1697 55.8034 48.1599 56.2203 49.381 56.2203C50.6023 56.2203 51.5924 55.8034 51.5926 55.2892C51.5919 55.1266 51.4899 54.9668 51.297 54.826C52.1867 54.7326 53.0745 54.6218 53.9599 54.4936C54.3486 54.7908 55.0907 54.9755 55.8966 54.9756C57.1183 54.9756 58.1085 54.5587 58.1083 54.0443C58.1076 53.8816 58.0056 53.7218 57.8126 53.5809C57.8186 52.2517 57.4112 50.3976 56.6364 48.3692C55.8322 46.2636 54.6745 43.9641 53.3672 41.7568C53.1104 41.7971 52.8508 41.8173 52.5909 41.8172C51.3694 41.8172 50.3793 41.4002 50.3796 40.8859C50.3807 40.4256 51.1806 40.0348 52.2616 39.9663C50.6928 37.5285 48.9987 35.3069 47.51 33.7217C46.7222 32.8829 45.9884 32.2229 45.4011 31.8139C44.8137 31.4049 44.3701 31.3192 43.4729 31.6174C42.5757 31.9155 41.206 33.0356 40.162 34.1059ZM17.0249 32.3669L21.2449 33.3811L22.1201 37.7081C20.2092 37.744 17.6965 36.1435 15.3008 32.6146C15.8964 32.5068 16.4711 32.4255 17.0249 32.3669ZM24.1097 38.8996C24.4516 41.003 24.8719 43.0595 25.3995 45.0639L23.8249 45.5111C23.2775 43.4372 22.844 41.3188 22.4936 39.1627L24.1097 38.8996ZM39.5047 47.3621C40.7261 47.3621 41.7162 47.7792 41.716 48.2935C41.716 48.8077 40.7259 49.2245 39.5047 49.2245C39.3733 49.2243 39.2419 49.2191 39.1109 49.209C39.2539 49.3341 39.3285 49.4712 39.3292 49.6102C39.3292 50.1244 38.339 50.5413 37.1176 50.5413C35.8963 50.5413 34.9062 50.1244 34.9062 49.6102C34.9062 49.096 35.8963 48.6791 37.1176 48.6791C37.2496 48.6794 37.3815 48.6845 37.5113 48.6946C37.3683 48.5695 37.2937 48.4324 37.2929 48.2935C37.2926 47.779 38.2831 47.3621 39.5047 47.3621ZM50.4512 49.1727C51.6726 49.1727 52.6627 49.5898 52.6625 50.1041C52.6625 50.6184 51.6724 51.0352 50.4512 51.0352C49.2297 51.0352 48.2396 50.6184 48.2395 50.1041C48.2392 49.5897 49.2295 49.1727 50.4512 49.1727ZM25.983 55.5575C24.7614 55.5575 23.7713 55.9744 23.7715 56.4888C23.7715 57.003 24.7618 57.4198 25.9829 57.4198C26.1483 57.4196 26.3136 57.4114 26.4782 57.3952C26.6526 57.8456 27.5763 58.1764 28.66 58.1765C29.8816 58.1765 30.8718 57.7595 30.8717 57.2452C30.8716 56.731 29.8813 56.3141 28.66 56.3141C28.4933 56.3145 28.3272 56.3228 28.1649 56.3388C27.9905 55.8884 27.0669 55.5576 25.9829 55.5575H25.983Z" fill="black"/>
</g>
</svg>
