<?xml version="1.0" encoding="UTF-8"?><svg id="Diseño" xmlns="http://www.w3.org/2000/svg" viewBox="0 0 300 300"><defs><style>.cls-1{fill:#2791cc;}.cls-2{fill:#52a3d2;}.cls-3{fill:#1e81ad;}.cls-4{fill:#111110;}</style></defs><g><path class="cls-3" d="M45.41,111.38C66.24,51.44,136.69,14.49,215.28,34.34c-3.43-1.56-19.08-8.73-22.7-9.99C129.02,2.27,48.98,33.51,23.9,103.9c-22.59,63.39,11.53,132.99,75.09,155.08,3.63,1.26,7.27,2.34,10.93,3.24C53.29,236.47,24.58,171.31,45.41,111.38Z"/><path class="cls-1" d="M154.16,38.21c68.48,2.35,106.62,50.68,113.23,109.84,5,44.71-13.95,89.7-47.8,117.06,38.77-15.15,71.08-75.32,65.5-125.32-7.07-63.24-65.46-113.56-130.92-101.59Z"/><path class="cls-2" d="M133.38,271.8c-32.81,0-62.91-11.62-86.41-30.96,22.35,26.2,55.6,42.81,92.74,42.81,57.74,0,106.1-40.17,118.66-94.08-20.86,48.37-68.97,82.23-124.99,82.23Z"/></g><path class="cls-4" d="M214.62,145.58c-3.27,0-6.13,1.78-7.66,4.42h-8.04c-.9-9.5-4.67-18.17-10.43-25.13l5.7-5.7c2.93,.79,6.23,.03,8.54-2.28,3.45-3.45,3.45-9.07,0-12.52-3.45-3.45-9.07-3.45-12.52,0-2.31,2.31-3.07,5.59-2.28,8.54l-5.7,5.7c-6.97-5.76-15.64-9.53-25.13-10.43v-8.04c2.64-1.53,4.42-4.39,4.42-7.66,0-4.88-3.97-8.85-8.85-8.85s-8.85,3.97-8.85,8.85c0,3.27,1.78,6.13,4.42,7.66v8.04c-9.5,.9-18.17,4.67-25.13,10.43l-5.7-5.7c.79-2.95,.02-6.23-2.28-8.54-3.45-3.45-9.07-3.45-12.52,0-3.45,3.45-3.45,9.07,0,12.52,2.32,2.31,5.61,3.07,8.54,2.28l5.7,5.7c-5.76,6.97-9.53,15.64-10.43,25.13h-8.04c-1.53-2.64-4.39-4.42-7.66-4.42-4.88,0-8.85,3.97-8.85,8.85s3.97,8.85,8.85,8.85c3.27,0,6.13-1.78,7.66-4.42h8.04c.9,9.5,4.67,18.17,10.43,25.13l-5.7,5.7c-2.95-.79-6.23-.02-8.54,2.28-3.45,3.45-3.45,9.07,0,12.52,3.46,3.46,9.07,3.45,12.52,0,2.31-2.31,3.07-5.59,2.28-8.54l5.7-5.7c6.97,5.76,15.64,9.53,25.13,10.43v8.04c-2.64,1.53-4.42,4.39-4.42,7.66,0,4.88,3.97,8.85,8.85,8.85s8.85-3.97,8.85-8.85c0-3.27-1.78-6.13-4.42-7.66v-8.04c9.5-.9,18.17-4.67,25.13-10.43l5.7,5.7c-.79,2.95-.02,6.23,2.28,8.54,3.45,3.45,9.06,3.46,12.52,0,3.45-3.45,3.45-9.07,0-12.52-2.31-2.31-5.59-3.07-8.54-2.28l-5.7-5.7c5.76-6.97,9.53-15.64,10.43-25.13h8.04c1.53,2.64,4.39,4.42,7.66,4.42,4.88,0,8.85-3.97,8.85-8.85s-3.97-8.85-8.85-8.85h0Zm-72.76,0c-4.27,0-7.74-3.47-7.74-7.74s3.47-7.74,7.74-7.74,7.74,3.47,7.74,7.74-3.47,7.74-7.74,7.74Zm-1.26,40.71c-4.88,0-8.85-3.97-8.85-8.85s3.97-8.85,8.85-8.85,8.85,3.97,8.85,8.85-3.97,8.85-8.85,8.85Zm38.62-18.58c-3.66,0-6.64-2.98-6.64-6.64s2.98-6.64,6.64-6.64,6.64,2.98,6.64,6.64-2.98,6.64-6.64,6.64Z"/></svg>