<?xml version="1.0" encoding="UTF-8"?><svg xmlns="http://www.w3.org/2000/svg" viewBox="0 0 300 300"><defs><style>.cls-1{fill:#70b62e;}.cls-2{fill:#9bc31e;}.cls-3{fill:#028537;}.cls-4{fill:#111110;}</style></defs><g><path class="cls-3" d="M42.45,113.48C63.6,52.61,135.15,15.09,214.95,35.25c-3.48-1.58-19.37-8.86-23.05-10.14C127.35,2.68,46.08,34.4,20.6,105.89c-22.94,64.37,11.71,135.06,76.26,157.49,3.68,1.28,7.38,2.37,11.1,3.29C50.45,240.51,21.29,174.34,42.45,113.48Z"/><path class="cls-1" d="M152.89,39.17c69.54,2.38,108.27,51.46,114.98,111.55,5.07,45.41-14.16,91.09-48.54,118.88,39.37-15.38,72.18-76.49,66.51-127.26-7.18-64.22-66.48-115.33-132.96-103.16Z"/><path class="cls-2" d="M131.78,276.39c-33.32,0-63.89-11.8-87.75-31.44,22.69,26.61,56.46,43.48,94.17,43.48,58.64,0,107.74-40.79,120.5-95.54-21.18,49.12-70.04,83.51-126.92,83.51Z"/></g><g><path class="cls-4" d="M206.85,163.91l-13.77-6.88c-.48-.23-1.01-.37-1.54-.37h-3.56c.05,1.15,.12,2.27,.12,3.44s-.07,2.29-.12,3.44h2.73l13.03,6.52c1.72,.85,3.76,.14,4.61-1.54,.87-1.7,.18-3.76-1.51-4.61Z"/><path class="cls-4" d="M191.54,115.12c-1.9,0-3.44,1.54-3.44,3.44v18.52l-2.5,1.24c.55,2.27,1.01,4.61,1.38,7.02l6.1-3.05c1.17-.57,1.9-1.77,1.9-3.08v-20.65c0-1.91-1.54-3.44-3.44-3.44Z"/><path class="cls-4" d="M193.08,184.56l-7.32-3.65c-.55,2.34-1.15,4.59-1.86,6.77l4.2,2.09v18.75c0,1.9,1.54,3.44,3.44,3.44s3.44-1.54,3.44-3.44v-20.88c0-1.31-.73-2.5-1.9-3.07Z"/><path class="cls-4" d="M114.25,180.89l-7.32,3.65c-1.17,.57-1.9,1.77-1.9,3.08v20.88c0,1.9,1.54,3.44,3.44,3.44s3.44-1.54,3.44-3.44v-18.75l4.2-2.09c-.71-2.16-1.33-4.43-1.86-6.77Z"/><path class="cls-4" d="M112.02,156.66h-3.56c-.53,0-1.06,.11-1.54,.37l-13.77,6.88c-1.7,.85-2.39,2.91-1.54,4.61,.85,1.7,2.89,2.39,4.61,1.54l13.04-6.52h2.73c-.05-1.15-.12-2.27-.12-3.44s.09-2.29,.14-3.44Z"/><path class="cls-4" d="M111.91,137.08v-18.52c0-1.91-1.54-3.44-3.44-3.44s-3.44,1.54-3.44,3.44v20.65c0,1.31,.73,2.5,1.9,3.08l6.1,3.05c.37-2.41,.83-4.75,1.38-7.02l-2.5-1.24Z"/><path class="cls-4" d="M150,108.24c-8.42,0-16.2,5.37-21.73,14.18,4.06,8.06,12.62,13.36,21.73,13.36s17.49-5.3,21.53-13.31c-5.53-8.84-13.08-14.23-21.53-14.23Z"/><path class="cls-4" d="M175.45,129.63c-5.07,7.07-13.22,11.75-22.01,12.76v69.58c15.7-2.78,27.77-24.85,27.77-51.86,0-11.41-2.13-22.03-5.76-30.48Z"/><path class="cls-4" d="M124.58,129.56c-3.63,8.47-5.78,19.12-5.78,30.54,0,27.01,12.07,49.09,27.77,51.86v-69.58c-8.77-.99-16.91-5.74-21.98-12.83Z"/><path class="cls-4" d="M127.49,94.47h-19.02c-1.9,0-3.44,1.54-3.44,3.44s1.54,3.44,3.44,3.44h19.02c3.76,0,7.57,1.01,10.69,2.75,2.64-1.26,5.37-2.11,8.22-2.5-5.07-4.48-11.84-7.14-18.91-7.14Z"/><path class="cls-4" d="M191.54,94.47h-19.25c-7.07,0-13.61,2.66-18.68,7.16,2.82,.37,5.58,1.22,8.22,2.48,3.14-1.74,6.7-2.75,10.46-2.75h19.25c1.9,0,3.44-1.54,3.44-3.44s-1.54-3.44-3.44-3.44Z"/></g></svg>
