<?xml version="1.0" encoding="UTF-8"?><svg id="Diseño" xmlns="http://www.w3.org/2000/svg" viewBox="0 0 300 300"><defs><style>.cls-1{fill:#b54227;}.cls-2{fill:#111110;}.cls-3{fill:#f28a31;}.cls-4{fill:#ef7912};</style></defs><g><path class="cls-1" d="M44.04,111.42C64.88,51.46,135.37,14.49,213.99,34.35c-3.43-1.56-19.08-8.73-22.71-9.99C127.69,2.26,47.62,33.52,22.52,103.94-.07,167.36,34.06,236.99,97.65,259.09c3.63,1.26,7.27,2.34,10.93,3.24C51.92,236.56,23.2,171.38,44.04,111.42Z"/><path class="cls-4" d="M152.84,38.22c68.51,2.35,106.66,50.7,113.28,109.89,5,44.73-13.95,89.74-47.82,117.11,38.79-15.15,71.11-75.35,65.53-125.37-7.07-63.27-65.49-113.61-130.98-101.63Z"/><path class="cls-3" d="M132.05,271.91c-32.83,0-62.94-11.62-86.45-30.98,22.36,26.21,55.63,42.83,92.78,42.83,57.77,0,106.15-40.18,118.71-94.12-20.86,48.39-69,82.27-125.04,82.27Z"/></g><path class="cls-2" d="M174.46,231.91c-.48-.46-.98-.91-1.48-1.35-6.9-5.96-15.49-9.55-24.52-10.31v-13.29c2.68-1.29,6.38-1.52,10.63-1.77,8.49-.51,19.07-1.14,28.05-10.95,11.55-12.62,14-35.44,11.46-41.22-.88-1.99-2.28-2.29-3.03-2.29s-1.45,.27-2.12,.81c-2.33,1.87-6.5,2.09-11.33,2.35-8.47,.46-19.01,1.02-27.68,10.5-2.38,2.6-4.36,5.59-5.97,8.74v-30.82c2.17-2.27,5.39-4.21,9.01-6.4,8.4-5.07,18.85-11.37,22.75-26.15,4.54-17.21-3.15-39.27-8.55-46.27-1.51-1.95-2.93-2.91-4.36-2.91-.62,0-2.15,.21-3,2.15-1.43,3.27-5.63,5.77-10.5,8.67-8.4,5-18.85,11.22-22.61,25.49-4.74,17.98,3.4,39,8.61,45.76,.14,.18,.27,.34,.41,.51v16.67c-1.54-5.72-4.44-11.6-10.68-16.71-9.47-7.75-23.79-10.5-33.16-10.5s-10.15,2.38-10.5,3.16c-.24,.54-.65,1.94,.67,3.41,2,2.22,2.45,6.37,2.98,11.18,.93,8.43,2.08,18.92,12.02,27.05,9.29,7.6,22.82,10.31,32.38,10.31,2.51,0,4.61-.17,6.29-.51v33.11c-8.66,.94-16.87,4.47-23.51,10.21-.51,.44-1,.89-1.48,1.35,0,0,26.33,21.93,59.25,0Zm-44.56-59.07c-.13-.13-.26-.25-.39-.38l-.19-.2-.05-.05h-.01s.08,.08,.03,.03l-.02-.02-.09-.08c-.25-.22-.5-.44-.75-.66-.53-.42-1.05-.86-1.62-1.27-2.25-1.66-4.89-3.19-7.72-4.67-2.82-1.49-5.81-2.97-8.59-4.69-1.39-.86-2.71-1.79-3.92-2.77-1.2-.99-2.28-2.06-3.15-3.16-.86-1.11-1.55-2.21-1.98-3.27-.12-.25-.21-.51-.3-.76-.09-.25-.17-.49-.24-.72-.11-.47-.22-.9-.28-1.29-.05-.4-.09-.76-.11-1.06-.02-.3,0-.55,0-.75,.02-.41,.03-.63,.03-.63,0,0,.12,.18,.35,.52,.12,.17,.24,.39,.41,.63,.17,.22,.36,.48,.57,.77,.23,.27,.48,.57,.76,.89,.32,.29,.59,.64,.96,.94,.68,.65,1.54,1.27,2.49,1.88,.96,.61,2.04,1.2,3.25,1.76,1.2,.57,2.52,1.13,3.91,1.71,2.78,1.16,5.89,2.41,8.98,4.03,1.54,.81,3.07,1.72,4.53,2.74,1.46,1.02,2.83,2.17,4.04,3.42,.61,.62,1.17,1.27,1.7,1.93,.25,.34,.5,.68,.74,1.01l.09,.12,.02,.03s.06,.08,.06,.07h0l.04,.07,.15,.23c.1,.15,.19,.31,.28,.47,.75,1.24,1.44,2.42,2.05,3.54,.3,.56,.6,1.09,.86,1.61,.26,.52,.51,1.02,.73,1.5,.44,.95,.81,1.79,1.1,2.49,.58,1.4,.85,2.25,.85,2.25,0,0-.74-.48-1.92-1.41-1.2-.92-2.78-2.31-4.68-3.99-.94-.85-1.94-1.79-2.97-2.8Zm15.25-36.7c.29-.87,.67-1.91,1.12-3.08,.46-1.17,.98-2.5,1.55-3.94,.58-1.44,1.24-2.98,1.96-4.59,.09-.2,.18-.41,.27-.61l.14-.31,.04-.08v-.02s-.05,.11-.02,.05v-.04l.07-.14c.15-.38,.29-.77,.44-1.16,.26-.8,.55-1.6,.78-2.45,.96-3.35,1.55-7.1,1.98-11.03,.45-3.92,.77-8,1.46-11.92,.34-1.96,.78-3.87,1.34-5.68,.56-1.81,1.27-3.5,2.1-4.97,.84-1.47,1.75-2.75,2.72-3.72,.23-.25,.47-.48,.71-.69,.24-.21,.47-.41,.69-.6,.48-.35,.9-.67,1.3-.93,.42-.25,.8-.46,1.12-.63,.32-.17,.61-.27,.84-.37,.46-.18,.71-.28,.71-.28,0,0-.16,.21-.46,.61-.15,.2-.36,.43-.56,.72-.19,.28-.41,.61-.66,.97-.22,.37-.46,.79-.72,1.24-.21,.48-.5,.94-.7,1.5-.11,.27-.22,.55-.34,.83-.1,.29-.2,.59-.3,.9-.11,.3-.18,.63-.27,.95-.1,.32-.18,.65-.25,1.01-.31,1.38-.54,2.89-.68,4.54-.15,1.64-.22,3.41-.29,5.27-.12,3.72-.19,7.82-.65,12.05-.24,2.11-.58,4.25-1.09,6.35-.5,2.1-1.18,4.16-2.04,6.08-.42,.96-.9,1.89-1.4,2.77-.27,.43-.53,.86-.79,1.29l-.1,.16-.02,.04-.05,.08v.02l-.06,.07-.2,.27c-.13,.18-.27,.36-.4,.54-1.05,1.43-2.07,2.76-3.04,3.97-.49,.6-.95,1.19-1.41,1.73-.46,.54-.91,1.05-1.34,1.53-.86,.95-1.62,1.76-2.27,2.42-1.29,1.32-2.09,2.03-2.09,2.03,0,0,.27-1.04,.86-2.77Zm15.17,53.11l.02-.02,.09-.08c.24-.22,.48-.44,.72-.66,.46-.47,.95-.93,1.41-1.44,1.86-2.01,3.63-4.42,5.38-7.02,1.76-2.59,3.52-5.34,5.5-7.85,.99-1.26,2.03-2.45,3.12-3.51,1.09-1.07,2.26-1.99,3.42-2.72,1.17-.72,2.32-1.27,3.39-1.57,.26-.09,.52-.15,.78-.21,.25-.06,.49-.11,.72-.15,.48-.06,.9-.11,1.29-.14,.4,0,.75,0,1.04,0,.29,0,.53,.06,.73,.08,.4,.06,.61,.09,.61,.09,0,0-.19,.1-.55,.28-.18,.09-.41,.19-.65,.33-.24,.14-.5,.3-.81,.48-.29,.19-.6,.41-.95,.64-.32,.28-.68,.5-1.02,.83-.7,.59-1.4,1.36-2.1,2.22-.7,.87-1.39,1.86-2.07,2.97-.69,1.11-1.37,2.33-2.08,3.62-1.43,2.58-2.98,5.47-4.89,8.3-.95,1.41-2,2.81-3.16,4.11-1.15,1.31-2.42,2.52-3.76,3.56-.67,.53-1.37,1-2.06,1.44-.36,.21-.71,.41-1.06,.61l-.13,.07-.03,.02s-.08,.05-.07,.05h-.02l-.06,.04-.24,.12c-.16,.08-.32,.15-.48,.23-1.28,.6-2.51,1.14-3.66,1.62-.58,.23-1.13,.46-1.66,.67-.54,.2-1.05,.38-1.54,.54-.97,.33-1.83,.6-2.55,.8-1.43,.41-2.28,.58-2.28,.58,0,0,.55-.67,1.58-1.72,1.02-1.07,2.55-2.46,4.39-4.13,.93-.82,1.95-1.69,3.05-2.59,.14-.11,.27-.23,.41-.34l.21-.17,.05-.04h.01s-.1,.06-.05,.02Z"/></svg>
