<svg width="61" height="60" viewBox="0 0 61 60" fill="none" xmlns="http://www.w3.org/2000/svg">
<g id="pest-observation_svgrepo.com" clip-path="url(#clip0_613_718)">
<g id="Group">
<g id="Group_2">
<path id="Vector" d="M58.9186 50.755L48.2083 40.07C48.1543 40.016 48.0907 39.9764 48.0343 39.938C47.0719 41.4176 45.9211 42.824 44.6227 44.1225C43.3254 45.4209 41.9166 46.5717 40.4214 47.5365C40.4742 47.5917 40.5138 47.6565 40.5678 47.7093L51.2564 58.4184C53.372 60.5304 56.8077 60.528 58.9162 58.4184C61.027 56.3063 61.0282 52.8694 58.9186 50.755Z" fill="black"/>
<path id="Vector_2" d="M43.0961 7.295C33.3663 -2.43239 17.538 -2.43239 7.80704 7.2974C-1.93355 17.0248 -1.93475 32.8651 7.79984 42.5961C17.5344 52.3223 33.3663 52.3223 43.0961 42.5949C52.8259 32.8651 52.8247 17.0236 43.0961 7.295ZM12.3863 38.0144C5.18259 30.8107 5.18499 19.0828 12.3887 11.8863C19.5925 4.68375 31.3131 4.68375 38.5145 11.8827C45.7134 19.0828 45.711 30.7975 38.5145 38.012C31.3119 45.193 19.5925 45.2194 12.3863 38.0144Z" fill="black"/>
<path id="Vector_3" d="M37.7344 29.5278L33.1779 25.0253H32.0103C31.9359 24.1601 31.8063 23.3153 31.5675 22.5436L34.6923 18.2968C35.0344 17.8299 34.9348 17.1723 34.4679 16.8291C33.9987 16.4859 33.3423 16.5855 32.9991 17.0523L30.5691 20.356C29.8514 19.156 28.9298 18.2008 27.8534 17.6271C27.9902 17.3439 28.0706 17.0331 28.0706 16.7055C28.0706 15.4143 26.8958 14.3655 25.445 14.3655C23.9929 14.3655 22.8181 15.4143 22.8181 16.7055C22.8181 17.0331 22.8985 17.3439 23.0353 17.6271C21.9601 18.2008 21.0397 19.156 20.3209 20.356L17.892 17.0523C17.5476 16.5855 16.8912 16.4847 16.422 16.8291C15.9552 17.1723 15.8544 17.8287 16.1976 18.2968L19.3224 22.5436C19.0836 23.3165 18.9528 24.1613 18.8796 25.0253H17.712L13.1567 29.5278C12.7439 29.9346 12.7391 30.6006 13.1483 31.0122C13.5551 31.4262 14.2199 31.431 14.6315 31.0206L18.5736 27.1241H18.8784C18.9528 27.9894 19.0824 28.8306 19.3212 29.6046L16.1964 33.8515C15.8532 34.3207 15.9528 34.9771 16.4208 35.3215C16.89 35.6623 17.5464 35.5651 17.8908 35.0971L20.3197 31.7934C21.5389 33.8323 23.3701 35.1619 25.445 35.1619C27.5198 35.1619 29.3498 33.8335 30.5691 31.7934L32.9991 35.0971C33.2043 35.3767 33.5223 35.5243 33.8451 35.5243C34.0623 35.5243 34.2783 35.4571 34.4679 35.3203C34.936 34.9759 35.0344 34.3195 34.6923 33.8503L31.5675 29.6034C31.8063 28.8306 31.9383 27.9894 32.0103 27.1229H32.3151L36.2572 31.0194C36.4624 31.2234 36.73 31.3242 36.9952 31.3242C37.2664 31.3242 37.5376 31.2186 37.7428 31.011C38.1508 30.5994 38.1472 29.9346 37.7344 29.5278Z" fill="black"/>
</g>
</g>
</g>
<defs>
<clipPath id="clip0_613_718">
<rect width="60" height="60" fill="white" transform="translate(0.5)"/>
</clipPath>
</defs>
</svg>
